999
dxflib 3.7.5.0
  0
SECTION
  2
HEADER
  9
$ACADVER
  1
AC1015
  9
$HANDSEED
  5
FFFF
  9
$ANGBASE
 50
0.0
  9
$ATTMODE
 70
1
  9
$AUNITS
 70
0
  9
$AUPREC
 70
0
  9
$CELTSCALE
 40
1.0
  9
$CHAMFERA
 40
0.0
  9
$CHAMFERB
 40
0.0
  9
$CHAMFERC
 40
0.0
  9
$CHAMFERD
 40
0.0
  9
$CMLJUST
 70
0
  9
$CMLSCALE
 40
1.0
  9
$DIMADEC
 70
0
  9
$DIMALTD
 70
2
  9
$DIMALTF
 40
25.399999999999999
  9
$DIMALTRND
 40
0.0
  9
$DIMALTTD
 70
2
  9
$DIMALTTZ
 70
0
  9
$DIMALTU
 70
2
  9
$DIMALTZ
 70
0
  9
$DIMAPOST
  1

  9
$DIMASZ
 40
2.5
  9
$DIMATFIT
 70
3
  9
$DIMAUNIT
 70
0
  9
$DIMAZIN
 70
2
  9
$DIMCEN
 40
0.09
  9
$DIMDEC
 70
4
  9
$DIMDLE
 40
0.0
  9
$DIMDLI
 40
0.38
  9
$DIMDSEP
 70
46
  9
$DIMEXE
 40
1.25
  9
$DIMEXO
 40
0.625
  9
$DIMFRAC
 70
0
  9
$DIMGAP
 40
0.625
  9
$DIMJUST
 70
0
  9
$DIMLFAC
 40
1.0
  9
$DIMLUNIT
 70
2
  9
$DIMLWD
 70
-2
  9
$DIMLWE
 70
-2
  9
$DIMPOST
  1

  9
$DIMRND
 40
0.0
  9
$DIMSCALE
 40
1.0
  9
$DIMTAD
 70
0
  9
$DIMTDEC
 70
4
  9
$DIMTFAC
 40
1.0
  9
$DIMTM
 40
0.0
  9
$DIMTOLJ
 70
1
  9
$DIMTP
 40
0.0
  9
$DIMTSZ
 40
0.0
  9
$DIMTVP
 40
0.0
  9
$DIMTXT
 40
2.5
  9
$DIMTZIN
 70
0
  9
$DIMZIN
 70
8
  9
$DWGCODEPAGE
  3
ANSI_1252
  9
$ELEVATION
 40
0.0
  9
$EXTMAX
 10
-100000000000000000000.0
 20
-100000000000000000000.0
 30
-100000000000000000000.0
  9
$EXTMIN
 10
100000000000000000000.0
 20
100000000000000000000.0
 30
100000000000000000000.0
  9
$FILLETRAD
 40
0.5
  9
$INSBASE
 10
0.0
 20
0.0
 30
0.0
  9
$INSUNITS
 70
4
  9
$LIMMAX
 10
12.0
 20
9.0
  9
$LIMMIN
 10
0.0
 20
0.0
  9
$LTSCALE
 40
1.0
  9
$LUNITS
 70
2
  9
$LUPREC
 70
4
  9
$MAXACTVP
 70
2
  9
$PDMODE
 70
0
  9
$PDSIZE
 40
0.0
  9
$PELEVATION
 40
0.0
  9
$PEXTMAX
 10
-100000000000000000000.0
 20
-100000000000000000000.0
 30
-100000000000000000000.0
  9
$PEXTMIN
 10
100000000000000000000.0
 20
100000000000000000000.0
 30
100000000000000000000.0
  9
$PINSBASE
 10
0.0
 20
0.0
 30
0.0
  9
$PLIMMAX
 10
12.0
 20
9.0
  9
$PLIMMIN
 10
0.0
 20
0.0
  9
$PLINEWID
 40
0.0
  9
$PROXYGRAPHICS
 70
1
  9
$PUCSORG
 10
0.0
 20
0.0
 30
0.0
  9
$PUCSXDIR
 10
1.0
 20
0.0
 30
0.0
  9
$PUCSYDIR
 10
0.0
 20
1.0
 30
0.0
  9
$SHADEDGE
 70
3
  9
$SHADEDIF
 70
70
  9
$SKETCHINC
 40
0.1
  9
$SPLINESEGS
 70
8
  9
$SPLINETYPE
 70
6
  9
$SURFTAB1
 70
6
  9
$SURFTAB2
 70
6
  9
$SURFTYPE
 70
6
  9
$SURFU
 70
6
  9
$SURFV
 70
6
  9
$TEXTSIZE
 40
2.5
  9
$THICKNESS
 40
0.0
  9
$TRACEWID
 40
0.05
  9
$TREEDEPTH
 70
3020
  9
$UCSORG
 10
0.0
 20
0.0
 30
0.0
  9
$UCSXDIR
 10
1.0
 20
0.0
 30
0.0
  9
$UCSYDIR
 10
0.0
 20
1.0
 30
0.0
  9
$UNITMODE
 70
0
  9
$USERI1
 70
0
  9
$USERI2
 70
0
  9
$USERI3
 70
0
  9
$USERI4
 70
0
  9
$USERI5
 70
0
  9
$USERR1
 40
0.0
  9
$USERR2
 40
0.0
  9
$USERR3
 40
0.0
  9
$USERR4
 40
0.0
  9
$USERR5
 40
0.0
  0
ENDSEC
  0
SECTION
  2
TABLES
  0
TABLE
  2
VPORT
  5
8
100
AcDbSymbolTable
 70
1
  0
VPORT
  5
30
100
AcDbSymbolTableRecord
100
AcDbViewportTableRecord
  2
*Active
 70
0
 10
0.0
 20
0.0
 11
1.0
 21
1.0
 12
286.30555555555549
 22
148.5
 13
0.0
 23
0.0
 14
10.0
 24
10.0
 15
10.0
 25
10.0
 16
0.0
 26
0.0
 36
1.0
 17
0.0
 27
0.0
 37
0.0
 40
297.0
 41
1.92798353909465
 42
50.0
 43
0.0
 44
0.0
 50
0.0
 51
0.0
 71
0
 72
100
 73
1
 74
3
 75
1
 76
1
 77
0
 78
0
281
0
 65
1
110
0.0
120
0.0
130
0.0
111
1.0
121
0.0
131
0.0
112
0.0
122
1.0
132
0.0
 79
0
146
0.0
  0
ENDTAB
  0
TABLE
  2
LTYPE
  5
5
100
AcDbSymbolTable
 70
41
  0
LTYPE
  5
16
100
AcDbSymbolTableRecord
100
AcDbLinetypeTableRecord
  2
Continuous
 70
0
  3
Solid line
 72
65
 73
0
 40
0.0
  0
LTYPE
  5
31
100
AcDbSymbolTableRecord
100
AcDbLinetypeTableRecord
  2
ACAD_ISO15W100
 70
0
  3
ISO double-dash triple-dot __ __ . . . __ __ . .
 72
65
 73
10
 40
39.0
 49
12.0
 74
0
 49
-3.0
 74
0
 49
12.0
 74
0
 49
-3.0
 74
0
 49
0.0
 74
0
 49
-3.0
 74
0
 49
0.0
 74
0
 49
-3.0
 74
0
 49
0.0
 74
0
 49
-3.0
 74
0
  0
LTYPE
  5
32
100
AcDbSymbolTableRecord
100
AcDbLinetypeTableRecord
  2
DIVIDE
 70
0
  3

 72
65
 73
6
 40
29.999999999999993
 49
12.0
 74
0
 49
-5.9000000000000004
 74
0
 49
0.15
 74
0
 49
-5.9000000000000004
 74
0
 49
0.15
 74
0
 49
-5.9000000000000004
 74
0
  0
LTYPE
  5
33
100
AcDbSymbolTableRecord
100
AcDbLinetypeTableRecord
  2
ACAD_ISO10W100
 70
0
  3
ISO dash dot __ . __ . __ . __ . __ . __ . __ . 
 72
65
 73
4
 40
18.0
 49
12.0
 74
0
 49
-3.0
 74
0
 49
0.0
 74
0
 49
-3.0
 74
0
  0
LTYPE
  5
34
100
AcDbSymbolTableRecord
100
AcDbLinetypeTableRecord
  2
ACAD_ISO04W100
 70
0
  3
ISO long-dash dot ____ . ____ . ____ . ____ . _
 72
65
 73
4
 40
30.0
 49
24.0
 74
0
 49
-3.0
 74
0
 49
0.0
 74
0
 49
-3.0
 74
0
  0
LTYPE
  5
14
100
AcDbSymbolTableRecord
100
AcDbLinetypeTableRecord
  2
ByBlock
 70
0
  3

 72
65
 73
0
 40
0.0
  0
LTYPE
  5
35
100
AcDbSymbolTableRecord
100
AcDbLinetypeTableRecord
  2
CENTER2
 70
0
  3

 72
65
 73
4
 40
25.0
 49
16.0
 74
0
 49
-3.0
 74
0
 49
3.0
 74
0
 49
-3.0
 74
0
  0
LTYPE
  5
36
100
AcDbSymbolTableRecord
100
AcDbLinetypeTableRecord
  2
ACAD_ISO11W100
 70
0
  3
ISO double-dash dot __ __ . __ __ . __ __ . __ _
 72
65
 73
6
 40
33.0
 49
12.0
 74
0
 49
-3.0
 74
0
 49
12.0
 74
0
 49
-3.0
 74
0
 49
0.0
 74
0
 49
-3.0
 74
0
  0
LTYPE
  5
37
100
AcDbSymbolTableRecord
100
AcDbLinetypeTableRecord
  2
HIDDEN2
 70
0
  3
Hidden (.5x) _ _ _ _ _ _ _ _ _ _ _ _ _ _ _ _ _ 
 72
65
 73
2
 40
4.7624999999999993
 49
3.1749999999999998
 74
0
 49
-1.5874999999999999
 74
0
  0
LTYPE
  5
38
100
AcDbSymbolTableRecord
100
AcDbLinetypeTableRecord
  2
BORDERX2
 70
0
  3

 72
65
 73
6
 40
84.0
 49
24.0
 74
0
 49
-12.0
 74
0
 49
24.0
 74
0
 49
-11.949999999999999
 74
0
 49
0.1
 74
0
 49
-11.949999999999999
 74
0
  0
LTYPE
  5
39
100
AcDbSymbolTableRecord
100
AcDbLinetypeTableRecord
  2
ACAD_ISO05W100
 70
0
  3
ISO long-dash double-dot ____ .. ____ .. ____ . 
 72
65
 73
6
 40
33.0
 49
24.0
 74
0
 49
-3.0
 74
0
 49
0.0
 74
0
 49
-3.0
 74
0
 49
0.0
 74
0
 49
-3.0
 74
0
  0
LTYPE
  5
3A
100
AcDbSymbolTableRecord
100
AcDbLinetypeTableRecord
  2
DASHDOTX2
 70
0
  3

 72
65
 73
4
 40
48.0
 49
24.0
 74
0
 49
-11.949999999999999
 74
0
 49
0.1
 74
0
 49
-11.949999999999999
 74
0
  0
LTYPE
  5
3B
100
AcDbSymbolTableRecord
100
AcDbLinetypeTableRecord
  2
HIDDENX2
 70
0
  3
Hidden (2x) ____ ____ ____ ____ ____ ____ ____ 
 72
65
 73
2
 40
19.049999999999997
 49
12.699999999999999
 74
0
 49
-6.3499999999999996
 74
0
  0
LTYPE
  5
3C
100
AcDbSymbolTableRecord
100
AcDbLinetypeTableRecord
  2
CENTERX2
 70
0
  3

 72
65
 73
4
 40
100.0
 49
64.0
 74
0
 49
-12.0
 74
0
 49
12.0
 74
0
 49
-12.0
 74
0
  0
LTYPE
  5
3D
100
AcDbSymbolTableRecord
100
AcDbLinetypeTableRecord
  2
BORDER2
 70
0
  3

 72
65
 73
6
 40
21.0
 49
6.0
 74
0
 49
-3.0
 74
0
 49
6.0
 74
0
 49
-2.9500000000000002
 74
0
 49
0.1
 74
0
 49
-2.9500000000000002
 74
0
  0
LTYPE
  5
3E
100
AcDbSymbolTableRecord
100
AcDbLinetypeTableRecord
  2
DASHDOT2
 70
0
  3

 72
65
 73
4
 40
12.0
 49
6.0
 74
0
 49
-2.9500000000000002
 74
0
 49
0.1
 74
0
 49
-2.9500000000000002
 74
0
  0
LTYPE
  5
3F
100
AcDbSymbolTableRecord
100
AcDbLinetypeTableRecord
  2
ACAD_ISO12W100
 70
0
  3
ISO dash double-dot __ . . __ . . __ . . __ . . 
 72
65
 73
6
 40
21.0
 49
12.0
 74
0
 49
-3.0
 74
0
 49
0.0
 74
0
 49
-3.0
 74
0
 49
0.0
 74
0
 49
-3.0
 74
0
  0
LTYPE
  5
40
100
AcDbSymbolTableRecord
100
AcDbLinetypeTableRecord
  2
ACAD_ISO07W100
 70
0
  3
ISO dot . . . . . . . . . . . . . . . . . . . . 
 72
65
 73
2
 40
3.0
 49
0.0
 74
0
 49
-3.0
 74
0
  0
LTYPE
  5
41
100
AcDbSymbolTableRecord
100
AcDbLinetypeTableRecord
  2
HIDDEN
 70
0
  3
Hidden __ __ __ __ __ __ __ __ __ __ __ __ __ __
 72
65
 73
2
 40
9.5249999999999986
 49
6.3499999999999996
 74
0
 49
-3.1749999999999998
 74
0
  0
LTYPE
  5
42
100
AcDbSymbolTableRecord
100
AcDbLinetypeTableRecord
  2
ACAD_ISO06W100
 70
0
  3
ISO long-dash triple-dot ____ ... ____ ... ____
 72
65
 73
8
 40
36.0
 49
24.0
 74
0
 49
-3.0
 74
0
 49
0.0
 74
0
 49
-3.0
 74
0
 49
0.0
 74
0
 49
-3.0
 74
0
 49
0.0
 74
0
 49
-3.0
 74
0
  0
LTYPE
  5
43
100
AcDbSymbolTableRecord
100
AcDbLinetypeTableRecord
  2
CENTER
 70
0
  3

 72
65
 73
4
 40
50.0
 49
32.0
 74
0
 49
-6.0
 74
0
 49
6.0
 74
0
 49
-6.0
 74
0
  0
LTYPE
  5
44
100
AcDbSymbolTableRecord
100
AcDbLinetypeTableRecord
  2
DOTX2
 70
0
  3

 72
65
 73
2
 40
12.5
 49
0.1
 74
0
 49
-12.4
 74
0
  0
LTYPE
  5
45
100
AcDbSymbolTableRecord
100
AcDbLinetypeTableRecord
  2
PHANTOM
 70
0
  3
Phantom ______  __  __  ______  __  __  ______ 
 72
65
 73
6
 40
63.500000000000007
 49
31.75
 74
0
 49
-6.3499999999999996
 74
0
 49
6.3499999999999996
 74
0
 49
-6.3499999999999996
 74
0
 49
6.3499999999999996
 74
0
 49
-6.3499999999999996
 74
0
  0
LTYPE
  5
46
100
AcDbSymbolTableRecord
100
AcDbLinetypeTableRecord
  2
ACAD_ISO08W100
 70
0
  3
ISO long-dash short-dash ____ __ ____ __ ____ _
 72
65
 73
4
 40
36.0
 49
24.0
 74
0
 49
-3.0
 74
0
 49
6.0
 74
0
 49
-3.0
 74
0
  0
LTYPE
  5
47
100
AcDbSymbolTableRecord
100
AcDbLinetypeTableRecord
  2
DASHEDX2
 70
0
  3

 72
65
 73
2
 40
36.0
 49
24.0
 74
0
 49
-12.0
 74
0
  0
LTYPE
  5
48
100
AcDbSymbolTableRecord
100
AcDbLinetypeTableRecord
  2
ACAD_ISO02W100
 70
0
  3
ISO dash __ __ __ __ __ __ __ __ __ __ __ __ __
 72
65
 73
2
 40
15.0
 49
12.0
 74
0
 49
-3.0
 74
0
  0
LTYPE
  5
49
100
AcDbSymbolTableRecord
100
AcDbLinetypeTableRecord
  2
PHANTOM2
 70
0
  3
Phantom (.5x) ___ _ _ ___ _ _ ___ _ _ ___ _ _
 72
65
 73
6
 40
31.750000000000004
 49
15.875
 74
0
 49
-3.1749999999999998
 74
0
 49
3.1749999999999998
 74
0
 49
-3.1749999999999998
 74
0
 49
3.1749999999999998
 74
0
 49
-3.1749999999999998
 74
0
  0
LTYPE
  5
4A
100
AcDbSymbolTableRecord
100
AcDbLinetypeTableRecord
  2
DASHED2
 70
0
  3

 72
65
 73
2
 40
9.0
 49
6.0
 74
0
 49
-3.0
 74
0
  0
LTYPE
  5
4B
100
AcDbSymbolTableRecord
100
AcDbLinetypeTableRecord
  2
ACAD_ISO09W100
 70
0
  3
ISO long-dash double-short-dash ____ __ __ ____
 72
65
 73
6
 40
45.0
 49
24.0
 74
0
 49
-3.0
 74
0
 49
6.0
 74
0
 49
-3.0
 74
0
 49
6.0
 74
0
 49
-3.0
 74
0
  0
LTYPE
  5
4C
100
AcDbSymbolTableRecord
100
AcDbLinetypeTableRecord
  2
ACAD_ISO13W100
 70
0
  3
ISO double-dash double-dot __ __ . . __ __ . . _
 72
65
 73
8
 40
36.0
 49
12.0
 74
0
 49
-3.0
 74
0
 49
12.0
 74
0
 49
-3.0
 74
0
 49
0.0
 74
0
 49
-3.0
 74
0
 49
0.0
 74
0
 49
-3.0
 74
0
  0
LTYPE
  5
4D
100
AcDbSymbolTableRecord
100
AcDbLinetypeTableRecord
  2
DOT2
 70
0
  3

 72
65
 73
2
 40
3.2000000000000002
 49
0.1
 74
0
 49
-3.1000000000000001
 74
0
  0
LTYPE
  5
4E
100
AcDbSymbolTableRecord
100
AcDbLinetypeTableRecord
  2
DASHED
 70
0
  3

 72
65
 73
2
 40
18.0
 49
12.0
 74
0
 49
-6.0
 74
0
  0
LTYPE
  5
4F
100
AcDbSymbolTableRecord
100
AcDbLinetypeTableRecord
  2
ACAD_ISO14W100
 70
0
  3
ISO dash triple-dot __ . . . __ . . . __ . . . _
 72
65
 73
8
 40
24.0
 49
12.0
 74
0
 49
-3.0
 74
0
 49
0.0
 74
0
 49
-3.0
 74
0
 49
0.0
 74
0
 49
-3.0
 74
0
 49
0.0
 74
0
 49
-3.0
 74
0
  0
LTYPE
  5
50
100
AcDbSymbolTableRecord
100
AcDbLinetypeTableRecord
  2
PHANTOMX2
 70
0
  3
Phantom (2x) ____________    ____    ____   _
 72
65
 73
6
 40
127.00000000000001
 49
63.5
 74
0
 49
-12.699999999999999
 74
0
 49
12.699999999999999
 74
0
 49
-12.699999999999999
 74
0
 49
12.699999999999999
 74
0
 49
-12.699999999999999
 74
0
  0
LTYPE
  5
51
100
AcDbSymbolTableRecord
100
AcDbLinetypeTableRecord
  2
DIVIDEX2
 70
0
  3

 72
65
 73
6
 40
59.999999999999993
 49
24.0
 74
0
 49
-11.9
 74
0
 49
0.15
 74
0
 49
-11.9
 74
0
 49
0.15
 74
0
 49
-11.9
 74
0
  0
LTYPE
  5
52
100
AcDbSymbolTableRecord
100
AcDbLinetypeTableRecord
  2
BORDER
 70
0
  3

 72
65
 73
6
 40
42.000000000000007
 49
12.0
 74
0
 49
-6.0
 74
0
 49
12.0
 74
0
 49
-5.9500000000000002
 74
0
 49
0.1
 74
0
 49
-5.9500000000000002
 74
0
  0
LTYPE
  5
53
100
AcDbSymbolTableRecord
100
AcDbLinetypeTableRecord
  2
DIVIDE2
 70
0
  3

 72
65
 73
6
 40
15.000000000000002
 49
6.0
 74
0
 49
-2.8999999999999999
 74
0
 49
0.15
 74
0
 49
-2.8999999999999999
 74
0
 49
0.15
 74
0
 49
-2.8999999999999999
 74
0
  0
LTYPE
  5
54
100
AcDbSymbolTableRecord
100
AcDbLinetypeTableRecord
  2
DOT
 70
0
  3

 72
65
 73
2
 40
6.2999999999999998
 49
0.1
 74
0
 49
-6.2000000000000002
 74
0
  0
LTYPE
  5
55
100
AcDbSymbolTableRecord
100
AcDbLinetypeTableRecord
  2
DASHDOT
 70
0
  3

 72
65
 73
4
 40
24.0
 49
12.0
 74
0
 49
-5.9500000000000002
 74
0
 49
0.1
 74
0
 49
-5.9500000000000002
 74
0
  0
LTYPE
  5
56
100
AcDbSymbolTableRecord
100
AcDbLinetypeTableRecord
  2
ACAD_ISO03W100
 70
0
  3
ISO dash space __    __    __    __    __    __
 72
65
 73
2
 40
30.0
 49
12.0
 74
0
 49
-18.0
 74
0
  0
LTYPE
  5
15
100
AcDbSymbolTableRecord
100
AcDbLinetypeTableRecord
  2
ByLayer
 70
0
  3

 72
65
 73
0
 40
0.0
  0
ENDTAB
  0
TABLE
  2
LAYER
  5
2
100
AcDbSymbolTable
 70
3
  0
LAYER
  5
57
100
AcDbSymbolTableRecord
100
AcDbLayerTableRecord
  2
connector cutout
 70
0
 62
1
420
16711680
  6
Continuous
370
-3
390
F
  0
LAYER
  5
10
100
AcDbSymbolTableRecord
100
AcDbLayerTableRecord
  2
0
 70
0
 62
7
420
16777215
  6
Continuous
370
-3
390
F
  0
LAYER
  5
58
100
AcDbSymbolTableRecord
100
AcDbLayerTableRecord
  2
text
 70
0
 62
2
420
16776960
  6
Continuous
370
-3
390
F
  0
ENDTAB
  0
TABLE
  2
STYLE
  5
3
100
AcDbSymbolTable
 70
1
  0
STYLE
  5
59
100
AcDbSymbolTableRecord
100
AcDbTextStyleTableRecord
  2
Standard
 70
0
 40
0.0
 41
1.0
 50
0.0
 71
0
 42
2.5
  3

  4

1001
ACAD
1000
txt
1071
0
  0
ENDTAB
  0
TABLE
  2
VIEW
  5
6
100
AcDbSymbolTable
 70
0
  0
ENDTAB
  0
TABLE
  2
UCS
  5
7
100
AcDbSymbolTable
 70
0
  0
ENDTAB
  0
TABLE
  2
APPID
  5
9
100
AcDbSymbolTable
 70
1
  0
APPID
  5
12
100
AcDbSymbolTableRecord
100
AcDbRegAppTableRecord
  2
ACAD
 70
0
  0
APPID
  5
5A
100
AcDbSymbolTableRecord
100
AcDbRegAppTableRecord
  2
QCAD
 70
0
  0
ENDTAB
  0
TABLE
  2
DIMSTYLE
  5
A
100
AcDbSymbolTable
 70
1
100
AcDbDimStyleTable
 71
0
  0
DIMSTYLE
105
27
100
AcDbSymbolTableRecord
100
AcDbDimStyleTableRecord
  2
Standard
 41
2.5
 42
0.625
 43
3.75
 44
1.25
 70
0
 73
0
 74
0
 77
1
 78
8
140
2.5
141
2.5
143
0.03937007874016
147
0.625
171
3
172
1
271
2
272
2
274
3
278
44
283
0
284
8
340
59
  0
ENDTAB
  0
TABLE
  2
BLOCK_RECORD
  5
1
100
AcDbSymbolTable
 70
1
  0
BLOCK_RECORD
  5
1F
100
AcDbSymbolTableRecord
100
AcDbBlockTableRecord
  2
*Model_Space
340
22
  0
BLOCK_RECORD
  5
1B
100
AcDbSymbolTableRecord
100
AcDbBlockTableRecord
  2
*Paper_Space
340
1E
  0
BLOCK_RECORD
  5
23
100
AcDbSymbolTableRecord
100
AcDbBlockTableRecord
  2
*Paper_Space0
340
26
  0
BLOCK_RECORD
  5
5B
100
AcDbSymbolTableRecord
100
AcDbBlockTableRecord
  2
block 1
340
0
  0
BLOCK_RECORD
  5
5C
100
AcDbSymbolTableRecord
100
AcDbBlockTableRecord
  2
reset
340
0
  0
BLOCK_RECORD
  5
5D
100
AcDbSymbolTableRecord
100
AcDbBlockTableRecord
  2
ethernet
340
0
  0
ENDTAB
  0
ENDSEC
  0
SECTION
  2
BLOCKS
  0
BLOCK
  5
20
100
AcDbEntity
  8
0
100
AcDbBlockBegin
  2
*Model_Space
 70
0
 10
0.0
 20
0.0
 30
0.0
  3
*Model_Space
  1

  0
ENDBLK
  5
21
100
AcDbEntity
  8
0
100
AcDbBlockEnd
  0
BLOCK
  5
1C
100
AcDbEntity
 67
1
  8
0
100
AcDbBlockBegin
  2
*Paper_Space
 70
0
 10
0.0
 20
0.0
 30
0.0
  3
*Paper_Space
  1

  0
ENDBLK
  5
1D
100
AcDbEntity
 67
1
  8
0
100
AcDbBlockEnd
  0
BLOCK
  5
24
100
AcDbEntity
  8
0
100
AcDbBlockBegin
  2
*Paper_Space0
 70
0
 10
0.0
 20
0.0
 30
0.0
  3
*Paper_Space0
  1

  0
ENDBLK
  5
25
100
AcDbEntity
  8
0
100
AcDbBlockEnd
  0
BLOCK
  5
5E
100
AcDbEntity
  8
0
100
AcDbBlockBegin
  2
block 1
 70
0
 10
0.0
 20
0.0
 30
0.0
  3
block 1
  1

  0
LINE
  5
5F
100
AcDbEntity
100
AcDbLine
  8
0
 62
256
370
-1
 48
1.0
  6
ByLayer
 10
-2.8999999999999999
 20
-24.899999999999991
 30
0.0
 11
0.0
 21
-24.899999999999991
 31
0.0
  0
LINE
  5
60
100
AcDbEntity
100
AcDbLine
  8
0
 62
256
370
-1
 48
1.0
  6
ByLayer
 10
0.0
 20
-24.899999999999991
 30
0.0
 11
0.0
 21
-15.89999999999999
 31
0.0
  0
LINE
  5
61
100
AcDbEntity
100
AcDbLine
  8
0
 62
256
370
-1
 48
1.0
  6
ByLayer
 10
0.0
 20
-15.89999999999999
 30
0.0
 11
-2.8999999999999999
 21
-15.89999999999999
 31
0.0
  0
LINE
  5
62
100
AcDbEntity
100
AcDbLine
  8
0
 62
256
370
-1
 48
1.0
  6
ByLayer
 10
-2.8999999999999999
 20
-15.89999999999999
 30
0.0
 11
-2.8999999999999999
 21
-24.899999999999991
 31
0.0
  0
LINE
  5
63
100
AcDbEntity
100
AcDbLine
  8
0
 62
256
370
-1
 48
1.0
  6
ByLayer
 10
-2.8999999999999999
 20
0.0
 30
0.0
 11
0.0
 21
0.0
 31
0.0
  0
LINE
  5
64
100
AcDbEntity
100
AcDbLine
  8
0
 62
256
370
-1
 48
1.0
  6
ByLayer
 10
0.0
 20
0.0
 30
0.0
 11
0.0
 21
8.0
 31
0.0
  0
LINE
  5
65
100
AcDbEntity
100
AcDbLine
  8
0
 62
256
370
-1
 48
1.0
  6
ByLayer
 10
0.0
 20
8.0
 30
0.0
 11
-2.8999999999999999
 21
8.0
 31
0.0
  0
LINE
  5
66
100
AcDbEntity
100
AcDbLine
  8
0
 62
256
370
-1
 48
1.0
  6
ByLayer
 10
-2.8999999999999999
 20
8.0
 30
0.0
 11
-2.8999999999999999
 21
0.0
 31
0.0
  0
LINE
  5
67
100
AcDbEntity
100
AcDbLine
  8
0
 62
256
370
-1
 48
1.0
  6
ByLayer
 10
55.200000000000003
 20
-24.899999999999991
 30
0.0
 11
58.099999999999987
 21
-24.899999999999991
 31
0.0
  0
LINE
  5
68
100
AcDbEntity
100
AcDbLine
  8
0
 62
256
370
-1
 48
1.0
  6
ByLayer
 10
58.099999999999987
 20
-24.899999999999991
 30
0.0
 11
58.099999999999987
 21
-15.89999999999999
 31
0.0
  0
LINE
  5
69
100
AcDbEntity
100
AcDbLine
  8
0
 62
256
370
-1
 48
1.0
  6
ByLayer
 10
58.099999999999987
 20
-15.89999999999999
 30
0.0
 11
55.200000000000003
 21
-15.89999999999999
 31
0.0
  0
LINE
  5
6A
100
AcDbEntity
100
AcDbLine
  8
0
 62
256
370
-1
 48
1.0
  6
ByLayer
 10
55.200000000000003
 20
-15.89999999999999
 30
0.0
 11
55.200000000000003
 21
-24.899999999999991
 31
0.0
  0
LINE
  5
6B
100
AcDbEntity
100
AcDbLine
  8
0
 62
256
370
-1
 48
1.0
  6
ByLayer
 10
55.200000000000003
 20
0.0
 30
0.0
 11
58.099999999999987
 21
0.0
 31
0.0
  0
LINE
  5
6C
100
AcDbEntity
100
AcDbLine
  8
0
 62
256
370
-1
 48
1.0
  6
ByLayer
 10
58.099999999999987
 20
0.0
 30
0.0
 11
58.099999999999987
 21
8.0
 31
0.0
  0
LINE
  5
6D
100
AcDbEntity
100
AcDbLine
  8
0
 62
256
370
-1
 48
1.0
  6
ByLayer
 10
58.099999999999987
 20
8.0
 30
0.0
 11
55.200000000000003
 21
8.0
 31
0.0
  0
LINE
  5
6E
100
AcDbEntity
100
AcDbLine
  8
0
 62
256
370
-1
 48
1.0
  6
ByLayer
 10
55.200000000000003
 20
8.0
 30
0.0
 11
55.200000000000003
 21
0.0
 31
0.0
  0
ARC
  5
6F
100
AcDbEntity
  8
0
 62
256
370
-1
 48
1.0
  6
ByLayer
100
AcDbCircle
 10
59.200000000000003
 20
-25.899999999999991
 30
0.0
 40
2.0
100
AcDbArc
 50
270.0
 51
0.0
  0
ARC
  5
70
100
AcDbEntity
  8
0
 62
256
370
-1
 48
1.0
  6
ByLayer
100
AcDbCircle
 10
59.200000000000003
 20
9.0999999999999943
 30
0.0
 40
2.0
100
AcDbArc
 50
0.0
 51
90.0
  0
ARC
  5
71
100
AcDbEntity
  8
0
 62
256
370
-1
 48
1.0
  6
ByLayer
100
AcDbCircle
 10
-4.0
 20
9.0999999999999943
 30
0.0
 40
2.0
100
AcDbArc
 50
90.0
 51
180.0
  0
ARC
  5
72
100
AcDbEntity
  8
0
 62
256
370
-1
 48
1.0
  6
ByLayer
100
AcDbCircle
 10
-4.0
 20
-25.899999999999991
 30
0.0
 40
2.0
100
AcDbArc
 50
180.0
 51
270.0
  0
LINE
  5
73
100
AcDbEntity
100
AcDbLine
  8
0
 62
256
370
-1
 48
1.0
  6
ByLayer
 10
-6.0
 20
9.0999999999999943
 30
0.0
 11
-6.0
 21
-25.899999999999991
 31
0.0
  0
LINE
  5
74
100
AcDbEntity
100
AcDbLine
  8
0
 62
256
370
-1
 48
1.0
  6
ByLayer
 10
-4.0
 20
-27.899999999999991
 30
0.0
 11
59.200000000000017
 21
-27.899999999999991
 31
0.0
  0
LINE
  5
75
100
AcDbEntity
100
AcDbLine
  8
0
 62
256
370
-1
 48
1.0
  6
ByLayer
 10
61.200000000000003
 20
-25.899999999999991
 30
0.0
 11
61.200000000000003
 21
9.0999999999999943
 31
0.0
  0
LINE
  5
76
100
AcDbEntity
100
AcDbLine
  8
0
 62
256
370
-1
 48
1.0
  6
ByLayer
 10
59.200000000000003
 20
11.099999999999991
 30
0.0
 11
-4.0
 21
11.099999999999991
 31
0.0
  0
LINE
  5
77
100
AcDbEntity
100
AcDbLine
  8
0
 62
256
370
-1
 48
1.0
  6
ByLayer
 10
133.5
 20
-24.899999999999991
 30
0.0
 11
145.5
 21
-24.899999999999991
 31
0.0
  0
LINE
  5
78
100
AcDbEntity
100
AcDbLine
  8
0
 62
256
370
-1
 48
1.0
  6
ByLayer
 10
145.5
 20
-24.899999999999991
 30
0.0
 11
145.5
 21
-21.899999999999991
 31
0.0
  0
LINE
  5
79
100
AcDbEntity
100
AcDbLine
  8
0
 62
256
370
-1
 48
1.0
  6
ByLayer
 10
145.5
 20
-21.899999999999991
 30
0.0
 11
133.5
 21
-21.899999999999991
 31
0.0
  0
LINE
  5
7A
100
AcDbEntity
100
AcDbLine
  8
0
 62
256
370
-1
 48
1.0
  6
ByLayer
 10
133.5
 20
-21.899999999999991
 30
0.0
 11
133.5
 21
-24.899999999999991
 31
0.0
  0
LINE
  5
7B
100
AcDbEntity
100
AcDbLine
  8
0
 62
256
370
-1
 48
1.0
  6
ByLayer
 10
97.5
 20
-24.899999999999991
 30
0.0
 11
109.5
 21
-24.899999999999991
 31
0.0
  0
LINE
  5
7C
100
AcDbEntity
100
AcDbLine
  8
0
 62
256
370
-1
 48
1.0
  6
ByLayer
 10
109.5
 20
-24.899999999999991
 30
0.0
 11
109.5
 21
-21.899999999999991
 31
0.0
  0
LINE
  5
7D
100
AcDbEntity
100
AcDbLine
  8
0
 62
256
370
-1
 48
1.0
  6
ByLayer
 10
109.5
 20
-21.899999999999991
 30
0.0
 11
97.5
 21
-21.899999999999991
 31
0.0
  0
LINE
  5
7E
100
AcDbEntity
100
AcDbLine
  8
0
 62
256
370
-1
 48
1.0
  6
ByLayer
 10
97.5
 20
-21.899999999999991
 30
0.0
 11
97.5
 21
-24.899999999999991
 31
0.0
  0
LINE
  5
7F
100
AcDbEntity
100
AcDbLine
  8
0
 62
256
370
-1
 48
1.0
  6
ByLayer
 10
133.5
 20
5.0999999999999943
 30
0.0
 11
145.5
 21
5.0999999999999943
 31
0.0
  0
LINE
  5
80
100
AcDbEntity
100
AcDbLine
  8
0
 62
256
370
-1
 48
1.0
  6
ByLayer
 10
145.5
 20
5.0999999999999943
 30
0.0
 11
145.5
 21
8.0999999999999943
 31
0.0
  0
LINE
  5
81
100
AcDbEntity
100
AcDbLine
  8
0
 62
256
370
-1
 48
1.0
  6
ByLayer
 10
145.5
 20
8.0999999999999943
 30
0.0
 11
133.5
 21
8.0999999999999943
 31
0.0
  0
LINE
  5
82
100
AcDbEntity
100
AcDbLine
  8
0
 62
256
370
-1
 48
1.0
  6
ByLayer
 10
133.5
 20
8.0999999999999943
 30
0.0
 11
133.5
 21
5.0999999999999943
 31
0.0
  0
LINE
  5
83
100
AcDbEntity
100
AcDbLine
  8
0
 62
256
370
-1
 48
1.0
  6
ByLayer
 10
97.5
 20
5.0999999999999943
 30
0.0
 11
109.5
 21
5.0999999999999943
 31
0.0
  0
LINE
  5
84
100
AcDbEntity
100
AcDbLine
  8
0
 62
256
370
-1
 48
1.0
  6
ByLayer
 10
109.5
 20
5.0999999999999943
 30
0.0
 11
109.5
 21
8.0999999999999943
 31
0.0
  0
LINE
  5
85
100
AcDbEntity
100
AcDbLine
  8
0
 62
256
370
-1
 48
1.0
  6
ByLayer
 10
109.5
 20
8.0999999999999943
 30
0.0
 11
97.5
 21
8.0999999999999943
 31
0.0
  0
LINE
  5
86
100
AcDbEntity
100
AcDbLine
  8
0
 62
256
370
-1
 48
1.0
  6
ByLayer
 10
97.5
 20
8.0999999999999943
 30
0.0
 11
97.5
 21
5.0999999999999943
 31
0.0
  0
LINE
  5
87
100
AcDbEntity
100
AcDbLine
  8
0
 62
256
370
-1
 48
1.0
  6
ByLayer
 10
165.0
 20
-24.899999999999991
 30
0.0
 11
168.0
 21
-24.899999999999991
 31
0.0
  0
LINE
  5
88
100
AcDbEntity
100
AcDbLine
  8
0
 62
256
370
-1
 48
1.0
  6
ByLayer
 10
165.0
 20
-16.899999999999991
 30
0.0
 11
168.0
 21
-16.899999999999991
 31
0.0
  0
LINE
  5
89
100
AcDbEntity
100
AcDbLine
  8
0
 62
256
370
-1
 48
1.0
  6
ByLayer
 10
165.0
 20
8.0999999999999943
 30
0.0
 11
168.0
 21
8.0999999999999943
 31
0.0
  0
LINE
  5
8A
100
AcDbEntity
100
AcDbLine
  8
0
 62
256
370
-1
 48
1.0
  6
ByLayer
 10
165.0
 20
0.0999999999999943
 30
0.0
 11
168.0
 21
0.0999999999999943
 31
0.0
  0
LINE
  5
8B
100
AcDbEntity
100
AcDbLine
  8
0
 62
256
370
-1
 48
1.0
  6
ByLayer
 10
75.0
 20
-24.899999999999991
 30
0.0
 11
75.0
 21
-24.899999999999991
 31
0.0
  0
LINE
  5
8C
100
AcDbEntity
100
AcDbLine
  8
0
 62
256
370
-1
 48
1.0
  6
ByLayer
 10
168.0
 20
-16.899999999999991
 30
0.0
 11
168.0
 21
-16.899999999999991
 31
0.0
  0
LINE
  5
8D
100
AcDbEntity
100
AcDbLine
  8
0
 62
256
370
-1
 48
1.0
  6
ByLayer
 10
75.0
 20
-24.899999999999991
 30
0.0
 11
75.0
 21
-25.849489742783192
 31
0.0
  0
LINE
  5
8E
100
AcDbEntity
100
AcDbLine
  8
0
 62
256
370
-1
 48
1.0
  6
ByLayer
 10
75.0
 20
-24.899999999999991
 30
0.0
 11
78.0
 21
-24.899999999999991
 31
0.0
  0
ARC
  5
8F
100
AcDbEntity
  8
0
 62
256
370
-1
 48
1.0
  6
ByLayer
100
AcDbCircle
 10
75.0
 20
-23.399999999999991
 30
0.0
 40
3.0
100
AcDbArc
 50
180.0
 51
258.49057003786311
  0
ARC
  5
90
100
AcDbEntity
  8
0
 62
256
370
-1
 48
1.0
  6
ByLayer
100
AcDbCircle
 10
79.0
 20
-26.899999999999991
 30
0.0
 40
1.0
100
AcDbArc
 50
180.0
 51
270.0
  0
LINE
  5
91
100
AcDbEntity
100
AcDbLine
  8
0
 62
256
370
-1
 48
1.0
  6
ByLayer
 10
79.0
 20
-27.899999999999991
 30
0.0
 11
164.0
 21
-27.899999999999991
 31
0.0
  0
LINE
  5
92
100
AcDbEntity
100
AcDbLine
  8
0
 62
256
370
-1
 48
1.0
  6
ByLayer
 10
78.0
 20
-26.899999999999991
 30
0.0
 11
78.0
 21
-24.899999999999991
 31
0.0
  0
LINE
  5
93
100
AcDbEntity
100
AcDbLine
  8
0
 62
256
370
-1
 48
1.0
  6
ByLayer
 10
78.0
 20
-16.899999999999991
 30
0.0
 11
78.0
 21
0.0999999999999943
 31
0.0
  0
ARC
  5
94
100
AcDbEntity
  8
0
 62
256
370
-1
 48
1.0
  6
ByLayer
100
AcDbCircle
 10
75.0
 20
-19.899999999999991
 30
0.0
 40
3.0
100
AcDbArc
 50
90.0
 51
180.0
  0
LINE
  5
95
100
AcDbEntity
100
AcDbLine
  8
0
 62
256
370
-1
 48
1.0
  6
ByLayer
 10
72.0
 20
-19.899999999999991
 30
0.0
 11
72.0
 21
-23.399999999999991
 31
0.0
  0
LINE
  5
96
100
AcDbEntity
100
AcDbLine
  8
0
 62
256
370
-1
 48
1.0
  6
ByLayer
 10
75.0
 20
-16.899999999999991
 30
0.0
 11
78.0
 21
-16.899999999999991
 31
0.0
  0
LINE
  5
97
100
AcDbEntity
100
AcDbLine
  8
0
 62
256
370
-1
 48
1.0
  6
ByLayer
 10
168.0
 20
-24.899999999999991
 30
0.0
 11
168.0
 21
-25.849489742783192
 31
0.0
  0
LINE
  5
98
100
AcDbEntity
100
AcDbLine
  8
0
 62
256
370
-1
 48
1.0
  6
ByLayer
 10
168.0
 20
-24.899999999999991
 30
0.0
 11
168.0
 21
-24.899999999999991
 31
0.0
  0
ARC
  5
99
100
AcDbEntity
  8
0
 62
256
370
-1
 48
1.0
  6
ByLayer
100
AcDbCircle
 10
168.0
 20
-19.899999999999991
 30
0.0
 40
3.0
100
AcDbArc
 50
0.0
 51
90.0
  0
LINE
  5
9A
100
AcDbEntity
100
AcDbLine
  8
0
 62
256
370
-1
 48
1.0
  6
ByLayer
 10
171.0
 20
-23.399999999999991
 30
0.0
 11
171.0
 21
-19.899999999999991
 31
0.0
  0
LINE
  5
9B
100
AcDbEntity
100
AcDbLine
  8
0
 62
256
370
-1
 48
1.0
  6
ByLayer
 10
165.0
 20
-16.899999999999991
 30
0.0
 11
165.0
 21
0.0999999999999943
 31
0.0
  0
LINE
  5
9C
100
AcDbEntity
100
AcDbLine
  8
0
 62
256
370
-1
 48
1.0
  6
ByLayer
 10
75.0
 20
8.0999999999999943
 30
0.0
 11
75.0
 21
9.5999999999999943
 31
0.0
  0
ARC
  5
9D
100
AcDbEntity
  8
0
 62
256
370
-1
 48
1.0
  6
ByLayer
100
AcDbCircle
 10
75.0
 20
3.0999999999999939
 30
0.0
 40
3.0
100
AcDbArc
 50
180.0
 51
270.0
  0
ARC
  5
9E
100
AcDbEntity
  8
0
 62
256
370
-1
 48
1.0
  6
ByLayer
100
AcDbCircle
 10
75.0
 20
6.5999999999999943
 30
0.0
 40
3.0
100
AcDbArc
 50
90.0
 51
180.0
  0
LINE
  5
9F
100
AcDbEntity
100
AcDbLine
  8
0
 62
256
370
-1
 48
1.0
  6
ByLayer
 10
75.0
 20
8.0999999999999943
 30
0.0
 11
78.0
 21
8.0999999999999943
 31
0.0
  0
LINE
  5
A0
100
AcDbEntity
100
AcDbLine
  8
0
 62
256
370
-1
 48
1.0
  6
ByLayer
 10
72.0
 20
6.5999999999999943
 30
0.0
 11
72.0
 21
5.5999999999999943
 31
0.0
  0
LINE
  5
A1
100
AcDbEntity
100
AcDbLine
  8
0
 62
256
370
-1
 48
1.0
  6
ByLayer
 10
75.0
 20
0.0999999999999943
 30
0.0
 11
78.0
 21
0.0999999999999943
 31
0.0
  0
LINE
  5
A2
100
AcDbEntity
100
AcDbLine
  8
0
 62
256
370
-1
 48
1.0
  6
ByLayer
 10
78.0
 20
11.099999999999991
 30
0.0
 11
78.0
 21
11.099999999999991
 31
0.0
  0
LINE
  5
A3
100
AcDbEntity
100
AcDbLine
  8
0
 62
256
370
-1
 48
1.0
  6
ByLayer
 10
78.0
 20
8.0999999999999943
 30
0.0
 11
78.0
 21
10.099999999999991
 31
0.0
  0
LINE
  5
A4
100
AcDbEntity
100
AcDbLine
  8
0
 62
256
370
-1
 48
1.0
  6
ByLayer
 10
72.0
 20
4.0999999999999943
 30
0.0
 11
78.0
 21
4.0999999999999943
 31
0.0
  0
LINE
  5
A5
100
AcDbEntity
100
AcDbLine
  8
0
 62
256
370
-1
 48
1.0
  6
ByLayer
 10
72.0
 20
5.5999999999999943
 30
0.0
 11
78.0
 21
5.5999999999999943
 31
0.0
  0
ARC
  5
A6
100
AcDbEntity
  8
0
 62
256
370
-1
 48
1.0
  6
ByLayer
100
AcDbCircle
 10
74.660852073818972
 20
53.988376312795403
 30
0.0
 40
50.0
100
AcDbArc
 50
273.82923164416468
 51
283.4020647241631
  0
ARC
  5
A7
100
AcDbEntity
  8
0
 62
256
370
-1
 48
1.0
  6
ByLayer
100
AcDbCircle
 10
74.660852073818816
 20
55.48837631279531
 30
0.0
 40
50.0
100
AcDbArc
 50
273.82923164416502
 51
283.40206472416315
  0
ARC
  5
A8
100
AcDbEntity
  8
0
 62
256
370
-1
 48
1.0
  6
ByLayer
100
AcDbCircle
 10
97.527164903192599
 20
-43.361657246969138
 30
0.0
 40
50.0
100
AcDbArc
 50
94.196483903230842
 51
103.0348280905873
  0
ARC
  5
A9
100
AcDbEntity
  8
0
 62
256
370
-1
 48
1.0
  6
ByLayer
100
AcDbCircle
 10
97.4185492617721
 20
-41.886675177810062
 30
0.0
 40
50.0
100
AcDbArc
 50
94.197904263076595
 51
102.90710470916952
  0
LINE
  5
AA
100
AcDbEntity
100
AcDbLine
  8
0
 62
256
370
-1
 48
1.0
  6
ByLayer
 10
72.0
 20
4.0999999999999943
 30
0.0
 11
72.0
 21
3.0999999999999939
 31
0.0
  0
ARC
  5
AB
100
AcDbEntity
  8
0
 62
256
370
-1
 48
1.0
  6
ByLayer
100
AcDbCircle
 10
79.0
 20
10.099999999999991
 30
0.0
 40
1.0
100
AcDbArc
 50
90.0
 51
180.0
  0
LINE
  5
AC
100
AcDbEntity
100
AcDbLine
  8
0
 62
256
370
-1
 48
1.0
  6
ByLayer
 10
168.0
 20
8.0999999999999943
 30
0.0
 11
168.0
 21
8.0999999999999943
 31
0.0
  0
ARC
  5
AD
100
AcDbEntity
  8
0
 62
256
370
-1
 48
1.0
  6
ByLayer
100
AcDbCircle
 10
168.0
 20
3.0999999999999939
 30
0.0
 40
3.0
100
AcDbArc
 50
270.0
 51
0.0
  0
ARC
  5
AE
100
AcDbEntity
  8
0
 62
256
370
-1
 48
1.0
  6
ByLayer
100
AcDbCircle
 10
168.0
 20
6.5999999999999943
 30
0.0
 40
3.0
100
AcDbArc
 50
0.0
 51
90.0
  0
LINE
  5
AF
100
AcDbEntity
100
AcDbLine
  8
0
 62
256
370
-1
 48
1.0
  6
ByLayer
 10
171.0
 20
3.0999999999999939
 30
0.0
 11
171.0
 21
4.0999999999999943
 31
0.0
  0
LINE
  5
B0
100
AcDbEntity
100
AcDbLine
  8
0
 62
256
370
-1
 48
1.0
  6
ByLayer
 10
168.0
 20
8.0999999999999943
 30
0.0
 11
168.0
 21
9.5999999999999943
 31
0.0
  0
LINE
  5
B1
100
AcDbEntity
100
AcDbLine
  8
0
 62
256
370
-1
 48
1.0
  6
ByLayer
 10
165.0
 20
8.0999999999999943
 30
0.0
 11
165.0
 21
10.099999999999991
 31
0.0
  0
LINE
  5
B2
100
AcDbEntity
100
AcDbLine
  8
0
 62
256
370
-1
 48
1.0
  6
ByLayer
 10
165.0
 20
4.0999999999999943
 30
0.0
 11
171.0
 21
4.0999999999999943
 31
0.0
  0
LINE
  5
B3
100
AcDbEntity
100
AcDbLine
  8
0
 62
256
370
-1
 48
1.0
  6
ByLayer
 10
165.0
 20
5.5999999999999943
 30
0.0
 11
171.0
 21
5.5999999999999943
 31
0.0
  0
ARC
  5
B4
100
AcDbEntity
  8
0
 62
256
370
-1
 48
1.0
  6
ByLayer
100
AcDbCircle
 10
145.4722318637595
 20
-43.361517589428487
 30
0.0
 40
50.0
100
AcDbArc
 50
76.964462371712543
 51
85.804241259959056
  0
ARC
  5
B5
100
AcDbEntity
  8
0
 62
256
370
-1
 48
1.0
  6
ByLayer
100
AcDbCircle
 10
145.58203614597849
 20
-41.886809326783677
 30
0.0
 40
50.0
100
AcDbArc
 50
77.093583506576067
 51
85.675120125095617
  0
ARC
  5
B6
100
AcDbEntity
  8
0
 62
256
370
-1
 48
1.0
  6
ByLayer
100
AcDbCircle
 10
168.33914792618111
 20
53.98837631279531
 30
0.0
 40
50.0
100
AcDbArc
 50
256.59793527583662
 51
266.17076835583515
  0
ARC
  5
B7
100
AcDbEntity
  8
0
 62
256
370
-1
 48
1.0
  6
ByLayer
100
AcDbCircle
 10
168.33914792618111
 20
55.48837631279531
 30
0.0
 40
50.0
100
AcDbArc
 50
256.59793527583662
 51
266.17076835583475
  0
ARC
  5
B8
100
AcDbEntity
  8
0
 62
256
370
-1
 48
1.0
  6
ByLayer
100
AcDbCircle
 10
149.2415366281686
 20
7.2376459654290102
 30
0.0
 40
0.7415366281685447
100
AcDbArc
 50
81.384351815498277
 51
261.38435181553962
  0
LINE
  5
B9
100
AcDbEntity
100
AcDbLine
  8
0
 62
256
370
-1
 48
1.0
  6
ByLayer
 10
171.0
 20
5.5999999999999943
 30
0.0
 11
171.0
 21
6.5999999999999943
 31
0.0
  0
ARC
  5
BA
100
AcDbEntity
  8
0
 62
256
370
-1
 48
1.0
  6
ByLayer
100
AcDbCircle
 10
93.758463371831411
 20
7.2376459654290102
 30
0.0
 40
0.7415366281685868
100
AcDbArc
 50
278.51919741635021
 51
98.522080780118429
  0
ARC
  5
BB
100
AcDbEntity
  8
0
 62
256
370
-1
 48
1.0
  6
ByLayer
100
AcDbCircle
 10
168.50001926823941
 20
-25.849505330846199
 30
0.0
 40
0.5000192684823565
100
AcDbArc
 50
179.9982138086076
 51
280.7595040611738
  0
ARC
  5
BC
100
AcDbEntity
  8
0
 62
256
370
-1
 48
1.0
  6
ByLayer
100
AcDbCircle
 10
168.0
 20
-23.399999999999991
 30
0.0
 40
3.0
100
AcDbArc
 50
281.40768309668351
 51
0.0
  0
ARC
  5
BD
100
AcDbEntity
  8
0
 62
256
370
-1
 48
1.0
  6
ByLayer
100
AcDbCircle
 10
164.0
 20
-26.899999999999991
 30
0.0
 40
1.0
100
AcDbArc
 50
270.0
 51
0.0
  0
LINE
  5
BE
100
AcDbEntity
100
AcDbLine
  8
0
 62
256
370
-1
 48
1.0
  6
ByLayer
 10
165.0
 20
-26.899999999999991
 30
0.0
 11
165.0
 21
-24.899999999999991
 31
0.0
  0
ARC
  5
BF
100
AcDbEntity
  8
0
 62
256
370
-1
 48
1.0
  6
ByLayer
100
AcDbCircle
 10
164.0
 20
10.099999999999991
 30
0.0
 40
1.0
100
AcDbArc
 50
0.0
 51
90.0
  0
LINE
  5
C0
100
AcDbEntity
100
AcDbLine
  8
0
 62
256
370
-1
 48
1.0
  6
ByLayer
 10
164.0
 20
11.099999999999991
 30
0.0
 11
79.0
 21
11.099999999999991
 31
0.0
  0
ARC
  5
C1
100
AcDbEntity
  8
0
 62
256
370
-1
 48
1.0
  6
ByLayer
100
AcDbCircle
 10
74.49999913259505
 20
-25.849490449628188
 30
0.0
 40
0.5000008674054547
100
AcDbArc
 50
258.62829651669517
 51
0.000081005078916
  0
ENDBLK
  5
C2
100
AcDbEntity
  8
0
100
AcDbBlockEnd
  0
BLOCK
  5
C3
100
AcDbEntity
  8
0
100
AcDbBlockBegin
  2
reset
 70
0
 10
0.0
 20
0.0
 30
0.0
  3
reset
  1

  0
LINE
  5
C4
100
AcDbEntity
100
AcDbLine
  8
text
 62
256
370
-1
 48
1.0
  6
ByLayer
 10
-6.8967097724668562
 20
0.0530365035193974
 30
0.0
 11
-6.8967097724668562
 21
3.0530365035193969
 31
0.0
  0
LINE
  5
C5
100
AcDbEntity
100
AcDbLine
  8
text
 62
256
370
-1
 48
1.0
  6
ByLayer
 10
-6.8967097724668562
 20
3.0530365035193969
 30
0.0
 11
-5.6218693730561498
 21
3.0530365035193969
 31
0.0
  0
SPLINE
  5
C6
  8
text
 62
256
370
-1
 48
1.0
  6
ByLayer
100
AcDbEntity
100
AcDbSpline
 70
8
 71
3
 72
8
 73
4
 74
0
 40
0.0
 40
0.0
 40
0.0
 40
0.0
 40
1.0
 40
1.0
 40
1.0
 40
1.0
 10
-5.6218693730561498
 20
3.0530365035193969
 30
0.0
 10
-5.3013586511704096
 20
3.0530365035193969
 30
0.0
 10
-5.0684236372565081
 20
3.0261090194794562
 30
0.0
 10
-4.9230643313144569
 20
2.9722540513995739
 30
0.0
  0
SPLINE
  5
C7
  8
text
 62
256
370
-1
 48
1.0
  6
ByLayer
100
AcDbEntity
100
AcDbSpline
 70
8
 71
3
 72
8
 73
4
 74
0
 40
0.0
 40
0.0
 40
0.0
 40
0.0
 40
1.0
 40
1.0
 40
1.0
 40
1.0
 10
-4.9230643313144569
 20
2.9722540513995739
 30
0.0
 10
-4.7777050253724056
 20
2.918399083319692
 30
0.0
 10
-4.6614012113275507
 20
2.822556883286953
 30
0.0
 10
-4.5741528891798993
 20
2.684727451301359
 30
0.0
  0
SPLINE
  5
C8
  8
text
 62
256
370
-1
 48
1.0
  6
ByLayer
100
AcDbEntity
100
AcDbSpline
 70
8
 71
3
 72
8
 73
4
 74
0
 40
0.0
 40
0.0
 40
0.0
 40
0.0
 40
1.0
 40
1.0
 40
1.0
 40
1.0
 10
-4.5741528891798993
 20
2.684727451301359
 30
0.0
 10
-4.4869045670322478
 20
2.546898019315762
 30
0.0
 10
-4.4432804059584257
 20
2.3892617449664439
 30
0.0
 10
-4.4432804059584257
 20
2.2118186282533969
 30
0.0
  0
SPLINE
  5
C9
  8
text
 62
256
370
-1
 48
1.0
  6
ByLayer
100
AcDbEntity
100
AcDbSpline
 70
8
 71
3
 72
8
 73
4
 74
0
 40
0.0
 40
0.0
 40
0.0
 40
0.0
 40
1.0
 40
1.0
 40
1.0
 40
1.0
 10
-4.4432804059584257
 20
2.2118186282533969
 30
0.0
 10
-4.4432804059584257
 20
1.986904567032248
 30
0.0
 10
-4.5094123424455717
 20
1.801113111802259
 30
0.0
 10
-4.6416762154198778
 20
1.6544442625634299
 30
0.0
  0
SPLINE
  5
CA
  8
text
 62
256
370
-1
 48
1.0
  6
ByLayer
100
AcDbEntity
100
AcDbSpline
 70
8
 71
3
 72
8
 73
4
 74
0
 40
0.0
 40
0.0
 40
0.0
 40
0.0
 40
1.0
 40
1.0
 40
1.0
 40
1.0
 10
-4.6416762154198778
 20
1.6544442625634299
 30
0.0
 10
-4.7739400883941769
 20
1.507775413324604
 30
0.0
 10
-4.9716811262072369
 20
1.41528891798985
 30
0.0
 10
-5.2348993288590648
 20
1.3769847765591749
 30
0.0
  0
SPLINE
  5
CB
  8
text
 62
256
370
-1
 48
1.0
  6
ByLayer
100
AcDbEntity
100
AcDbSpline
 70
8
 71
3
 72
8
 73
4
 74
0
 40
0.0
 40
0.0
 40
0.0
 40
0.0
 40
1.0
 40
1.0
 40
1.0
 40
1.0
 10
-5.2348993288590648
 20
1.3769847765591749
 30
0.0
 10
-5.103944999181536
 20
1.300703879522016
 30
0.0
 10
-4.9958258307415306
 20
1.216811262072351
 30
0.0
 10
-4.9105418235390417
 20
1.125306924210181
 30
0.0
  0
SPLINE
  5
CC
  8
text
 62
256
370
-1
 48
1.0
  6
ByLayer
100
AcDbEntity
100
AcDbSpline
 70
8
 71
3
 72
8
 73
4
 74
0
 40
0.0
 40
0.0
 40
0.0
 40
0.0
 40
1.0
 40
1.0
 40
1.0
 40
1.0
 10
-4.9105418235390417
 20
1.125306924210181
 30
0.0
 10
-4.8252578163365598
 20
1.033802586348012
 30
0.0
 10
-4.7104272385005794
 20
0.8715010640039278
 30
0.0
 10
-4.566050090031105
 20
0.6384023571779345
 30
0.0
  0
LINE
  5
CD
100
AcDbEntity
100
AcDbLine
  8
text
 62
256
370
-1
 48
1.0
  6
ByLayer
 10
-4.566050090031105
 20
0.6384023571779345
 30
0.0
 11
-4.1997053527582304
 21
0.0530365035193974
 31
0.0
  0
LINE
  5
CE
100
AcDbEntity
100
AcDbLine
  8
text
 62
256
370
-1
 48
1.0
  6
ByLayer
 10
-4.1997053527582304
 20
0.0530365035193974
 30
0.0
 11
-4.9240464887870417
 21
0.0530365035193974
 31
0.0
  0
LINE
  5
CF
100
AcDbEntity
100
AcDbLine
  8
text
 62
256
370
-1
 48
1.0
  6
ByLayer
 10
-4.9240464887870417
 20
0.0530365035193974
 30
0.0
 11
-5.3620887215583579
 21
0.7056801440497615
 31
0.0
  0
SPLINE
  5
D0
  8
text
 62
256
370
-1
 48
1.0
  6
ByLayer
100
AcDbEntity
100
AcDbSpline
 70
8
 71
3
 72
8
 73
4
 74
0
 40
0.0
 40
0.0
 40
0.0
 40
0.0
 40
1.0
 40
1.0
 40
1.0
 40
1.0
 10
-5.3620887215583579
 20
0.7056801440497615
 30
0.0
 10
-5.5175969880504212
 20
0.939106236699951
 30
0.0
 10
-5.6239973809134094
 20
1.0861843182190201
 30
0.0
 10
-5.6812899001473269
 20
1.146914388606973
 30
0.0
  0
SPLINE
  5
D1
  8
text
 62
256
370
-1
 48
1.0
  6
ByLayer
100
AcDbEntity
100
AcDbSpline
 70
8
 71
3
 72
8
 73
4
 74
0
 40
0.0
 40
0.0
 40
0.0
 40
0.0
 40
1.0
 40
1.0
 40
1.0
 40
1.0
 10
-5.6812899001473269
 20
1.146914388606973
 30
0.0
 10
-5.7385824193812454
 20
1.207644458994924
 30
0.0
 10
-5.7992306433131517
 20
1.2492224586675389
 30
0.0
 10
-5.863234571943039
 20
1.271648387624815
 30
0.0
  0
SPLINE
  5
D2
  8
text
 62
256
370
-1
 48
1.0
  6
ByLayer
100
AcDbEntity
100
AcDbSpline
 70
8
 71
3
 72
8
 73
4
 74
0
 40
0.0
 40
0.0
 40
0.0
 40
0.0
 40
1.0
 40
1.0
 40
1.0
 40
1.0
 10
-5.863234571943039
 20
1.271648387624815
 30
0.0
 10
-5.9272385005729262
 20
1.29407431658209
 30
0.0
 10
-6.0289736454411553
 20
1.3052872810607281
 30
0.0
 10
-6.1684400065477192
 20
1.3052872810607281
 30
0.0
  0
LINE
  5
D3
100
AcDbEntity
100
AcDbLine
  8
text
 62
256
370
-1
 48
1.0
  6
ByLayer
 10
-6.1684400065477192
 20
1.3052872810607281
 30
0.0
 11
-6.2912096906203976
 21
1.3052872810607281
 31
0.0
  0
LINE
  5
D4
100
AcDbEntity
100
AcDbLine
  8
text
 62
256
370
-1
 48
1.0
  6
ByLayer
 10
-6.2912096906203976
 20
1.3052872810607281
 30
0.0
 11
-6.2912096906203976
 21
0.0530365035193974
 31
0.0
  0
LINE
  5
D5
100
AcDbEntity
100
AcDbLine
  8
text
 62
256
370
-1
 48
1.0
  6
ByLayer
 10
-6.2912096906203976
 20
0.0530365035193974
 30
0.0
 11
-6.8967097724668562
 21
0.0530365035193974
 31
0.0
  0
LINE
  5
D6
100
AcDbEntity
100
AcDbLine
  8
text
 62
256
370
-1
 48
1.0
  6
ByLayer
 10
-6.2912096906203976
 20
1.7840890489441801
 30
0.0
 11
-5.8428548043869739
 21
1.7840890489441801
 31
0.0
  0
SPLINE
  5
D7
  8
text
 62
256
370
-1
 48
1.0
  6
ByLayer
100
AcDbEntity
100
AcDbSpline
 70
8
 71
3
 72
8
 73
4
 74
0
 40
0.0
 40
0.0
 40
0.0
 40
0.0
 40
1.0
 40
1.0
 40
1.0
 40
1.0
 10
-5.8428548043869739
 20
1.7840890489441801
 30
0.0
 10
-5.5521361925028714
 20
1.7840890489441801
 30
0.0
 10
-5.3706825994434482
 20
1.7963660173514491
 30
0.0
 10
-5.2984940252087114
 20
1.820919954165984
 30
0.0
  0
SPLINE
  5
D8
  8
text
 62
256
370
-1
 48
1.0
  6
ByLayer
100
AcDbEntity
100
AcDbSpline
 70
8
 71
3
 72
8
 73
4
 74
0
 40
0.0
 40
0.0
 40
0.0
 40
0.0
 40
1.0
 40
1.0
 40
1.0
 40
1.0
 10
-5.2984940252087114
 20
1.820919954165984
 30
0.0
 10
-5.2263054509739746
 20
1.8454738909805199
 30
0.0
 10
-5.1697495498444974
 20
1.8877885087575701
 30
0.0
 10
-5.1288263218202701
 20
1.9478638074971339
 30
0.0
  0
SPLINE
  5
D9
  8
text
 62
256
370
-1
 48
1.0
  6
ByLayer
100
AcDbEntity
100
AcDbSpline
 70
8
 71
3
 72
8
 73
4
 74
0
 40
0.0
 40
0.0
 40
0.0
 40
0.0
 40
1.0
 40
1.0
 40
1.0
 40
1.0
 10
-5.1288263218202701
 20
1.9478638074971339
 30
0.0
 10
-5.0879030937960437
 20
2.0079391062366998
 30
0.0
 10
-5.0674414797839296
 20
2.0829923064331299
 30
0.0
 10
-5.0674414797839296
 20
2.1730234080864288
 30
0.0
  0
SPLINE
  5
DA
  8
text
 62
256
370
-1
 48
1.0
  6
ByLayer
100
AcDbEntity
100
AcDbSpline
 70
8
 71
3
 72
8
 73
4
 74
0
 40
0.0
 40
0.0
 40
0.0
 40
0.0
 40
1.0
 40
1.0
 40
1.0
 40
1.0
 10
-5.0674414797839296
 20
2.1730234080864288
 30
0.0
 10
-5.0674414797839296
 20
2.273858241938123
 30
0.0
 10
-5.0943689638238681
 20
2.355377312162382
 30
0.0
 10
-5.1482239319037504
 20
2.417580618759207
 30
0.0
  0
SPLINE
  5
DB
  8
text
 62
256
370
-1
 48
1.0
  6
ByLayer
100
AcDbEntity
100
AcDbSpline
 70
8
 71
3
 72
8
 73
4
 74
0
 40
0.0
 40
0.0
 40
0.0
 40
0.0
 40
1.0
 40
1.0
 40
1.0
 40
1.0
 10
-5.1482239319037504
 20
2.417580618759207
 30
0.0
 10
-5.2020788999836327
 20
2.4797839253560312
 30
0.0
 10
-5.2781142576526463
 20
2.5190702242592899
 30
0.0
 10
-5.3763300049107912
 20
2.5354395154689802
 30
0.0
  0
SPLINE
  5
DC
  8
text
 62
256
370
-1
 48
1.0
  6
ByLayer
100
AcDbEntity
100
AcDbSpline
 70
8
 71
3
 72
8
 73
4
 74
0
 40
0.0
 40
0.0
 40
0.0
 40
0.0
 40
1.0
 40
1.0
 40
1.0
 40
1.0
 10
-5.3763300049107912
 20
2.5354395154689802
 30
0.0
 10
-5.42543787853986
 20
2.5419872319528558
 30
0.0
 10
-5.5727614994270809
 20
2.5452610901947939
 30
0.0
 10
-5.8183008675724386
 20
2.5452610901947939
 30
0.0
  0
LINE
  5
DD
100
AcDbEntity
100
AcDbLine
  8
text
 62
256
370
-1
 48
1.0
  6
ByLayer
 10
-5.8183008675724386
 20
2.5452610901947939
 30
0.0
 11
-6.2912096906203976
 21
2.5452610901947939
 31
0.0
  0
LINE
  5
DE
100
AcDbEntity
100
AcDbLine
  8
text
 62
256
370
-1
 48
1.0
  6
ByLayer
 10
-6.2912096906203976
 20
2.5452610901947939
 30
0.0
 11
-6.2912096906203976
 21
1.7840890489441801
 31
0.0
  0
LINE
  5
DF
100
AcDbEntity
100
AcDbLine
  8
text
 62
256
370
-1
 48
1.0
  6
ByLayer
 10
-3.8814863316418449
 20
0.0530365035193974
 30
0.0
 11
-3.8814863316418449
 21
3.0530365035193969
 31
0.0
  0
LINE
  5
E0
100
AcDbEntity
100
AcDbLine
  8
text
 62
256
370
-1
 48
1.0
  6
ByLayer
 10
-3.8814863316418449
 20
3.0530365035193969
 30
0.0
 11
-1.6573907349811781
 21
3.0530365035193969
 31
0.0
  0
LINE
  5
E1
100
AcDbEntity
100
AcDbLine
  8
text
 62
256
370
-1
 48
1.0
  6
ByLayer
 10
-1.6573907349811781
 20
3.0530365035193969
 30
0.0
 11
-1.6573907349811781
 21
2.5452610901947939
 31
0.0
  0
LINE
  5
E2
100
AcDbEntity
100
AcDbLine
  8
text
 62
256
370
-1
 48
1.0
  6
ByLayer
 10
-1.6573907349811781
 20
2.5452610901947939
 30
0.0
 11
-3.275986249795388
 21
2.5452610901947939
 31
0.0
  0
LINE
  5
E3
100
AcDbEntity
100
AcDbLine
  8
text
 62
256
370
-1
 48
1.0
  6
ByLayer
 10
-3.275986249795388
 20
2.5452610901947939
 30
0.0
 11
-3.275986249795388
 21
1.8803404812571609
 31
0.0
  0
LINE
  5
E4
100
AcDbEntity
100
AcDbLine
  8
text
 62
256
370
-1
 48
1.0
  6
ByLayer
 10
-3.275986249795388
 20
1.8803404812571609
 30
0.0
 11
-1.7698477655917559
 21
1.8803404812571609
 31
0.0
  0
LINE
  5
E5
100
AcDbEntity
100
AcDbLine
  8
text
 62
256
370
-1
 48
1.0
  6
ByLayer
 10
-1.7698477655917559
 20
1.8803404812571609
 30
0.0
 11
-1.7698477655917559
 21
1.375020461614012
 31
0.0
  0
LINE
  5
E6
100
AcDbEntity
100
AcDbLine
  8
text
 62
256
370
-1
 48
1.0
  6
ByLayer
 10
-1.7698477655917559
 20
1.375020461614012
 30
0.0
 11
-3.275986249795388
 21
1.375020461614012
 31
0.0
  0
LINE
  5
E7
100
AcDbEntity
100
AcDbLine
  8
text
 62
256
370
-1
 48
1.0
  6
ByLayer
 10
-3.275986249795388
 20
1.375020461614012
 30
0.0
 11
-3.275986249795388
 21
0.558356523162546
 31
0.0
  0
LINE
  5
E8
100
AcDbEntity
100
AcDbLine
  8
text
 62
256
370
-1
 48
1.0
  6
ByLayer
 10
-3.275986249795388
 20
0.558356523162546
 30
0.0
 11
-1.5999345228351629
 21
0.558356523162546
 31
0.0
  0
LINE
  5
E9
100
AcDbEntity
100
AcDbLine
  8
text
 62
256
370
-1
 48
1.0
  6
ByLayer
 10
-1.5999345228351629
 20
0.558356523162546
 30
0.0
 11
-1.5999345228351629
 21
0.0530365035193974
 31
0.0
  0
LINE
  5
EA
100
AcDbEntity
100
AcDbLine
  8
text
 62
256
370
-1
 48
1.0
  6
ByLayer
 10
-1.5999345228351629
 20
0.0530365035193974
 30
0.0
 11
-3.8814863316418449
 21
0.0530365035193974
 31
0.0
  0
LINE
  5
EB
100
AcDbEntity
100
AcDbLine
  8
text
 62
256
370
-1
 48
1.0
  6
ByLayer
 10
-1.238009494188901
 20
1.0293010312653459
 30
0.0
 11
-0.6487150106400463
 21
1.086266164675068
 31
0.0
  0
SPLINE
  5
EC
  8
text
 62
256
370
-1
 48
1.0
  6
ByLayer
100
AcDbEntity
100
AcDbSpline
 70
8
 71
3
 72
8
 73
4
 74
0
 40
0.0
 40
0.0
 40
0.0
 40
0.0
 40
1.0
 40
1.0
 40
1.0
 40
1.0
 10
-0.6487150106400463
 20
1.086266164675068
 30
0.0
 10
-0.6130299558029151
 20
0.8885251268620067
 30
0.0
 10
-0.5410050744802817
 20
0.7432476673760018
 30
0.0
 10
-0.4326403666721248
 20
0.6504337862170573
 30
0.0
  0
SPLINE
  5
ED
  8
text
 62
256
370
-1
 48
1.0
  6
ByLayer
100
AcDbEntity
100
AcDbSpline
 70
8
 71
3
 72
8
 73
4
 74
0
 40
0.0
 40
0.0
 40
0.0
 40
0.0
 40
1.0
 40
1.0
 40
1.0
 40
1.0
 10
-0.4326403666721248
 20
0.6504337862170573
 30
0.0
 10
-0.324275658863975
 20
0.557619905058111
 30
0.0
 10
-0.177934195449339
 20
0.5112129644786378
 30
0.0
 10
0.0063840235717763
 20
0.5112129644786378
 30
0.0
  0
SPLINE
  5
EE
  8
text
 62
256
370
-1
 48
1.0
  6
ByLayer
100
AcDbEntity
100
AcDbSpline
 70
8
 71
3
 72
8
 73
4
 74
0
 40
0.0
 40
0.0
 40
0.0
 40
0.0
 40
1.0
 40
1.0
 40
1.0
 40
1.0
 10
0.0063840235717763
 20
0.5112129644786378
 30
0.0
 10
0.2015059747912886
 20
0.5112129644786378
 30
0.0
 10
0.3485022098543098
 20
0.5525454247831068
 30
0.0
 10
0.4473727287608398
 20
0.6352103453920428
 30
0.0
  0
SPLINE
  5
EF
  8
text
 62
256
370
-1
 48
1.0
  6
ByLayer
100
AcDbEntity
100
AcDbSpline
 70
8
 71
3
 72
8
 73
4
 74
0
 40
0.0
 40
0.0
 40
0.0
 40
0.0
 40
1.0
 40
1.0
 40
1.0
 40
1.0
 10
0.4473727287608398
 20
0.6352103453920428
 30
0.0
 10
0.5462432476673698
 20
0.7178752660009806
 30
0.0
 10
0.5956785071206383
 20
0.8143722376821074
 30
0.0
 10
0.5956785071206383
 20
0.9247012604354232
 30
0.0
  0
SPLINE
  5
F0
  8
text
 62
256
370
-1
 48
1.0
  6
ByLayer
100
AcDbEntity
100
AcDbSpline
 70
8
 71
3
 72
8
 73
4
 74
0
 40
0.0
 40
0.0
 40
0.0
 40
0.0
 40
1.0
 40
1.0
 40
1.0
 40
1.0
 10
0.5956785071206383
 20
0.9247012604354232
 30
0.0
 10
0.5956785071206383
 20
0.9957439842854807
 30
0.0
 10
0.5748895072843325
 20
1.0561466688492369
 30
0.0
 10
0.5333115076117139
 20
1.105909314126698
 30
0.0
  0
SPLINE
  5
F1
  8
text
 62
256
370
-1
 48
1.0
  6
ByLayer
100
AcDbEntity
100
AcDbSpline
 70
8
 71
3
 72
8
 73
4
 74
0
 40
0.0
 40
0.0
 40
0.0
 40
0.0
 40
1.0
 40
1.0
 40
1.0
 40
1.0
 10
0.5333115076117139
 20
1.105909314126698
 30
0.0
 10
0.4917335079391023
 20
1.155671959404158
 30
0.0
 10
0.4190538549680767
 20
1.1990505811098371
 30
0.0
 10
0.315272548698637
 20
1.236045179243739
 30
0.0
  0
SPLINE
  5
F2
  8
text
 62
256
370
-1
 48
1.0
  6
ByLayer
100
AcDbEntity
100
AcDbSpline
 70
8
 71
3
 72
8
 73
4
 74
0
 40
0.0
 40
0.0
 40
0.0
 40
0.0
 40
1.0
 40
1.0
 40
1.0
 40
1.0
 10
0.315272548698637
 20
1.236045179243739
 30
0.0
 10
0.2442298248485812
 20
1.260599116058273
 30
0.0
 10
0.0826649206089343
 20
1.304141430676051
 30
0.0
 10
-0.169422164020304
 20
1.36667212309707
 30
0.0
  0
SPLINE
  5
F3
  8
text
 62
256
370
-1
 48
1.0
  6
ByLayer
100
AcDbEntity
100
AcDbSpline
 70
8
 71
3
 72
8
 73
4
 74
0
 40
0.0
 40
0.0
 40
0.0
 40
0.0
 40
1.0
 40
1.0
 40
1.0
 40
1.0
 10
-0.169422164020304
 20
1.36667212309707
 30
0.0
 10
-0.4941889016205607
 20
1.447209035848747
 30
0.0
 10
-0.7220494352594571
 20
1.546079554755279
 30
0.0
 10
-0.8530037649369788
 20
1.663283679816663
 30
0.0
  0
SPLINE
  5
F4
  8
text
 62
256
370
-1
 48
1.0
  6
ByLayer
100
AcDbEntity
100
AcDbSpline
 70
8
 71
3
 72
8
 73
4
 74
0
 40
0.0
 40
0.0
 40
0.0
 40
0.0
 40
1.0
 40
1.0
 40
1.0
 40
1.0
 10
-0.8530037649369788
 20
1.663283679816663
 30
0.0
 10
-1.0373219839580941
 20
1.8286135210345389
 30
0.0
 10
-1.129481093468655
 20
2.029955802913733
 30
0.0
 10
-1.129481093468655
 20
2.2673105254542469
 30
0.0
  0
SPLINE
  5
F5
  8
text
 62
256
370
-1
 48
1.0
  6
ByLayer
100
AcDbEntity
100
AcDbSpline
 70
8
 71
3
 72
8
 73
4
 74
0
 40
0.0
 40
0.0
 40
0.0
 40
0.0
 40
1.0
 40
1.0
 40
1.0
 40
1.0
 10
-1.129481093468655
 20
2.2673105254542469
 30
0.0
 10
-1.129481093468655
 20
2.419872319528563
 30
0.0
 10
-1.0861843182190261
 20
2.562694385333113
 30
0.0
 10
-0.9995907677197593
 20
2.695776722867901
 30
0.0
  0
SPLINE
  5
F6
  8
text
 62
256
370
-1
 48
1.0
  6
ByLayer
100
AcDbEntity
100
AcDbSpline
 70
8
 71
3
 72
8
 73
4
 74
0
 40
0.0
 40
0.0
 40
0.0
 40
0.0
 40
1.0
 40
1.0
 40
1.0
 40
1.0
 10
-0.9995907677197593
 20
2.695776722867901
 30
0.0
 10
-0.9129972172205001
 20
2.8288590604026851
 30
0.0
 10
-0.7881813717466031
 20
2.9301849729906699
 30
0.0
 10
-0.6251432312980896
 20
2.999754460631852
 30
0.0
  0
SPLINE
  5
F7
  8
text
 62
256
370
-1
 48
1.0
  6
ByLayer
100
AcDbEntity
100
AcDbSpline
 70
8
 71
3
 72
8
 73
4
 74
0
 40
0.0
 40
0.0
 40
0.0
 40
0.0
 40
1.0
 40
1.0
 40
1.0
 40
1.0
 10
-0.6251432312980896
 20
2.999754460631852
 30
0.0
 10
-0.462105090849569
 20
3.0693239482730381
 30
0.0
 10
-0.2651825175969904
 20
3.1041086920936318
 30
0.0
 10
-0.0343755115403539
 20
3.1041086920936318
 30
0.0
  0
SPLINE
  5
F8
  8
text
 62
256
370
-1
 48
1.0
  6
ByLayer
100
AcDbEntity
100
AcDbSpline
 70
8
 71
3
 72
8
 73
4
 74
0
 40
0.0
 40
0.0
 40
0.0
 40
0.0
 40
1.0
 40
1.0
 40
1.0
 40
1.0
 10
-0.0343755115403539
 20
3.1041086920936318
 30
0.0
 10
0.3421181862825335
 20
3.1041086920936318
 30
0.0
 10
0.625470617122275
 20
3.0216074643967912
 30
0.0
 10
0.8156817809788777
 20
2.8566050090031081
 30
0.0
  0
SPLINE
  5
F9
  8
text
 62
256
370
-1
 48
1.0
  6
ByLayer
100
AcDbEntity
100
AcDbSpline
 70
8
 71
3
 72
8
 73
4
 74
0
 40
0.0
 40
0.0
 40
0.0
 40
0.0
 40
1.0
 40
1.0
 40
1.0
 40
1.0
 10
0.8156817809788777
 20
2.8566050090031081
 30
0.0
 10
1.005892944835487
 20
2.6916025536094281
 30
0.0
 10
1.1057456212145951
 20
2.4712718939269931
 30
0.0
 10
1.115239810116222
 20
2.1956130299558012
 30
0.0
  0
LINE
  5
FA
100
AcDbEntity
100
AcDbLine
  8
text
 62
256
370
-1
 48
1.0
  6
ByLayer
 10
1.115239810116222
 20
2.1956130299558012
 30
0.0
 11
0.5097397282697642
 21
2.1690947781961039
 31
0.0
  0
SPLINE
  5
FB
  8
text
 62
256
370
-1
 48
1.0
  6
ByLayer
100
AcDbEntity
100
AcDbSpline
 70
8
 71
3
 72
8
 73
4
 74
0
 40
0.0
 40
0.0
 40
0.0
 40
0.0
 40
1.0
 40
1.0
 40
1.0
 40
1.0
 10
0.5097397282697642
 20
2.1690947781961039
 30
0.0
 10
0.4838762481584524
 20
2.323293501391388
 30
0.0
 10
0.4283025045015521
 20
2.4341136028809949
 30
0.0
 10
0.3430184972990631
 20
2.50155508266492
 30
0.0
  0
SPLINE
  5
FC
  8
text
 62
256
370
-1
 48
1.0
  6
ByLayer
100
AcDbEntity
100
AcDbSpline
 70
8
 71
3
 72
8
 73
4
 74
0
 40
0.0
 40
0.0
 40
0.0
 40
0.0
 40
1.0
 40
1.0
 40
1.0
 40
1.0
 10
0.3430184972990631
 20
2.50155508266492
 30
0.0
 10
0.2577344900965741
 20
2.5689965624488451
 30
0.0
 10
0.1298084792928407
 20
2.6027173023408068
 30
0.0
 10
-0.0407595351121302
 20
2.6027173023408068
 30
0.0
  0
SPLINE
  5
FD
  8
text
 62
256
370
-1
 48
1.0
  6
ByLayer
100
AcDbEntity
100
AcDbSpline
 70
8
 71
3
 72
8
 73
4
 74
0
 40
0.0
 40
0.0
 40
0.0
 40
0.0
 40
1.0
 40
1.0
 40
1.0
 40
1.0
 10
-0.0407595351121302
 20
2.6027173023408068
 30
0.0
 10
-0.2165657227042104
 20
2.6027173023408068
 30
0.0
 10
-0.3543951546898043
 20
2.566541168767392
 30
0.0
 10
-0.4542478310689191
 20
2.494188901620559
 30
0.0
  0
SPLINE
  5
FE
  8
text
 62
256
370
-1
 48
1.0
  6
ByLayer
100
AcDbEntity
100
AcDbSpline
 70
8
 71
3
 72
8
 73
4
 74
0
 40
0.0
 40
0.0
 40
0.0
 40
0.0
 40
1.0
 40
1.0
 40
1.0
 40
1.0
 10
-0.4542478310689191
 20
2.494188901620559
 30
0.0
 10
-0.5184154526109026
 20
2.448027500409232
 30
0.0
 10
-0.5504992633819015
 20
2.3859878867245041
 30
0.0
 10
-0.5504992633819015
 20
2.308070060566378
 30
0.0
  0
SPLINE
  5
FF
  8
text
 62
256
370
-1
 48
1.0
  6
ByLayer
100
AcDbEntity
100
AcDbSpline
 70
8
 71
3
 72
8
 73
4
 74
0
 40
0.0
 40
0.0
 40
0.0
 40
0.0
 40
1.0
 40
1.0
 40
1.0
 40
1.0
 10
-0.5504992633819015
 20
2.308070060566378
 30
0.0
 10
-0.5504992633819015
 20
2.23702733671632
 30
0.0
 10
-0.5203797675560651
 20
2.1762972663283668
 30
0.0
 10
-0.4601407759044065
 20
2.1258798494025188
 30
0.0
  0
SPLINE
  5
100
  8
text
 62
256
370
-1
 48
1.0
  6
ByLayer
100
AcDbEntity
100
AcDbSpline
 70
8
 71
3
 72
8
 73
4
 74
0
 40
0.0
 40
0.0
 40
0.0
 40
0.0
 40
1.0
 40
1.0
 40
1.0
 40
1.0
 10
-0.4601407759044065
 20
2.1258798494025188
 30
0.0
 10
-0.3838598788672485
 20
2.0617122278605322
 30
0.0
 10
-0.1983958094614522
 20
1.9948436732689461
 30
0.0
 10
0.0962514323129753
 20
1.925274185627762
 30
0.0
  0
SPLINE
  5
101
  8
text
 62
256
370
-1
 48
1.0
  6
ByLayer
100
AcDbEntity
100
AcDbSpline
 70
8
 71
3
 72
8
 73
4
 74
0
 40
0.0
 40
0.0
 40
0.0
 40
0.0
 40
1.0
 40
1.0
 40
1.0
 40
1.0
 10
0.0962514323129753
 20
1.925274185627762
 30
0.0
 10
0.3908986740874099
 20
1.8557046979865759
 30
0.0
 10
0.6088557865444386
 20
1.783761663119986
 30
0.0
 10
0.7501227696840687
 20
1.70944508102799
 30
0.0
  0
SPLINE
  5
102
  8
text
 62
256
370
-1
 48
1.0
  6
ByLayer
100
AcDbEntity
100
AcDbSpline
 70
8
 71
3
 72
8
 73
4
 74
0
 40
0.0
 40
0.0
 40
0.0
 40
0.0
 40
1.0
 40
1.0
 40
1.0
 40
1.0
 10
0.7501227696840687
 20
1.70944508102799
 30
0.0
 10
0.8913897528236987
 20
1.6351284989359951
 30
0.0
 10
1.0018824684891141
 20
1.5335570469798649
 30
0.0
 10
1.0816009166803009
 20
1.4047307251596011
 30
0.0
  0
SPLINE
  5
103
  8
text
 62
256
370
-1
 48
1.0
  6
ByLayer
100
AcDbEntity
100
AcDbSpline
 70
8
 71
3
 72
8
 73
4
 74
0
 40
0.0
 40
0.0
 40
0.0
 40
0.0
 40
1.0
 40
1.0
 40
1.0
 40
1.0
 10
1.0816009166803009
 20
1.4047307251596011
 30
0.0
 10
1.161319364871495
 20
1.2759044033393341
 30
0.0
 10
1.2011785889670961
 20
1.116549353412996
 30
0.0
 10
1.2011785889670961
 20
0.9266655753805857
 30
0.0
  0
SPLINE
  5
104
  8
text
 62
256
370
-1
 48
1.0
  6
ByLayer
100
AcDbEntity
100
AcDbSpline
 70
8
 71
3
 72
8
 73
4
 74
0
 40
0.0
 40
0.0
 40
0.0
 40
0.0
 40
1.0
 40
1.0
 40
1.0
 40
1.0
 10
1.2011785889670961
 20
0.9266655753805857
 30
0.0
 10
1.2011785889670961
 20
0.754788017678834
 30
0.0
 10
1.153462105090846
 20
0.5938778850875757
 30
0.0
 10
1.0580291373383519
 20
0.443935177606809
 30
0.0
  0
SPLINE
  5
105
  8
text
 62
256
370
-1
 48
1.0
  6
ByLayer
100
AcDbEntity
100
AcDbSpline
 70
8
 71
3
 72
8
 73
4
 74
0
 40
0.0
 40
0.0
 40
0.0
 40
0.0
 40
1.0
 40
1.0
 40
1.0
 40
1.0
 10
1.0580291373383519
 20
0.443935177606809
 30
0.0
 10
0.9625961695858507
 20
0.2939924701260423
 30
0.0
 10
0.8275495171059077
 20
0.182517596988049
 30
0.0
 10
0.6528891798985086
 20
0.1095105581928308
 30
0.0
  0
SPLINE
  5
106
  8
text
 62
256
370
-1
 48
1.0
  6
ByLayer
100
AcDbEntity
100
AcDbSpline
 70
8
 71
3
 72
8
 73
4
 74
0
 40
0.0
 40
0.0
 40
0.0
 40
0.0
 40
1.0
 40
1.0
 40
1.0
 40
1.0
 10
0.6528891798985086
 20
0.1095105581928308
 30
0.0
 10
0.4782288426911094
 20
0.0365035193976091
 30
0.0
 10
0.2605991160582732
 20
0.0
 30
0.0
 10
0.0
 20
0.0
 30
0.0
  0
SPLINE
  5
107
  8
text
 62
256
370
-1
 48
1.0
  6
ByLayer
100
AcDbEntity
100
AcDbSpline
 70
8
 71
3
 72
8
 73
4
 74
0
 40
0.0
 40
0.0
 40
0.0
 40
0.0
 40
1.0
 40
1.0
 40
1.0
 40
1.0
 10
0.0
 20
0.0
 30
0.0
 10
-0.379112784416435
 20
0.0
 30
0.0
 10
-0.6703224750368335
 20
0.0876575544278921
 30
0.0
 10
-0.8736290718611883
 20
0.26297266328368
 30
0.0
  0
SPLINE
  5
108
  8
text
 62
256
370
-1
 48
1.0
  6
ByLayer
100
AcDbEntity
100
AcDbSpline
 70
8
 71
3
 72
8
 73
4
 74
0
 40
0.0
 40
0.0
 40
0.0
 40
0.0
 40
1.0
 40
1.0
 40
1.0
 40
1.0
 10
-0.8736290718611883
 20
0.26297266328368
 30
0.0
 10
-1.07693566868555
 20
0.438287772139466
 30
0.0
 10
-1.198395809461452
 20
0.6937305614666887
 30
0.0
 10
-1.238009494188901
 20
1.0293010312653459
 30
0.0
  0
LINE
  5
109
100
AcDbEntity
100
AcDbLine
  8
text
 62
256
370
-1
 48
1.0
  6
ByLayer
 10
1.712882632182023
 20
0.0530365035193974
 30
0.0
 11
1.712882632182023
 21
3.0530365035193969
 31
0.0
  0
LINE
  5
10A
100
AcDbEntity
100
AcDbLine
  8
text
 62
256
370
-1
 48
1.0
  6
ByLayer
 10
1.712882632182023
 20
3.0530365035193969
 30
0.0
 11
3.93697822884269
 21
3.0530365035193969
 31
0.0
  0
LINE
  5
10B
100
AcDbEntity
100
AcDbLine
  8
text
 62
256
370
-1
 48
1.0
  6
ByLayer
 10
3.93697822884269
 20
3.0530365035193969
 30
0.0
 11
3.93697822884269
 21
2.5452610901947939
 31
0.0
  0
LINE
  5
10C
100
AcDbEntity
100
AcDbLine
  8
text
 62
256
370
-1
 48
1.0
  6
ByLayer
 10
3.93697822884269
 20
2.5452610901947939
 30
0.0
 11
2.318382714028481
 21
2.5452610901947939
 31
0.0
  0
LINE
  5
10D
100
AcDbEntity
100
AcDbLine
  8
text
 62
256
370
-1
 48
1.0
  6
ByLayer
 10
2.318382714028481
 20
2.5452610901947939
 30
0.0
 11
2.318382714028481
 21
1.8803404812571609
 31
0.0
  0
LINE
  5
10E
100
AcDbEntity
100
AcDbLine
  8
text
 62
256
370
-1
 48
1.0
  6
ByLayer
 10
2.318382714028481
 20
1.8803404812571609
 30
0.0
 11
3.8245211982321119
 21
1.8803404812571609
 31
0.0
  0
LINE
  5
10F
100
AcDbEntity
100
AcDbLine
  8
text
 62
256
370
-1
 48
1.0
  6
ByLayer
 10
3.8245211982321119
 20
1.8803404812571609
 30
0.0
 11
3.8245211982321119
 21
1.375020461614012
 31
0.0
  0
LINE
  5
110
100
AcDbEntity
100
AcDbLine
  8
text
 62
256
370
-1
 48
1.0
  6
ByLayer
 10
3.8245211982321119
 20
1.375020461614012
 30
0.0
 11
2.318382714028481
 21
1.375020461614012
 31
0.0
  0
LINE
  5
111
100
AcDbEntity
100
AcDbLine
  8
text
 62
256
370
-1
 48
1.0
  6
ByLayer
 10
2.318382714028481
 20
1.375020461614012
 30
0.0
 11
2.318382714028481
 21
0.558356523162546
 31
0.0
  0
LINE
  5
112
100
AcDbEntity
100
AcDbLine
  8
text
 62
256
370
-1
 48
1.0
  6
ByLayer
 10
2.318382714028481
 20
0.558356523162546
 30
0.0
 11
3.994434440988698
 21
0.558356523162546
 31
0.0
  0
LINE
  5
113
100
AcDbEntity
100
AcDbLine
  8
text
 62
256
370
-1
 48
1.0
  6
ByLayer
 10
3.994434440988698
 20
0.558356523162546
 30
0.0
 11
3.994434440988698
 21
0.0530365035193974
 31
0.0
  0
LINE
  5
114
100
AcDbEntity
100
AcDbLine
  8
text
 62
256
370
-1
 48
1.0
  6
ByLayer
 10
3.994434440988698
 20
0.0530365035193974
 30
0.0
 11
1.712882632182023
 21
0.0530365035193974
 31
0.0
  0
LINE
  5
115
100
AcDbEntity
100
AcDbLine
  8
text
 62
256
370
-1
 48
1.0
  6
ByLayer
 10
5.1853003764936929
 20
0.0530365035193974
 30
0.0
 11
5.1853003764936929
 21
2.5452610901947939
 31
0.0
  0
LINE
  5
116
100
AcDbEntity
100
AcDbLine
  8
text
 62
256
370
-1
 48
1.0
  6
ByLayer
 10
5.1853003764936929
 20
2.5452610901947939
 30
0.0
 11
4.29497462759862
 21
2.5452610901947939
 31
0.0
  0
LINE
  5
117
100
AcDbEntity
100
AcDbLine
  8
text
 62
256
370
-1
 48
1.0
  6
ByLayer
 10
4.29497462759862
 20
2.5452610901947939
 30
0.0
 11
4.29497462759862
 21
3.0530365035193969
 31
0.0
  0
LINE
  5
118
100
AcDbEntity
100
AcDbLine
  8
text
 62
256
370
-1
 48
1.0
  6
ByLayer
 10
4.29497462759862
 20
3.0530365035193969
 30
0.0
 11
6.6791618922900611
 21
3.0530365035193969
 31
0.0
  0
LINE
  5
119
100
AcDbEntity
100
AcDbLine
  8
text
 62
256
370
-1
 48
1.0
  6
ByLayer
 10
6.6791618922900611
 20
3.0530365035193969
 30
0.0
 11
6.6791618922900611
 21
2.5452610901947939
 31
0.0
  0
LINE
  5
11A
100
AcDbEntity
100
AcDbLine
  8
text
 62
256
370
-1
 48
1.0
  6
ByLayer
 10
6.6791618922900611
 20
2.5452610901947939
 30
0.0
 11
5.7908004583401507
 21
2.5452610901947939
 31
0.0
  0
LINE
  5
11B
100
AcDbEntity
100
AcDbLine
  8
text
 62
256
370
-1
 48
1.0
  6
ByLayer
 10
5.7908004583401507
 20
2.5452610901947939
 30
0.0
 11
5.7908004583401507
 21
0.0530365035193974
 31
0.0
  0
LINE
  5
11C
100
AcDbEntity
100
AcDbLine
  8
text
 62
256
370
-1
 48
1.0
  6
ByLayer
 10
5.7908004583401507
 20
0.0530365035193974
 30
0.0
 11
5.1853003764936929
 21
0.0530365035193974
 31
0.0
  0
ENDBLK
  5
11D
100
AcDbEntity
  8
0
100
AcDbBlockEnd
  0
BLOCK
  5
11E
100
AcDbEntity
  8
0
100
AcDbBlockBegin
  2
ethernet
 70
0
 10
0.0
 20
0.0
 30
0.0
  3
ethernet
  1

  0
LINE
  5
11F
100
AcDbEntity
100
AcDbLine
  8
text
 62
256
370
-1
 48
1.0
  6
ByLayer
 10
-11.76477328531675
 20
0.0
 30
0.0
 11
-11.76477328531675
 21
3.0
 31
0.0
  0
LINE
  5
120
100
AcDbEntity
100
AcDbLine
  8
text
 62
256
370
-1
 48
1.0
  6
ByLayer
 10
-11.76477328531675
 20
3.0
 30
0.0
 11
-9.5406776886560891
 21
3.0
 31
0.0
  0
LINE
  5
121
100
AcDbEntity
100
AcDbLine
  8
text
 62
256
370
-1
 48
1.0
  6
ByLayer
 10
-9.5406776886560891
 20
3.0
 30
0.0
 11
-9.5406776886560891
 21
2.4922245866753978
 31
0.0
  0
LINE
  5
122
100
AcDbEntity
100
AcDbLine
  8
text
 62
256
370
-1
 48
1.0
  6
ByLayer
 10
-9.5406776886560891
 20
2.4922245866753978
 30
0.0
 11
-11.15927320347029
 21
2.4922245866753978
 31
0.0
  0
LINE
  5
123
100
AcDbEntity
100
AcDbLine
  8
text
 62
256
370
-1
 48
1.0
  6
ByLayer
 10
-11.15927320347029
 20
2.4922245866753978
 30
0.0
 11
-11.15927320347029
 21
1.8273039777377631
 31
0.0
  0
LINE
  5
124
100
AcDbEntity
100
AcDbLine
  8
text
 62
256
370
-1
 48
1.0
  6
ByLayer
 10
-11.15927320347029
 20
1.8273039777377631
 30
0.0
 11
-9.6531347192666601
 21
1.8273039777377631
 31
0.0
  0
LINE
  5
125
100
AcDbEntity
100
AcDbLine
  8
text
 62
256
370
-1
 48
1.0
  6
ByLayer
 10
-9.6531347192666601
 20
1.8273039777377631
 30
0.0
 11
-9.6531347192666601
 21
1.3219839580946131
 31
0.0
  0
LINE
  5
126
100
AcDbEntity
100
AcDbLine
  8
text
 62
256
370
-1
 48
1.0
  6
ByLayer
 10
-9.6531347192666601
 20
1.3219839580946131
 30
0.0
 11
-11.15927320347029
 21
1.3219839580946131
 31
0.0
  0
LINE
  5
127
100
AcDbEntity
100
AcDbLine
  8
text
 62
256
370
-1
 48
1.0
  6
ByLayer
 10
-11.15927320347029
 20
1.3219839580946131
 30
0.0
 11
-11.15927320347029
 21
0.5053200196431504
 31
0.0
  0
LINE
  5
128
100
AcDbEntity
100
AcDbLine
  8
text
 62
256
370
-1
 48
1.0
  6
ByLayer
 10
-11.15927320347029
 20
0.5053200196431504
 30
0.0
 11
-9.4832214765100673
 21
0.5053200196431504
 31
0.0
  0
LINE
  5
129
100
AcDbEntity
100
AcDbLine
  8
text
 62
256
370
-1
 48
1.0
  6
ByLayer
 10
-9.4832214765100673
 20
0.5053200196431504
 30
0.0
 11
-9.4832214765100673
 21
0.0
 31
0.0
  0
LINE
  5
12A
100
AcDbEntity
100
AcDbLine
  8
text
 62
256
370
-1
 48
1.0
  6
ByLayer
 10
-9.4832214765100673
 20
0.0
 30
0.0
 11
-11.76477328531675
 21
0.0
 31
0.0
  0
LINE
  5
12B
100
AcDbEntity
100
AcDbLine
  8
text
 62
256
370
-1
 48
1.0
  6
ByLayer
 10
-8.2923555410050795
 20
0.0
 30
0.0
 11
-8.2923555410050795
 21
2.4922245866753978
 31
0.0
  0
LINE
  5
12C
100
AcDbEntity
100
AcDbLine
  8
text
 62
256
370
-1
 48
1.0
  6
ByLayer
 10
-8.2923555410050795
 20
2.4922245866753978
 30
0.0
 11
-9.1826812899001453
 21
2.4922245866753978
 31
0.0
  0
LINE
  5
12D
100
AcDbEntity
100
AcDbLine
  8
text
 62
256
370
-1
 48
1.0
  6
ByLayer
 10
-9.1826812899001453
 20
2.4922245866753978
 30
0.0
 11
-9.1826812899001453
 21
3.0
 31
0.0
  0
LINE
  5
12E
100
AcDbEntity
100
AcDbLine
  8
text
 62
256
370
-1
 48
1.0
  6
ByLayer
 10
-9.1826812899001453
 20
3.0
 30
0.0
 11
-6.7984940252087114
 21
3.0
 31
0.0
  0
LINE
  5
12F
100
AcDbEntity
100
AcDbLine
  8
text
 62
256
370
-1
 48
1.0
  6
ByLayer
 10
-6.7984940252087114
 20
3.0
 30
0.0
 11
-6.7984940252087114
 21
2.4922245866753978
 31
0.0
  0
LINE
  5
130
100
AcDbEntity
100
AcDbLine
  8
text
 62
256
370
-1
 48
1.0
  6
ByLayer
 10
-6.7984940252087114
 20
2.4922245866753978
 30
0.0
 11
-7.6868554591586218
 21
2.4922245866753978
 31
0.0
  0
LINE
  5
131
100
AcDbEntity
100
AcDbLine
  8
text
 62
256
370
-1
 48
1.0
  6
ByLayer
 10
-7.6868554591586218
 20
2.4922245866753978
 30
0.0
 11
-7.6868554591586218
 21
0.0
 31
0.0
  0
LINE
  5
132
100
AcDbEntity
100
AcDbLine
  8
text
 62
256
370
-1
 48
1.0
  6
ByLayer
 10
-7.6868554591586218
 20
0.0
 30
0.0
 11
-8.2923555410050795
 21
0.0
 31
0.0
  0
LINE
  5
133
100
AcDbEntity
100
AcDbLine
  8
text
 62
256
370
-1
 48
1.0
  6
ByLayer
 10
-6.4198723195285652
 20
0.0
 30
0.0
 11
-6.4198723195285652
 21
3.0
 31
0.0
  0
LINE
  5
134
100
AcDbEntity
100
AcDbLine
  8
text
 62
256
370
-1
 48
1.0
  6
ByLayer
 10
-6.4198723195285652
 20
3.0
 30
0.0
 11
-5.8143722376821074
 21
3.0
 31
0.0
  0
LINE
  5
135
100
AcDbEntity
100
AcDbLine
  8
text
 62
256
370
-1
 48
1.0
  6
ByLayer
 10
-5.8143722376821074
 20
3.0
 30
0.0
 11
-5.8143722376821074
 21
1.818955639220825
 31
0.0
  0
LINE
  5
136
100
AcDbEntity
100
AcDbLine
  8
text
 62
256
370
-1
 48
1.0
  6
ByLayer
 10
-5.8143722376821074
 20
1.818955639220825
 30
0.0
 11
-4.6274349320674446
 21
1.818955639220825
 31
0.0
  0
LINE
  5
137
100
AcDbEntity
100
AcDbLine
  8
text
 62
256
370
-1
 48
1.0
  6
ByLayer
 10
-4.6274349320674446
 20
1.818955639220825
 30
0.0
 11
-4.6274349320674446
 21
3.0
 31
0.0
  0
LINE
  5
138
100
AcDbEntity
100
AcDbLine
  8
text
 62
256
370
-1
 48
1.0
  6
ByLayer
 10
-4.6274349320674446
 20
3.0
 30
0.0
 11
-4.021443771484698
 21
3.0
 31
0.0
  0
LINE
  5
139
100
AcDbEntity
100
AcDbLine
  8
text
 62
256
370
-1
 48
1.0
  6
ByLayer
 10
-4.021443771484698
 20
3.0
 30
0.0
 11
-4.021443771484698
 21
0.0
 31
0.0
  0
LINE
  5
13A
100
AcDbEntity
100
AcDbLine
  8
text
 62
256
370
-1
 48
1.0
  6
ByLayer
 10
-4.021443771484698
 20
0.0
 30
0.0
 11
-4.6274349320674446
 21
0.0
 31
0.0
  0
LINE
  5
13B
100
AcDbEntity
100
AcDbLine
  8
text
 62
256
370
-1
 48
1.0
  6
ByLayer
 10
-4.6274349320674446
 20
0.0
 30
0.0
 11
-4.6274349320674446
 21
1.3116713046325119
 31
0.0
  0
LINE
  5
13C
100
AcDbEntity
100
AcDbLine
  8
text
 62
256
370
-1
 48
1.0
  6
ByLayer
 10
-4.6274349320674446
 20
1.3116713046325119
 30
0.0
 11
-5.8143722376821074
 21
1.3116713046325119
 31
0.0
  0
LINE
  5
13D
100
AcDbEntity
100
AcDbLine
  8
text
 62
256
370
-1
 48
1.0
  6
ByLayer
 10
-5.8143722376821074
 20
1.3116713046325119
 30
0.0
 11
-5.8143722376821074
 21
0.0
 31
0.0
  0
LINE
  5
13E
100
AcDbEntity
100
AcDbLine
  8
text
 62
256
370
-1
 48
1.0
  6
ByLayer
 10
-5.8143722376821074
 20
0.0
 30
0.0
 11
-6.4198723195285652
 21
0.0
 31
0.0
  0
LINE
  5
13F
100
AcDbEntity
100
AcDbLine
  8
text
 62
256
370
-1
 48
1.0
  6
ByLayer
 10
-3.4046488787035538
 20
0.0
 30
0.0
 11
-3.4046488787035538
 21
3.0
 31
0.0
  0
LINE
  5
140
100
AcDbEntity
100
AcDbLine
  8
text
 62
256
370
-1
 48
1.0
  6
ByLayer
 10
-3.4046488787035538
 20
3.0
 30
0.0
 11
-1.1805532820428939
 21
3.0
 31
0.0
  0
LINE
  5
141
100
AcDbEntity
100
AcDbLine
  8
text
 62
256
370
-1
 48
1.0
  6
ByLayer
 10
-1.1805532820428939
 20
3.0
 30
0.0
 11
-1.1805532820428939
 21
2.4922245866753978
 31
0.0
  0
LINE
  5
142
100
AcDbEntity
100
AcDbLine
  8
text
 62
256
370
-1
 48
1.0
  6
ByLayer
 10
-1.1805532820428939
 20
2.4922245866753978
 30
0.0
 11
-2.7991487968570961
 21
2.4922245866753978
 31
0.0
  0
LINE
  5
143
100
AcDbEntity
100
AcDbLine
  8
text
 62
256
370
-1
 48
1.0
  6
ByLayer
 10
-2.7991487968570961
 20
2.4922245866753978
 30
0.0
 11
-2.7991487968570961
 21
1.8273039777377631
 31
0.0
  0
LINE
  5
144
100
AcDbEntity
100
AcDbLine
  8
text
 62
256
370
-1
 48
1.0
  6
ByLayer
 10
-2.7991487968570961
 20
1.8273039777377631
 30
0.0
 11
-1.2930103126534651
 21
1.8273039777377631
 31
0.0
  0
LINE
  5
145
100
AcDbEntity
100
AcDbLine
  8
text
 62
256
370
-1
 48
1.0
  6
ByLayer
 10
-1.2930103126534651
 20
1.8273039777377631
 30
0.0
 11
-1.2930103126534651
 21
1.3219839580946131
 31
0.0
  0
LINE
  5
146
100
AcDbEntity
100
AcDbLine
  8
text
 62
256
370
-1
 48
1.0
  6
ByLayer
 10
-1.2930103126534651
 20
1.3219839580946131
 30
0.0
 11
-2.7991487968570961
 21
1.3219839580946131
 31
0.0
  0
LINE
  5
147
100
AcDbEntity
100
AcDbLine
  8
text
 62
256
370
-1
 48
1.0
  6
ByLayer
 10
-2.7991487968570961
 20
1.3219839580946131
 30
0.0
 11
-2.7991487968570961
 21
0.5053200196431504
 31
0.0
  0
LINE
  5
148
100
AcDbEntity
100
AcDbLine
  8
text
 62
256
370
-1
 48
1.0
  6
ByLayer
 10
-2.7991487968570961
 20
0.5053200196431504
 30
0.0
 11
-1.1230970698968721
 21
0.5053200196431504
 31
0.0
  0
LINE
  5
149
100
AcDbEntity
100
AcDbLine
  8
text
 62
256
370
-1
 48
1.0
  6
ByLayer
 10
-1.1230970698968721
 20
0.5053200196431504
 30
0.0
 11
-1.1230970698968721
 21
0.0
 31
0.0
  0
LINE
  5
14A
100
AcDbEntity
100
AcDbLine
  8
text
 62
256
370
-1
 48
1.0
  6
ByLayer
 10
-1.1230970698968721
 20
0.0
 30
0.0
 11
-3.4046488787035538
 21
0.0
 31
0.0
  0
LINE
  5
14B
100
AcDbEntity
100
AcDbLine
  8
text
 62
256
370
-1
 48
1.0
  6
ByLayer
 10
-0.6055000818464578
 20
0.0
 30
0.0
 11
-0.6055000818464578
 21
3.0
 31
0.0
  0
LINE
  5
14C
100
AcDbEntity
100
AcDbLine
  8
text
 62
256
370
-1
 48
1.0
  6
ByLayer
 10
-0.6055000818464578
 20
3.0
 30
0.0
 11
0.6693403175642487
 21
3.0
 31
0.0
  0
SPLINE
  5
14D
  8
text
 62
256
370
-1
 48
1.0
  6
ByLayer
100
AcDbEntity
100
AcDbSpline
 70
8
 71
3
 72
8
 73
4
 74
0
 40
0.0
 40
0.0
 40
0.0
 40
0.0
 40
1.0
 40
1.0
 40
1.0
 40
1.0
 10
0.6693403175642487
 20
3.0
 30
0.0
 10
0.989851039449988
 20
3.0
 30
0.0
 10
1.2227860533638899
 20
2.9730725159600548
 30
0.0
 10
1.3681453593059421
 20
2.9192175478801801
 30
0.0
  0
SPLINE
  5
14E
  8
text
 62
256
370
-1
 48
1.0
  6
ByLayer
100
AcDbEntity
100
AcDbSpline
 70
8
 71
3
 72
8
 73
4
 74
0
 40
0.0
 40
0.0
 40
0.0
 40
0.0
 40
1.0
 40
1.0
 40
1.0
 40
1.0
 10
1.3681453593059421
 20
2.9192175478801801
 30
0.0
 10
1.5135046652479931
 20
2.8653625798002911
 30
0.0
 10
1.629808479292848
 20
2.7695203797675561
 30
0.0
 10
1.7170568014404921
 20
2.6316909477819621
 30
0.0
  0
SPLINE
  5
14F
  8
text
 62
256
370
-1
 48
1.0
  6
ByLayer
100
AcDbEntity
100
AcDbSpline
 70
8
 71
3
 72
8
 73
4
 74
0
 40
0.0
 40
0.0
 40
0.0
 40
0.0
 40
1.0
 40
1.0
 40
1.0
 40
1.0
 10
1.7170568014404921
 20
2.6316909477819621
 30
0.0
 10
1.8043051235881511
 20
2.4938615157963682
 30
0.0
 10
1.847929284661973
 20
2.3362252414470461
 30
0.0
 10
1.847929284661973
 20
2.158782124733996
 30
0.0
  0
SPLINE
  5
150
  8
text
 62
256
370
-1
 48
1.0
  6
ByLayer
100
AcDbEntity
100
AcDbSpline
 70
8
 71
3
 72
8
 73
4
 74
0
 40
0.0
 40
0.0
 40
0.0
 40
0.0
 40
1.0
 40
1.0
 40
1.0
 40
1.0
 10
1.847929284661973
 20
2.158782124733996
 30
0.0
 10
1.847929284661973
 20
1.9338680635128469
 30
0.0
 10
1.7817973481748199
 20
1.748076608282858
 30
0.0
 10
1.649533475200528
 20
1.601407759044037
 30
0.0
  0
SPLINE
  5
151
  8
text
 62
256
370
-1
 48
1.0
  6
ByLayer
100
AcDbEntity
100
AcDbSpline
 70
8
 71
3
 72
8
 73
4
 74
0
 40
0.0
 40
0.0
 40
0.0
 40
0.0
 40
1.0
 40
1.0
 40
1.0
 40
1.0
 10
1.649533475200528
 20
1.601407759044037
 30
0.0
 10
1.517269602226222
 20
1.4547389098052079
 30
0.0
 10
1.319528564413162
 20
1.362252414470454
 30
0.0
 10
1.0563103617613341
 20
1.3239482730397749
 30
0.0
  0
SPLINE
  5
152
  8
text
 62
256
370
-1
 48
1.0
  6
ByLayer
100
AcDbEntity
100
AcDbSpline
 70
8
 71
3
 72
8
 73
4
 74
0
 40
0.0
 40
0.0
 40
0.0
 40
0.0
 40
1.0
 40
1.0
 40
1.0
 40
1.0
 10
1.0563103617613341
 20
1.3239482730397749
 30
0.0
 10
1.18726469143887
 20
1.2476673760026169
 30
0.0
 10
1.2953838598788681
 20
1.1637747585529541
 30
0.0
 10
1.380667867081357
 20
1.0722704206907849
 30
0.0
  0
SPLINE
  5
153
  8
text
 62
256
370
-1
 48
1.0
  6
ByLayer
100
AcDbEntity
100
AcDbSpline
 70
8
 71
3
 72
8
 73
4
 74
0
 40
0.0
 40
0.0
 40
0.0
 40
0.0
 40
1.0
 40
1.0
 40
1.0
 40
1.0
 10
1.380667867081357
 20
1.0722704206907849
 30
0.0
 10
1.465951874283846
 20
0.980766082828616
 30
0.0
 10
1.5807824521198199
 20
0.8184645604845287
 30
0.0
 10
1.725159600589294
 20
0.5853658536585371
 30
0.0
  0
LINE
  5
154
100
AcDbEntity
100
AcDbLine
  8
text
 62
256
370
-1
 48
1.0
  6
ByLayer
 10
1.725159600589294
 20
0.5853658536585371
 30
0.0
 11
2.0915043378621618
 21
0.0
 31
0.0
  0
LINE
  5
155
100
AcDbEntity
100
AcDbLine
  8
text
 62
256
370
-1
 48
1.0
  6
ByLayer
 10
2.0915043378621618
 20
0.0
 30
0.0
 11
1.3671632018333639
 21
0.0
 31
0.0
  0
LINE
  5
156
100
AcDbEntity
100
AcDbLine
  8
text
 62
256
370
-1
 48
1.0
  6
ByLayer
 10
1.3671632018333639
 20
0.0
 30
0.0
 11
0.9291209690620406
 21
0.6526436405303642
 31
0.0
  0
SPLINE
  5
157
  8
text
 62
256
370
-1
 48
1.0
  6
ByLayer
100
AcDbEntity
100
AcDbSpline
 70
8
 71
3
 72
8
 73
4
 74
0
 40
0.0
 40
0.0
 40
0.0
 40
0.0
 40
1.0
 40
1.0
 40
1.0
 40
1.0
 10
0.9291209690620406
 20
0.6526436405303642
 30
0.0
 10
0.7736127025699773
 20
0.8860697331805554
 30
0.0
 10
0.6672123097069829
 20
1.0331478146996249
 30
0.0
 10
0.6099197904730715
 20
1.0938778850875721
 30
0.0
  0
SPLINE
  5
158
  8
text
 62
256
370
-1
 48
1.0
  6
ByLayer
100
AcDbEntity
100
AcDbSpline
 70
8
 71
3
 72
8
 73
4
 74
0
 40
0.0
 40
0.0
 40
0.0
 40
0.0
 40
1.0
 40
1.0
 40
1.0
 40
1.0
 10
0.6099197904730715
 20
1.0938778850875721
 30
0.0
 10
0.5526272712391602
 20
1.1546079554755271
 30
0.0
 10
0.4919790473072538
 20
1.1961859551481451
 30
0.0
 10
0.4279751186773666
 20
1.218611884105421
 30
0.0
  0
SPLINE
  5
159
  8
text
 62
256
370
-1
 48
1.0
  6
ByLayer
100
AcDbEntity
100
AcDbSpline
 70
8
 71
3
 72
8
 73
4
 74
0
 40
0.0
 40
0.0
 40
0.0
 40
0.0
 40
1.0
 40
1.0
 40
1.0
 40
1.0
 10
0.4279751186773666
 20
1.218611884105421
 30
0.0
 10
0.3639711900474794
 20
1.2410378130626969
 30
0.0
 10
0.2622360451792503
 20
1.252250777541335
 30
0.0
 10
0.1227696840726793
 20
1.252250777541335
 30
0.0
  0
LINE
  5
15A
100
AcDbEntity
100
AcDbLine
  8
text
 62
256
370
-1
 48
1.0
  6
ByLayer
 10
0.1227696840726793
 20
1.252250777541335
 30
0.0
 11
0.0
 21
1.252250777541335
 31
0.0
  0
LINE
  5
15B
100
AcDbEntity
100
AcDbLine
  8
text
 62
256
370
-1
 48
1.0
  6
ByLayer
 10
0.0
 20
1.252250777541335
 30
0.0
 11
0.0
 21
0.0
 31
0.0
  0
LINE
  5
15C
100
AcDbEntity
100
AcDbLine
  8
text
 62
256
370
-1
 48
1.0
  6
ByLayer
 10
0.0
 20
0.0
 30
0.0
 11
-0.6055000818464578
 21
0.0
 31
0.0
  0
LINE
  5
15D
100
AcDbEntity
100
AcDbLine
  8
text
 62
256
370
-1
 48
1.0
  6
ByLayer
 10
0.0
 20
1.7310525454247809
 30
0.0
 11
0.4483548862334175
 21
1.7310525454247809
 31
0.0
  0
SPLINE
  5
15E
  8
text
 62
256
370
-1
 48
1.0
  6
ByLayer
100
AcDbEntity
100
AcDbSpline
 70
8
 71
3
 72
8
 73
4
 74
0
 40
0.0
 40
0.0
 40
0.0
 40
0.0
 40
1.0
 40
1.0
 40
1.0
 40
1.0
 10
0.4483548862334175
 20
1.7310525454247809
 30
0.0
 10
0.7390734981175342
 20
1.7310525454247809
 30
0.0
 10
0.9205270911769503
 20
1.7433295138320519
 30
0.0
 10
0.9927156654116942
 20
1.7678834506465859
 30
0.0
  0
SPLINE
  5
15F
  8
text
 62
256
370
-1
 48
1.0
  6
ByLayer
100
AcDbEntity
100
AcDbSpline
 70
8
 71
3
 72
8
 73
4
 74
0
 40
0.0
 40
0.0
 40
0.0
 40
0.0
 40
1.0
 40
1.0
 40
1.0
 40
1.0
 10
0.9927156654116942
 20
1.7678834506465859
 30
0.0
 10
1.0649042396464239
 20
1.792437387461121
 30
0.0
 10
1.1214601407759091
 20
1.8347520052381729
 30
0.0
 10
1.162383368800135
 20
1.894827303977735
 30
0.0
  0
SPLINE
  5
160
  8
text
 62
256
370
-1
 48
1.0
  6
ByLayer
100
AcDbEntity
100
AcDbSpline
 70
8
 71
3
 72
8
 73
4
 74
0
 40
0.0
 40
0.0
 40
0.0
 40
0.0
 40
1.0
 40
1.0
 40
1.0
 40
1.0
 10
1.162383368800135
 20
1.894827303977735
 30
0.0
 10
1.2033065968243619
 20
1.954902602717304
 30
0.0
 10
1.223768210836468
 20
2.029955802913733
 30
0.0
 10
1.223768210836468
 20
2.1199869045670279
 30
0.0
  0
SPLINE
  5
161
  8
text
 62
256
370
-1
 48
1.0
  6
ByLayer
100
AcDbEntity
100
AcDbSpline
 70
8
 71
3
 72
8
 73
4
 74
0
 40
0.0
 40
0.0
 40
0.0
 40
0.0
 40
1.0
 40
1.0
 40
1.0
 40
1.0
 10
1.223768210836468
 20
2.1199869045670279
 30
0.0
 10
1.223768210836468
 20
2.2208217384187279
 30
0.0
 10
1.196840726796538
 20
2.3023408086429882
 30
0.0
 10
1.1429857587166481
 20
2.3645441152398088
 30
0.0
  0
SPLINE
  5
162
  8
text
 62
256
370
-1
 48
1.0
  6
ByLayer
100
AcDbEntity
100
AcDbSpline
 70
8
 71
3
 72
8
 73
4
 74
0
 40
0.0
 40
0.0
 40
0.0
 40
0.0
 40
1.0
 40
1.0
 40
1.0
 40
1.0
 10
1.1429857587166481
 20
2.3645441152398088
 30
0.0
 10
1.0891307906367591
 20
2.4267474218366369
 30
0.0
 10
1.0130954329677451
 20
2.4660337207398939
 30
0.0
 10
0.9148796857096073
 20
2.4824030119495859
 30
0.0
  0
SPLINE
  5
163
  8
text
 62
256
370
-1
 48
1.0
  6
ByLayer
100
AcDbEntity
100
AcDbSpline
 70
8
 71
3
 72
8
 73
4
 74
0
 40
0.0
 40
0.0
 40
0.0
 40
0.0
 40
1.0
 40
1.0
 40
1.0
 40
1.0
 10
0.9148796857096073
 20
2.4824030119495859
 30
0.0
 10
0.8657718120805384
 20
2.488950728433458
 30
0.0
 10
0.7184481911933176
 20
2.4922245866753978
 30
0.0
 10
0.472908823047959
 20
2.4922245866753978
 30
0.0
  0
LINE
  5
164
100
AcDbEntity
100
AcDbLine
  8
text
 62
256
370
-1
 48
1.0
  6
ByLayer
 10
0.472908823047959
 20
2.4922245866753978
 30
0.0
 11
0.0
 21
2.4922245866753978
 31
0.0
  0
LINE
  5
165
100
AcDbEntity
100
AcDbLine
  8
text
 62
256
370
-1
 48
1.0
  6
ByLayer
 10
0.0
 20
2.4922245866753978
 30
0.0
 11
0.0
 21
1.7310525454247809
 31
0.0
  0
LINE
  5
166
100
AcDbEntity
100
AcDbLine
  8
text
 62
256
370
-1
 48
1.0
  6
ByLayer
 10
2.4156163038140481
 20
0.0
 30
0.0
 11
2.4156163038140481
 21
3.0
 31
0.0
  0
LINE
  5
167
100
AcDbEntity
100
AcDbLine
  8
text
 62
256
370
-1
 48
1.0
  6
ByLayer
 10
2.4156163038140481
 20
3.0
 30
0.0
 11
3.0049107873629031
 21
3.0
 31
0.0
  0
LINE
  5
168
100
AcDbEntity
100
AcDbLine
  8
text
 62
256
370
-1
 48
1.0
  6
ByLayer
 10
3.0049107873629031
 20
3.0
 30
0.0
 11
4.2330987068259986
 21
0.9963987559338676
 31
0.0
  0
LINE
  5
169
100
AcDbEntity
100
AcDbLine
  8
text
 62
256
370
-1
 48
1.0
  6
ByLayer
 10
4.2330987068259986
 20
0.9963987559338676
 30
0.0
 11
4.2330987068259986
 21
3.0
 31
0.0
  0
LINE
  5
16A
100
AcDbEntity
100
AcDbLine
  8
text
 62
256
370
-1
 48
1.0
  6
ByLayer
 10
4.2330987068259986
 20
3.0
 30
0.0
 11
4.7958749386151567
 21
3.0
 31
0.0
  0
LINE
  5
16B
100
AcDbEntity
100
AcDbLine
  8
text
 62
256
370
-1
 48
1.0
  6
ByLayer
 10
4.7958749386151567
 20
3.0
 30
0.0
 11
4.7958749386151567
 21
0.0
 31
0.0
  0
LINE
  5
16C
100
AcDbEntity
100
AcDbLine
  8
text
 62
256
370
-1
 48
1.0
  6
ByLayer
 10
4.7958749386151567
 20
0.0
 30
0.0
 11
4.1879194630872547
 21
0.0
 31
0.0
  0
LINE
  5
16D
100
AcDbEntity
100
AcDbLine
  8
text
 62
256
370
-1
 48
1.0
  6
ByLayer
 10
4.1879194630872547
 20
0.0
 30
0.0
 11
2.9783925356032062
 21
1.956457685382226
 31
0.0
  0
LINE
  5
16E
100
AcDbEntity
100
AcDbLine
  8
text
 62
256
370
-1
 48
1.0
  6
ByLayer
 10
2.9783925356032062
 20
1.956457685382226
 30
0.0
 11
2.9783925356032062
 21
0.0
 31
0.0
  0
LINE
  5
16F
100
AcDbEntity
100
AcDbLine
  8
text
 62
256
370
-1
 48
1.0
  6
ByLayer
 10
2.9783925356032062
 20
0.0
 30
0.0
 11
2.4156163038140481
 21
0.0
 31
0.0
  0
LINE
  5
170
100
AcDbEntity
100
AcDbLine
  8
text
 62
256
370
-1
 48
1.0
  6
ByLayer
 10
5.4269111147487337
 20
0.0
 30
0.0
 11
5.4269111147487337
 21
3.0
 31
0.0
  0
LINE
  5
171
100
AcDbEntity
100
AcDbLine
  8
text
 62
256
370
-1
 48
1.0
  6
ByLayer
 10
5.4269111147487337
 20
3.0
 30
0.0
 11
7.6510067114093943
 21
3.0
 31
0.0
  0
LINE
  5
172
100
AcDbEntity
100
AcDbLine
  8
text
 62
256
370
-1
 48
1.0
  6
ByLayer
 10
7.6510067114093943
 20
3.0
 30
0.0
 11
7.6510067114093943
 21
2.4922245866753978
 31
0.0
  0
LINE
  5
173
100
AcDbEntity
100
AcDbLine
  8
text
 62
256
370
-1
 48
1.0
  6
ByLayer
 10
7.6510067114093943
 20
2.4922245866753978
 30
0.0
 11
6.0324111965951914
 21
2.4922245866753978
 31
0.0
  0
LINE
  5
174
100
AcDbEntity
100
AcDbLine
  8
text
 62
256
370
-1
 48
1.0
  6
ByLayer
 10
6.0324111965951914
 20
2.4922245866753978
 30
0.0
 11
6.0324111965951914
 21
1.8273039777377631
 31
0.0
  0
LINE
  5
175
100
AcDbEntity
100
AcDbLine
  8
text
 62
256
370
-1
 48
1.0
  6
ByLayer
 10
6.0324111965951914
 20
1.8273039777377631
 30
0.0
 11
7.5385496807988233
 21
1.8273039777377631
 31
0.0
  0
LINE
  5
176
100
AcDbEntity
100
AcDbLine
  8
text
 62
256
370
-1
 48
1.0
  6
ByLayer
 10
7.5385496807988233
 20
1.8273039777377631
 30
0.0
 11
7.5385496807988233
 21
1.3219839580946131
 31
0.0
  0
LINE
  5
177
100
AcDbEntity
100
AcDbLine
  8
text
 62
256
370
-1
 48
1.0
  6
ByLayer
 10
7.5385496807988233
 20
1.3219839580946131
 30
0.0
 11
6.0324111965951914
 21
1.3219839580946131
 31
0.0
  0
LINE
  5
178
100
AcDbEntity
100
AcDbLine
  8
text
 62
256
370
-1
 48
1.0
  6
ByLayer
 10
6.0324111965951914
 20
1.3219839580946131
 30
0.0
 11
6.0324111965951914
 21
0.5053200196431504
 31
0.0
  0
LINE
  5
179
100
AcDbEntity
100
AcDbLine
  8
text
 62
256
370
-1
 48
1.0
  6
ByLayer
 10
6.0324111965951914
 20
0.5053200196431504
 30
0.0
 11
7.7084629235554161
 21
0.5053200196431504
 31
0.0
  0
LINE
  5
17A
100
AcDbEntity
100
AcDbLine
  8
text
 62
256
370
-1
 48
1.0
  6
ByLayer
 10
7.7084629235554161
 20
0.5053200196431504
 30
0.0
 11
7.7084629235554161
 21
0.0
 31
0.0
  0
LINE
  5
17B
100
AcDbEntity
100
AcDbLine
  8
text
 62
256
370
-1
 48
1.0
  6
ByLayer
 10
7.7084629235554161
 20
0.0
 30
0.0
 11
5.4269111147487337
 21
0.0
 31
0.0
  0
LINE
  5
17C
100
AcDbEntity
100
AcDbLine
  8
text
 62
256
370
-1
 48
1.0
  6
ByLayer
 10
8.8993288590604038
 20
0.0
 30
0.0
 11
8.8993288590604038
 21
2.4922245866753978
 31
0.0
  0
LINE
  5
17D
100
AcDbEntity
100
AcDbLine
  8
text
 62
256
370
-1
 48
1.0
  6
ByLayer
 10
8.8993288590604038
 20
2.4922245866753978
 30
0.0
 11
8.0090031101653238
 21
2.4922245866753978
 31
0.0
  0
LINE
  5
17E
100
AcDbEntity
100
AcDbLine
  8
text
 62
256
370
-1
 48
1.0
  6
ByLayer
 10
8.0090031101653238
 20
2.4922245866753978
 30
0.0
 11
8.0090031101653238
 21
3.0
 31
0.0
  0
LINE
  5
17F
100
AcDbEntity
100
AcDbLine
  8
text
 62
256
370
-1
 48
1.0
  6
ByLayer
 10
8.0090031101653238
 20
3.0
 30
0.0
 11
10.39319037485677
 21
3.0
 31
0.0
  0
LINE
  5
180
100
AcDbEntity
100
AcDbLine
  8
text
 62
256
370
-1
 48
1.0
  6
ByLayer
 10
10.39319037485677
 20
3.0
 30
0.0
 11
10.39319037485677
 21
2.4922245866753978
 31
0.0
  0
LINE
  5
181
100
AcDbEntity
100
AcDbLine
  8
text
 62
256
370
-1
 48
1.0
  6
ByLayer
 10
10.39319037485677
 20
2.4922245866753978
 30
0.0
 11
9.5048289409068616
 21
2.4922245866753978
 31
0.0
  0
LINE
  5
182
100
AcDbEntity
100
AcDbLine
  8
text
 62
256
370
-1
 48
1.0
  6
ByLayer
 10
9.5048289409068616
 20
2.4922245866753978
 30
0.0
 11
9.5048289409068616
 21
0.0
 31
0.0
  0
LINE
  5
183
100
AcDbEntity
100
AcDbLine
  8
text
 62
256
370
-1
 48
1.0
  6
ByLayer
 10
9.5048289409068616
 20
0.0
 30
0.0
 11
8.8993288590604038
 21
0.0
 31
0.0
  0
ENDBLK
  5
184
100
AcDbEntity
  8
0
100
AcDbBlockEnd
  0
ENDSEC
  0
SECTION
  2
ENTITIES
  0
LINE
  5
185
100
AcDbEntity
100
AcDbLine
  8
0
 62
256
370
-3
 48
1.0
  6
ByLayer
 10
0.5999999999999943
 20
91.202291488092968
 30
0.0
 11
0.5999999999999943
 21
35.002291488092951
 31
0.0
  0
LINE
  5
186
100
AcDbEntity
100
AcDbLine
  8
0
 62
256
370
-3
 48
1.0
  6
ByLayer
 10
86.0
 20
35.002291488092951
 30
0.0
 11
86.0
 21
91.202291488092968
 31
0.0
  0
LINE
  5
187
100
AcDbEntity
100
AcDbLine
  8
0
 62
256
370
-3
 48
1.0
  6
ByLayer
 10
0.5999999999999943
 20
35.002291488092951
 30
0.0
 11
86.0
 21
35.002291488092951
 31
0.0
  0
LINE
  5
188
100
AcDbEntity
100
AcDbLine
  8
0
 62
256
370
-3
 48
1.0
  6
ByLayer
 10
86.0
 20
91.202291488092968
 30
0.0
 11
0.5999999999999943
 21
91.202291488092968
 31
0.0
  0
CIRCLE
  5
189
100
AcDbEntity
100
AcDbCircle
  8
connector cutout
 62
256
370
-1
 48
1.0
  6
ByLayer
 10
126.5
 20
63.70229148809296
 30
0.0
 40
10.0
  0
CIRCLE
  5
18A
100
AcDbEntity
100
AcDbCircle
  8
connector cutout
 62
256
370
-1
 48
1.0
  6
ByLayer
 10
82.800000000000011
 20
88.102291488092945
 30
0.0
 40
1.5
  0
CIRCLE
  5
18B
100
AcDbEntity
100
AcDbCircle
  8
connector cutout
 62
256
370
-1
 48
1.0
  6
ByLayer
 10
82.800000000000011
 20
38.102291488092938
 30
0.0
 40
1.5
  0
CIRCLE
  5
18C
100
AcDbEntity
100
AcDbCircle
  8
connector cutout
 62
256
370
-1
 48
1.0
  6
ByLayer
 10
3.7999999999999972
 20
38.102291488092938
 30
0.0
 40
1.5
  0
CIRCLE
  5
18D
100
AcDbEntity
100
AcDbCircle
  8
connector cutout
 62
256
370
-1
 48
1.0
  6
ByLayer
 10
3.7999999999999972
 20
88.102291488092945
 30
0.0
 40
1.5
  0
LINE
  5
18E
100
AcDbEntity
100
AcDbLine
  8
0
 62
256
370
-1
 48
1.0
  6
ByLayer
 10
114.0
 20
76.202291488092968
 30
0.0
 11
139.0
 21
76.202291488092968
 31
0.0
  0
LINE
  5
18F
100
AcDbEntity
100
AcDbLine
  8
0
 62
256
370
-1
 48
1.0
  6
ByLayer
 10
114.0
 20
76.202291488092968
 30
0.0
 11
114.0
 21
51.20229148809296
 31
0.0
  0
LINE
  5
190
100
AcDbEntity
100
AcDbLine
  8
0
 62
256
370
-1
 48
1.0
  6
ByLayer
 10
114.0
 20
51.20229148809296
 30
0.0
 11
139.0
 21
51.20229148809296
 31
0.0
  0
LINE
  5
191
100
AcDbEntity
100
AcDbLine
  8
0
 62
256
370
-1
 48
1.0
  6
ByLayer
 10
139.0
 20
51.20229148809296
 30
0.0
 11
139.0
 21
76.202291488092968
 31
0.0
  0
CIRCLE
  5
192
100
AcDbEntity
100
AcDbCircle
  8
connector cutout
 62
256
370
-1
 48
1.0
  6
ByLayer
 10
116.49116106688513
 20
73.727254815019378
 30
0.0
 40
1.5
  0
CIRCLE
  5
193
100
AcDbEntity
100
AcDbCircle
  8
connector cutout
 62
256
370
-1
 48
1.0
  6
ByLayer
 10
136.47599545029141
 20
73.727254815019378
 30
0.0
 40
1.5
  0
CIRCLE
  5
194
100
AcDbEntity
100
AcDbCircle
  8
connector cutout
 62
256
370
-1
 48
1.0
  6
ByLayer
 10
136.49891718281583
 20
53.724536932572384
 30
0.0
 40
1.5
  0
CIRCLE
  5
195
100
AcDbEntity
100
AcDbCircle
  8
connector cutout
 62
256
370
-1
 48
1.0
  6
ByLayer
 10
116.48824468901259
 20
53.724536932572384
 30
0.0
 40
1.5
  0
LINE
  5
196
100
AcDbEntity
100
AcDbLine
  8
0
 62
256
370
-3
 48
1.0
  6
ByLayer
 10
89.0
 20
91.200000000000003
 30
0.0
 11
89.0
 21
35.0
 31
0.0
  0
LINE
  5
197
100
AcDbEntity
100
AcDbLine
  8
0
 62
256
370
-3
 48
1.0
  6
ByLayer
 10
174.40000000000001
 20
35.0
 30
0.0
 11
174.40000000000001
 21
91.200000000000003
 31
0.0
  0
LINE
  5
198
100
AcDbEntity
100
AcDbLine
  8
0
 62
256
370
-3
 48
1.0
  6
ByLayer
 10
117.0
 20
35.0
 30
0.0
 11
174.40000000000001
 21
35.0
 31
0.0
  0
LINE
  5
199
100
AcDbEntity
100
AcDbLine
  8
0
 62
256
370
-3
 48
1.0
  6
ByLayer
 10
174.40000000000001
 20
91.200000000000003
 30
0.0
 11
148.00024521843039
 21
91.200924995775836
 31
0.0
  0
CIRCLE
  5
19A
100
AcDbEntity
100
AcDbCircle
  8
connector cutout
 62
256
370
-1
 48
1.0
  6
ByLayer
 10
171.20000000000002
 20
88.09999999999998
 30
0.0
 40
1.5
  0
CIRCLE
  5
19B
100
AcDbEntity
100
AcDbCircle
  8
connector cutout
 62
256
370
-1
 48
1.0
  6
ByLayer
 10
171.20000000000002
 20
38.09999999999998
 30
0.0
 40
1.5
  0
CIRCLE
  5
19C
100
AcDbEntity
100
AcDbCircle
  8
connector cutout
 62
256
370
-1
 48
1.0
  6
ByLayer
 10
92.200000000000003
 20
38.09999999999998
 30
0.0
 40
1.5
  0
CIRCLE
  5
19D
100
AcDbEntity
100
AcDbCircle
  8
connector cutout
 62
256
370
-1
 48
1.0
  6
ByLayer
 10
92.200000000000003
 20
88.09999999999998
 30
0.0
 40
1.5
  0
LINE
  5
19E
100
AcDbEntity
100
AcDbLine
  8
0
 62
256
370
-1
 48
1.0
  6
ByLayer
 10
89.0
 20
91.200000000000003
 30
0.0
 11
97.0
 21
91.202291488092968
 31
0.0
  0
LINE
  5
19F
100
AcDbEntity
100
AcDbLine
  8
0
 62
256
370
-1
 48
1.0
  6
ByLayer
 10
97.0
 20
91.202291488092968
 30
0.0
 11
97.0
 21
84.202291488092968
 31
0.0
  0
LINE
  5
1A0
100
AcDbEntity
100
AcDbLine
  8
0
 62
256
370
-1
 48
1.0
  6
ByLayer
 10
97.0
 20
84.202291488092968
 30
0.0
 11
148.0
 21
84.202291488092968
 31
0.0
  0
LINE
  5
1A1
100
AcDbEntity
100
AcDbLine
  8
0
 62
256
370
-1
 48
1.0
  6
ByLayer
 10
148.0
 20
84.202291488092968
 30
0.0
 11
148.00024521843042
 21
91.200924995775836
 31
0.0
  0
LINE
  5
1A2
100
AcDbEntity
100
AcDbLine
  8
0
 62
256
370
-1
 48
1.0
  6
ByLayer
 10
107.0
 20
35.0
 30
0.0
 11
107.0
 21
39.0
 31
0.0
  0
LINE
  5
1A3
100
AcDbEntity
100
AcDbLine
  8
0
 62
256
370
-1
 48
1.0
  6
ByLayer
 10
107.0
 20
39.0
 30
0.0
 11
117.0
 21
39.0
 31
0.0
  0
LINE
  5
1A4
100
AcDbEntity
100
AcDbLine
  8
0
 62
256
370
-1
 48
1.0
  6
ByLayer
 10
117.0
 20
35.0
 30
0.0
 11
117.0
 21
39.0
 31
0.0
  0
LINE
  5
1A5
100
AcDbEntity
100
AcDbLine
  8
0
 62
256
370
-1
 48
1.0
  6
ByLayer
 10
107.0
 20
35.0
 30
0.0
 11
89.0
 21
35.0
 31
0.0
  0
ENDSEC
  0
SECTION
  2
OBJECTS
  0
DICTIONARY
  5
C
100
AcDbDictionary
280
0
281
1
  3
ACAD_GROUP
350
D
  3
ACAD_LAYOUT
350
1A
  3
ACAD_MLINESTYLE
350
17
  3
ACAD_PLOTSETTINGS
350
19
  3
ACAD_PLOTSTYLENAME
350
E
  3
AcDbVariableDictionary
350
1A6
  3
QCAD_OBJECTS
350
1A7
  0
DICTIONARY
  5
D
100
AcDbDictionary
280
0
281
1
  0
ACDBDICTIONARYWDFLT
  5
E
100
AcDbDictionary
281
1
  3
Normal
350
F
100
AcDbDictionaryWithDefault
340
F
  0
ACDBPLACEHOLDER
  5
F
  0
DICTIONARY
  5
17
100
AcDbDictionary
280
0
281
1
  3
Standard
350
18
  0
MLINESTYLE
  5
18
100
AcDbMlineStyle
  2
STANDARD
 70
0
  3

 62
256
 51
90.0
 52
90.0
 71
2
 49
0.5
 62
256
  6
BYLAYER
 49
-0.5
 62
256
  6
BYLAYER
  0
DICTIONARY
  5
19
100
AcDbDictionary
280
0
281
1
  0
DICTIONARY
  5
1A
100
AcDbDictionary
281
1
  3
Layout1
350
1E
  3
Layout2
350
26
  3
Model
350
22
  0
LAYOUT
  5
1E
100
AcDbPlotSettings
  1

  2
none_device
  4

  6

 40
0.0
 41
0.0
 42
0.0
 43
0.0
 44
0.0
 45
0.0
 46
0.0
 47
0.0
 48
0.0
 49
0.0
140
0.0
141
0.0
142
1.0
143
1.0
 70
688
 72
0
 73
0
 74
5
  7

 75
16
147
1.0
148
0.0
149
0.0
100
AcDbLayout
  1
Layout1
 70
1
 71
1
 10
0.0
 20
0.0
 11
420.0
 21
297.0
 12
0.0
 22
0.0
 32
0.0
 14
100000000000000000000.0
 24
100000000000000000000.0
 34
100000000000000000000.0
 15
-100000000000000000000.0
 25
-100000000000000000000.0
 35
-100000000000000000000.0
146
0.0
 13
0.0
 23
0.0
 33
0.0
 16
1.0
 26
0.0
 36
0.0
 17
0.0
 27
1.0
 37
0.0
 76
0
330
1B
  0
LAYOUT
  5
22
100
AcDbPlotSettings
  1

  2
none_device
  4

  6

 40
0.0
 41
0.0
 42
0.0
 43
0.0
 44
0.0
 45
0.0
 46
0.0
 47
0.0
 48
0.0
 49
0.0
140
0.0
141
0.0
142
1.0
143
1.0
 70
1712
 72
0
 73
0
 74
0
  7

 75
0
147
1.0
148
0.0
149
0.0
100
AcDbLayout
  1
Model
 70
1
 71
0
 10
0.0
 20
0.0
 11
12.0
 21
9.0
 12
0.0
 22
0.0
 32
0.0
 14
0.0
 24
0.0
 34
0.0
 15
0.0
 25
0.0
 35
0.0
146
0.0
 13
0.0
 23
0.0
 33
0.0
 16
1.0
 26
0.0
 36
0.0
 17
0.0
 27
1.0
 37
0.0
 76
0
330
1F
  0
LAYOUT
  5
26
100
AcDbPlotSettings
  1

  2
none_device
  4

  6

 40
0.0
 41
0.0
 42
0.0
 43
0.0
 44
0.0
 45
0.0
 46
0.0
 47
0.0
 48
0.0
 49
0.0
140
0.0
141
0.0
142
1.0
143
1.0
 70
688
 72
0
 73
0
 74
5
  7

 75
16
147
1.0
148
0.0
149
0.0
100
AcDbLayout
  1
Layout2
 70
1
 71
2
 10
0.0
 20
0.0
 11
12.0
 21
9.0
 12
0.0
 22
0.0
 32
0.0
 14
0.0
 24
0.0
 34
0.0
 15
0.0
 25
0.0
 35
0.0
146
0.0
 13
0.0
 23
0.0
 33
0.0
 16
1.0
 26
0.0
 36
0.0
 17
0.0
 27
1.0
 37
0.0
 76
0
330
23
  0
DICTIONARY
  5
1A6
100
AcDbDictionary
281
1
  3
DIMASSOC
350
1A9
  3
HIDETEXT
350
1A8
  0
DICTIONARYVAR
  5
1A8
100
DictionaryVariables
280
0
  1
2
  0
DICTIONARYVAR
  5
1A9
100
DictionaryVariables
280
0
  1
1
  0
DICTIONARY
  5
1A7
100
AcDbDictionary
281
1
  3
Grid/DisplayGrid00
350
1AA
  3
Grid/DisplayGrid01
350
1AB
  3
Grid/DisplayGrid02
350
1AC
  3
Grid/DisplayGrid03
350
1AD
  3
Grid/GridSpacingX00
350
1AE
  3
Grid/GridSpacingX01
350
1AF
  3
Grid/GridSpacingX02
350
1B0
  3
Grid/GridSpacingX03
350
1B1
  3
Grid/GridSpacingY00
350
1B2
  3
Grid/GridSpacingY01
350
1B3
  3
Grid/GridSpacingY02
350
1B4
  3
Grid/GridSpacingY03
350
1B5
  3
Grid/IsometricGrid00
350
1B6
  3
Grid/IsometricGrid01
350
1B7
  3
Grid/IsometricGrid02
350
1B8
  3
Grid/IsometricGrid03
350
1B9
  3
Grid/IsometricProjection00
350
1BA
  3
Grid/IsometricProjection01
350
1BB
  3
Grid/IsometricProjection02
350
1BC
  3
Grid/IsometricProjection03
350
1BD
  3
Grid/MetaGridSpacingX00
350
1BE
  3
Grid/MetaGridSpacingX01
350
1BF
  3
Grid/MetaGridSpacingX02
350
1C0
  3
Grid/MetaGridSpacingX03
350
1C1
  3
Grid/MetaGridSpacingY00
350
1C2
  3
Grid/MetaGridSpacingY01
350
1C3
  3
Grid/MetaGridSpacingY02
350
1C4
  3
Grid/MetaGridSpacingY03
350
1C5
  3
MultiPageSettings/Columns
350
1C6
  3
MultiPageSettings/GlueMarginsBottom
350
1C7
  3
MultiPageSettings/GlueMarginsLeft
350
1C8
  3
MultiPageSettings/GlueMarginsRight
350
1C9
  3
MultiPageSettings/GlueMarginsTop
350
1CA
  3
MultiPageSettings/PrintCropMarks
350
1CB
  3
MultiPageSettings/Rows
350
1CC
  3
PageSettings/OffsetX
350
1CD
  3
PageSettings/OffsetY
350
1CE
  3
PageSettings/PageOrientation
350
1CF
  3
PageSettings/PaperHeight
350
1D0
  3
PageSettings/PaperWidth
350
1D1
  3
PageSettings/Scale
350
1D2
  3
PageSettings/ShowPaperBorders
350
1D3
  3
UnitSettings/PaperUnit
350
1D4
  0
XRECORD
  5
1AA
330
1A7
100
AcDbXrecord
280
1
290
1
  0
XRECORD
  5
1AB
330
1A7
100
AcDbXrecord
280
1
290
1
  0
XRECORD
  5
1AC
330
1A7
100
AcDbXrecord
280
1
290
1
  0
XRECORD
  5
1AD
330
1A7
100
AcDbXrecord
280
1
290
1
  0
XRECORD
  5
1AE
330
1A7
100
AcDbXrecord
280
1
1000
auto
  0
XRECORD
  5
1AF
330
1A7
100
AcDbXrecord
280
1
1000
auto
  0
XRECORD
  5
1B0
330
1A7
100
AcDbXrecord
280
1
1000
auto
  0
XRECORD
  5
1B1
330
1A7
100
AcDbXrecord
280
1
1000
auto
  0
XRECORD
  5
1B2
330
1A7
100
AcDbXrecord
280
1
1000
auto
  0
XRECORD
  5
1B3
330
1A7
100
AcDbXrecord
280
1
1000
auto
  0
XRECORD
  5
1B4
330
1A7
100
AcDbXrecord
280
1
1000
auto
  0
XRECORD
  5
1B5
330
1A7
100
AcDbXrecord
280
1
1000
auto
  0
XRECORD
  5
1B6
330
1A7
100
AcDbXrecord
280
1
290
0
  0
XRECORD
  5
1B7
330
1A7
100
AcDbXrecord
280
1
290
0
  0
XRECORD
  5
1B8
330
1A7
100
AcDbXrecord
280
1
290
0
  0
XRECORD
  5
1B9
330
1A7
100
AcDbXrecord
280
1
290
0
  0
XRECORD
  5
1BA
330
1A7
100
AcDbXrecord
280
1
 90
0
  0
XRECORD
  5
1BB
330
1A7
100
AcDbXrecord
280
1
 90
0
  0
XRECORD
  5
1BC
330
1A7
100
AcDbXrecord
280
1
 90
0
  0
XRECORD
  5
1BD
330
1A7
100
AcDbXrecord
280
1
 90
0
  0
XRECORD
  5
1BE
330
1A7
100
AcDbXrecord
280
1
1000
auto
  0
XRECORD
  5
1BF
330
1A7
100
AcDbXrecord
280
1
1000
auto
  0
XRECORD
  5
1C0
330
1A7
100
AcDbXrecord
280
1
1000
auto
  0
XRECORD
  5
1C1
330
1A7
100
AcDbXrecord
280
1
1000
auto
  0
XRECORD
  5
1C2
330
1A7
100
AcDbXrecord
280
1
1000
auto
  0
XRECORD
  5
1C3
330
1A7
100
AcDbXrecord
280
1
1000
auto
  0
XRECORD
  5
1C4
330
1A7
100
AcDbXrecord
280
1
1000
auto
  0
XRECORD
  5
1C5
330
1A7
100
AcDbXrecord
280
1
1000
auto
  0
XRECORD
  5
1C6
330
1A7
100
AcDbXrecord
280
1
 90
1
  0
XRECORD
  5
1C7
330
1A7
100
AcDbXrecord
280
1
 40
10.0
  0
XRECORD
  5
1C8
330
1A7
100
AcDbXrecord
280
1
 40
10.0
  0
XRECORD
  5
1C9
330
1A7
100
AcDbXrecord
280
1
 40
10.0
  0
XRECORD
  5
1CA
330
1A7
100
AcDbXrecord
280
1
 40
10.0
  0
XRECORD
  5
1CB
330
1A7
100
AcDbXrecord
280
1
290
0
  0
XRECORD
  5
1CC
330
1A7
100
AcDbXrecord
280
1
 90
1
  0
XRECORD
  5
1CD
330
1A7
100
AcDbXrecord
280
1
 40
0.0
  0
XRECORD
  5
1CE
330
1A7
100
AcDbXrecord
280
1
 40
0.0
  0
XRECORD
  5
1CF
330
1A7
100
AcDbXrecord
280
1
1000
Portrait
  0
XRECORD
  5
1D0
330
1A7
100
AcDbXrecord
280
1
 40
420.0
  0
XRECORD
  5
1D1
330
1A7
100
AcDbXrecord
280
1
 40
297.0
  0
XRECORD
  5
1D2
330
1A7
100
AcDbXrecord
280
1
1000
1:1
  0
XRECORD
  5
1D3
330
1A7
100
AcDbXrecord
280
1
290
1
  0
XRECORD
  5
1D4
330
1A7
100
AcDbXrecord
280
1
 90
4
  0
ENDSEC
  0
EOF
