  0
SECTION
  2
HEADER
  9
$ACADVER
  1
AC1027
  9
$ACADMAINTVER
 70
     8
  9
$DWGCODEPAGE
  3
ANSI_1252
  9
$REQUIREDVERSIONS
160
                 0
  9
$INSBASE
 10
0.0
 20
0.0
 30
0.0
  9
$EXTMIN
 10
1.000000000000000E+20
 20
1.000000000000000E+20
 30
1.000000000000000E+20
  9
$EXTMAX
 10
-1.000000000000000E+20
 20
-1.000000000000000E+20
 30
-1.000000000000000E+20
  9
$LIMMIN
 10
0.0
 20
0.0
  9
$LIMMAX
 10
12.0
 20
9.0
  9
$ORTHOMODE
 70
     0
  9
$REGENMODE
 70
     1
  9
$FILLMODE
 70
     1
  9
$QTEXTMODE
 70
     0
  9
$MIRRTEXT
 70
     1
  9
$LTSCALE
 40
1.0
  9
$ATTMODE
 70
     1
  9
$TEXTSIZE
 40
0.2
  9
$TRACEWID
 40
0.05
  9
$TEXTSTYLE
  7
Standard
  9
$CLAYER
  8
0
  9
$CELTYPE
  6
ByLayer
  9
$CECOLOR
 62
   256
  9
$CELTSCALE
 40
1.0
  9
$DISPSILH
 70
     0
  9
$DIMSCALE
 40
1.0
  9
$DIMASZ
 40
2.5
  9
$DIMEXO
 40
0.625
  9
$DIMDLI
 40
0.38
  9
$DIMRND
 40
0.0
  9
$DIMDLE
 40
0.0
  9
$DIMEXE
 40
1.25
  9
$DIMTP
 40
0.0
  9
$DIMTM
 40
0.0
  9
$DIMTXT
 40
2.5
  9
$DIMCEN
 40
0.09
  9
$DIMTSZ
 40
0.0
  9
$DIMTOL
 70
     0
  9
$DIMLIM
 70
     0
  9
$DIMTIH
 70
     1
  9
$DIMTOH
 70
     1
  9
$DIMSE1
 70
     0
  9
$DIMSE2
 70
     0
  9
$DIMTAD
 70
     0
  9
$DIMZIN
 70
     8
  9
$DIMBLK
  1

  9
$DIMASO
 70
     1
  9
$DIMSHO
 70
     1
  9
$DIMPOST
  1

  9
$DIMAPOST
  1

  9
$DIMALT
 70
     0
  9
$DIMALTD
 70
     2
  9
$DIMALTF
 40
25.4
  9
$DIMLFAC
 40
1.0
  9
$DIMTOFL
 70
     0
  9
$DIMTVP
 40
0.0
  9
$DIMTIX
 70
     0
  9
$DIMSOXD
 70
     0
  9
$DIMSAH
 70
     0
  9
$DIMBLK1
  1

  9
$DIMBLK2
  1

  9
$DIMSTYLE
  2
Standard
  9
$DIMCLRD
 70
     0
  9
$DIMCLRE
 70
     0
  9
$DIMCLRT
 70
     0
  9
$DIMTFAC
 40
1.0
  9
$DIMGAP
 40
0.625
  9
$DIMJUST
 70
     0
  9
$DIMSD1
 70
     0
  9
$DIMSD2
 70
     0
  9
$DIMTOLJ
 70
     1
  9
$DIMTZIN
 70
     0
  9
$DIMALTZ
 70
     0
  9
$DIMALTTZ
 70
     0
  9
$DIMUPT
 70
     0
  9
$DIMDEC
 70
     4
  9
$DIMTDEC
 70
     4
  9
$DIMALTU
 70
     2
  9
$DIMALTTD
 70
     2
  9
$DIMTXSTY
  7
Standard
  9
$DIMAUNIT
 70
     0
  9
$DIMADEC
 70
     0
  9
$DIMALTRND
 40
0.0
  9
$DIMAZIN
 70
     2
  9
$DIMDSEP
 70
    46
  9
$DIMATFIT
 70
     3
  9
$DIMFRAC
 70
     0
  9
$DIMLDRBLK
  1

  9
$DIMLUNIT
 70
     2
  9
$DIMLWD
 70
    -2
  9
$DIMLWE
 70
    -2
  9
$DIMTMOVE
 70
     0
  9
$DIMFXL
 40
1.0
  9
$DIMFXLON
 70
     0
  9
$DIMJOGANG
 40
0.7853981633974483
  9
$DIMTFILL
 70
     0
  9
$DIMTFILLCLR
 70
     0
  9
$DIMARCSYM
 70
     0
  9
$DIMLTYPE
  6

  9
$DIMLTEX1
  6

  9
$DIMLTEX2
  6

  9
$DIMTXTDIRECTION
 70
     0
  9
$LUNITS
 70
     2
  9
$LUPREC
 70
     4
  9
$SKETCHINC
 40
0.1
  9
$FILLETRAD
 40
0.5
  9
$AUNITS
 70
     0
  9
$AUPREC
 70
     0
  9
$MENU
  1
.
  9
$ELEVATION
 40
0.0
  9
$PELEVATION
 40
0.0
  9
$THICKNESS
 40
0.0
  9
$LIMCHECK
 70
     0
  9
$CHAMFERA
 40
0.0
  9
$CHAMFERB
 40
0.0
  9
$CHAMFERC
 40
0.0
  9
$CHAMFERD
 40
0.0
  9
$SKPOLY
 70
     0
  9
$TDCREATE
 40
2457433.637887662
  9
$TDUCREATE
 40
2457433.596220995
  9
$TDUPDATE
 40
2457433.637887662
  9
$TDUUPDATE
 40
2457433.596220995
  9
$TDINDWG
 40
0.0000000116
  9
$TDUSRTIMER
 40
0.0000000116
  9
$USRTIMER
 70
     1
  9
$ANGBASE
 50
0.0
  9
$ANGDIR
 70
     0
  9
$PDMODE
 70
     0
  9
$PDSIZE
 40
0.0
  9
$PLINEWID
 40
0.0
  9
$SPLFRAME
 70
     0
  9
$SPLINETYPE
 70
     6
  9
$SPLINESEGS
 70
     8
  9
$HANDSEED
  5
36A
  9
$SURFTAB1
 70
     6
  9
$SURFTAB2
 70
     6
  9
$SURFTYPE
 70
     6
  9
$SURFU
 70
     6
  9
$SURFV
 70
     6
  9
$UCSBASE
  2

  9
$UCSNAME
  2

  9
$UCSORG
 10
0.0
 20
0.0
 30
0.0
  9
$UCSXDIR
 10
1.0
 20
0.0
 30
0.0
  9
$UCSYDIR
 10
0.0
 20
1.0
 30
0.0
  9
$UCSORTHOREF
  2

  9
$UCSORTHOVIEW
 70
     0
  9
$UCSORGTOP
 10
0.0
 20
0.0
 30
0.0
  9
$UCSORGBOTTOM
 10
0.0
 20
0.0
 30
0.0
  9
$UCSORGLEFT
 10
0.0
 20
0.0
 30
0.0
  9
$UCSORGRIGHT
 10
0.0
 20
0.0
 30
0.0
  9
$UCSORGFRONT
 10
0.0
 20
0.0
 30
0.0
  9
$UCSORGBACK
 10
0.0
 20
0.0
 30
0.0
  9
$PUCSBASE
  2

  9
$PUCSNAME
  2

  9
$PUCSORG
 10
0.0
 20
0.0
 30
0.0
  9
$PUCSXDIR
 10
1.0
 20
0.0
 30
0.0
  9
$PUCSYDIR
 10
0.0
 20
1.0
 30
0.0
  9
$PUCSORTHOREF
  2

  9
$PUCSORTHOVIEW
 70
     0
  9
$PUCSORGTOP
 10
0.0
 20
0.0
 30
0.0
  9
$PUCSORGBOTTOM
 10
0.0
 20
0.0
 30
0.0
  9
$PUCSORGLEFT
 10
0.0
 20
0.0
 30
0.0
  9
$PUCSORGRIGHT
 10
0.0
 20
0.0
 30
0.0
  9
$PUCSORGFRONT
 10
0.0
 20
0.0
 30
0.0
  9
$PUCSORGBACK
 10
0.0
 20
0.0
 30
0.0
  9
$USERI1
 70
     0
  9
$USERI2
 70
     0
  9
$USERI3
 70
     0
  9
$USERI4
 70
     0
  9
$USERI5
 70
     0
  9
$USERR1
 40
0.0
  9
$USERR2
 40
0.0
  9
$USERR3
 40
0.0
  9
$USERR4
 40
0.0
  9
$USERR5
 40
0.0
  9
$WORLDVIEW
 70
     1
  9
$SHADEDGE
 70
     3
  9
$SHADEDIF
 70
    70
  9
$TILEMODE
 70
     1
  9
$MAXACTVP
 70
    64
  9
$PINSBASE
 10
0.0
 20
0.0
 30
0.0
  9
$PLIMCHECK
 70
     0
  9
$PEXTMIN
 10
1.000000000000000E+20
 20
1.000000000000000E+20
 30
1.000000000000000E+20
  9
$PEXTMAX
 10
-1.000000000000000E+20
 20
-1.000000000000000E+20
 30
-1.000000000000000E+20
  9
$PLIMMIN
 10
0.0
 20
0.0
  9
$PLIMMAX
 10
12.0
 20
9.0
  9
$UNITMODE
 70
     0
  9
$VISRETAIN
 70
     1
  9
$PLINEGEN
 70
     0
  9
$PSLTSCALE
 70
     1
  9
$TREEDEPTH
 70
  3020
  9
$CMLSTYLE
  2
Standard
  9
$CMLJUST
 70
     0
  9
$CMLSCALE
 40
1.0
  9
$PROXYGRAPHICS
 70
     1
  9
$MEASUREMENT
 70
     1
  9
$CELWEIGHT
370
    -1
  9
$ENDCAPS
280
     0
  9
$JOINSTYLE
280
     0
  9
$LWDISPLAY
290
     0
  9
$INSUNITS
 70
     4
  9
$HYPERLINKBASE
  1

  9
$STYLESHEET
  1

  9
$XEDIT
290
     1
  9
$CEPSNTYPE
380
     0
  9
$PSTYLEMODE
290
     1
  9
$FINGERPRINTGUID
  2
{568537E2-F96E-44E5-8740-4CD508556BAA}
  9
$VERSIONGUID
  2
{FAEB1C32-E019-11D5-929B-00C0DF256EC4}
  9
$EXTNAMES
290
     1
  9
$PSVPSCALE
 40
0.0
  9
$OLESTARTUP
290
     0
  9
$SORTENTS
280
   127
  9
$INDEXCTL
280
     0
  9
$HIDETEXT
280
     1
  9
$XCLIPFRAME
280
     2
  9
$HALOGAP
280
     0
  9
$OBSCOLOR
 70
   257
  9
$OBSLTYPE
280
     0
  9
$INTERSECTIONDISPLAY
280
     0
  9
$INTERSECTIONCOLOR
 70
   257
  9
$DIMASSOC
280
     2
  9
$PROJECTNAME
  1

  9
$CAMERADISPLAY
290
     0
  9
$LENSLENGTH
 40
50.0
  9
$CAMERAHEIGHT
 40
0.0
  9
$STEPSPERSEC
 40
2.0
  9
$STEPSIZE
 40
6.0
  9
$3DDWFPREC
 40
2.0
  9
$PSOLWIDTH
 40
0.25
  9
$PSOLHEIGHT
 40
4.0
  9
$LOFTANG1
 40
1.570796326794897
  9
$LOFTANG2
 40
1.570796326794897
  9
$LOFTMAG1
 40
0.0
  9
$LOFTMAG2
 40
0.0
  9
$LOFTPARAM
 70
     7
  9
$LOFTNORMALS
280
     1
  9
$LATITUDE
 40
37.795
  9
$LONGITUDE
 40
-122.394
  9
$NORTHDIRECTION
 40
0.0
  9
$TIMEZONE
 70
 -8000
  9
$LIGHTGLYPHDISPLAY
280
     1
  9
$TILEMODELIGHTSYNCH
280
     1
  9
$CMATERIAL
347
2DF
  9
$SOLIDHIST
280
     0
  9
$SHOWHIST
280
     1
  9
$DWFFRAME
280
     2
  9
$DGNFRAME
280
     2
  9
$REALWORLDSCALE
290
     1
  9
$INTERFERECOLOR
 62
   256
  9
$CSHADOW
280
     0
  9
$SHADOWPLANELOCATION
 40
0.0
  0
ENDSEC
  0
SECTION
  2
CLASSES
  0
CLASS
  1
ACDBDICTIONARYWDFLT
  2
AcDbDictionaryWithDefault
  3
ObjectDBX Classes
 90
        0
 91
        4
280
     0
281
     0
  0
CLASS
  1
VISUALSTYLE
  2
AcDbVisualStyle
  3
ObjectDBX Classes
 90
     4095
 91
        4
280
     0
281
     0
  0
CLASS
  1
MATERIAL
  2
AcDbMaterial
  3
ObjectDBX Classes
 90
     1153
 91
        4
280
     0
281
     0
  0
CLASS
  1
SCALE
  2
AcDbScale
  3
ObjectDBX Classes
 90
     1153
 91
        4
280
     0
281
     0
  0
CLASS
  1
TABLESTYLE
  2
AcDbTableStyle
  3
ObjectDBX Classes
 90
     4095
 91
        4
280
     0
281
     0
  0
CLASS
  1
MLEADERSTYLE
  2
AcDbMLeaderStyle
  3
ACDB_MLEADERSTYLE_CLASS
 90
     4095
 91
        4
280
     0
281
     0
  0
CLASS
  1
SUN
  2
AcDbSun
  3
SCENEOE
 90
     1153
 91
        4
280
     0
281
     0
  0
CLASS
  1
DICTIONARYVAR
  2
AcDbDictionaryVar
  3
ObjectDBX Classes
 90
        0
 91
        4
280
     0
281
     0
  0
CLASS
  1
CELLSTYLEMAP
  2
AcDbCellStyleMap
  3
ObjectDBX Classes
 90
     1152
 91
        4
280
     0
281
     0
  0
ENDSEC
  0
SECTION
  2
TABLES
  0
TABLE
  2
VPORT
  5
2A4
330
0
100
AcDbSymbolTable
 70
     1
  0
VPORT
  5
2C4
330
2A4
100
AcDbSymbolTableRecord
100
AcDbViewportTableRecord
  2
*Active
 70
     0
 10
0.0
 20
0.0
 11
1.0
 21
1.0
 12
10.42990654205607
 22
4.5
 13
0.0
 23
0.0
 14
0.5
 24
0.5
 15
0.5
 25
0.5
 16
0.0
 26
0.0
 36
1.0
 17
0.0
 27
0.0
 37
0.0
 40
9.0
 41
1.972972972850329
 42
50.0
 43
0.0
 44
0.0
 50
0.0
 51
0.0
 71
     0
 72
   100
 73
     1
 74
     3
 75
     0
 76
     0
 77
     0
 78
     0
281
     0
 65
     1
110
0.0
120
0.0
130
0.0
111
1.0
121
0.0
131
0.0
112
0.0
122
1.0
132
0.0
 79
     0
146
0.0
 60
     3
 61
     5
292
     1
282
     1
141
0.0
142
0.0
 63
   250
361
308
  0
ENDTAB
  0
TABLE
  2
LTYPE
  5
2A1
330
0
100
AcDbSymbolTable
 70
    39
  0
LTYPE
  5
2AF
330
2A1
100
AcDbSymbolTableRecord
100
AcDbLinetypeTableRecord
  2
ByBlock
 70
     0
  3

 72
    65
 73
     0
 40
0.0
  0
LTYPE
  5
2B0
330
2A1
100
AcDbSymbolTableRecord
100
AcDbLinetypeTableRecord
  2
ByLayer
 70
     0
  3

 72
    65
 73
     0
 40
0.0
  0
LTYPE
  5
2B1
330
2A1
100
AcDbSymbolTableRecord
100
AcDbLinetypeTableRecord
  2
Continuous
 70
     0
  3
Solid line
 72
    65
 73
     0
 40
0.0
  0
LTYPE
  5
338
330
2A1
100
AcDbSymbolTableRecord
100
AcDbLinetypeTableRecord
  2
ACAD_ISO02W100
 70
     0
  3
ISO dash __ __ __ __ __ __ __ __ __ __ __ __ __
 72
    65
 73
     2
 40
15.0
 49
12.0
 74
     0
 49
-3.0
 74
     0
  0
LTYPE
  5
339
330
2A1
100
AcDbSymbolTableRecord
100
AcDbLinetypeTableRecord
  2
ACAD_ISO03W100
 70
     0
  3
ISO dash space __    __    __    __    __    __
 72
    65
 73
     2
 40
30.0
 49
12.0
 74
     0
 49
-18.0
 74
     0
  0
LTYPE
  5
33A
330
2A1
100
AcDbSymbolTableRecord
100
AcDbLinetypeTableRecord
  2
ACAD_ISO04W100
 70
     0
  3
ISO long-dash dot ____ . ____ . ____ . ____ . _
 72
    65
 73
     4
 40
30.0
 49
24.0
 74
     0
 49
-3.0
 74
     0
 49
0.0
 74
     0
 49
-3.0
 74
     0
  0
LTYPE
  5
33B
330
2A1
100
AcDbSymbolTableRecord
100
AcDbLinetypeTableRecord
  2
ACAD_ISO05W100
 70
     0
  3
ISO long-dash double-dot ____ .. ____ .. ____ . 
 72
    65
 73
     6
 40
33.0
 49
24.0
 74
     0
 49
-3.0
 74
     0
 49
0.0
 74
     0
 49
-3.0
 74
     0
 49
0.0
 74
     0
 49
-3.0
 74
     0
  0
LTYPE
  5
33C
330
2A1
100
AcDbSymbolTableRecord
100
AcDbLinetypeTableRecord
  2
ACAD_ISO06W100
 70
     0
  3
ISO long-dash triple-dot ____ ... ____ ... ____
 72
    65
 73
     8
 40
36.0
 49
24.0
 74
     0
 49
-3.0
 74
     0
 49
0.0
 74
     0
 49
-3.0
 74
     0
 49
0.0
 74
     0
 49
-3.0
 74
     0
 49
0.0
 74
     0
 49
-3.0
 74
     0
  0
LTYPE
  5
33D
330
2A1
100
AcDbSymbolTableRecord
100
AcDbLinetypeTableRecord
  2
ACAD_ISO07W100
 70
     0
  3
ISO dot . . . . . . . . . . . . . . . . . . . . 
 72
    65
 73
     2
 40
3.0
 49
0.0
 74
     0
 49
-3.0
 74
     0
  0
LTYPE
  5
33E
330
2A1
100
AcDbSymbolTableRecord
100
AcDbLinetypeTableRecord
  2
ACAD_ISO08W100
 70
     0
  3
ISO long-dash short-dash ____ __ ____ __ ____ _
 72
    65
 73
     4
 40
36.0
 49
24.0
 74
     0
 49
-3.0
 74
     0
 49
6.0
 74
     0
 49
-3.0
 74
     0
  0
LTYPE
  5
33F
330
2A1
100
AcDbSymbolTableRecord
100
AcDbLinetypeTableRecord
  2
ACAD_ISO09W100
 70
     0
  3
ISO long-dash double-short-dash ____ __ __ ____
 72
    65
 73
     6
 40
45.0
 49
24.0
 74
     0
 49
-3.0
 74
     0
 49
6.0
 74
     0
 49
-3.0
 74
     0
 49
6.0
 74
     0
 49
-3.0
 74
     0
  0
LTYPE
  5
340
330
2A1
100
AcDbSymbolTableRecord
100
AcDbLinetypeTableRecord
  2
ACAD_ISO10W100
 70
     0
  3
ISO dash dot __ . __ . __ . __ . __ . __ . __ . 
 72
    65
 73
     4
 40
18.0
 49
12.0
 74
     0
 49
-3.0
 74
     0
 49
0.0
 74
     0
 49
-3.0
 74
     0
  0
LTYPE
  5
341
330
2A1
100
AcDbSymbolTableRecord
100
AcDbLinetypeTableRecord
  2
ACAD_ISO11W100
 70
     0
  3
ISO double-dash dot __ __ . __ __ . __ __ . __ _
 72
    65
 73
     6
 40
33.0
 49
12.0
 74
     0
 49
-3.0
 74
     0
 49
12.0
 74
     0
 49
-3.0
 74
     0
 49
0.0
 74
     0
 49
-3.0
 74
     0
  0
LTYPE
  5
342
330
2A1
100
AcDbSymbolTableRecord
100
AcDbLinetypeTableRecord
  2
ACAD_ISO12W100
 70
     0
  3
ISO dash double-dot __ . . __ . . __ . . __ . . 
 72
    65
 73
     6
 40
21.0
 49
12.0
 74
     0
 49
-3.0
 74
     0
 49
0.0
 74
     0
 49
-3.0
 74
     0
 49
0.0
 74
     0
 49
-3.0
 74
     0
  0
LTYPE
  5
343
330
2A1
100
AcDbSymbolTableRecord
100
AcDbLinetypeTableRecord
  2
ACAD_ISO13W100
 70
     0
  3
ISO double-dash double-dot __ __ . . __ __ . . _
 72
    65
 73
     8
 40
36.0
 49
12.0
 74
     0
 49
-3.0
 74
     0
 49
12.0
 74
     0
 49
-3.0
 74
     0
 49
0.0
 74
     0
 49
-3.0
 74
     0
 49
0.0
 74
     0
 49
-3.0
 74
     0
  0
LTYPE
  5
344
330
2A1
100
AcDbSymbolTableRecord
100
AcDbLinetypeTableRecord
  2
ACAD_ISO14W100
 70
     0
  3
ISO dash triple-dot __ . . . __ . . . __ . . . _
 72
    65
 73
     8
 40
24.0
 49
12.0
 74
     0
 49
-3.0
 74
     0
 49
0.0
 74
     0
 49
-3.0
 74
     0
 49
0.0
 74
     0
 49
-3.0
 74
     0
 49
0.0
 74
     0
 49
-3.0
 74
     0
  0
LTYPE
  5
345
330
2A1
100
AcDbSymbolTableRecord
100
AcDbLinetypeTableRecord
  2
ACAD_ISO15W100
 70
     0
  3
ISO double-dash triple-dot __ __ . . . __ __ . .
 72
    65
 73
    10
 40
39.0
 49
12.0
 74
     0
 49
-3.0
 74
     0
 49
12.0
 74
     0
 49
-3.0
 74
     0
 49
0.0
 74
     0
 49
-3.0
 74
     0
 49
0.0
 74
     0
 49
-3.0
 74
     0
 49
0.0
 74
     0
 49
-3.0
 74
     0
  0
LTYPE
  5
346
330
2A1
100
AcDbSymbolTableRecord
100
AcDbLinetypeTableRecord
  2
BORDER
 70
     0
  3
Border __ __ . __ __ . __ __ . __ __ . __ __ .
 72
    65
 73
     6
 40
44.45
 49
12.7
 74
     0
 49
-6.35
 74
     0
 49
12.7
 74
     0
 49
-6.35
 74
     0
 49
0.0
 74
     0
 49
-6.35
 74
     0
  0
LTYPE
  5
347
330
2A1
100
AcDbSymbolTableRecord
100
AcDbLinetypeTableRecord
  2
BORDER2
 70
     0
  3
Border (.5x) __.__.__.__.__.__.__.__.__.__.__.
 72
    65
 73
     6
 40
22.225
 49
6.35
 74
     0
 49
-3.175
 74
     0
 49
6.35
 74
     0
 49
-3.175
 74
     0
 49
0.0
 74
     0
 49
-3.175
 74
     0
  0
LTYPE
  5
348
330
2A1
100
AcDbSymbolTableRecord
100
AcDbLinetypeTableRecord
  2
BORDERX2
 70
     0
  3
Border (2x) ____  ____  .  ____  ____  .  ___
 72
    65
 73
     6
 40
88.89999999999999
 49
25.4
 74
     0
 49
-12.7
 74
     0
 49
25.4
 74
     0
 49
-12.7
 74
     0
 49
0.0
 74
     0
 49
-12.7
 74
     0
  0
LTYPE
  5
349
330
2A1
100
AcDbSymbolTableRecord
100
AcDbLinetypeTableRecord
  2
CENTER
 70
     0
  3
Center ____ _ ____ _ ____ _ ____ _ ____ _ ____
 72
    65
 73
     4
 40
50.8
 49
31.75
 74
     0
 49
-6.35
 74
     0
 49
6.35
 74
     0
 49
-6.35
 74
     0
  0
LTYPE
  5
34A
330
2A1
100
AcDbSymbolTableRecord
100
AcDbLinetypeTableRecord
  2
CENTER2
 70
     0
  3
Center (.5x) ___ _ ___ _ ___ _ ___ _ ___ _ ___
 72
    65
 73
     4
 40
28.575
 49
19.05
 74
     0
 49
-3.175
 74
     0
 49
3.175
 74
     0
 49
-3.175
 74
     0
  0
LTYPE
  5
34B
330
2A1
100
AcDbSymbolTableRecord
100
AcDbLinetypeTableRecord
  2
CENTERX2
 70
     0
  3
Center (2x) ________  __  ________  __  _____
 72
    65
 73
     4
 40
101.6
 49
63.5
 74
     0
 49
-12.7
 74
     0
 49
12.7
 74
     0
 49
-12.7
 74
     0
  0
LTYPE
  5
34C
330
2A1
100
AcDbSymbolTableRecord
100
AcDbLinetypeTableRecord
  2
DASHDOT
 70
     0
  3
Dash dot __ . __ . __ . __ . __ . __ . __ . __
 72
    65
 73
     4
 40
25.4
 49
12.7
 74
     0
 49
-6.35
 74
     0
 49
0.0
 74
     0
 49
-6.35
 74
     0
  0
LTYPE
  5
34D
330
2A1
100
AcDbSymbolTableRecord
100
AcDbLinetypeTableRecord
  2
DASHDOT2
 70
     0
  3
Dash dot (.5x) _._._._._._._._._._._._._._._.
 72
    65
 73
     4
 40
12.7
 49
6.35
 74
     0
 49
-3.175
 74
     0
 49
0.0
 74
     0
 49
-3.175
 74
     0
  0
LTYPE
  5
34E
330
2A1
100
AcDbSymbolTableRecord
100
AcDbLinetypeTableRecord
  2
DASHDOTX2
 70
     0
  3
Dash dot (2x) ____  .  ____  .  ____  .  ___
 72
    65
 73
     4
 40
50.8
 49
25.4
 74
     0
 49
-12.7
 74
     0
 49
0.0
 74
     0
 49
-12.7
 74
     0
  0
LTYPE
  5
34F
330
2A1
100
AcDbSymbolTableRecord
100
AcDbLinetypeTableRecord
  2
DASHED
 70
     0
  3
Dashed __ __ __ __ __ __ __ __ __ __ __ __ __ _
 72
    65
 73
     2
 40
19.05
 49
12.7
 74
     0
 49
-6.35
 74
     0
  0
LTYPE
  5
350
330
2A1
100
AcDbSymbolTableRecord
100
AcDbLinetypeTableRecord
  2
DASHED2
 70
     0
  3
Dashed (.5x) _ _ _ _ _ _ _ _ _ _ _ _ _ _ _ _ _ 
 72
    65
 73
     2
 40
9.524999999999999
 49
6.35
 74
     0
 49
-3.175
 74
     0
  0
LTYPE
  5
351
330
2A1
100
AcDbSymbolTableRecord
100
AcDbLinetypeTableRecord
  2
DASHEDX2
 70
     0
  3
Dashed (2x) ____  ____  ____  ____  ____  ___
 72
    65
 73
     2
 40
38.09999999999999
 49
25.4
 74
     0
 49
-12.7
 74
     0
  0
LTYPE
  5
352
330
2A1
100
AcDbSymbolTableRecord
100
AcDbLinetypeTableRecord
  2
DIVIDE
 70
     0
  3
Divide ____ . . ____ . . ____ . . ____ . . ____
 72
    65
 73
     6
 40
31.75
 49
12.7
 74
     0
 49
-6.35
 74
     0
 49
0.0
 74
     0
 49
-6.35
 74
     0
 49
0.0
 74
     0
 49
-6.35
 74
     0
  0
LTYPE
  5
353
330
2A1
100
AcDbSymbolTableRecord
100
AcDbLinetypeTableRecord
  2
DIVIDE2
 70
     0
  3
Divide (.5x) __..__..__..__..__..__..__..__.._
 72
    65
 73
     6
 40
15.875
 49
6.35
 74
     0
 49
-3.175
 74
     0
 49
0.0
 74
     0
 49
-3.175
 74
     0
 49
0.0
 74
     0
 49
-3.175
 74
     0
  0
LTYPE
  5
354
330
2A1
100
AcDbSymbolTableRecord
100
AcDbLinetypeTableRecord
  2
DIVIDEX2
 70
     0
  3
Divide (2x) ________  .  .  ________  .  .  _
 72
    65
 73
     6
 40
63.5
 49
25.4
 74
     0
 49
-12.7
 74
     0
 49
0.0
 74
     0
 49
-12.7
 74
     0
 49
0.0
 74
     0
 49
-12.7
 74
     0
  0
LTYPE
  5
355
330
2A1
100
AcDbSymbolTableRecord
100
AcDbLinetypeTableRecord
  2
DOT
 70
     0
  3
Dot . . . . . . . . . . . . . . . . . . . . . . . .
 72
    65
 73
     2
 40
6.35
 49
0.0
 74
     0
 49
-6.35
 74
     0
  0
LTYPE
  5
356
330
2A1
100
AcDbSymbolTableRecord
100
AcDbLinetypeTableRecord
  2
DOT2
 70
     0
  3
Dot (.5x) ........................................
 72
    65
 73
     2
 40
3.175
 49
0.0
 74
     0
 49
-3.175
 74
     0
  0
LTYPE
  5
357
330
2A1
100
AcDbSymbolTableRecord
100
AcDbLinetypeTableRecord
  2
DOTX2
 70
     0
  3
Dot (2x) .  .  .  .  .  .  .  .  .  .  .  .  .  .
 72
    65
 73
     2
 40
12.7
 49
0.0
 74
     0
 49
-12.7
 74
     0
  0
LTYPE
  5
358
330
2A1
100
AcDbSymbolTableRecord
100
AcDbLinetypeTableRecord
  2
HIDDEN
 70
     0
  3
Hidden __ __ __ __ __ __ __ __ __ __ __ __ __ __
 72
    65
 73
     2
 40
9.524999999999999
 49
6.35
 74
     0
 49
-3.175
 74
     0
  0
LTYPE
  5
359
330
2A1
100
AcDbSymbolTableRecord
100
AcDbLinetypeTableRecord
  2
HIDDEN2
 70
     0
  3
Hidden (.5x) _ _ _ _ _ _ _ _ _ _ _ _ _ _ _ _ _ 
 72
    65
 73
     2
 40
4.762499999999999
 49
3.175
 74
     0
 49
-1.5875
 74
     0
  0
LTYPE
  5
35A
330
2A1
100
AcDbSymbolTableRecord
100
AcDbLinetypeTableRecord
  2
HIDDENX2
 70
     0
  3
Hidden (2x) ____ ____ ____ ____ ____ ____ ____ 
 72
    65
 73
     2
 40
19.05
 49
12.7
 74
     0
 49
-6.35
 74
     0
  0
LTYPE
  5
35B
330
2A1
100
AcDbSymbolTableRecord
100
AcDbLinetypeTableRecord
  2
PHANTOM
 70
     0
  3
Phantom ______  __  __  ______  __  __  ______ 
 72
    65
 73
     6
 40
63.50000000000001
 49
31.75
 74
     0
 49
-6.35
 74
     0
 49
6.35
 74
     0
 49
-6.35
 74
     0
 49
6.35
 74
     0
 49
-6.35
 74
     0
  0
LTYPE
  5
35C
330
2A1
100
AcDbSymbolTableRecord
100
AcDbLinetypeTableRecord
  2
PHANTOM2
 70
     0
  3
Phantom (.5x) ___ _ _ ___ _ _ ___ _ _ ___ _ _
 72
    65
 73
     6
 40
31.75
 49
15.875
 74
     0
 49
-3.175
 74
     0
 49
3.175
 74
     0
 49
-3.175
 74
     0
 49
3.175
 74
     0
 49
-3.175
 74
     0
  0
LTYPE
  5
35D
330
2A1
100
AcDbSymbolTableRecord
100
AcDbLinetypeTableRecord
  2
PHANTOMX2
 70
     0
  3
Phantom (2x) ____________    ____    ____   _
 72
    65
 73
     6
 40
127.0
 49
63.5
 74
     0
 49
-12.7
 74
     0
 49
12.7
 74
     0
 49
-12.7
 74
     0
 49
12.7
 74
     0
 49
-12.7
 74
     0
  0
ENDTAB
  0
TABLE
  2
LAYER
  5
29E
330
0
100
AcDbSymbolTable
 70
     1
  0
LAYER
  5
2AC
330
29E
100
AcDbSymbolTableRecord
100
AcDbLayerTableRecord
  2
0
 70
     0
 62
     7
420
 16777215
  6
Continuous
370
    25
390
2AB
347
2E1
348
0
  0
ENDTAB
  0
TABLE
  2
STYLE
  5
29F
330
0
100
AcDbSymbolTable
 70
     1
  0
STYLE
  5
2AD
330
29F
100
AcDbSymbolTableRecord
100
AcDbTextStyleTableRecord
  2
Standard
 70
     0
 40
0.0
 41
1.0
 50
0.0
 71
     0
 42
0.2
  3
txt
  4

  0
ENDTAB
  0
TABLE
  2
VIEW
  5
2A2
330
0
100
AcDbSymbolTable
 70
     0
  0
ENDTAB
  0
TABLE
  2
UCS
  5
2A3
330
0
100
AcDbSymbolTable
 70
     0
  0
ENDTAB
  0
TABLE
  2
APPID
  5
2A5
330
0
100
AcDbSymbolTable
 70
     2
  0
APPID
  5
2AE
330
2A5
100
AcDbSymbolTableRecord
100
AcDbRegAppTableRecord
  2
ACAD
 70
     0
  0
APPID
  5
309
330
2A5
100
AcDbSymbolTableRecord
100
AcDbRegAppTableRecord
  2
QCAD
 70
     0
  0
ENDTAB
  0
TABLE
  2
DIMSTYLE
  5
2A6
330
0
100
AcDbSymbolTable
 70
     2
100
AcDbDimStyleTable
  0
DIMSTYLE
105
2C2
330
2A6
100
AcDbSymbolTableRecord
100
AcDbDimStyleTableRecord
  2
Standard
 70
     0
178
     0
340
2AD
  0
DIMSTYLE
105
337
330
2A6
100
AcDbSymbolTableRecord
100
AcDbDimStyleTableRecord
  2
QCADDimStyle
 70
     0
 41
2.5
 42
0.625
 44
1.25
 73
     0
 77
     1
140
2.5
147
0.625
178
     0
340
2AD
  0
ENDTAB
  0
TABLE
  2
BLOCK_RECORD
  5
29D
330
0
100
AcDbSymbolTable
 70
     2
  0
BLOCK_RECORD
  5
2BA
330
29D
100
AcDbSymbolTableRecord
100
AcDbBlockTableRecord
  2
*Model_Space
340
2BD
 70
     0
280
     1
281
     0
  0
BLOCK_RECORD
  5
2B6
330
29D
100
AcDbSymbolTableRecord
100
AcDbBlockTableRecord
  2
*Paper_Space
340
2B9
 70
     0
280
     1
281
     0
  0
BLOCK_RECORD
  5
2BE
330
29D
100
AcDbSymbolTableRecord
100
AcDbBlockTableRecord
  2
*Paper_Space0
340
2C1
 70
     0
280
     1
281
     0
  0
BLOCK_RECORD
  5
35E
330
29D
100
AcDbSymbolTableRecord
100
AcDbBlockTableRecord
  2
Blok 1
340
0
102
{BLKREFS
331
299
331
29B
102
}
 70
     0
280
     1
281
     0
  0
ENDTAB
  0
ENDSEC
  0
SECTION
  2
BLOCKS
  0
BLOCK
  5
2BB
330
2BA
100
AcDbEntity
  8
0
100
AcDbBlockBegin
  2
*Model_Space
 70
     0
 10
0.0
 20
0.0
 30
0.0
  3
*Model_Space
  1
*Model_Space
  0
ENDBLK
  5
2BC
330
2BA
100
AcDbEntity
  8
0
100
AcDbBlockEnd
  0
BLOCK
  5
2B7
330
2B6
100
AcDbEntity
 67
     1
  8
0
100
AcDbBlockBegin
  2
*Paper_Space
 70
     0
 10
0.0
 20
0.0
 30
0.0
  3
*Paper_Space
  1
*Paper_Space
  0
ENDBLK
  5
2B8
330
2B6
100
AcDbEntity
 67
     1
  8
0
100
AcDbBlockEnd
  0
BLOCK
  5
2BF
330
2BE
100
AcDbEntity
  8
0
100
AcDbBlockBegin
  2
*Paper_Space0
 70
     0
 10
0.0
 20
0.0
 30
0.0
  3
*Paper_Space0
  1
*Paper_Space0
  0
ENDBLK
  5
2C0
330
2BE
100
AcDbEntity
  8
0
100
AcDbBlockEnd
  0
BLOCK
  5
35F
330
35E
100
AcDbEntity
  8
0
100
AcDbBlockBegin
  2
Blok 1
 70
     0
 10
0.0
 20
0.0
 30
0.0
  3
Blok 1
  1
Blok 1
  0
LINE
  5
2C
330
35E
100
AcDbEntity
  8
0
100
AcDbLine
 10
15.757398
 20
0.0
 30
0.0
 11
19.89319533333333
 21
0.0000282222222222
 31
0.0
  0
LINE
  5
2D
330
35E
100
AcDbEntity
  8
0
100
AcDbLine
 10
19.89319533333333
 20
0.0000282222222222
 30
0.0
 11
19.92158688888889
 21
0.0011853333333333
 31
0.0
  0
LINE
  5
2E
330
35E
100
AcDbEntity
  8
0
100
AcDbLine
 10
19.92158688888889
 20
0.0011853333333333
 30
0.0
 11
19.97975288888889
 21
0.0056726666666667
 31
0.0
  0
LINE
  5
2F
330
35E
100
AcDbEntity
  8
0
100
AcDbLine
 10
19.97975288888889
 20
0.0056726666666667
 30
0.0
 11
20.06743933333333
 21
0.0158608888888889
 31
0.0
  0
LINE
  5
30
330
35E
100
AcDbEntity
  8
0
100
AcDbLine
 10
20.06743933333333
 20
0.0158608888888889
 30
0.0
 11
20.18419466666667
 21
0.0339795555555556
 31
0.0
  0
LINE
  5
31
330
35E
100
AcDbEntity
  8
0
100
AcDbLine
 10
20.18419466666667
 20
0.0339795555555556
 30
0.0
 11
20.32956733333333
 21
0.0623428888888889
 31
0.0
  0
LINE
  5
32
330
35E
100
AcDbEntity
  8
0
100
AcDbLine
 10
20.32956733333333
 20
0.0623428888888889
 30
0.0
 11
20.50285177777778
 21
0.1031522222222222
 31
0.0
  0
LINE
  5
33
330
35E
100
AcDbEntity
  8
0
100
AcDbLine
 10
20.50285177777778
 20
0.1031522222222222
 30
0.0
 11
20.70322955555556
 21
0.1586088888888889
 31
0.0
  0
LINE
  5
34
330
35E
100
AcDbEntity
  8
0
100
AcDbLine
 10
20.70322955555556
 20
0.1586088888888889
 30
0.0
 11
20.929854
 21
0.230886
 31
0.0
  0
LINE
  5
35
330
35E
100
AcDbEntity
  8
0
100
AcDbLine
 10
20.929854
 20
0.230886
 30
0.0
 11
21.18162444444444
 21
0.322072
 31
0.0
  0
LINE
  5
36
330
35E
100
AcDbEntity
  8
0
100
AcDbLine
 10
21.18162444444444
 20
0.322072
 30
0.0
 11
21.45738377777778
 21
0.4342271111111111
 31
0.0
  0
LINE
  5
37
330
35E
100
AcDbEntity
  8
0
100
AcDbLine
 10
21.45738377777778
 20
0.4342271111111111
 30
0.0
 11
21.75583377777777
 21
0.5692986666666666
 31
0.0
  0
LINE
  5
38
330
35E
100
AcDbEntity
  8
0
100
AcDbLine
 10
21.75583377777777
 20
0.5692986666666666
 30
0.0
 11
22.07559155555555
 21
0.7292339999999999
 31
0.0
  0
LINE
  5
39
330
35E
100
AcDbEntity
  8
0
100
AcDbLine
 10
22.07559155555555
 20
0.7292339999999999
 30
0.0
 11
22.41516133333333
 21
0.9158393333333332
 31
0.0
  0
LINE
  5
3A
330
35E
100
AcDbEntity
  8
0
100
AcDbLine
 10
22.41516133333333
 20
0.9158393333333332
 30
0.0
 11
22.77284977777778
 21
1.130864444444444
 31
0.0
  0
LINE
  5
3B
330
35E
100
AcDbEntity
  8
0
100
AcDbLine
 10
22.77284977777778
 20
1.130864444444444
 30
0.0
 11
23.14696355555555
 21
1.376002666666667
 31
0.0
  0
LINE
  5
3C
330
35E
100
AcDbEntity
  8
0
100
AcDbLine
 10
23.14696355555555
 20
1.376002666666667
 30
0.0
 11
23.53566822222222
 21
1.652834444444444
 31
0.0
  0
LINE
  5
3D
330
35E
100
AcDbEntity
  8
0
100
AcDbLine
 10
23.53566822222222
 20
1.652834444444444
 30
0.0
 11
23.93704466666667
 21
1.962770888888889
 31
0.0
  0
LINE
  5
3E
330
35E
100
AcDbEntity
  8
0
100
AcDbLine
 10
23.93704466666667
 20
1.962770888888889
 30
0.0
 11
24.34906088888889
 21
2.307251333333333
 31
0.0
  0
LINE
  5
3F
330
35E
100
AcDbEntity
  8
0
100
AcDbLine
 10
24.34906088888889
 20
2.307251333333333
 30
0.0
 11
24.769572
 21
2.687517555555555
 31
0.0
  0
LINE
  5
40
330
35E
100
AcDbEntity
  8
0
100
AcDbLine
 10
24.769572
 20
2.687517555555555
 30
0.0
 11
25.19646133333333
 21
3.104698444444444
 31
0.0
  0
LINE
  5
41
330
35E
100
AcDbEntity
  8
0
100
AcDbLine
 10
25.19646133333333
 20
3.104698444444444
 30
0.0
 11
25.62433844444444
 21
3.559414888888889
 31
0.0
  0
LINE
  5
42
330
35E
100
AcDbEntity
  8
0
100
AcDbLine
 10
25.62433844444444
 20
3.559414888888889
 30
0.0
 11
25.17069444444444
 21
5.976027333333334
 31
0.0
  0
LINE
  5
43
330
35E
100
AcDbEntity
  8
0
100
AcDbLine
 10
25.17069444444444
 20
5.976027333333334
 30
0.0
 11
24.607012
 21
6.24459
 31
0.0
  0
LINE
  5
44
330
35E
100
AcDbEntity
  8
0
100
AcDbLine
 10
24.607012
 20
6.24459
 30
0.0
 11
24.05792044444444
 21
6.478580444444444
 31
0.0
  0
LINE
  5
45
330
35E
100
AcDbEntity
  8
0
100
AcDbLine
 10
24.05792044444444
 20
6.478580444444444
 30
0.0
 11
23.52810466666666
 21
6.680425777777778
 31
0.0
  0
LINE
  5
46
330
35E
100
AcDbEntity
  8
0
100
AcDbLine
 10
23.52810466666666
 20
6.680425777777778
 30
0.0
 11
23.01922977777778
 21
6.852016888888889
 31
0.0
  0
LINE
  5
47
330
35E
100
AcDbEntity
  8
0
100
AcDbLine
 10
23.01922977777778
 20
6.852016888888889
 30
0.0
 11
22.53276333333334
 21
6.995329333333333
 31
0.0
  0
LINE
  5
48
330
35E
100
AcDbEntity
  8
0
100
AcDbLine
 10
22.53276333333334
 20
6.995329333333333
 30
0.0
 11
22.07011644444444
 21
7.112310444444444
 31
0.0
  0
LINE
  5
49
330
35E
100
AcDbEntity
  8
0
100
AcDbLine
 10
22.07011644444444
 20
7.112310444444444
 30
0.0
 11
21.63255911111111
 21
7.205076888888889
 31
0.0
  0
LINE
  5
4A
330
35E
100
AcDbEntity
  8
0
100
AcDbLine
 10
21.63255911111111
 20
7.205076888888889
 30
0.0
 11
21.22124844444444
 21
7.275773555555555
 31
0.0
  0
LINE
  5
4B
330
35E
100
AcDbEntity
  8
0
100
AcDbLine
 10
21.22124844444444
 20
7.275773555555555
 30
0.0
 11
20.837144
 21
7.32651711111111
 31
0.0
  0
LINE
  5
4C
330
35E
100
AcDbEntity
  8
0
100
AcDbLine
 10
20.837144
 20
7.32651711111111
 30
0.0
 11
20.48114888888889
 21
7.359593555555556
 31
0.0
  0
LINE
  5
4D
330
35E
100
AcDbEntity
  8
0
100
AcDbLine
 10
20.48114888888889
 20
7.359593555555556
 30
0.0
 11
20.15399688888889
 21
7.377232444444444
 31
0.0
  0
LINE
  5
4E
330
35E
100
AcDbEntity
  8
0
100
AcDbLine
 10
20.15399688888889
 20
7.377232444444444
 30
0.0
 11
19.85633711111111
 21
7.381719777777778
 31
0.0
  0
LINE
  5
4F
330
35E
100
AcDbEntity
  8
0
100
AcDbLine
 10
19.85633711111111
 20
7.381719777777778
 30
0.0
 11
19.58864933333333
 21
7.375397999999999
 31
0.0
  0
LINE
  5
50
330
35E
100
AcDbEntity
  8
0
100
AcDbLine
 10
19.58864933333333
 20
7.375397999999999
 30
0.0
 11
19.35127222222222
 21
7.360581333333333
 31
0.0
  0
LINE
  5
51
330
35E
100
AcDbEntity
  8
0
100
AcDbLine
 10
19.35127222222222
 20
7.360581333333333
 30
0.0
 11
19.14437511111111
 21
7.339583999999999
 31
0.0
  0
LINE
  5
52
330
35E
100
AcDbEntity
  8
0
100
AcDbLine
 10
19.14437511111111
 20
7.339583999999999
 30
0.0
 11
18.96809911111111
 21
7.314776666666667
 31
0.0
  0
LINE
  5
53
330
35E
100
AcDbEntity
  8
0
100
AcDbLine
 10
18.96809911111111
 20
7.314776666666667
 30
0.0
 11
18.82235955555555
 21
7.288473555555555
 31
0.0
  0
LINE
  5
54
330
35E
100
AcDbEntity
  8
0
100
AcDbLine
 10
18.82235955555555
 20
7.288473555555555
 30
0.0
 11
18.70695888888889
 21
7.26301711111111
 31
0.0
  0
LINE
  5
55
330
35E
100
AcDbEntity
  8
0
100
AcDbLine
 10
18.70695888888889
 20
7.26301711111111
 30
0.0
 11
18.62155844444444
 21
7.240693333333333
 31
0.0
  0
LINE
  5
56
330
35E
100
AcDbEntity
  8
0
100
AcDbLine
 10
18.62155844444444
 20
7.240693333333333
 30
0.0
 11
18.56573488888889
 21
7.223816444444444
 31
0.0
  0
LINE
  5
57
330
35E
100
AcDbEntity
  8
0
100
AcDbLine
 10
18.56573488888889
 20
7.223816444444444
 30
0.0
 11
18.53883911111111
 21
7.214587777777778
 31
0.0
  0
LINE
  5
58
330
35E
100
AcDbEntity
  8
0
100
AcDbLine
 10
18.53883911111111
 20
7.214587777777778
 30
0.0
 11
14.68461488888889
 21
5.714689555555555
 31
0.0
  0
LINE
  5
59
330
35E
100
AcDbEntity
  8
0
100
AcDbLine
 10
14.68461488888889
 20
5.714689555555555
 30
0.0
 11
12.07087022222222
 21
10.12867333333333
 31
0.0
  0
LINE
  5
5A
330
35E
100
AcDbEntity
  8
0
100
AcDbLine
 10
12.07087022222222
 20
10.12867333333333
 30
0.0
 11
15.23904044444444
 21
12.787122
 31
0.0
  0
LINE
  5
5B
330
35E
100
AcDbEntity
  8
0
100
AcDbLine
 10
15.23904044444444
 20
12.787122
 30
0.0
 11
15.260066
 21
12.80625666666667
 31
0.0
  0
LINE
  5
5C
330
35E
100
AcDbEntity
  8
0
100
AcDbLine
 10
15.260066
 20
12.80625666666667
 30
0.0
 11
15.301722
 21
12.84709422222222
 31
0.0
  0
LINE
  5
5D
330
35E
100
AcDbEntity
  8
0
100
AcDbLine
 10
15.301722
 20
12.84709422222222
 30
0.0
 11
15.36234333333333
 21
12.91124333333333
 31
0.0
  0
LINE
  5
5E
330
35E
100
AcDbEntity
  8
0
100
AcDbLine
 10
15.36234333333333
 20
12.91124333333333
 30
0.0
 11
15.440152
 21
13.00019977777778
 31
0.0
  0
LINE
  5
5F
330
35E
100
AcDbEntity
  8
0
100
AcDbLine
 10
15.440152
 20
13.00019977777778
 30
0.0
 11
15.53328533333333
 21
13.11534644444444
 31
0.0
  0
LINE
  5
60
330
35E
100
AcDbEntity
  8
0
100
AcDbLine
 10
15.53328533333333
 20
13.11534644444444
 30
0.0
 11
15.639796
 21
13.25798155555555
 31
0.0
  0
LINE
  5
61
330
35E
100
AcDbEntity
  8
0
100
AcDbLine
 10
15.639796
 20
13.25798155555555
 30
0.0
 11
15.757652
 21
13.42929044444444
 31
0.0
  0
LINE
  5
62
330
35E
100
AcDbEntity
  8
0
100
AcDbLine
 10
15.757652
 20
13.42929044444444
 30
0.0
 11
15.88476488888889
 21
13.63031733333333
 31
0.0
  0
LINE
  5
63
330
35E
100
AcDbEntity
  8
0
100
AcDbLine
 10
15.88476488888889
 20
13.63031733333333
 30
0.0
 11
16.019018
 21
13.86199355555556
 31
0.0
  0
LINE
  5
64
330
35E
100
AcDbEntity
  8
0
100
AcDbLine
 10
16.019018
 20
13.86199355555556
 30
0.0
 11
16.15818177777778
 21
14.12516577777778
 31
0.0
  0
LINE
  5
65
330
35E
100
AcDbEntity
  8
0
100
AcDbLine
 10
16.15818177777778
 20
14.12516577777778
 30
0.0
 11
16.29999844444444
 21
14.42048311111111
 31
0.0
  0
LINE
  5
66
330
35E
100
AcDbEntity
  8
0
100
AcDbLine
 10
16.29999844444444
 20
14.42048311111111
 30
0.0
 11
16.44215377777778
 21
14.74853822222222
 31
0.0
  0
LINE
  5
67
330
35E
100
AcDbEntity
  8
0
100
AcDbLine
 10
16.44215377777778
 20
14.74853822222222
 30
0.0
 11
16.58230533333333
 21
15.10975444444444
 31
0.0
  0
LINE
  5
68
330
35E
100
AcDbEntity
  8
0
100
AcDbLine
 10
16.58230533333333
 20
15.10975444444444
 30
0.0
 11
16.71811066666666
 21
15.504414
 31
0.0
  0
LINE
  5
69
330
35E
100
AcDbEntity
  8
0
100
AcDbLine
 10
16.71811066666666
 20
15.504414
 30
0.0
 11
16.84711444444444
 21
15.932658
 31
0.0
  0
LINE
  5
6A
330
35E
100
AcDbEntity
  8
0
100
AcDbLine
 10
16.84711444444444
 20
15.932658
 30
0.0
 11
16.96697422222222
 21
16.39457111111111
 31
0.0
  0
LINE
  5
6B
330
35E
100
AcDbEntity
  8
0
100
AcDbLine
 10
16.96697422222222
 20
16.39457111111111
 30
0.0
 11
17.07517822222222
 21
16.89001222222222
 31
0.0
  0
LINE
  5
6C
330
35E
100
AcDbEntity
  8
0
100
AcDbLine
 10
17.07517822222222
 20
16.89001222222222
 30
0.0
 11
17.169384
 21
17.41872733333333
 31
0.0
  0
LINE
  5
6D
330
35E
100
AcDbEntity
  8
0
100
AcDbLine
 10
17.169384
 20
17.41872733333333
 30
0.0
 11
17.247108
 21
17.98034955555556
 31
0.0
  0
LINE
  5
6E
330
35E
100
AcDbEntity
  8
0
100
AcDbLine
 10
17.247108
 20
17.98034955555556
 30
0.0
 11
17.30592311111111
 21
18.57431444444444
 31
0.0
  0
LINE
  5
6F
330
35E
100
AcDbEntity
  8
0
100
AcDbLine
 10
17.30592311111111
 20
18.57431444444444
 30
0.0
 11
17.34142666666666
 21
19.19768688888889
 31
0.0
  0
LINE
  5
70
330
35E
100
AcDbEntity
  8
0
100
AcDbLine
 10
17.34142666666666
 20
19.19768688888889
 30
0.0
 11
15.44054711111111
 21
20.75730333333333
 31
0.0
  0
LINE
  5
71
330
35E
100
AcDbEntity
  8
0
100
AcDbLine
 10
15.44054711111111
 20
20.75730333333333
 30
0.0
 11
14.83611177777778
 21
20.60072644444444
 31
0.0
  0
LINE
  5
72
330
35E
100
AcDbEntity
  8
0
100
AcDbLine
 10
14.83611177777778
 20
20.60072644444444
 30
0.0
 11
14.26509155555556
 21
20.42699044444444
 31
0.0
  0
LINE
  5
73
330
35E
100
AcDbEntity
  8
0
100
AcDbLine
 10
14.26509155555556
 20
20.42699044444444
 30
0.0
 11
13.72949022222222
 21
20.24106244444444
 31
0.0
  0
LINE
  5
74
330
35E
100
AcDbEntity
  8
0
100
AcDbLine
 10
13.72949022222222
 20
20.24106244444444
 30
0.0
 11
13.229336
 21
20.045426
 31
0.0
  0
LINE
  5
75
330
35E
100
AcDbEntity
  8
0
100
AcDbLine
 10
13.229336
 20
20.045426
 30
0.0
 11
12.76460066666667
 21
19.84250822222222
 31
0.0
  0
LINE
  5
76
330
35E
100
AcDbEntity
  8
0
100
AcDbLine
 10
12.76460066666667
 20
19.84250822222222
 30
0.0
 11
12.335002
 21
19.63476444444444
 31
0.0
  0
LINE
  5
77
330
35E
100
AcDbEntity
  8
0
100
AcDbLine
 10
12.335002
 20
19.63476444444444
 30
0.0
 11
11.94017311111111
 21
19.42456533333333
 31
0.0
  0
LINE
  5
78
330
35E
100
AcDbEntity
  8
0
100
AcDbLine
 10
11.94017311111111
 20
19.42456533333333
 30
0.0
 11
11.57963422222222
 21
19.21430977777778
 31
0.0
  0
LINE
  5
79
330
35E
100
AcDbEntity
  8
0
100
AcDbLine
 10
11.57963422222222
 20
19.21430977777778
 30
0.0
 11
11.25276444444444
 21
19.00628377777778
 31
0.0
  0
LINE
  5
7A
330
35E
100
AcDbEntity
  8
0
100
AcDbLine
 10
11.25276444444444
 20
19.00628377777778
 30
0.0
 11
10.95880177777778
 21
18.80280155555555
 31
0.0
  0
LINE
  5
7B
330
35E
100
AcDbEntity
  8
0
100
AcDbLine
 10
10.95880177777778
 20
18.80280155555555
 30
0.0
 11
10.69687133333333
 21
18.60603622222222
 31
0.0
  0
LINE
  5
7C
330
35E
100
AcDbEntity
  8
0
100
AcDbLine
 10
10.69687133333333
 20
18.60603622222222
 30
0.0
 11
10.46595711111111
 21
18.41813266666666
 31
0.0
  0
LINE
  5
7D
330
35E
100
AcDbEntity
  8
0
100
AcDbLine
 10
10.46595711111111
 20
18.41813266666666
 30
0.0
 11
10.26495844444444
 21
18.24123577777777
 31
0.0
  0
LINE
  5
7E
330
35E
100
AcDbEntity
  8
0
100
AcDbLine
 10
10.26495844444444
 20
18.24123577777777
 30
0.0
 11
10.09263355555555
 21
18.07726466666666
 31
0.0
  0
LINE
  5
7F
330
35E
100
AcDbEntity
  8
0
100
AcDbLine
 10
10.09263355555555
 20
18.07726466666666
 30
0.0
 11
9.947655999999998
 21
17.92822311111111
 31
0.0
  0
LINE
  5
80
330
35E
100
AcDbEntity
  8
0
100
AcDbLine
 10
9.947655999999998
 20
17.92822311111111
 30
0.0
 11
9.828558222222222
 21
17.79591733333333
 31
0.0
  0
LINE
  5
81
330
35E
100
AcDbEntity
  8
0
100
AcDbLine
 10
9.828558222222222
 20
17.79591733333333
 30
0.0
 11
9.733816222222222
 21
17.68206888888889
 31
0.0
  0
LINE
  5
82
330
35E
100
AcDbEntity
  8
0
100
AcDbLine
 10
9.733816222222222
 20
17.68206888888889
 30
0.0
 11
9.661793111111109
 21
17.58839933333333
 31
0.0
  0
LINE
  5
83
330
35E
100
AcDbEntity
  8
0
100
AcDbLine
 10
9.661793111111109
 20
17.58839933333333
 30
0.0
 11
9.610710888888889
 21
17.51640444444444
 31
0.0
  0
LINE
  5
84
330
35E
100
AcDbEntity
  8
0
100
AcDbLine
 10
9.610710888888889
 20
17.51640444444444
 30
0.0
 11
9.578791555555556
 21
17.46758
 31
0.0
  0
LINE
  5
85
330
35E
100
AcDbEntity
  8
0
100
AcDbLine
 10
9.578791555555556
 20
17.46758
 30
0.0
 11
9.564144222222222
 21
17.44322422222222
 31
0.0
  0
LINE
  5
86
330
35E
100
AcDbEntity
  8
0
100
AcDbLine
 10
9.564144222222222
 20
17.44322422222222
 30
0.0
 11
7.575747555555555
 21
13.81680977777778
 31
0.0
  0
LINE
  5
87
330
35E
100
AcDbEntity
  8
0
100
AcDbLine
 10
7.575747555555555
 20
13.81680977777778
 30
0.0
 11
2.736257333333333
 21
15.51801711111111
 31
0.0
  0
LINE
  5
88
330
35E
100
AcDbEntity
  8
0
100
AcDbLine
 10
2.736257333333333
 20
15.51801711111111
 30
0.0
 11
3.454371777777778
 21
19.59096355555555
 31
0.0
  0
LINE
  5
89
330
35E
100
AcDbEntity
  8
0
100
AcDbLine
 10
3.454371777777778
 20
19.59096355555555
 30
0.0
 11
3.458181777777777
 21
19.61912933333333
 31
0.0
  0
LINE
  5
8A
330
35E
100
AcDbEntity
  8
0
100
AcDbLine
 10
3.458181777777777
 20
19.61912933333333
 30
0.0
 11
3.463854444444444
 21
19.67721066666666
 31
0.0
  0
LINE
  5
8B
330
35E
100
AcDbEntity
  8
0
100
AcDbLine
 10
3.463854444444444
 20
19.67721066666666
 30
0.0
 11
3.469047333333333
 21
19.76532044444444
 31
0.0
  0
LINE
  5
8C
330
35E
100
AcDbEntity
  8
0
100
AcDbLine
 10
3.469047333333333
 20
19.76532044444444
 30
0.0
 11
3.471474444444444
 21
19.88345866666667
 31
0.0
  0
LINE
  5
8D
330
35E
100
AcDbEntity
  8
0
100
AcDbLine
 10
3.471474444444444
 20
19.88345866666667
 30
0.0
 11
3.468793333333333
 21
20.03154066666667
 31
0.0
  0
LINE
  5
8E
330
35E
100
AcDbEntity
  8
0
100
AcDbLine
 10
3.468793333333333
 20
20.03154066666667
 30
0.0
 11
3.458689777777778
 21
20.209256
 31
0.0
  0
LINE
  5
8F
330
35E
100
AcDbEntity
  8
0
100
AcDbLine
 10
3.458689777777778
 20
20.209256
 30
0.0
 11
3.438877777777778
 21
20.416266
 31
0.0
  0
LINE
  5
90
330
35E
100
AcDbEntity
  8
0
100
AcDbLine
 10
3.438877777777778
 20
20.416266
 30
0.0
 11
3.407043111111111
 21
20.651978
 31
0.0
  0
LINE
  5
91
330
35E
100
AcDbEntity
  8
0
100
AcDbLine
 10
3.407043111111111
 20
20.651978
 30
0.0
 11
3.360956222222222
 21
20.91574288888889
 31
0.0
  0
LINE
  5
92
330
35E
100
AcDbEntity
  8
0
100
AcDbLine
 10
3.360956222222222
 20
20.91574288888889
 30
0.0
 11
3.298415777777778
 21
21.20679866666667
 31
0.0
  0
LINE
  5
93
330
35E
100
AcDbEntity
  8
0
100
AcDbLine
 10
3.298415777777778
 20
21.20679866666667
 30
0.0
 11
3.217220444444444
 21
21.52418577777778
 31
0.0
  0
LINE
  5
94
330
35E
100
AcDbEntity
  8
0
100
AcDbLine
 10
3.217220444444444
 20
21.52418577777778
 30
0.0
 11
3.115253555555555
 21
21.86686
 31
0.0
  0
LINE
  5
95
330
35E
100
AcDbEntity
  8
0
100
AcDbLine
 10
3.115253555555555
 20
21.86686
 30
0.0
 11
2.990426666666667
 21
22.233636
 31
0.0
  0
LINE
  5
96
330
35E
100
AcDbEntity
  8
0
100
AcDbLine
 10
2.990426666666667
 20
22.233636
 30
0.0
 11
2.840764222222222
 21
22.62324377777778
 31
0.0
  0
LINE
  5
97
330
35E
100
AcDbEntity
  8
0
100
AcDbLine
 10
2.840764222222222
 20
22.62324377777778
 30
0.0
 11
2.664318888888889
 21
23.03427222222222
 31
0.0
  0
LINE
  5
98
330
35E
100
AcDbEntity
  8
0
100
AcDbLine
 10
2.664318888888889
 20
23.03427222222222
 30
0.0
 11
2.459199777777778
 21
23.46514088888889
 31
0.0
  0
LINE
  5
99
330
35E
100
AcDbEntity
  8
0
100
AcDbLine
 10
2.459199777777778
 20
23.46514088888889
 30
0.0
 11
2.223657111111111
 21
23.91421288888889
 31
0.0
  0
LINE
  5
9A
330
35E
100
AcDbEntity
  8
0
100
AcDbLine
 10
2.223657111111111
 20
23.91421288888889
 30
0.0
 11
1.955969333333333
 21
24.37979488888888
 31
0.0
  0
LINE
  5
9B
330
35E
100
AcDbEntity
  8
0
100
AcDbLine
 10
1.955969333333333
 20
24.37979488888888
 30
0.0
 11
1.654499555555556
 21
24.85996777777778
 31
0.0
  0
LINE
  5
9C
330
35E
100
AcDbEntity
  8
0
100
AcDbLine
 10
1.654499555555556
 20
24.85996777777778
 30
0.0
 11
1.317780222222222
 21
25.35278422222222
 31
0.0
  0
LINE
  5
9D
330
35E
100
AcDbEntity
  8
0
100
AcDbLine
 10
1.317780222222222
 20
25.35278422222222
 30
0.0
 11
0.944259111111111
 21
25.853136
 31
0.0
  0
LINE
  5
9E
330
35E
100
AcDbEntity
  8
0
100
AcDbLine
 10
0.944259111111111
 20
25.853136
 30
0.0
 11
-1.514376222222222
 21
25.82601444444444
 31
0.0
  0
LINE
  5
9F
330
35E
100
AcDbEntity
  8
0
100
AcDbLine
 10
-1.514376222222222
 20
25.82601444444444
 30
0.0
 11
-1.876749555555555
 21
25.31753466666667
 31
0.0
  0
LINE
  5
A0
330
35E
100
AcDbEntity
  8
0
100
AcDbLine
 10
-1.876749555555555
 20
25.31753466666667
 30
0.0
 11
-2.202518666666666
 21
24.81740866666667
 31
0.0
  0
LINE
  5
A1
330
35E
100
AcDbEntity
  8
0
100
AcDbLine
 10
-2.202518666666666
 20
24.81740866666667
 30
0.0
 11
-2.493320444444444
 21
24.33068822222222
 31
0.0
  0
LINE
  5
A2
330
35E
100
AcDbEntity
  8
0
100
AcDbLine
 10
-2.493320444444444
 20
24.33068822222222
 30
0.0
 11
-2.750678888888888
 21
23.85934888888889
 31
0.0
  0
LINE
  5
A3
330
35E
100
AcDbEntity
  8
0
100
AcDbLine
 10
-2.750678888888888
 20
23.85934888888889
 30
0.0
 11
-2.976287333333333
 21
23.40516866666667
 31
0.0
  0
LINE
  5
A4
330
35E
100
AcDbEntity
  8
0
100
AcDbLine
 10
-2.976287333333333
 20
23.40516866666667
 30
0.0
 11
-3.171839111111111
 21
22.96986911111111
 31
0.0
  0
LINE
  5
A5
330
35E
100
AcDbEntity
  8
0
100
AcDbLine
 10
-3.171839111111111
 20
22.96986911111111
 30
0.0
 11
-3.339168666666666
 21
22.55508711111111
 31
0.0
  0
LINE
  5
A6
330
35E
100
AcDbEntity
  8
0
100
AcDbLine
 10
-3.339168666666666
 20
22.55508711111111
 30
0.0
 11
-3.480195111111111
 21
22.162262
 31
0.0
  0
LINE
  5
A7
330
35E
100
AcDbEntity
  8
0
100
AcDbLine
 10
-3.480195111111111
 20
22.162262
 30
0.0
 11
-3.596894
 21
21.79280488888889
 31
0.0
  0
LINE
  5
A8
330
35E
100
AcDbEntity
  8
0
100
AcDbLine
 10
-3.596894
 20
21.79280488888889
 30
0.0
 11
-3.691269111111111
 21
21.44795755555555
 31
0.0
  0
LINE
  5
A9
330
35E
100
AcDbEntity
  8
0
100
AcDbLine
 10
-3.691269111111111
 20
21.44795755555555
 30
0.0
 11
-3.765437111111111
 21
21.12884888888889
 31
0.0
  0
LINE
  5
AA
330
35E
100
AcDbEntity
  8
0
100
AcDbLine
 10
-3.765437111111111
 20
21.12884888888889
 30
0.0
 11
-3.821571111111111
 21
20.83649488888889
 31
0.0
  0
LINE
  5
AB
330
35E
100
AcDbEntity
  8
0
100
AcDbLine
 10
-3.821571111111111
 20
20.83649488888889
 30
0.0
 11
-3.861816
 21
20.57177044444444
 31
0.0
  0
LINE
  5
AC
330
35E
100
AcDbEntity
  8
0
100
AcDbLine
 10
-3.861816
 20
20.57177044444444
 30
0.0
 11
-3.888429555555556
 21
20.33540933333333
 31
0.0
  0
LINE
  5
AD
330
35E
100
AcDbEntity
  8
0
100
AcDbLine
 10
-3.888429555555556
 20
20.33540933333333
 30
0.0
 11
-3.903697777777778
 21
20.12806066666667
 31
0.0
  0
LINE
  5
AE
330
35E
100
AcDbEntity
  8
0
100
AcDbLine
 10
-3.903697777777778
 20
20.12806066666667
 30
0.0
 11
-3.909878444444444
 21
19.95014777777778
 31
0.0
  0
LINE
  5
AF
330
35E
100
AcDbEntity
  8
0
100
AcDbLine
 10
-3.909878444444444
 20
19.95014777777778
 30
0.0
 11
-3.909285777777778
 21
19.80203755555555
 31
0.0
  0
LINE
  5
B0
330
35E
100
AcDbEntity
  8
0
100
AcDbLine
 10
-3.909285777777778
 20
19.80203755555555
 30
0.0
 11
-3.904262222222222
 21
19.683984
 31
0.0
  0
LINE
  5
B1
330
35E
100
AcDbEntity
  8
0
100
AcDbLine
 10
-3.904262222222222
 20
19.683984
 30
0.0
 11
-3.897093777777778
 21
19.59601533333333
 31
0.0
  0
LINE
  5
B2
330
35E
100
AcDbEntity
  8
0
100
AcDbLine
 10
-3.897093777777778
 20
19.59601533333333
 30
0.0
 11
-3.890151111111111
 21
19.53807511111111
 31
0.0
  0
LINE
  5
B3
330
35E
100
AcDbEntity
  8
0
100
AcDbLine
 10
-3.890151111111111
 20
19.53807511111111
 30
0.0
 11
-3.885720222222222
 21
19.509994
 31
0.0
  0
LINE
  5
B4
330
35E
100
AcDbEntity
  8
0
100
AcDbLine
 10
-3.885720222222222
 20
19.509994
 30
0.0
 11
-3.077915555555556
 21
15.453868
 31
0.0
  0
LINE
  5
B5
330
35E
100
AcDbEntity
  8
0
100
AcDbLine
 10
-3.077915555555556
 20
15.453868
 30
0.0
 11
-7.87871311111111
 21
13.64631933333333
 31
0.0
  0
LINE
  5
B6
330
35E
100
AcDbEntity
  8
0
100
AcDbLine
 10
-7.87871311111111
 20
13.64631933333333
 30
0.0
 11
-9.946611777777775
 21
17.22800155555555
 31
0.0
  0
LINE
  5
B7
330
35E
100
AcDbEntity
  8
0
100
AcDbLine
 10
-9.946611777777775
 20
17.22800155555555
 30
0.0
 11
-9.961823555555556
 21
17.25201866666666
 31
0.0
  0
LINE
  5
B8
330
35E
100
AcDbEntity
  8
0
100
AcDbLine
 10
-9.961823555555556
 20
17.25201866666666
 30
0.0
 11
-9.99478711111111
 21
17.30013755555555
 31
0.0
  0
LINE
  5
B9
330
35E
100
AcDbEntity
  8
0
100
AcDbLine
 10
-9.99478711111111
 20
17.30013755555555
 30
0.0
 11
-10.04744977777778
 21
17.37097533333333
 31
0.0
  0
LINE
  5
BA
330
35E
100
AcDbEntity
  8
0
100
AcDbLine
 10
-10.04744977777778
 20
17.37097533333333
 30
0.0
 11
-10.12153311111111
 21
17.46303622222222
 31
0.0
  0
LINE
  5
BB
330
35E
100
AcDbEntity
  8
0
100
AcDbLine
 10
-10.12153311111111
 20
17.46303622222222
 30
0.0
 11
-10.21875866666667
 21
17.57473977777778
 31
0.0
  0
LINE
  5
BC
330
35E
100
AcDbEntity
  8
0
100
AcDbLine
 10
-10.21875866666667
 20
17.57473977777778
 30
0.0
 11
-10.34076333333333
 21
17.70439266666667
 31
0.0
  0
LINE
  5
BD
330
35E
100
AcDbEntity
  8
0
100
AcDbLine
 10
-10.34076333333333
 20
17.70439266666667
 30
0.0
 11
-10.48898644444444
 21
17.85021688888889
 31
0.0
  0
LINE
  5
BE
330
35E
100
AcDbEntity
  8
0
100
AcDbLine
 10
-10.48898644444444
 20
17.85021688888889
 30
0.0
 11
-10.66486733333333
 21
18.01032155555555
 31
0.0
  0
LINE
  5
BF
330
35E
100
AcDbEntity
  8
0
100
AcDbLine
 10
-10.66486733333333
 20
18.01032155555555
 30
0.0
 11
-10.86973244444444
 21
18.18278755555555
 31
0.0
  0
LINE
  5
C0
330
35E
100
AcDbEntity
  8
0
100
AcDbLine
 10
-10.86973244444444
 20
18.18278755555555
 30
0.0
 11
-11.10473888888889
 21
18.36552644444444
 31
0.0
  0
LINE
  5
C1
330
35E
100
AcDbEntity
  8
0
100
AcDbLine
 10
-11.10473888888889
 20
18.36552644444444
 30
0.0
 11
-11.37093088888889
 21
18.55644977777778
 31
0.0
  0
LINE
  5
C2
330
35E
100
AcDbEntity
  8
0
100
AcDbLine
 10
-11.37093088888889
 20
18.55644977777778
 30
0.0
 11
-11.66932444444444
 21
18.75341266666667
 31
0.0
  0
LINE
  5
C3
330
35E
100
AcDbEntity
  8
0
100
AcDbLine
 10
-11.66932444444444
 20
18.75341266666667
 30
0.0
 11
-12.00070977777778
 21
18.95418555555555
 31
0.0
  0
LINE
  5
C4
330
35E
100
AcDbEntity
  8
0
100
AcDbLine
 10
-12.00070977777778
 20
18.95418555555555
 30
0.0
 11
-12.36579244444444
 21
19.156426
 31
0.0
  0
LINE
  5
C5
330
35E
100
AcDbEntity
  8
0
100
AcDbLine
 10
-12.36579244444444
 20
19.156426
 30
0.0
 11
-12.76513688888889
 21
19.357848
 31
0.0
  0
LINE
  5
C6
330
35E
100
AcDbEntity
  8
0
100
AcDbLine
 10
-12.76513688888889
 20
19.357848
 30
0.0
 11
-13.19922288888889
 21
19.55608088888889
 31
0.0
  0
LINE
  5
C7
330
35E
100
AcDbEntity
  8
0
100
AcDbLine
 10
-13.19922288888889
 20
19.55608088888889
 30
0.0
 11
-13.66833266666667
 21
19.74869755555556
 31
0.0
  0
LINE
  5
C8
330
35E
100
AcDbEntity
  8
0
100
AcDbLine
 10
-13.66833266666667
 20
19.74869755555556
 30
0.0
 11
-14.17266377777778
 21
19.93327088888889
 31
0.0
  0
LINE
  5
C9
330
35E
100
AcDbEntity
  8
0
100
AcDbLine
 10
-14.17266377777778
 20
19.93327088888889
 30
0.0
 11
-14.71224444444444
 21
20.10731733333333
 31
0.0
  0
LINE
  5
CA
330
35E
100
AcDbEntity
  8
0
100
AcDbLine
 10
-14.71224444444444
 20
20.10731733333333
 30
0.0
 11
-15.28696177777778
 21
20.26840977777778
 31
0.0
  0
LINE
  5
CB
330
35E
100
AcDbEntity
  8
0
100
AcDbLine
 10
-15.28696177777778
 20
20.26840977777778
 30
0.0
 11
-15.89472733333333
 21
20.41160933333333
 31
0.0
  0
LINE
  5
CC
330
35E
100
AcDbEntity
  8
0
100
AcDbLine
 10
-15.89472733333333
 20
20.41160933333333
 30
0.0
 11
-17.76072422222222
 21
18.81044977777778
 31
0.0
  0
LINE
  5
CD
330
35E
100
AcDbEntity
  8
0
100
AcDbLine
 10
-17.76072422222222
 20
18.81044977777778
 30
0.0
 11
-17.71147644444444
 21
18.18800866666666
 31
0.0
  0
LINE
  5
CE
330
35E
100
AcDbEntity
  8
0
100
AcDbLine
 10
-17.71147644444444
 20
18.18800866666666
 30
0.0
 11
-17.63956622222222
 21
17.59548311111111
 31
0.0
  0
LINE
  5
CF
330
35E
100
AcDbEntity
  8
0
100
AcDbLine
 10
-17.63956622222222
 20
17.59548311111111
 30
0.0
 11
-17.54945266666667
 21
17.03572355555556
 31
0.0
  0
LINE
  5
D0
330
35E
100
AcDbEntity
  8
0
100
AcDbLine
 10
-17.54945266666667
 20
17.03572355555556
 30
0.0
 11
-17.44364755555555
 21
16.50920977777778
 31
0.0
  0
LINE
  5
D1
330
35E
100
AcDbEntity
  8
0
100
AcDbLine
 10
-17.44364755555555
 20
16.50920977777778
 30
0.0
 11
-17.32452155555556
 21
16.01628044444444
 31
0.0
  0
LINE
  5
D2
330
35E
100
AcDbEntity
  8
0
100
AcDbLine
 10
-17.32452155555556
 20
16.01628044444444
 30
0.0
 11
-17.19450177777778
 21
15.55713311111111
 31
0.0
  0
LINE
  5
D3
330
35E
100
AcDbEntity
  8
0
100
AcDbLine
 10
-17.19450177777778
 20
15.55713311111111
 30
0.0
 11
-17.05607177777778
 21
15.13182422222222
 31
0.0
  0
LINE
  5
D4
330
35E
100
AcDbEntity
  8
0
100
AcDbLine
 10
-17.05607177777778
 20
15.13182422222222
 30
0.0
 11
-16.91160222222222
 21
14.74024088888889
 31
0.0
  0
LINE
  5
D5
330
35E
100
AcDbEntity
  8
0
100
AcDbLine
 10
-16.91160222222222
 20
14.74024088888889
 30
0.0
 11
-16.76352022222222
 21
14.38221377777778
 31
0.0
  0
LINE
  5
D6
330
35E
100
AcDbEntity
  8
0
100
AcDbLine
 10
-16.76352022222222
 20
14.38221377777778
 30
0.0
 11
-16.61416822222222
 21
14.057376
 31
0.0
  0
LINE
  5
D7
330
35E
100
AcDbEntity
  8
0
100
AcDbLine
 10
-16.61416822222222
 20
14.057376
 30
0.0
 11
-16.46586044444444
 21
13.765276
 31
0.0
  0
LINE
  5
D8
330
35E
100
AcDbEntity
  8
0
100
AcDbLine
 10
-16.46586044444444
 20
13.765276
 30
0.0
 11
-16.32093933333333
 21
13.50523644444444
 31
0.0
  0
LINE
  5
D9
330
35E
100
AcDbEntity
  8
0
100
AcDbLine
 10
-16.32093933333333
 20
13.50523644444444
 30
0.0
 11
-16.18160622222222
 21
13.27658
 31
0.0
  0
LINE
  5
DA
330
35E
100
AcDbEntity
  8
0
100
AcDbLine
 10
-16.18160622222222
 20
13.27658
 30
0.0
 11
-16.05006244444444
 21
13.07840355555556
 31
0.0
  0
LINE
  5
DB
330
35E
100
AcDbEntity
  8
0
100
AcDbLine
 10
-16.05006244444444
 20
13.07840355555556
 30
0.0
 11
-15.92845288888889
 21
12.90974755555555
 31
0.0
  0
LINE
  5
DC
330
35E
100
AcDbEntity
  8
0
100
AcDbLine
 10
-15.92845288888889
 20
12.90974755555555
 30
0.0
 11
-15.81883777777778
 21
12.76948311111111
 31
0.0
  0
LINE
  5
DD
330
35E
100
AcDbEntity
  8
0
100
AcDbLine
 10
-15.81883777777778
 20
12.76948311111111
 30
0.0
 11
-15.72319266666667
 21
12.65639666666667
 31
0.0
  0
LINE
  5
DE
330
35E
100
AcDbEntity
  8
0
100
AcDbLine
 10
-15.72319266666667
 20
12.65639666666667
 30
0.0
 11
-15.64343666666666
 21
12.56919
 31
0.0
  0
LINE
  5
DF
330
35E
100
AcDbEntity
  8
0
100
AcDbLine
 10
-15.64343666666666
 20
12.56919
 30
0.0
 11
-15.58143244444444
 21
12.50639555555555
 31
0.0
  0
LINE
  5
E0
330
35E
100
AcDbEntity
  8
0
100
AcDbLine
 10
-15.58143244444444
 20
12.50639555555555
 30
0.0
 11
-15.53887333333333
 21
12.46648933333333
 31
0.0
  0
LINE
  5
E1
330
35E
100
AcDbEntity
  8
0
100
AcDbLine
 10
-15.53887333333333
 20
12.46648933333333
 30
0.0
 11
-15.51742444444444
 21
12.44783444444444
 31
0.0
  0
LINE
  5
E2
330
35E
100
AcDbEntity
  8
0
100
AcDbLine
 10
-15.51742444444444
 20
12.44783444444444
 30
0.0
 11
-12.29137044444444
 21
9.859913111111112
 31
0.0
  0
LINE
  5
E3
330
35E
100
AcDbEntity
  8
0
100
AcDbLine
 10
-12.29137044444444
 20
9.859913111111112
 30
0.0
 11
-14.80712755555555
 21
5.389343777777778
 31
0.0
  0
LINE
  5
E4
330
35E
100
AcDbEntity
  8
0
100
AcDbLine
 10
-14.80712755555555
 20
5.389343777777778
 30
0.0
 11
-18.69349688888889
 21
6.803841555555556
 31
0.0
  0
LINE
  5
E5
330
35E
100
AcDbEntity
  8
0
100
AcDbLine
 10
-18.69349688888889
 20
6.803841555555556
 30
0.0
 11
-18.720562
 21
6.812477555555555
 31
0.0
  0
LINE
  5
E6
330
35E
100
AcDbEntity
  8
0
100
AcDbLine
 10
-18.720562
 20
6.812477555555555
 30
0.0
 11
-18.77678066666666
 21
6.828140888888888
 31
0.0
  0
LINE
  5
E7
330
35E
100
AcDbEntity
  8
0
100
AcDbLine
 10
-18.77678066666666
 20
6.828140888888888
 30
0.0
 11
-18.86263266666667
 21
6.848573777777777
 31
0.0
  0
LINE
  5
E8
330
35E
100
AcDbEntity
  8
0
100
AcDbLine
 10
-18.86263266666667
 20
6.848573777777777
 30
0.0
 11
-18.97856955555555
 21
6.871461999999999
 31
0.0
  0
LINE
  5
E9
330
35E
100
AcDbEntity
  8
0
100
AcDbLine
 10
-18.97856955555555
 20
6.871461999999999
 30
0.0
 11
-19.12487355555555
 21
6.894547777777777
 31
0.0
  0
LINE
  5
EA
330
35E
100
AcDbEntity
  8
0
100
AcDbLine
 10
-19.12487355555555
 20
6.894547777777777
 30
0.0
 11
-19.30165755555555
 21
6.915460444444443
 31
0.0
  0
LINE
  5
EB
330
35E
100
AcDbEntity
  8
0
100
AcDbLine
 10
-19.30165755555555
 20
6.915460444444443
 30
0.0
 11
-19.50892155555555
 21
6.931885777777778
 31
0.0
  0
LINE
  5
EC
330
35E
100
AcDbEntity
  8
0
100
AcDbLine
 10
-19.50892155555555
 20
6.931885777777778
 30
0.0
 11
-19.74658088888889
 21
6.941453111111111
 31
0.0
  0
LINE
  5
ED
330
35E
100
AcDbEntity
  8
0
100
AcDbLine
 10
-19.74658088888889
 20
6.941453111111111
 30
0.0
 11
-20.01435333333333
 21
6.941876444444445
 31
0.0
  0
LINE
  5
EE
330
35E
100
AcDbEntity
  8
0
100
AcDbLine
 10
-20.01435333333333
 20
6.941876444444445
 30
0.0
 11
-20.31184377777778
 21
6.930813333333333
 31
0.0
  0
LINE
  5
EF
330
35E
100
AcDbEntity
  8
0
100
AcDbLine
 10
-20.31184377777778
 20
6.930813333333333
 30
0.0
 11
-20.638516
 21
6.905977777777777
 31
0.0
  0
LINE
  5
F0
330
35E
100
AcDbEntity
  8
0
100
AcDbLine
 10
-20.638516
 20
6.905977777777777
 30
0.0
 11
-20.99369266666667
 21
6.865055555555555
 31
0.0
  0
LINE
  5
F1
330
35E
100
AcDbEntity
  8
0
100
AcDbLine
 10
-20.99369266666667
 20
6.865055555555555
 30
0.0
 11
-21.37658355555555
 21
6.805845333333333
 31
0.0
  0
LINE
  5
F2
330
35E
100
AcDbEntity
  8
0
100
AcDbLine
 10
-21.37658355555555
 20
6.805845333333333
 30
0.0
 11
-21.78625733333334
 21
6.726117555555555
 31
0.0
  0
LINE
  5
F3
330
35E
100
AcDbEntity
  8
0
100
AcDbLine
 10
-21.78625733333334
 20
6.726117555555555
 30
0.0
 11
-22.22166977777778
 21
6.623699111111111
 31
0.0
  0
LINE
  5
F4
330
35E
100
AcDbEntity
  8
0
100
AcDbLine
 10
-22.22166977777778
 20
6.623699111111111
 30
0.0
 11
-22.68160733333333
 21
6.496529777777778
 31
0.0
  0
LINE
  5
F5
330
35E
100
AcDbEntity
  8
0
100
AcDbLine
 10
-22.68160733333333
 20
6.496529777777778
 30
0.0
 11
-23.16477177777778
 21
6.342549333333333
 31
0.0
  0
LINE
  5
F6
330
35E
100
AcDbEntity
  8
0
100
AcDbLine
 10
-23.16477177777778
 20
6.342549333333333
 30
0.0
 11
-23.669752
 21
6.159754
 31
0.0
  0
LINE
  5
F7
330
35E
100
AcDbEntity
  8
0
100
AcDbLine
 10
-23.669752
 20
6.159754
 30
0.0
 11
-24.19496755555555
 21
5.946252888888889
 31
0.0
  0
LINE
  5
F8
330
35E
100
AcDbEntity
  8
0
100
AcDbLine
 10
-24.19496755555555
 20
5.946252888888889
 30
0.0
 11
-24.73878155555555
 21
5.700239777777778
 31
0.0
  0
LINE
  5
F9
330
35E
100
AcDbEntity
  8
0
100
AcDbLine
 10
-24.73878155555555
 20
5.700239777777778
 30
0.0
 11
-25.29639622222222
 21
5.419287555555556
 31
0.0
  0
LINE
  5
FA
330
35E
100
AcDbEntity
  8
0
100
AcDbLine
 10
-25.29639622222222
 20
5.419287555555556
 30
0.0
 11
-25.69661555555555
 21
2.993277111111111
 31
0.0
  0
LINE
  5
FB
330
35E
100
AcDbEntity
  8
0
100
AcDbLine
 10
-25.69661555555555
 20
2.993277111111111
 30
0.0
 11
-25.25880422222222
 21
2.548099777777778
 31
0.0
  0
LINE
  5
FC
330
35E
100
AcDbEntity
  8
0
100
AcDbLine
 10
-25.25880422222222
 20
2.548099777777778
 30
0.0
 11
-24.82282733333333
 21
2.140429777777778
 31
0.0
  0
LINE
  5
FD
330
35E
100
AcDbEntity
  8
0
100
AcDbLine
 10
-24.82282733333333
 20
2.140429777777778
 30
0.0
 11
-24.39401888888889
 21
1.769533333333333
 31
0.0
  0
LINE
  5
FE
330
35E
100
AcDbEntity
  8
0
100
AcDbLine
 10
-24.39401888888889
 20
1.769533333333333
 30
0.0
 11
-23.97452377777778
 21
1.434225111111111
 31
0.0
  0
LINE
  5
FF
330
35E
100
AcDbEntity
  8
0
100
AcDbLine
 10
-23.97452377777778
 20
1.434225111111111
 30
0.0
 11
-23.56640222222222
 21
1.133206888888889
 31
0.0
  0
LINE
  5
100
330
35E
100
AcDbEntity
  8
0
100
AcDbLine
 10
-23.56640222222222
 20
1.133206888888889
 30
0.0
 11
-23.17168622222222
 21
0.8650393333333334
 31
0.0
  0
LINE
  5
101
330
35E
100
AcDbEntity
  8
0
100
AcDbLine
 10
-23.17168622222222
 20
0.8650393333333334
 30
0.0
 11
-22.79226666666667
 21
0.6281984444444445
 31
0.0
  0
LINE
  5
102
330
35E
100
AcDbEntity
  8
0
100
AcDbLine
 10
-22.79226666666667
 20
0.6281984444444445
 30
0.0
 11
-22.42989333333333
 21
0.4211037777777777
 31
0.0
  0
LINE
  5
103
330
35E
100
AcDbEntity
  8
0
100
AcDbLine
 10
-22.42989333333333
 20
0.4211037777777777
 30
0.0
 11
-22.086316
 21
0.2420337777777778
 31
0.0
  0
LINE
  5
104
330
35E
100
AcDbEntity
  8
0
100
AcDbLine
 10
-22.086316
 20
0.2420337777777778
 30
0.0
 11
-21.76308688888889
 21
0.0892104444444444
 31
0.0
  0
LINE
  5
105
330
35E
100
AcDbEntity
  8
0
100
AcDbLine
 10
-21.76308688888889
 20
0.0892104444444444
 30
0.0
 11
-21.46173
 21
-0.0392571111111111
 31
0.0
  0
LINE
  5
106
330
35E
100
AcDbEntity
  8
0
100
AcDbLine
 10
-21.46173
 20
-0.0392571111111111
 30
0.0
 11
-21.18357177777778
 21
-0.145288
 31
0.0
  0
LINE
  5
107
330
35E
100
AcDbEntity
  8
0
100
AcDbLine
 10
-21.18357177777778
 20
-0.145288
 30
0.0
 11
-20.929854
 21
-0.230886
 31
0.0
  0
LINE
  5
108
330
35E
100
AcDbEntity
  8
0
100
AcDbLine
 10
-20.929854
 20
-0.230886
 30
0.0
 11
-20.70170555555556
 21
-0.2981395555555555
 31
0.0
  0
LINE
  5
109
330
35E
100
AcDbEntity
  8
0
100
AcDbLine
 10
-20.70170555555556
 20
-0.2981395555555555
 30
0.0
 11
-20.50011422222222
 21
-0.3491935555555555
 31
0.0
  0
LINE
  5
10A
330
35E
100
AcDbEntity
  8
0
100
AcDbLine
 10
-20.50011422222222
 20
-0.3491935555555555
 30
0.0
 11
-20.32598311111111
 21
-0.3861646666666667
 31
0.0
  0
LINE
  5
10B
330
35E
100
AcDbEntity
  8
0
100
AcDbLine
 10
-20.32598311111111
 20
-0.3861646666666667
 30
0.0
 11
-20.180046
 21
-0.4113106666666667
 31
0.0
  0
LINE
  5
10C
330
35E
100
AcDbEntity
  8
0
100
AcDbLine
 10
-20.180046
 20
-0.4113106666666667
 30
0.0
 11
-20.06289555555555
 21
-0.4268611111111111
 31
0.0
  0
LINE
  5
10D
330
35E
100
AcDbEntity
  8
0
100
AcDbLine
 10
-20.06289555555555
 20
-0.4268611111111111
 30
0.0
 11
-19.97501155555556
 21
-0.4350737777777778
 31
0.0
  0
LINE
  5
10E
330
35E
100
AcDbEntity
  8
0
100
AcDbLine
 10
-19.97501155555556
 20
-0.4350737777777778
 30
0.0
 11
-19.91676088888889
 21
-0.4383193333333333
 31
0.0
  0
LINE
  5
10F
330
35E
100
AcDbEntity
  8
0
100
AcDbLine
 10
-19.91676088888889
 20
-0.4383193333333333
 30
0.0
 11
-19.88834111111111
 21
-0.4388273333333333
 31
0.0
  0
LINE
  5
110
330
35E
100
AcDbEntity
  8
0
100
AcDbLine
 10
-19.88834111111111
 20
-0.4388273333333333
 30
0.0
 11
-15.75355977777778
 21
-0.3476131111111111
 31
0.0
  0
LINE
  5
111
330
35E
100
AcDbEntity
  8
0
100
AcDbLine
 10
-15.75355977777778
 20
-0.3476131111111111
 30
0.0
 11
-14.80712755555555
 21
-5.389343777777778
 31
0.0
  0
LINE
  5
112
330
35E
100
AcDbEntity
  8
0
100
AcDbLine
 10
-14.80712755555555
 20
-5.389343777777778
 30
0.0
 11
-18.69346866666666
 21
-6.803897999999999
 31
0.0
  0
LINE
  5
113
330
35E
100
AcDbEntity
  8
0
100
AcDbLine
 10
-18.69346866666666
 20
-6.803897999999999
 30
0.0
 11
-18.71977177777778
 21
-6.814678888888889
 31
0.0
  0
LINE
  5
114
330
35E
100
AcDbEntity
  8
0
100
AcDbLine
 10
-18.71977177777778
 20
-6.814678888888889
 30
0.0
 11
-18.772886
 21
-6.838808888888888
 31
0.0
  0
LINE
  5
115
330
35E
100
AcDbEntity
  8
0
100
AcDbLine
 10
-18.772886
 20
-6.838808888888888
 30
0.0
 11
-18.85179533333334
 21
-6.878376444444444
 31
0.0
  0
LINE
  5
116
330
35E
100
AcDbEntity
  8
0
100
AcDbLine
 10
-18.85179533333334
 20
-6.878376444444444
 30
0.0
 11
-18.95531444444444
 21
-6.935328888888889
 31
0.0
  0
LINE
  5
117
330
35E
100
AcDbEntity
  8
0
100
AcDbLine
 10
-18.95531444444444
 20
-6.935328888888889
 30
0.0
 11
-19.08222977777778
 21
-7.011698222222222
 31
0.0
  0
LINE
  5
118
330
35E
100
AcDbEntity
  8
0
100
AcDbLine
 10
-19.08222977777778
 20
-7.011698222222222
 30
0.0
 11
-19.23107377777778
 21
-7.109318888888889
 31
0.0
  0
LINE
  5
119
330
35E
100
AcDbEntity
  8
0
100
AcDbLine
 10
-19.23107377777778
 20
-7.109318888888889
 30
0.0
 11
-19.40043533333333
 21
-7.229968888888888
 31
0.0
  0
LINE
  5
11A
330
35E
100
AcDbEntity
  8
0
100
AcDbLine
 10
-19.40043533333333
 20
-7.229968888888888
 30
0.0
 11
-19.58864933333333
 21
-7.375397999999999
 31
0.0
  0
LINE
  5
11B
330
35E
100
AcDbEntity
  8
0
100
AcDbLine
 10
-19.58864933333333
 20
-7.375397999999999
 30
0.0
 11
-19.79405066666666
 21
-7.547186666666667
 31
0.0
  0
LINE
  5
11C
330
35E
100
AcDbEntity
  8
0
100
AcDbLine
 10
-19.79405066666666
 20
-7.547186666666667
 30
0.0
 11
-20.01483311111111
 21
-7.746887111111111
 31
0.0
  0
LINE
  5
11D
330
35E
100
AcDbEntity
  8
0
100
AcDbLine
 10
-20.01483311111111
 20
-7.746887111111111
 30
0.0
 11
-20.24907755555556
 21
-7.975910444444444
 31
0.0
  0
LINE
  5
11E
330
35E
100
AcDbEntity
  8
0
100
AcDbLine
 10
-20.24907755555556
 20
-7.975910444444444
 30
0.0
 11
-20.49486488888889
 21
-8.235554888888888
 31
0.0
  0
LINE
  5
11F
330
35E
100
AcDbEntity
  8
0
100
AcDbLine
 10
-20.49486488888889
 20
-8.235554888888888
 30
0.0
 11
-20.75010666666667
 21
-8.527033999999999
 31
0.0
  0
LINE
  5
120
330
35E
100
AcDbEntity
  8
0
100
AcDbLine
 10
-20.75010666666667
 20
-8.527033999999999
 30
0.0
 11
-21.01268622222222
 21
-8.851448444444443
 31
0.0
  0
LINE
  5
121
330
35E
100
AcDbEntity
  8
0
100
AcDbLine
 10
-21.01268622222222
 20
-8.851448444444443
 30
0.0
 11
-21.28040222222222
 21
-9.209757777777778
 31
0.0
  0
LINE
  5
122
330
35E
100
AcDbEntity
  8
0
100
AcDbLine
 10
-21.28040222222222
 20
-9.209757777777778
 30
0.0
 11
-21.55099688888889
 21
-9.602836888888888
 31
0.0
  0
LINE
  5
123
330
35E
100
AcDbEntity
  8
0
100
AcDbLine
 10
-21.55099688888889
 20
-9.602836888888888
 30
0.0
 11
-21.822156
 21
-10.03136311111111
 31
0.0
  0
LINE
  5
124
330
35E
100
AcDbEntity
  8
0
100
AcDbLine
 10
-21.822156
 20
-10.03136311111111
 30
0.0
 11
-22.09148066666667
 21
-10.49598555555555
 31
0.0
  0
LINE
  5
125
330
35E
100
AcDbEntity
  8
0
100
AcDbLine
 10
-22.09148066666667
 20
-10.49598555555555
 30
0.0
 11
-22.35660022222222
 21
-10.99712755555555
 31
0.0
  0
LINE
  5
126
330
35E
100
AcDbEntity
  8
0
100
AcDbLine
 10
-22.35660022222222
 20
-10.99712755555555
 30
0.0
 11
-22.61503111111111
 21
-11.535156
 31
0.0
  0
LINE
  5
127
330
35E
100
AcDbEntity
  8
0
100
AcDbLine
 10
-22.61503111111111
 20
-11.535156
 30
0.0
 11
-22.86160866666667
 21
-12.10880088888889
 31
0.0
  0
LINE
  5
128
330
35E
100
AcDbEntity
  8
0
100
AcDbLine
 10
-22.86160866666667
 20
-12.10880088888889
 30
0.0
 11
-21.608796
 21
-14.224508
 31
0.0
  0
LINE
  5
129
330
35E
100
AcDbEntity
  8
0
100
AcDbLine
 10
-21.608796
 20
-14.224508
 30
0.0
 11
-20.987258
 21
-14.28408511111111
 31
0.0
  0
LINE
  5
12A
330
35E
100
AcDbEntity
  8
0
100
AcDbLine
 10
-20.987258
 20
-14.28408511111111
 30
0.0
 11
-20.39123288888889
 21
-14.31614555555556
 31
0.0
  0
LINE
  5
12B
330
35E
100
AcDbEntity
  8
0
100
AcDbLine
 10
-20.39123288888889
 20
-14.31614555555556
 30
0.0
 11
-19.82433311111111
 21
-14.32464044444444
 31
0.0
  0
LINE
  5
12C
330
35E
100
AcDbEntity
  8
0
100
AcDbLine
 10
-19.82433311111111
 20
-14.32464044444444
 30
0.0
 11
-19.28746177777778
 21
-14.31182755555555
 31
0.0
  0
LINE
  5
12D
330
35E
100
AcDbEntity
  8
0
100
AcDbLine
 10
-19.28746177777778
 20
-14.31182755555555
 30
0.0
 11
-18.78132444444444
 21
-14.28010577777778
 31
0.0
  0
LINE
  5
12E
330
35E
100
AcDbEntity
  8
0
100
AcDbLine
 10
-18.78132444444444
 20
-14.28010577777778
 30
0.0
 11
-18.30657022222222
 21
-14.23181755555555
 31
0.0
  0
LINE
  5
12F
330
35E
100
AcDbEntity
  8
0
100
AcDbLine
 10
-18.30657022222222
 20
-14.23181755555555
 30
0.0
 11
-17.86367888888889
 21
-14.16933355555556
 31
0.0
  0
LINE
  5
130
330
35E
100
AcDbEntity
  8
0
100
AcDbLine
 10
-17.86367888888889
 20
-14.16933355555556
 30
0.0
 11
-17.45298911111111
 21
-14.09508088888889
 31
0.0
  0
LINE
  5
131
330
35E
100
AcDbEntity
  8
0
100
AcDbLine
 10
-17.45298911111111
 20
-14.09508088888889
 30
0.0
 11
-17.07467022222222
 21
-14.011402
 31
0.0
  0
LINE
  5
132
330
35E
100
AcDbEntity
  8
0
100
AcDbLine
 10
-17.07467022222222
 20
-14.011402
 30
0.0
 11
-16.72883511111111
 21
-13.920724
 31
0.0
  0
LINE
  5
133
330
35E
100
AcDbEntity
  8
0
100
AcDbLine
 10
-16.72883511111111
 20
-13.920724
 30
0.0
 11
-16.41539911111111
 21
-13.82538933333333
 31
0.0
  0
LINE
  5
134
330
35E
100
AcDbEntity
  8
0
100
AcDbLine
 10
-16.41539911111111
 20
-13.82538933333333
 30
0.0
 11
-16.13416466666667
 21
-13.72782511111111
 31
0.0
  0
LINE
  5
135
330
35E
100
AcDbEntity
  8
0
100
AcDbLine
 10
-16.13416466666667
 20
-13.72782511111111
 30
0.0
 11
-15.88476488888889
 21
-13.63031733333333
 31
0.0
  0
LINE
  5
136
330
35E
100
AcDbEntity
  8
0
100
AcDbLine
 10
-15.88476488888889
 20
-13.63031733333333
 30
0.0
 11
-15.66677644444444
 21
-13.53518022222222
 31
0.0
  0
LINE
  5
137
330
35E
100
AcDbEntity
  8
0
100
AcDbLine
 10
-15.66677644444444
 20
-13.53518022222222
 30
0.0
 11
-15.47955022222222
 21
-13.444728
 31
0.0
  0
LINE
  5
138
330
35E
100
AcDbEntity
  8
0
100
AcDbLine
 10
-15.47955022222222
 20
-13.444728
 30
0.0
 11
-15.32238066666667
 21
-13.36110555555556
 31
0.0
  0
LINE
  5
139
330
35E
100
AcDbEntity
  8
0
100
AcDbLine
 10
-15.32238066666667
 20
-13.36110555555556
 30
0.0
 11
-15.19442111111111
 21
-13.28657066666667
 31
0.0
  0
LINE
  5
13A
330
35E
100
AcDbEntity
  8
0
100
AcDbLine
 10
-15.19442111111111
 20
-13.28657066666667
 30
0.0
 11
-15.09468377777778
 21
-13.22315533333333
 31
0.0
  0
LINE
  5
13B
330
35E
100
AcDbEntity
  8
0
100
AcDbLine
 10
-15.09468377777778
 20
-13.22315533333333
 30
0.0
 11
-15.02209622222222
 21
-13.17300444444444
 31
0.0
  0
LINE
  5
13C
330
35E
100
AcDbEntity
  8
0
100
AcDbLine
 10
-15.02209622222222
 20
-13.17300444444444
 30
0.0
 11
-14.97538844444444
 21
-13.13800888888889
 31
0.0
  0
LINE
  5
13D
330
35E
100
AcDbEntity
  8
0
100
AcDbLine
 10
-14.97538844444444
 20
-13.13800888888889
 30
0.0
 11
-14.95329044444444
 21
-13.12014422222222
 31
0.0
  0
LINE
  5
13E
330
35E
100
AcDbEntity
  8
0
100
AcDbLine
 10
-14.95329044444444
 20
-13.12014422222222
 30
0.0
 11
-11.84449977777778
 21
-10.39249466666667
 31
0.0
  0
LINE
  5
13F
330
35E
100
AcDbEntity
  8
0
100
AcDbLine
 10
-11.84449977777778
 20
-10.39249466666667
 30
0.0
 11
-7.87871311111111
 21
-13.64631933333333
 31
0.0
  0
LINE
  5
140
330
35E
100
AcDbEntity
  8
0
100
AcDbLine
 10
-7.87871311111111
 20
-13.64631933333333
 30
0.0
 11
-9.946555333333333
 21
-17.22802977777778
 31
0.0
  0
LINE
  5
141
330
35E
100
AcDbEntity
  8
0
100
AcDbLine
 10
-9.946555333333333
 20
-17.22802977777778
 30
0.0
 11
-9.959763333333333
 21
-17.253204
 31
0.0
  0
LINE
  5
142
330
35E
100
AcDbEntity
  8
0
100
AcDbLine
 10
-9.959763333333333
 20
-17.253204
 30
0.0
 11
-9.984965777777779
 21
-17.30581022222222
 31
0.0
  0
LINE
  5
143
330
35E
100
AcDbEntity
  8
0
100
AcDbLine
 10
-9.984965777777779
 20
-17.30581022222222
 30
0.0
 11
-10.01998955555556
 21
-17.38683622222222
 31
0.0
  0
LINE
  5
144
330
35E
100
AcDbEntity
  8
0
100
AcDbLine
 10
-10.01998955555556
 20
-17.38683622222222
 30
0.0
 11
-10.06266155555555
 21
-17.49701577777778
 31
0.0
  0
LINE
  5
145
330
35E
100
AcDbEntity
  8
0
100
AcDbLine
 10
-10.06266155555555
 20
-17.49701577777778
 30
0.0
 11
-10.11080866666667
 21
-17.63708266666666
 31
0.0
  0
LINE
  5
146
330
35E
100
AcDbEntity
  8
0
100
AcDbLine
 10
-10.11080866666667
 20
-17.63708266666666
 30
0.0
 11
-10.16208844444444
 21
-17.80754488888889
 31
0.0
  0
LINE
  5
147
330
35E
100
AcDbEntity
  8
0
100
AcDbLine
 10
-10.16208844444444
 20
-17.80754488888889
 30
0.0
 11
-10.21424311111111
 21
-18.00882577777778
 31
0.0
  0
LINE
  5
148
330
35E
100
AcDbEntity
  8
0
100
AcDbLine
 10
-10.21424311111111
 20
-18.00882577777778
 30
0.0
 11
-10.26495844444444
 21
-18.24123577777777
 31
0.0
  0
LINE
  5
149
330
35E
100
AcDbEntity
  8
0
100
AcDbLine
 10
-10.26495844444444
 20
-18.24123577777777
 30
0.0
 11
-10.31186377777778
 21
-18.50485955555556
 31
0.0
  0
LINE
  5
14A
330
35E
100
AcDbEntity
  8
0
100
AcDbLine
 10
-10.31186377777778
 20
-18.50485955555556
 30
0.0
 11
-10.35264488888889
 21
-18.79972533333333
 31
0.0
  0
LINE
  5
14B
330
35E
100
AcDbEntity
  8
0
100
AcDbLine
 10
-10.35264488888889
 20
-18.79972533333333
 30
0.0
 11
-10.38490288888889
 21
-19.12574844444444
 31
0.0
  0
LINE
  5
14C
330
35E
100
AcDbEntity
  8
0
100
AcDbLine
 10
-10.38490288888889
 20
-19.12574844444444
 30
0.0
 11
-10.40626711111111
 21
-19.48264666666667
 31
0.0
  0
LINE
  5
14D
330
35E
100
AcDbEntity
  8
0
100
AcDbLine
 10
-10.40626711111111
 20
-19.48264666666667
 30
0.0
 11
-10.41445155555556
 21
-19.86999666666667
 31
0.0
  0
LINE
  5
14E
330
35E
100
AcDbEntity
  8
0
100
AcDbLine
 10
-10.41445155555556
 20
-19.86999666666667
 30
0.0
 11
-10.40705733333333
 21
-20.28729044444444
 31
0.0
  0
LINE
  5
14F
330
35E
100
AcDbEntity
  8
0
100
AcDbLine
 10
-10.40705733333333
 20
-20.28729044444444
 30
0.0
 11
-10.38182666666667
 21
-20.73387888888889
 31
0.0
  0
LINE
  5
150
330
35E
100
AcDbEntity
  8
0
100
AcDbLine
 10
-10.38182666666667
 20
-20.73387888888889
 30
0.0
 11
-10.33644533333333
 21
-21.20891533333333
 31
0.0
  0
LINE
  5
151
330
35E
100
AcDbEntity
  8
0
100
AcDbLine
 10
-10.33644533333333
 20
-21.20891533333333
 30
0.0
 11
-10.268712
 21
-21.71149666666667
 31
0.0
  0
LINE
  5
152
330
35E
100
AcDbEntity
  8
0
100
AcDbLine
 10
-10.268712
 20
-21.71149666666667
 30
0.0
 11
-10.17636888888889
 21
-22.24052222222222
 31
0.0
  0
LINE
  5
153
330
35E
100
AcDbEntity
  8
0
100
AcDbLine
 10
-10.17636888888889
 20
-22.24052222222222
 30
0.0
 11
-10.05732755555556
 21
-22.79483488888889
 31
0.0
  0
LINE
  5
154
330
35E
100
AcDbEntity
  8
0
100
AcDbLine
 10
-10.05732755555556
 20
-22.79483488888889
 30
0.0
 11
-9.909471333333332
 21
-23.37310822222222
 31
0.0
  0
LINE
  5
155
330
35E
100
AcDbEntity
  8
0
100
AcDbLine
 10
-9.909471333333332
 20
-23.37310822222222
 30
0.0
 11
-9.729611111111112
 21
-23.97102422222222
 31
0.0
  0
LINE
  5
156
330
35E
100
AcDbEntity
  8
0
100
AcDbLine
 10
-9.729611111111112
 20
-23.97102422222222
 30
0.0
 11
-7.409970222222222
 21
-24.78644888888888
 31
0.0
  0
LINE
  5
157
330
35E
100
AcDbEntity
  8
0
100
AcDbLine
 10
-7.409970222222222
 20
-24.78644888888888
 30
0.0
 11
-6.895535555555555
 21
-24.43259866666666
 31
0.0
  0
LINE
  5
158
330
35E
100
AcDbEntity
  8
0
100
AcDbLine
 10
-6.895535555555555
 20
-24.43259866666666
 30
0.0
 11
-6.418354222222222
 21
-24.07403533333333
 31
0.0
  0
LINE
  5
159
330
35E
100
AcDbEntity
  8
0
100
AcDbLine
 10
-6.418354222222222
 20
-24.07403533333333
 30
0.0
 11
-5.978623777777778
 21
-23.71614933333333
 31
0.0
  0
LINE
  5
15A
330
35E
100
AcDbEntity
  8
0
100
AcDbLine
 10
-5.978623777777778
 20
-23.71614933333333
 30
0.0
 11
-5.575582222222222
 21
-23.36125488888889
 31
0.0
  0
LINE
  5
15B
330
35E
100
AcDbEntity
  8
0
100
AcDbLine
 10
-5.575582222222222
 20
-23.36125488888889
 30
0.0
 11
-5.208241777777777
 21
-23.01160977777777
 31
0.0
  0
LINE
  5
15C
330
35E
100
AcDbEntity
  8
0
100
AcDbLine
 10
-5.208241777777777
 20
-23.01160977777777
 30
0.0
 11
-4.875614666666666
 21
-22.66944355555555
 31
0.0
  0
LINE
  5
15D
330
35E
100
AcDbEntity
  8
0
100
AcDbLine
 10
-4.875614666666666
 20
-22.66944355555555
 30
0.0
 11
-4.576487333333334
 21
-22.33690111111111
 31
0.0
  0
LINE
  5
15E
330
35E
100
AcDbEntity
  8
0
100
AcDbLine
 10
-4.576487333333334
 20
-22.33690111111111
 30
0.0
 11
-4.309618
 21
-22.01601444444444
 31
0.0
  0
LINE
  5
15F
330
35E
100
AcDbEntity
  8
0
100
AcDbLine
 10
-4.309618
 20
-22.01601444444444
 30
0.0
 11
-4.073623777777778
 21
-21.70875911111111
 31
0.0
  0
LINE
  5
160
330
35E
100
AcDbEntity
  8
0
100
AcDbLine
 10
-4.073623777777778
 20
-21.70875911111111
 30
0.0
 11
-3.866980666666667
 21
-21.41696955555555
 31
0.0
  0
LINE
  5
161
330
35E
100
AcDbEntity
  8
0
100
AcDbLine
 10
-3.866980666666667
 20
-21.41696955555555
 30
0.0
 11
-3.688136444444444
 21
-21.14248022222222
 31
0.0
  0
LINE
  5
162
330
35E
100
AcDbEntity
  8
0
100
AcDbLine
 10
-3.688136444444444
 20
-21.14248022222222
 30
0.0
 11
-3.535397777777777
 21
-20.88695622222222
 31
0.0
  0
LINE
  5
163
330
35E
100
AcDbEntity
  8
0
100
AcDbLine
 10
-3.535397777777777
 20
-20.88695622222222
 30
0.0
 11
-3.407043111111111
 21
-20.651978
 31
0.0
  0
LINE
  5
164
330
35E
100
AcDbEntity
  8
0
100
AcDbLine
 10
-3.407043111111111
 20
-20.651978
 30
0.0
 11
-3.301181555555555
 21
-20.43895666666666
 31
0.0
  0
LINE
  5
165
330
35E
100
AcDbEntity
  8
0
100
AcDbLine
 10
-3.301181555555555
 20
-20.43895666666666
 30
0.0
 11
-3.215922222222222
 21
-20.24930333333333
 31
0.0
  0
LINE
  5
166
330
35E
100
AcDbEntity
  8
0
100
AcDbLine
 10
-3.215922222222222
 20
-20.24930333333333
 30
0.0
 11
-3.149289555555555
 21
-20.08425977777777
 31
0.0
  0
LINE
  5
167
330
35E
100
AcDbEntity
  8
0
100
AcDbLine
 10
-3.149289555555555
 20
-20.08425977777777
 30
0.0
 11
-3.099166888888889
 21
-19.94489844444444
 31
0.0
  0
LINE
  5
168
330
35E
100
AcDbEntity
  8
0
100
AcDbLine
 10
-3.099166888888889
 20
-19.94489844444444
 30
0.0
 11
-3.063522222222222
 21
-19.83220711111111
 31
0.0
  0
LINE
  5
169
330
35E
100
AcDbEntity
  8
0
100
AcDbLine
 10
-3.063522222222222
 20
-19.83220711111111
 30
0.0
 11
-3.040154222222222
 21
-19.74711711111111
 31
0.0
  0
LINE
  5
16A
330
35E
100
AcDbEntity
  8
0
100
AcDbLine
 10
-3.040154222222222
 20
-19.74711711111111
 30
0.0
 11
-3.026861555555555
 21
-19.69030577777778
 31
0.0
  0
LINE
  5
16B
330
35E
100
AcDbEntity
  8
0
100
AcDbLine
 10
-3.026861555555555
 20
-19.69030577777778
 30
0.0
 11
-3.021414666666666
 21
-19.662394
 31
0.0
  0
LINE
  5
16C
330
35E
100
AcDbEntity
  8
0
100
AcDbLine
 10
-3.021414666666666
 20
-19.662394
 30
0.0
 11
-2.393244444444445
 21
-15.57460266666667
 31
0.0
  0
LINE
  5
16D
330
35E
100
AcDbEntity
  8
0
100
AcDbLine
 10
-2.393244444444445
 20
-15.57460266666667
 30
0.0
 11
2.736257333333333
 21
-15.51801711111111
 31
0.0
  0
LINE
  5
16E
330
35E
100
AcDbEntity
  8
0
100
AcDbLine
 10
2.736257333333333
 20
-15.51801711111111
 30
0.0
 11
3.454456444444444
 21
-19.59096355555555
 31
0.0
  0
LINE
  5
16F
330
35E
100
AcDbEntity
  8
0
100
AcDbLine
 10
3.454456444444444
 20
-19.59096355555555
 30
0.0
 11
3.460496
 21
-19.61873422222222
 31
0.0
  0
LINE
  5
170
330
35E
100
AcDbEntity
  8
0
100
AcDbLine
 10
3.460496
 20
-19.61873422222222
 30
0.0
 11
3.475058666666667
 21
-19.67523511111111
 31
0.0
  0
LINE
  5
171
330
35E
100
AcDbEntity
  8
0
100
AcDbLine
 10
3.475058666666667
 20
-19.67523511111111
 30
0.0
 11
3.500289333333333
 21
-19.75981711111111
 31
0.0
  0
LINE
  5
172
330
35E
100
AcDbEntity
  8
0
100
AcDbLine
 10
3.500289333333333
 20
-19.75981711111111
 30
0.0
 11
3.538417555555555
 21
-19.87166177777778
 31
0.0
  0
LINE
  5
173
330
35E
100
AcDbEntity
  8
0
100
AcDbLine
 10
3.538417555555555
 20
-19.87166177777778
 30
0.0
 11
3.591588222222222
 21
-20.00989422222222
 31
0.0
  0
LINE
  5
174
330
35E
100
AcDbEntity
  8
0
100
AcDbLine
 10
3.591588222222222
 20
-20.00989422222222
 30
0.0
 11
3.661861555555555
 21
-20.173442
 31
0.0
  0
LINE
  5
175
330
35E
100
AcDbEntity
  8
0
100
AcDbLine
 10
3.661861555555555
 20
-20.173442
 30
0.0
 11
3.751297777777777
 21
-20.36117622222222
 31
0.0
  0
LINE
  5
176
330
35E
100
AcDbEntity
  8
0
100
AcDbLine
 10
3.751297777777777
 20
-20.36117622222222
 30
0.0
 11
3.861816
 21
-20.57177044444444
 31
0.0
  0
LINE
  5
177
330
35E
100
AcDbEntity
  8
0
100
AcDbLine
 10
3.861816
 20
-20.57177044444444
 30
0.0
 11
3.995335333333333
 21
-20.80389822222222
 31
0.0
  0
LINE
  5
178
330
35E
100
AcDbEntity
  8
0
100
AcDbLine
 10
3.995335333333333
 20
-20.80389822222222
 30
0.0
 11
4.153662
 21
-21.05597911111111
 31
0.0
  0
LINE
  5
179
330
35E
100
AcDbEntity
  8
0
100
AcDbLine
 10
4.153662
 20
-21.05597911111111
 30
0.0
 11
4.338517555555556
 21
-21.32646088888889
 31
0.0
  0
LINE
  5
17A
330
35E
100
AcDbEntity
  8
0
100
AcDbLine
 10
4.338517555555556
 20
-21.32646088888889
 30
0.0
 11
4.551538888888889
 21
-21.61359377777778
 31
0.0
  0
LINE
  5
17B
330
35E
100
AcDbEntity
  8
0
100
AcDbLine
 10
4.551538888888889
 20
-21.61359377777778
 30
0.0
 11
4.79425
 21
-21.91557155555556
 31
0.0
  0
LINE
  5
17C
330
35E
100
AcDbEntity
  8
0
100
AcDbLine
 10
4.79425
 20
-21.91557155555556
 30
0.0
 11
5.068146666666666
 21
-22.23050333333333
 31
0.0
  0
LINE
  5
17D
330
35E
100
AcDbEntity
  8
0
100
AcDbLine
 10
5.068146666666666
 20
-22.23050333333333
 30
0.0
 11
5.374527111111111
 21
-22.55638533333333
 31
0.0
  0
LINE
  5
17E
330
35E
100
AcDbEntity
  8
0
100
AcDbLine
 10
5.374527111111111
 20
-22.55638533333333
 30
0.0
 11
5.714633111111111
 21
-22.89110088888889
 31
0.0
  0
LINE
  5
17F
330
35E
100
AcDbEntity
  8
0
100
AcDbLine
 10
5.714633111111111
 20
-22.89110088888889
 30
0.0
 11
6.089593555555555
 21
-23.23256155555555
 31
0.0
  0
LINE
  5
180
330
35E
100
AcDbEntity
  8
0
100
AcDbLine
 10
6.089593555555555
 20
-23.23256155555555
 30
0.0
 11
6.500368
 21
-23.57848133333333
 31
0.0
  0
LINE
  5
181
330
35E
100
AcDbEntity
  8
0
100
AcDbLine
 10
6.500368
 20
-23.57848133333333
 30
0.0
 11
6.947887777777778
 21
-23.92660244444444
 31
0.0
  0
LINE
  5
182
330
35E
100
AcDbEntity
  8
0
100
AcDbLine
 10
6.947887777777778
 20
-23.92660244444444
 30
0.0
 11
7.432858444444444
 21
-24.274526
 31
0.0
  0
LINE
  5
183
330
35E
100
AcDbEntity
  8
0
100
AcDbLine
 10
7.432858444444444
 20
-24.274526
 30
0.0
 11
7.954969555555556
 21
-24.61694622222222
 31
0.0
  0
LINE
  5
184
330
35E
100
AcDbEntity
  8
0
100
AcDbLine
 10
7.954969555555556
 20
-24.61694622222222
 30
0.0
 11
10.25606844444444
 21
-23.75055222222222
 31
0.0
  0
LINE
  5
185
330
35E
100
AcDbEntity
  8
0
100
AcDbLine
 10
10.25606844444444
 20
-23.75055222222222
 30
0.0
 11
10.42269244444444
 21
-23.14882622222222
 31
0.0
  0
LINE
  5
186
330
35E
100
AcDbEntity
  8
0
100
AcDbLine
 10
10.42269244444444
 20
-23.14882622222222
 30
0.0
 11
10.557764
 21
-22.56742022222222
 31
0.0
  0
LINE
  5
187
330
35E
100
AcDbEntity
  8
0
100
AcDbLine
 10
10.557764
 20
-22.56742022222222
 30
0.0
 11
10.66455688888889
 21
-22.010624
 31
0.0
  0
LINE
  5
188
330
35E
100
AcDbEntity
  8
0
100
AcDbLine
 10
10.66455688888889
 20
-22.010624
 30
0.0
 11
10.74518777777778
 21
-21.47965111111111
 31
0.0
  0
LINE
  5
189
330
35E
100
AcDbEntity
  8
0
100
AcDbLine
 10
10.74518777777778
 20
-21.47965111111111
 30
0.0
 11
10.80182977777778
 21
-20.97571511111111
 31
0.0
  0
LINE
  5
18A
330
35E
100
AcDbEntity
  8
0
100
AcDbLine
 10
10.80182977777778
 20
-20.97571511111111
 30
0.0
 11
10.83671244444444
 21
-20.49980377777778
 31
0.0
  0
LINE
  5
18B
330
35E
100
AcDbEntity
  8
0
100
AcDbLine
 10
10.83671244444444
 20
-20.49980377777778
 30
0.0
 11
10.85209355555556
 21
-20.05276377777778
 31
0.0
  0
LINE
  5
18C
330
35E
100
AcDbEntity
  8
0
100
AcDbLine
 10
10.85209355555556
 20
-20.05276377777778
 30
0.0
 11
10.85025911111111
 21
-19.63541355555555
 31
0.0
  0
LINE
  5
18D
330
35E
100
AcDbEntity
  8
0
100
AcDbLine
 10
10.85025911111111
 20
-19.63541355555555
 30
0.0
 11
10.83355155555556
 21
-19.24831755555555
 31
0.0
  0
LINE
  5
18E
330
35E
100
AcDbEntity
  8
0
100
AcDbLine
 10
10.83355155555556
 20
-19.24831755555555
 30
0.0
 11
10.80428511111111
 21
-18.892012
 31
0.0
  0
LINE
  5
18F
330
35E
100
AcDbEntity
  8
0
100
AcDbLine
 10
10.80428511111111
 20
-18.892012
 30
0.0
 11
10.76485866666667
 21
-18.56677911111111
 31
0.0
  0
LINE
  5
190
330
35E
100
AcDbEntity
  8
0
100
AcDbLine
 10
10.76485866666667
 20
-18.56677911111111
 30
0.0
 11
10.71758644444444
 21
-18.27287288888889
 31
0.0
  0
LINE
  5
191
330
35E
100
AcDbEntity
  8
0
100
AcDbLine
 10
10.71758644444444
 20
-18.27287288888889
 30
0.0
 11
10.66486733333333
 21
-18.01032155555555
 31
0.0
  0
LINE
  5
192
330
35E
100
AcDbEntity
  8
0
100
AcDbLine
 10
10.66486733333333
 20
-18.01032155555555
 30
0.0
 11
10.60904377777778
 21
-17.77912511111111
 31
0.0
  0
LINE
  5
193
330
35E
100
AcDbEntity
  8
0
100
AcDbLine
 10
10.60904377777778
 20
-17.77912511111111
 30
0.0
 11
10.55245822222222
 21
-17.57902955555555
 31
0.0
  0
LINE
  5
194
330
35E
100
AcDbEntity
  8
0
100
AcDbLine
 10
10.55245822222222
 20
-17.57902955555555
 30
0.0
 11
10.49742488888889
 21
-17.40975266666667
 31
0.0
  0
LINE
  5
195
330
35E
100
AcDbEntity
  8
0
100
AcDbLine
 10
10.49742488888889
 20
-17.40975266666667
 30
0.0
 11
10.44622977777778
 21
-17.27078644444444
 31
0.0
  0
LINE
  5
196
330
35E
100
AcDbEntity
  8
0
100
AcDbLine
 10
10.44622977777778
 20
-17.27078644444444
 30
0.0
 11
10.40110244444444
 21
-17.16153822222222
 31
0.0
  0
LINE
  5
197
330
35E
100
AcDbEntity
  8
0
100
AcDbLine
 10
10.40110244444444
 20
-17.16153822222222
 30
0.0
 11
10.36430066666667
 21
-17.08133066666667
 31
0.0
  0
LINE
  5
198
330
35E
100
AcDbEntity
  8
0
100
AcDbLine
 10
10.36430066666667
 20
-17.08133066666667
 30
0.0
 11
10.33796933333333
 21
-17.02926066666667
 31
0.0
  0
LINE
  5
199
330
35E
100
AcDbEntity
  8
0
100
AcDbLine
 10
10.33796933333333
 20
-17.02926066666667
 30
0.0
 11
10.32419688888889
 21
-17.00439688888889
 31
0.0
  0
LINE
  5
19A
330
35E
100
AcDbEntity
  8
0
100
AcDbLine
 10
10.32419688888889
 20
-17.00439688888889
 30
0.0
 11
8.177840444444444
 21
-13.46919666666667
 31
0.0
  0
LINE
  5
19B
330
35E
100
AcDbEntity
  8
0
100
AcDbLine
 10
8.177840444444444
 20
-13.46919666666667
 30
0.0
 11
12.07087022222222
 21
-10.12867333333333
 31
0.0
  0
LINE
  5
19C
330
35E
100
AcDbEntity
  8
0
100
AcDbLine
 10
12.07087022222222
 20
-10.12867333333333
 30
0.0
 11
15.23909688888889
 21
-12.78706555555556
 31
0.0
  0
LINE
  5
19D
330
35E
100
AcDbEntity
  8
0
100
AcDbLine
 10
15.23909688888889
 20
-12.78706555555556
 30
0.0
 11
15.26159
 21
-12.80445044444444
 31
0.0
  0
LINE
  5
19E
330
35E
100
AcDbEntity
  8
0
100
AcDbLine
 10
15.26159
 20
-12.80445044444444
 30
0.0
 11
15.30903155555555
 21
-12.83837355555555
 31
0.0
  0
LINE
  5
19F
330
35E
100
AcDbEntity
  8
0
100
AcDbLine
 10
15.30903155555555
 20
-12.83837355555555
 30
0.0
 11
15.38271977777778
 21
-12.886944
 31
0.0
  0
LINE
  5
1A0
330
35E
100
AcDbEntity
  8
0
100
AcDbLine
 10
15.38271977777778
 20
-12.886944
 30
0.0
 11
15.48384
 21
-12.94812977777778
 31
0.0
  0
LINE
  5
1A1
330
35E
100
AcDbEntity
  8
0
100
AcDbLine
 10
15.48384
 20
-12.94812977777778
 30
0.0
 11
15.61340822222222
 21
-13.01984244444444
 31
0.0
  0
LINE
  5
1A2
330
35E
100
AcDbEntity
  8
0
100
AcDbLine
 10
15.61340822222222
 20
-13.01984244444444
 30
0.0
 11
15.772384
 21
-13.09996533333333
 31
0.0
  0
LINE
  5
1A3
330
35E
100
AcDbEntity
  8
0
100
AcDbLine
 10
15.772384
 20
-13.09996533333333
 30
0.0
 11
15.96155755555555
 21
-13.18626888888889
 31
0.0
  0
LINE
  5
1A4
330
35E
100
AcDbEntity
  8
0
100
AcDbLine
 10
15.96155755555555
 20
-13.18626888888889
 30
0.0
 11
16.18160622222222
 21
-13.27658
 31
0.0
  0
LINE
  5
1A5
330
35E
100
AcDbEntity
  8
0
100
AcDbLine
 10
16.18160622222222
 20
-13.27658
 30
0.0
 11
16.43309444444444
 21
-13.36855622222222
 31
0.0
  0
LINE
  5
1A6
330
35E
100
AcDbEntity
  8
0
100
AcDbLine
 10
16.43309444444444
 20
-13.36855622222222
 30
0.0
 11
16.71641733333333
 21
-13.45991155555556
 31
0.0
  0
LINE
  5
1A7
330
35E
100
AcDbEntity
  8
0
100
AcDbLine
 10
16.71641733333333
 20
-13.45991155555556
 30
0.0
 11
17.03188533333334
 21
-13.54827533333333
 31
0.0
  0
LINE
  5
1A8
330
35E
100
AcDbEntity
  8
0
100
AcDbLine
 10
17.03188533333334
 20
-13.54827533333333
 30
0.0
 11
17.37963955555556
 21
-13.63130511111111
 31
0.0
  0
LINE
  5
1A9
330
35E
100
AcDbEntity
  8
0
100
AcDbLine
 10
17.37963955555556
 20
-13.63130511111111
 30
0.0
 11
17.75968
 21
-13.706602
 31
0.0
  0
LINE
  5
1AA
330
35E
100
AcDbEntity
  8
0
100
AcDbLine
 10
17.75968
 20
-13.706602
 30
0.0
 11
18.171922
 21
-13.77182355555555
 31
0.0
  0
LINE
  5
1AB
330
35E
100
AcDbEntity
  8
0
100
AcDbLine
 10
18.171922
 20
-13.77182355555555
 30
0.0
 11
18.61608333333333
 21
-13.82451444444444
 31
0.0
  0
LINE
  5
1AC
330
35E
100
AcDbEntity
  8
0
100
AcDbLine
 10
18.61608333333333
 20
-13.82451444444444
 30
0.0
 11
19.09179711111111
 21
-13.862304
 31
0.0
  0
LINE
  5
1AD
330
35E
100
AcDbEntity
  8
0
100
AcDbLine
 10
19.09179711111111
 20
-13.862304
 30
0.0
 11
19.59849888888889
 21
-13.88284977777778
 31
0.0
  0
LINE
  5
1AE
330
35E
100
AcDbEntity
  8
0
100
AcDbLine
 10
19.59849888888889
 20
-13.88284977777778
 30
0.0
 11
20.13553955555556
 21
-13.88380933333333
 31
0.0
  0
LINE
  5
1AF
330
35E
100
AcDbEntity
  8
0
100
AcDbLine
 10
20.13553955555556
 20
-13.88380933333333
 30
0.0
 11
20.70210066666666
 21
-13.862812
 31
0.0
  0
LINE
  5
1B0
330
35E
100
AcDbEntity
  8
0
100
AcDbLine
 10
20.70210066666666
 20
-13.862812
 30
0.0
 11
21.29725088888889
 21
-13.81762822222222
 31
0.0
  0
LINE
  5
1B1
330
35E
100
AcDbEntity
  8
0
100
AcDbLine
 10
21.29725088888889
 20
-13.81762822222222
 30
0.0
 11
21.91732133333333
 21
-13.74433511111111
 31
0.0
  0
LINE
  5
1B2
330
35E
100
AcDbEntity
  8
0
100
AcDbLine
 10
21.91732133333333
 20
-13.74433511111111
 30
0.0
 11
23.12317222222222
 21
-11.60150644444444
 31
0.0
  0
LINE
  5
1B3
330
35E
100
AcDbEntity
  8
0
100
AcDbLine
 10
23.12317222222222
 20
-11.60150644444444
 30
0.0
 11
22.86400755555556
 21
-11.03344955555556
 31
0.0
  0
LINE
  5
1B4
330
35E
100
AcDbEntity
  8
0
100
AcDbLine
 10
22.86400755555556
 20
-11.03344955555556
 30
0.0
 11
22.59377977777778
 21
-10.50126311111111
 31
0.0
  0
LINE
  5
1B5
330
35E
100
AcDbEntity
  8
0
100
AcDbLine
 10
22.59377977777778
 20
-10.50126311111111
 30
0.0
 11
22.31765355555556
 21
-10.006076
 31
0.0
  0
LINE
  5
1B6
330
35E
100
AcDbEntity
  8
0
100
AcDbLine
 10
22.31765355555556
 20
-10.006076
 30
0.0
 11
22.03814066666667
 21
-9.547521333333332
 31
0.0
  0
LINE
  5
1B7
330
35E
100
AcDbEntity
  8
0
100
AcDbLine
 10
22.03814066666667
 20
-9.547521333333332
 30
0.0
 11
21.75761177777778
 21
-9.12506288888889
 31
0.0
  0
LINE
  5
1B8
330
35E
100
AcDbEntity
  8
0
100
AcDbLine
 10
21.75761177777778
 20
-9.12506288888889
 30
0.0
 11
21.47840933333334
 21
-8.738051555555556
 31
0.0
  0
LINE
  5
1B9
330
35E
100
AcDbEntity
  8
0
100
AcDbLine
 10
21.47840933333334
 20
-8.738051555555556
 30
0.0
 11
21.20284755555556
 21
-8.385725333333333
 31
0.0
  0
LINE
  5
1BA
330
35E
100
AcDbEntity
  8
0
100
AcDbLine
 10
21.20284755555556
 20
-8.385725333333333
 30
0.0
 11
20.93318422222222
 21
-8.067181111111111
 31
0.0
  0
LINE
  5
1BB
330
35E
100
AcDbEntity
  8
0
100
AcDbLine
 10
20.93318422222222
 20
-8.067181111111111
 30
0.0
 11
20.67156422222222
 21
-7.781402888888889
 31
0.0
  0
LINE
  5
1BC
330
35E
100
AcDbEntity
  8
0
100
AcDbLine
 10
20.67156422222222
 20
-7.781402888888889
 30
0.0
 11
20.42010422222222
 21
-7.527233555555555
 31
0.0
  0
LINE
  5
1BD
330
35E
100
AcDbEntity
  8
0
100
AcDbLine
 10
20.42010422222222
 20
-7.527233555555555
 30
0.0
 11
20.18086444444445
 21
-7.303459555555555
 31
0.0
  0
LINE
  5
1BE
330
35E
100
AcDbEntity
  8
0
100
AcDbLine
 10
20.18086444444445
 20
-7.303459555555555
 30
0.0
 11
19.95573577777778
 21
-7.108669777777777
 31
0.0
  0
LINE
  5
1BF
330
35E
100
AcDbEntity
  8
0
100
AcDbLine
 10
19.95573577777778
 20
-7.108669777777777
 30
0.0
 11
19.74658088888889
 21
-6.941453111111111
 31
0.0
  0
LINE
  5
1C0
330
35E
100
AcDbEntity
  8
0
100
AcDbLine
 10
19.74658088888889
 20
-6.941453111111111
 30
0.0
 11
19.555206
 21
-6.800229111111111
 31
0.0
  0
LINE
  5
1C1
330
35E
100
AcDbEntity
  8
0
100
AcDbLine
 10
19.555206
 20
-6.800229111111111
 30
0.0
 11
19.383248
 21
-6.683332666666667
 31
0.0
  0
LINE
  5
1C2
330
35E
100
AcDbEntity
  8
0
100
AcDbLine
 10
19.383248
 20
-6.683332666666667
 30
0.0
 11
19.23225911111111
 21
-6.589014
 31
0.0
  0
LINE
  5
1C3
330
35E
100
AcDbEntity
  8
0
100
AcDbLine
 10
19.23225911111111
 20
-6.589014
 30
0.0
 11
19.10370688888889
 21
-6.515495111111111
 31
0.0
  0
LINE
  5
1C4
330
35E
100
AcDbEntity
  8
0
100
AcDbLine
 10
19.10370688888889
 20
-6.515495111111111
 30
0.0
 11
18.998946
 21
-6.460800444444445
 31
0.0
  0
LINE
  5
1C5
330
35E
100
AcDbEntity
  8
0
100
AcDbLine
 10
18.998946
 20
-6.460800444444445
 30
0.0
 11
18.91919
 21
-6.423010888888889
 31
0.0
  0
LINE
  5
1C6
330
35E
100
AcDbEntity
  8
0
100
AcDbLine
 10
18.91919
 20
-6.423010888888889
 30
0.0
 11
18.86553955555555
 21
-6.400066222222222
 31
0.0
  0
LINE
  5
1C7
330
35E
100
AcDbEntity
  8
0
100
AcDbLine
 10
18.86553955555555
 20
-6.400066222222222
 30
0.0
 11
18.83901066666666
 21
-6.389849777777778
 31
0.0
  0
LINE
  5
1C8
330
35E
100
AcDbEntity
  8
0
100
AcDbLine
 10
18.83901066666666
 20
-6.389849777777778
 30
0.0
 11
14.92241533333333
 21
-5.061373333333333
 31
0.0
  0
LINE
  5
1C9
330
35E
100
AcDbEntity
  8
0
100
AcDbLine
 10
14.92241533333333
 20
-5.061373333333333
 30
0.0
 11
15.757398
 21
0.0
 31
0.0
  0
LINE
  5
1CA
330
35E
100
AcDbEntity
  8
0
100
AcDbLine
 10
2.822222222222222
 20
0.0
 30
0.0
 11
-2.822222222222222
 21
0.0
 31
0.0
  0
LINE
  5
1CB
330
35E
100
AcDbEntity
  8
0
100
AcDbLine
 10
0.0
 20
-2.822222222222222
 30
0.0
 11
0.0
 21
2.822222222222222
 31
0.0
  0
ENDBLK
  5
360
330
35E
100
AcDbEntity
  8
0
100
AcDbBlockEnd
  0
ENDSEC
  0
SECTION
  2
ENTITIES
  0
INSERT
  5
299
330
2BA
100
AcDbEntity
  8
0
100
AcDbBlockReference
  2
Blok 1
 10
0.0
 20
0.0
 30
0.0
 41
0.091125
 42
0.091125
 43
0.091125
  0
INSERT
  5
29B
330
2BA
100
AcDbEntity
  8
0
100
AcDbBlockReference
  2
Blok 1
 10
10.003293125875
 20
-0.0486009315
 30
0.0
 41
0.091125
 42
0.091125
 43
0.091125
  0
ENDSEC
  0
SECTION
  2
OBJECTS
  0
DICTIONARY
  5
2A8
330
0
100
AcDbDictionary
281
     1
  3
ACAD_DETAILVIEWSTYLE
350
368
  3
ACAD_GROUP
350
2A9
  3
ACAD_LAYOUT
350
2B5
  3
ACAD_MATERIAL
350
2DE
  3
ACAD_MLEADERSTYLE
350
306
  3
ACAD_MLINESTYLE
350
2B2
  3
ACAD_PLOTSETTINGS
350
2B4
  3
ACAD_PLOTSTYLENAME
350
2AA
  3
ACAD_SCALELIST
350
2E2
  3
ACAD_SECTIONVIEWSTYLE
350
369
  3
ACAD_TABLESTYLE
350
304
  3
ACAD_VISUALSTYLE
350
2C5
  3
ACDB_RECOMPOSE_DATA
350
365
  3
AcDbVariableDictionary
350
361
  3
QCAD_OBJECTS
350
30A
  0
SUN
  5
308
330
2C4
100
AcDbSun
 90
        1
290
     0
 63
     7
421
 16777215
 40
1.0
291
     1
 91
  2455826
 92
 54000000
292
     0
 70
     2
 71
   256
280
     1
  0
DICTIONARY
  5
368
102
{ACAD_REACTORS
330
2A8
102
}
330
2A8
100
AcDbDictionary
281
     1
  0
DICTIONARY
  5
2A9
102
{ACAD_REACTORS
330
2A8
102
}
330
2A8
100
AcDbDictionary
281
     1
  0
DICTIONARY
  5
2B5
102
{ACAD_REACTORS
330
2A8
102
}
330
2A8
100
AcDbDictionary
281
     1
  3
Layout1
350
2B9
  3
Layout2
350
2C1
  3
Model
350
2BD
  0
DICTIONARY
  5
2DE
102
{ACAD_REACTORS
330
2A8
102
}
330
2A8
100
AcDbDictionary
281
     1
  3
ByBlock
350
2E0
  3
ByLayer
350
2DF
  3
Global
350
2E1
  0
DICTIONARY
  5
306
102
{ACAD_REACTORS
330
2A8
102
}
330
2A8
100
AcDbDictionary
281
     1
  3
Standard
350
307
  0
DICTIONARY
  5
2B2
102
{ACAD_REACTORS
330
2A8
102
}
330
2A8
100
AcDbDictionary
281
     1
  3
Standard
350
2B3
  0
DICTIONARY
  5
2B4
102
{ACAD_REACTORS
330
2A8
102
}
330
2A8
100
AcDbDictionary
281
     1
  0
ACDBDICTIONARYWDFLT
  5
2AA
102
{ACAD_REACTORS
330
2A8
102
}
330
2A8
100
AcDbDictionary
281
     1
  3
Normal
350
2AB
100
AcDbDictionaryWithDefault
340
2AB
  0
DICTIONARY
  5
2E2
102
{ACAD_REACTORS
330
2A8
102
}
330
2A8
100
AcDbDictionary
281
     1
  3
A0
350
2E3
  3
A1
350
2E4
  3
A2
350
2E5
  3
A3
350
2E6
  3
A4
350
2E7
  3
A5
350
2E8
  3
A6
350
2E9
  3
A7
350
2EA
  3
A8
350
2EB
  3
A9
350
2EC
  3
B0
350
2ED
  3
B1
350
2EE
  3
B2
350
2EF
  3
B3
350
2F0
  3
B4
350
2F1
  3
B5
350
2F2
  3
B6
350
2F3
  3
B7
350
2F4
  3
B8
350
2F5
  3
B9
350
2F6
  3
C0
350
2F7
  3
C1
350
2F8
  3
C2
350
2F9
  3
C3
350
2FA
  3
C4
350
2FB
  3
C5
350
2FC
  3
C6
350
2FD
  3
C7
350
2FE
  3
C8
350
2FF
  3
C9
350
300
  3
D0
350
301
  3
D1
350
302
  3
D2
350
303
  0
DICTIONARY
  5
369
102
{ACAD_REACTORS
330
2A8
102
}
330
2A8
100
AcDbDictionary
281
     1
  0
DICTIONARY
  5
304
102
{ACAD_REACTORS
330
2A8
102
}
330
2A8
100
AcDbDictionary
281
     1
  3
Standard
350
305
  0
DICTIONARY
  5
2C5
102
{ACAD_REACTORS
330
2A8
102
}
330
2A8
100
AcDbDictionary
281
     1
  3
2dWireframe
350
2CA
  3
Basic
350
2CD
  3
Brighten
350
2D1
  3
ColorChange
350
2D5
  3
Conceptual
350
2CF
  3
Dim
350
2D0
  3
EdgeColorOff
350
2D8
  3
Facepattern
350
2D4
  3
Flat
350
2C6
  3
FlatWithEdges
350
2C7
  3
Gouraud
350
2C8
  3
GouraudWithEdges
350
2C9
  3
Hidden
350
2CC
  3
JitterOff
350
2D6
  3
Linepattern
350
2D3
  3
OverhangOff
350
2D7
  3
Realistic
350
2CE
  3
Shaded
350
2DD
  3
Shaded with edges
350
2DC
  3
Shades of Gray
350
2D9
  3
Sketchy
350
2DA
  3
Thicken
350
2D2
  3
Wireframe
350
2CB
  3
X-Ray
350
2DB
  0
XRECORD
  5
365
102
{ACAD_REACTORS
330
2A8
102
}
330
2A8
100
AcDbXrecord
280
     1
 90
        1
330
305
  0
DICTIONARY
  5
361
102
{ACAD_REACTORS
330
2A8
102
}
330
2A8
100
AcDbDictionary
281
     1
  3
CANNOSCALE
350
362
  3
CMLEADERSTYLE
350
367
  3
CTABLESTYLE
350
366
  0
DICTIONARY
  5
30A
102
{ACAD_REACTORS
330
2A8
102
}
330
2A8
100
AcDbDictionary
281
     1
  3
Grid/DisplayGrid00
350
30C
  3
Grid/DisplayGrid01
350
30D
  3
Grid/DisplayGrid02
350
30E
  3
Grid/DisplayGrid03
350
30F
  3
Grid/GridSpacingX00
350
310
  3
Grid/GridSpacingX01
350
311
  3
Grid/GridSpacingX02
350
312
  3
Grid/GridSpacingX03
350
313
  3
Grid/GridSpacingY00
350
314
  3
Grid/GridSpacingY01
350
315
  3
Grid/GridSpacingY02
350
316
  3
Grid/GridSpacingY03
350
317
  3
Grid/IsometricGrid00
350
318
  3
Grid/IsometricGrid01
350
319
  3
Grid/IsometricGrid02
350
31A
  3
Grid/IsometricGrid03
350
31B
  3
Grid/IsometricProjection00
350
31C
  3
Grid/IsometricProjection01
350
31D
  3
Grid/IsometricProjection02
350
31E
  3
Grid/IsometricProjection03
350
31F
  3
Grid/MetaGridSpacingX00
350
320
  3
Grid/MetaGridSpacingX01
350
321
  3
Grid/MetaGridSpacingX02
350
322
  3
Grid/MetaGridSpacingX03
350
323
  3
Grid/MetaGridSpacingY00
350
324
  3
Grid/MetaGridSpacingY01
350
325
  3
Grid/MetaGridSpacingY02
350
326
  3
Grid/MetaGridSpacingY03
350
327
  3
MultiPageSettings/Columns
350
328
  3
MultiPageSettings/GlueMarginsBottom
350
329
  3
MultiPageSettings/GlueMarginsLeft
350
32A
  3
MultiPageSettings/GlueMarginsRight
350
32B
  3
MultiPageSettings/GlueMarginsTop
350
32C
  3
MultiPageSettings/PrintCropMarks
350
32D
  3
MultiPageSettings/Rows
350
32E
  3
PageSettings/OffsetX
350
32F
  3
PageSettings/OffsetY
350
330
  3
PageSettings/PageOrientation
350
331
  3
PageSettings/PaperHeight
350
332
  3
PageSettings/PaperWidth
350
333
  3
PageSettings/Scale
350
334
  3
PageSettings/ShowPaperBorders
350
335
  3
QCADVersion
350
30B
  3
UnitSettings/PaperUnit
350
336
  0
LAYOUT
  5
2B9
102
{ACAD_REACTORS
330
2B5
102
}
330
2B5
100
AcDbPlotSettings
  1

  2
none_device
  4

  6

 40
0.0
 41
0.0
 42
0.0
 43
0.0
 44
0.0
 45
0.0
 46
0.0
 47
0.0
 48
0.0
 49
0.0
140
0.0
141
0.0
142
1.0
143
1.0
 70
   688
 72
     0
 73
     0
 74
     5
  7

 75
    16
 76
     0
 77
     2
 78
   300
147
1.0
148
0.0
149
0.0
100
AcDbLayout
  1
Layout1
 70
     1
 71
     1
 10
0.0
 20
0.0
 11
12.0
 21
9.0
 12
0.0
 22
0.0
 32
0.0
 14
1.000000000000000E+20
 24
1.000000000000000E+20
 34
1.000000000000000E+20
 15
-1.000000000000000E+20
 25
-1.000000000000000E+20
 35
-1.000000000000000E+20
146
0.0
 13
0.0
 23
0.0
 33
0.0
 16
1.0
 26
0.0
 36
0.0
 17
0.0
 27
1.0
 37
0.0
 76
     0
330
2B6
  0
LAYOUT
  5
2C1
102
{ACAD_REACTORS
330
2B5
102
}
330
2B5
100
AcDbPlotSettings
  1

  2
none_device
  4

  6

 40
0.0
 41
0.0
 42
0.0
 43
0.0
 44
0.0
 45
0.0
 46
0.0
 47
0.0
 48
0.0
 49
0.0
140
0.0
141
0.0
142
1.0
143
1.0
 70
   688
 72
     0
 73
     0
 74
     5
  7

 75
    16
 76
     0
 77
     2
 78
   300
147
1.0
148
0.0
149
0.0
100
AcDbLayout
  1
Layout2
 70
     1
 71
     2
 10
0.0
 20
0.0
 11
0.0
 21
0.0
 12
0.0
 22
0.0
 32
0.0
 14
0.0
 24
0.0
 34
0.0
 15
0.0
 25
0.0
 35
0.0
146
0.0
 13
0.0
 23
0.0
 33
0.0
 16
1.0
 26
0.0
 36
0.0
 17
0.0
 27
1.0
 37
0.0
 76
     0
330
2BE
  0
LAYOUT
  5
2BD
102
{ACAD_REACTORS
330
2B5
102
}
330
2B5
100
AcDbPlotSettings
  1

  2
none_device
  4
Letter_(8.50_x_11.00_Inches)
  6

 40
6.35
 41
6.35
 42
6.35000508
 43
6.35000508
 44
215.9
 45
279.4
 46
0.0
 47
0.0
 48
0.0
 49
0.0
140
0.0
141
0.0
142
1.0
143
1.0
 70
  1712
 72
     0
 73
     0
 74
     0
  7

 75
     0
 76
     0
 77
     2
 78
   300
147
1.0
148
0.0
149
0.0
100
AcDbLayout
  1
Model
 70
     1
 71
     0
 10
0.0
 20
0.0
 11
12.0
 21
9.0
 12
0.0
 22
0.0
 32
0.0
 14
1.000000000000000E+20
 24
1.000000000000000E+20
 34
1.000000000000000E+20
 15
-1.000000000000000E+20
 25
-1.000000000000000E+20
 35
-1.000000000000000E+20
146
0.0
 13
0.0
 23
0.0
 33
0.0
 16
1.0
 26
0.0
 36
0.0
 17
0.0
 27
1.0
 37
0.0
 76
     0
330
2BA
331
2C4
  0
MATERIAL
  5
2E0
102
{ACAD_REACTORS
330
2DE
102
}
330
2DE
100
AcDbMaterial
  1
ByBlock
 72
     1
 94
      127
  0
MATERIAL
  5
2DF
102
{ACAD_REACTORS
330
2DE
102
}
330
2DE
100
AcDbMaterial
  1
ByLayer
 72
     1
 94
      127
  0
MATERIAL
  5
2E1
102
{ACAD_REACTORS
330
2DE
102
}
330
2DE
100
AcDbMaterial
  1
Global
 72
     1
 94
      127
  0
MLEADERSTYLE
  5
307
102
{ACAD_REACTORS
330
306
102
}
330
306
100
AcDbMLeaderStyle
179
     2
170
     2
171
     1
172
     0
 90
        2
 40
0.0
 41
0.0
173
     1
 91
-1056964608
340
2AF
 92
       -2
290
     1
 42
0.09
291
     1
 43
0.36
  3
Standard
341
0
 44
0.18
300

342
2AD
174
     1
178
     6
175
     1
176
     0
 93
-1056964608
 45
0.18
292
     0
297
     0
 46
0.18
343
0
 94
-1056964608
 47
1.0
 49
1.0
140
1.0
293
     1
141
0.0
294
     1
177
     0
142
1.0
295
     0
296
     0
143
0.125
271
     0
272
     9
273
     9
298
     0
  0
MLINESTYLE
  5
2B3
102
{ACAD_REACTORS
330
2B2
102
}
330
2B2
100
AcDbMlineStyle
  2
Standard
 70
     0
  3

 62
   256
 51
90.0
 52
90.0
 71
     2
 49
0.5
 62
   256
  6
BYLAYER
 49
-0.5
 62
   256
  6
BYLAYER
  0
ACDBPLACEHOLDER
  5
2AB
102
{ACAD_REACTORS
330
2AA
102
}
330
2AA
  0
SCALE
  5
2E3
102
{ACAD_REACTORS
330
2E2
102
}
330
2E2
100
AcDbScale
 70
     0
300
1:1
140
1.0
141
1.0
290
     1
  0
SCALE
  5
2E4
102
{ACAD_REACTORS
330
2E2
102
}
330
2E2
100
AcDbScale
 70
     0
300
1:2
140
1.0
141
2.0
290
     0
  0
SCALE
  5
2E5
102
{ACAD_REACTORS
330
2E2
102
}
330
2E2
100
AcDbScale
 70
     0
300
1:4
140
1.0
141
4.0
290
     0
  0
SCALE
  5
2E6
102
{ACAD_REACTORS
330
2E2
102
}
330
2E2
100
AcDbScale
 70
     0
300
1:5
140
1.0
141
5.0
290
     0
  0
SCALE
  5
2E7
102
{ACAD_REACTORS
330
2E2
102
}
330
2E2
100
AcDbScale
 70
     0
300
1:8
140
1.0
141
8.0
290
     0
  0
SCALE
  5
2E8
102
{ACAD_REACTORS
330
2E2
102
}
330
2E2
100
AcDbScale
 70
     0
300
1:10
140
1.0
141
10.0
290
     0
  0
SCALE
  5
2E9
102
{ACAD_REACTORS
330
2E2
102
}
330
2E2
100
AcDbScale
 70
     0
300
1:16
140
1.0
141
16.0
290
     0
  0
SCALE
  5
2EA
102
{ACAD_REACTORS
330
2E2
102
}
330
2E2
100
AcDbScale
 70
     0
300
1:20
140
1.0
141
20.0
290
     0
  0
SCALE
  5
2EB
102
{ACAD_REACTORS
330
2E2
102
}
330
2E2
100
AcDbScale
 70
     0
300
1:30
140
1.0
141
30.0
290
     0
  0
SCALE
  5
2EC
102
{ACAD_REACTORS
330
2E2
102
}
330
2E2
100
AcDbScale
 70
     0
300
1:40
140
1.0
141
40.0
290
     0
  0
SCALE
  5
2ED
102
{ACAD_REACTORS
330
2E2
102
}
330
2E2
100
AcDbScale
 70
     0
300
1:50
140
1.0
141
50.0
290
     0
  0
SCALE
  5
2EE
102
{ACAD_REACTORS
330
2E2
102
}
330
2E2
100
AcDbScale
 70
     0
300
1:100
140
1.0
141
100.0
290
     0
  0
SCALE
  5
2EF
102
{ACAD_REACTORS
330
2E2
102
}
330
2E2
100
AcDbScale
 70
     0
300
2:1
140
2.0
141
1.0
290
     0
  0
SCALE
  5
2F0
102
{ACAD_REACTORS
330
2E2
102
}
330
2E2
100
AcDbScale
 70
     0
300
4:1
140
4.0
141
1.0
290
     0
  0
SCALE
  5
2F1
102
{ACAD_REACTORS
330
2E2
102
}
330
2E2
100
AcDbScale
 70
     0
300
8:1
140
8.0
141
1.0
290
     0
  0
SCALE
  5
2F2
102
{ACAD_REACTORS
330
2E2
102
}
330
2E2
100
AcDbScale
 70
     0
300
10:1
140
10.0
141
1.0
290
     0
  0
SCALE
  5
2F3
102
{ACAD_REACTORS
330
2E2
102
}
330
2E2
100
AcDbScale
 70
     0
300
100:1
140
100.0
141
1.0
290
     0
  0
SCALE
  5
2F4
102
{ACAD_REACTORS
330
2E2
102
}
330
2E2
100
AcDbScale
 70
     0
300
1/128" = 1'-0"
140
0.0078125
141
12.0
290
     0
  0
SCALE
  5
2F5
102
{ACAD_REACTORS
330
2E2
102
}
330
2E2
100
AcDbScale
 70
     0
300
1/64" = 1'-0"
140
0.015625
141
12.0
290
     0
  0
SCALE
  5
2F6
102
{ACAD_REACTORS
330
2E2
102
}
330
2E2
100
AcDbScale
 70
     0
300
1/32" = 1'-0"
140
0.03125
141
12.0
290
     0
  0
SCALE
  5
2F7
102
{ACAD_REACTORS
330
2E2
102
}
330
2E2
100
AcDbScale
 70
     0
300
1/16" = 1'-0"
140
0.0625
141
12.0
290
     0
  0
SCALE
  5
2F8
102
{ACAD_REACTORS
330
2E2
102
}
330
2E2
100
AcDbScale
 70
     0
300
3/32" = 1'-0"
140
0.09375
141
12.0
290
     0
  0
SCALE
  5
2F9
102
{ACAD_REACTORS
330
2E2
102
}
330
2E2
100
AcDbScale
 70
     0
300
1/8" = 1'-0"
140
0.125
141
12.0
290
     0
  0
SCALE
  5
2FA
102
{ACAD_REACTORS
330
2E2
102
}
330
2E2
100
AcDbScale
 70
     0
300
3/16" = 1'-0"
140
0.1875
141
12.0
290
     0
  0
SCALE
  5
2FB
102
{ACAD_REACTORS
330
2E2
102
}
330
2E2
100
AcDbScale
 70
     0
300
1/4" = 1'-0"
140
0.25
141
12.0
290
     0
  0
SCALE
  5
2FC
102
{ACAD_REACTORS
330
2E2
102
}
330
2E2
100
AcDbScale
 70
     0
300
3/8" = 1'-0"
140
0.375
141
12.0
290
     0
  0
SCALE
  5
2FD
102
{ACAD_REACTORS
330
2E2
102
}
330
2E2
100
AcDbScale
 70
     0
300
1/2" = 1'-0"
140
0.5
141
12.0
290
     0
  0
SCALE
  5
2FE
102
{ACAD_REACTORS
330
2E2
102
}
330
2E2
100
AcDbScale
 70
     0
300
3/4" = 1'-0"
140
0.75
141
12.0
290
     0
  0
SCALE
  5
2FF
102
{ACAD_REACTORS
330
2E2
102
}
330
2E2
100
AcDbScale
 70
     0
300
1" = 1'-0"
140
1.0
141
12.0
290
     0
  0
SCALE
  5
300
102
{ACAD_REACTORS
330
2E2
102
}
330
2E2
100
AcDbScale
 70
     0
300
1-1/2" = 1'-0"
140
1.5
141
12.0
290
     0
  0
SCALE
  5
301
102
{ACAD_REACTORS
330
2E2
102
}
330
2E2
100
AcDbScale
 70
     0
300
3" = 1'-0"
140
3.0
141
12.0
290
     0
  0
SCALE
  5
302
102
{ACAD_REACTORS
330
2E2
102
}
330
2E2
100
AcDbScale
 70
     0
300
6" = 1'-0"
140
6.0
141
12.0
290
     0
  0
SCALE
  5
303
102
{ACAD_REACTORS
330
2E2
102
}
330
2E2
100
AcDbScale
 70
     0
300
1'-0" = 1'-0"
140
12.0
141
12.0
290
     0
  0
TABLESTYLE
  5
305
102
{ACAD_REACTORS
330
304
102
}
102
{ACAD_XDICTIONARY
360
363
102
}
330
304
100
AcDbTableStyle
  3
Standard
 70
     0
 71
     0
 40
0.06
 41
0.06
280
     0
281
     0
  7
Standard
140
0.18
170
     2
 62
     0
 63
   257
283
     0
 90
        4
 91
        0
  1

274
    -2
284
     1
 64
     0
275
    -2
285
     1
 65
     0
276
    -2
286
     1
 66
     0
277
    -2
287
     1
 67
     0
278
    -2
288
     1
 68
     0
279
    -2
289
     1
 69
     0
  7
Standard
140
0.25
170
     5
 62
     0
 63
   257
283
     0
 90
        4
 91
        0
  1

274
    -2
284
     1
 64
     0
275
    -2
285
     1
 65
     0
276
    -2
286
     1
 66
     0
277
    -2
287
     1
 67
     0
278
    -2
288
     1
 68
     0
279
    -2
289
     1
 69
     0
  7
Standard
140
0.18
170
     5
 62
     0
 63
   257
283
     0
 90
        4
 91
        0
  1

274
    -2
284
     1
 64
     0
275
    -2
285
     1
 65
     0
276
    -2
286
     1
 66
     0
277
    -2
287
     1
 67
     0
278
    -2
288
     1
 68
     0
279
    -2
289
     1
 69
     0
  0
VISUALSTYLE
  5
2CA
102
{ACAD_REACTORS
330
2C5
102
}
330
2C5
100
AcDbVisualStyle
  2
2dWireframe
 70
     4
177
     3
291
     0
 70
    58
 90
        0
176
     1
 90
        2
176
     1
 90
        0
176
     1
 90
        0
176
     1
 40
0.6
176
     1
 40
30.0
176
     1
 62
     7
420
 16777215
176
     1
 90
        1
176
     1
 90
        4
176
     1
 62
     7
176
     1
 62
   257
176
     1
 90
        1
176
     1
 90
        1
176
     1
 40
1.0
176
     1
 90
        0
176
     1
 62
   257
176
     1
 40
1.0
176
     1
 90
        1
176
     1
 90
        6
176
     1
 90
        2
176
     1
 62
     7
176
     1
 90
        5
176
     1
 90
        0
176
     1
 90
        0
176
     1
290
     0
176
     1
 90
        1
176
     1
 40
0.0
176
     1
 90
        0
176
     1
290
     1
176
     1
290
     1
176
     1
290
     0
176
     1
290
     0
176
     1
290
     0
176
     1
290
     0
176
     1
290
     0
176
     1
290
     0
176
     1
290
     0
176
     1
 90
       50
176
     1
 40
0.0
176
     1
 40
1.0
176
     1
 90
        0
176
     1
 62
    18
420
        0
176
     1
 90
       50
176
     1
 90
        3
176
     1
 62
     5
420
      255
176
     1
290
     0
176
     1
 90
       50
176
     1
 90
       50
176
     1
 90
       50
176
     1
290
     0
176
     1
 90
       50
176
     1
 62
   256
176
     0
 40
1.0
176
     0
 90
        2
176
     1
  1
strokes_ogs.tif
176
     1
290
     0
176
     1
 40
1.0
176
     1
 40
1.0
176
     1
  0
VISUALSTYLE
  5
2CD
102
{ACAD_REACTORS
330
2C5
102
}
330
2C5
100
AcDbVisualStyle
  2
Basic
 70
     7
177
     3
291
     1
 70
    58
 90
        1
176
     1
 90
        0
176
     1
 90
        1
176
     1
 90
        0
176
     1
 40
0.6
176
     1
 40
30.0
176
     1
 62
     7
420
 16777215
176
     1
 90
        0
176
     1
 90
        4
176
     1
 62
     7
176
     1
 62
   257
176
     1
 90
        1
176
     1
 90
        1
176
     1
 40
1.0
176
     1
 90
        8
176
     1
 62
     7
176
     1
 40
1.0
176
     1
 90
        1
176
     1
 90
        6
176
     1
 90
        2
176
     1
 62
     7
176
     1
 90
        5
176
     1
 90
        0
176
     1
 90
        0
176
     1
290
     0
176
     1
 90
        1
176
     1
 40
0.0
176
     1
 90
        0
176
     1
290
     0
176
     1
290
     1
176
     1
290
     1
176
     1
290
     0
176
     1
290
     0
176
     1
290
     0
176
     1
290
     0
176
     1
290
     0
176
     1
290
     0
176
     1
 90
       50
176
     1
 40
0.0
176
     1
 40
1.0
176
     1
 90
        0
176
     1
 62
    18
420
        0
176
     1
 90
       50
176
     1
 90
        3
176
     1
 62
     5
420
      255
176
     1
290
     0
176
     1
 90
       50
176
     1
 90
       50
176
     1
 90
       50
176
     1
290
     0
176
     1
 90
       50
176
     1
 62
   256
176
     0
 40
1.0
176
     0
 90
        2
176
     1
  1
strokes_ogs.tif
176
     1
290
     0
176
     1
 40
1.0
176
     1
 40
1.0
176
     1
  0
VISUALSTYLE
  5
2D1
102
{ACAD_REACTORS
330
2C5
102
}
330
2C5
100
AcDbVisualStyle
  2
Brighten
 70
    12
177
     3
291
     1
 70
    58
 90
        2
176
     1
 90
        2
176
     1
 90
        0
176
     1
 90
        0
176
     1
 40
0.6
176
     1
 40
30.0
176
     1
 62
     7
420
 16777215
176
     1
 90
        1
176
     1
 90
        4
176
     1
 62
     7
176
     1
 62
   257
176
     1
 90
        1
176
     1
 90
        1
176
     1
 40
1.0
176
     1
 90
        8
176
     1
 62
     7
176
     1
 40
1.0
176
     1
 90
        1
176
     1
 90
        6
176
     1
 90
        2
176
     1
 62
     7
176
     1
 90
        5
176
     1
 90
        0
176
     1
 90
        0
176
     1
290
     0
176
     1
 90
        1
176
     1
 40
50.0
176
     1
 90
        0
176
     1
290
     0
176
     1
290
     1
176
     1
290
     1
176
     1
290
     0
176
     1
290
     0
176
     1
290
     0
176
     1
290
     0
176
     1
290
     0
176
     1
290
     0
176
     1
 90
       50
176
     1
 40
0.0
176
     1
 40
1.0
176
     1
 90
        0
176
     1
 62
    18
420
        0
176
     1
 90
       50
176
     1
 90
        3
176
     1
 62
     5
420
      255
176
     1
290
     0
176
     1
 90
       50
176
     1
 90
       50
176
     1
 90
       50
176
     1
290
     0
176
     1
 90
       50
176
     1
 62
   256
176
     0
 40
1.0
176
     0
 90
        2
176
     1
  1
strokes_ogs.tif
176
     1
290
     0
176
     1
 40
1.0
176
     1
 40
1.0
176
     1
  0
VISUALSTYLE
  5
2D5
102
{ACAD_REACTORS
330
2C5
102
}
330
2C5
100
AcDbVisualStyle
  2
ColorChange
 70
    16
177
     3
291
     1
 70
    58
 90
        2
176
     1
 90
        2
176
     1
 90
        3
176
     1
 90
        0
176
     1
 40
0.6
176
     1
 40
30.0
176
     1
 62
     8
420
  8421504
176
     1
 90
        1
176
     1
 90
        4
176
     1
 62
     7
176
     1
 62
   257
176
     1
 90
        1
176
     1
 90
        1
176
     1
 40
1.0
176
     1
 90
        8
176
     1
 62
     8
420
  8421504
176
     1
 40
1.0
176
     1
 90
        1
176
     1
 90
        6
176
     1
 90
        2
176
     1
 62
     7
176
     1
 90
        5
176
     1
 90
        0
176
     1
 90
        0
176
     1
290
     0
176
     1
 90
        1
176
     1
 40
0.0
176
     1
 90
        0
176
     1
290
     0
176
     1
290
     1
176
     1
290
     1
176
     1
290
     0
176
     1
290
     0
176
     1
290
     0
176
     1
290
     0
176
     1
290
     0
176
     1
290
     0
176
     1
 90
       50
176
     1
 40
0.0
176
     1
 40
1.0
176
     1
 90
        0
176
     1
 62
    18
420
        0
176
     1
 90
       50
176
     1
 90
        3
176
     1
 62
     5
420
      255
176
     1
290
     0
176
     1
 90
       50
176
     1
 90
       50
176
     1
 90
       50
176
     1
290
     0
176
     1
 90
       50
176
     1
 62
   256
176
     0
 40
1.0
176
     0
 90
        2
176
     1
  1
strokes_ogs.tif
176
     1
290
     0
176
     1
 40
1.0
176
     1
 40
1.0
176
     1
  0
VISUALSTYLE
  5
2CF
102
{ACAD_REACTORS
330
2C5
102
}
330
2C5
100
AcDbVisualStyle
  2
Conceptual
 70
     9
177
     3
291
     0
 70
    58
 90
        3
176
     1
 90
        2
176
     1
 90
        0
176
     1
 90
        0
176
     1
 40
0.6
176
     1
 40
30.0
176
     1
 62
     7
420
 16777215
176
     1
 90
        2
176
     1
 90
        2
176
     1
 62
     7
176
     1
 62
   257
176
     1
 90
        1
176
     1
 90
        1
176
     1
 40
179.0
176
     1
 90
        8
176
     1
 62
     7
176
     1
 40
1.0
176
     1
 90
        1
176
     1
 90
        6
176
     1
 90
        2
176
     1
 62
     7
176
     1
 90
        3
176
     1
 90
        0
176
     1
 90
        0
176
     1
290
     0
176
     1
 90
        1
176
     1
 40
0.0
176
     1
 90
        0
176
     1
290
     0
176
     1
290
     1
176
     1
290
     1
176
     1
290
     0
176
     1
290
     0
176
     1
290
     0
176
     1
290
     0
176
     1
290
     0
176
     1
290
     0
176
     1
 90
       50
176
     1
 40
0.0
176
     1
 40
1.0
176
     1
 90
        0
176
     1
 62
    18
420
        0
176
     1
 90
       50
176
     1
 90
        3
176
     1
 62
     5
420
      255
176
     1
290
     0
176
     1
 90
       50
176
     1
 90
       50
176
     1
 90
       50
176
     1
290
     0
176
     1
 90
       50
176
     1
 62
   256
176
     0
 40
1.0
176
     0
 90
        2
176
     1
  1
strokes_ogs.tif
176
     1
290
     0
176
     1
 40
1.0
176
     1
 40
1.0
176
     1
  0
VISUALSTYLE
  5
2D0
102
{ACAD_REACTORS
330
2C5
102
}
330
2C5
100
AcDbVisualStyle
  2
Dim
 70
    11
177
     3
291
     1
 70
    58
 90
        2
176
     1
 90
        2
176
     1
 90
        0
176
     1
 90
        0
176
     1
 40
0.6
176
     1
 40
30.0
176
     1
 62
     7
420
 16777215
176
     1
 90
        1
176
     1
 90
        4
176
     1
 62
     7
176
     1
 62
   257
176
     1
 90
        1
176
     1
 90
        1
176
     1
 40
1.0
176
     1
 90
        8
176
     1
 62
     7
176
     1
 40
1.0
176
     1
 90
        1
176
     1
 90
        6
176
     1
 90
        2
176
     1
 62
     7
176
     1
 90
        5
176
     1
 90
        0
176
     1
 90
        0
176
     1
290
     0
176
     1
 90
        1
176
     1
 40
-50.0
176
     1
 90
        0
176
     1
290
     0
176
     1
290
     1
176
     1
290
     1
176
     1
290
     0
176
     1
290
     0
176
     1
290
     0
176
     1
290
     0
176
     1
290
     0
176
     1
290
     0
176
     1
 90
       50
176
     1
 40
0.0
176
     1
 40
1.0
176
     1
 90
        0
176
     1
 62
    18
420
        0
176
     1
 90
       50
176
     1
 90
        3
176
     1
 62
     5
420
      255
176
     1
290
     0
176
     1
 90
       50
176
     1
 90
       50
176
     1
 90
       50
176
     1
290
     0
176
     1
 90
       50
176
     1
 62
   256
176
     0
 40
1.0
176
     0
 90
        2
176
     1
  1
strokes_ogs.tif
176
     1
290
     0
176
     1
 40
1.0
176
     1
 40
1.0
176
     1
  0
VISUALSTYLE
  5
2D8
102
{ACAD_REACTORS
330
2C5
102
}
330
2C5
100
AcDbVisualStyle
  2
EdgeColorOff
 70
    22
177
     3
291
     1
 70
    58
 90
        2
176
     0
 90
        2
176
     0
 90
        0
176
     0
 90
        0
176
     0
 40
0.6
176
     0
 40
30.0
176
     0
 62
     7
420
 16777215
176
     0
 90
        1
176
     0
 90
        4
176
     0
 62
     7
176
     0
 62
   257
176
     0
 90
        1
176
     0
 90
        1
176
     0
 40
1.0
176
     0
 90
        8
176
     2
 62
     7
176
     0
 40
1.0
176
     0
 90
        1
176
     0
 90
        6
176
     0
 90
        2
176
     0
 62
     7
176
     0
 90
        5
176
     0
 90
        0
176
     0
 90
        0
176
     0
290
     0
176
     0
 90
        1
176
     0
 40
0.0
176
     0
 90
        0
176
     0
290
     0
176
     0
290
     1
176
     0
290
     1
176
     0
290
     0
176
     0
290
     0
176
     0
290
     0
176
     0
290
     0
176
     0
290
     0
176
     0
290
     0
176
     0
 90
       50
176
     0
 40
0.0
176
     0
 40
1.0
176
     0
 90
        0
176
     0
 62
    18
420
        0
176
     0
 90
       50
176
     0
 90
        3
176
     0
 62
     5
420
      255
176
     0
290
     0
176
     0
 90
       50
176
     0
 90
       50
176
     0
 90
       50
176
     0
290
     0
176
     0
 90
       50
176
     0
 62
   256
176
     0
 40
1.0
176
     0
 90
        2
176
     0
  1
strokes_ogs.tif
176
     0
290
     0
176
     0
 40
1.0
176
     0
 40
1.0
176
     0
  0
VISUALSTYLE
  5
2D4
102
{ACAD_REACTORS
330
2C5
102
}
330
2C5
100
AcDbVisualStyle
  2
Facepattern
 70
    15
177
     3
291
     1
 70
    58
 90
        2
176
     1
 90
        2
176
     1
 90
        0
176
     1
 90
        0
176
     1
 40
0.6
176
     1
 40
30.0
176
     1
 62
     7
420
 16777215
176
     1
 90
        1
176
     1
 90
        4
176
     1
 62
     7
176
     1
 62
   257
176
     1
 90
        1
176
     1
 90
        1
176
     1
 40
1.0
176
     1
 90
        8
176
     1
 62
     7
176
     1
 40
1.0
176
     1
 90
        1
176
     1
 90
        6
176
     1
 90
        2
176
     1
 62
     7
176
     1
 90
        5
176
     1
 90
        0
176
     1
 90
        0
176
     1
290
     0
176
     1
 90
        1
176
     1
 40
0.0
176
     1
 90
        0
176
     1
290
     0
176
     1
290
     1
176
     1
290
     1
176
     1
290
     0
176
     1
290
     0
176
     1
290
     0
176
     1
290
     0
176
     1
290
     0
176
     1
290
     0
176
     1
 90
       50
176
     1
 40
0.0
176
     1
 40
1.0
176
     1
 90
        0
176
     1
 62
    18
420
        0
176
     1
 90
       50
176
     1
 90
        3
176
     1
 62
     5
420
      255
176
     1
290
     0
176
     1
 90
       50
176
     1
 90
       50
176
     1
 90
       50
176
     1
290
     0
176
     1
 90
       50
176
     1
 62
   256
176
     0
 40
1.0
176
     0
 90
        2
176
     1
  1
strokes_ogs.tif
176
     1
290
     0
176
     1
 40
1.0
176
     1
 40
1.0
176
     1
  0
VISUALSTYLE
  5
2C6
102
{ACAD_REACTORS
330
2C5
102
}
330
2C5
100
AcDbVisualStyle
  2
Flat
 70
     0
177
     3
291
     1
 70
    58
 90
        2
176
     1
 90
        1
176
     1
 90
        1
176
     1
 90
        2
176
     1
 40
0.6
176
     1
 40
30.0
176
     1
 62
     7
420
 16777215
176
     1
 90
        0
176
     1
 90
        0
176
     1
 62
     7
176
     1
 62
   257
176
     1
 90
        1
176
     1
 90
        1
176
     1
 40
1.0
176
     1
 90
        8
176
     1
 62
     7
176
     1
 40
1.0
176
     1
 90
        1
176
     1
 90
        6
176
     1
 90
        2
176
     1
 62
     7
176
     1
 90
        5
176
     1
 90
        0
176
     1
 90
        0
176
     1
290
     0
176
     1
 90
       13
176
     1
 40
0.0
176
     1
 90
        0
176
     1
290
     0
176
     1
290
     1
176
     1
290
     1
176
     1
290
     0
176
     1
290
     0
176
     1
290
     0
176
     1
290
     0
176
     1
290
     0
176
     1
290
     0
176
     1
 90
       50
176
     1
 40
0.0
176
     1
 40
1.0
176
     1
 90
        0
176
     1
 62
    18
420
        0
176
     1
 90
       50
176
     1
 90
        3
176
     1
 62
     5
420
      255
176
     1
290
     0
176
     1
 90
       50
176
     1
 90
       50
176
     1
 90
       50
176
     1
290
     0
176
     1
 90
       50
176
     1
 62
   256
176
     0
 40
1.0
176
     0
 90
        2
176
     1
  1
strokes_ogs.tif
176
     1
290
     0
176
     1
 40
1.0
176
     1
 40
1.0
176
     1
  0
VISUALSTYLE
  5
2C7
102
{ACAD_REACTORS
330
2C5
102
}
330
2C5
100
AcDbVisualStyle
  2
FlatWithEdges
 70
     1
177
     3
291
     1
 70
    58
 90
        2
176
     1
 90
        1
176
     1
 90
        1
176
     1
 90
        2
176
     1
 40
0.6
176
     1
 40
30.0
176
     1
 62
     7
420
 16777215
176
     1
 90
        1
176
     1
 90
        0
176
     1
 62
     7
176
     1
 62
   257
176
     1
 90
        1
176
     1
 90
        1
176
     1
 40
1.0
176
     1
 90
        0
176
     1
 62
   257
176
     1
 40
1.0
176
     1
 90
        1
176
     1
 90
        6
176
     1
 90
        2
176
     1
 62
     7
176
     1
 90
        5
176
     1
 90
        0
176
     1
 90
        0
176
     1
290
     0
176
     1
 90
       13
176
     1
 40
0.0
176
     1
 90
        0
176
     1
290
     0
176
     1
290
     1
176
     1
290
     1
176
     1
290
     0
176
     1
290
     0
176
     1
290
     0
176
     1
290
     0
176
     1
290
     0
176
     1
290
     0
176
     1
 90
       50
176
     1
 40
0.0
176
     1
 40
1.0
176
     1
 90
        0
176
     1
 62
    18
420
        0
176
     1
 90
       50
176
     1
 90
        3
176
     1
 62
     5
420
      255
176
     1
290
     0
176
     1
 90
       50
176
     1
 90
       50
176
     1
 90
       50
176
     1
290
     0
176
     1
 90
       50
176
     1
 62
   256
176
     0
 40
1.0
176
     0
 90
        2
176
     1
  1
strokes_ogs.tif
176
     1
290
     0
176
     1
 40
1.0
176
     1
 40
1.0
176
     1
  0
VISUALSTYLE
  5
2C8
102
{ACAD_REACTORS
330
2C5
102
}
330
2C5
100
AcDbVisualStyle
  2
Gouraud
 70
     2
177
     3
291
     1
 70
    58
 90
        2
176
     1
 90
        2
176
     1
 90
        1
176
     1
 90
        2
176
     1
 40
0.6
176
     1
 40
30.0
176
     1
 62
     7
420
 16777215
176
     1
 90
        0
176
     1
 90
        0
176
     1
 62
     7
176
     1
 62
   257
176
     1
 90
        1
176
     1
 90
        1
176
     1
 40
1.0
176
     1
 90
        0
176
     1
 62
     7
176
     1
 40
1.0
176
     1
 90
        1
176
     1
 90
        6
176
     1
 90
        2
176
     1
 62
     7
176
     1
 90
        5
176
     1
 90
        0
176
     1
 90
        0
176
     1
290
     0
176
     1
 90
       13
176
     1
 40
0.0
176
     1
 90
        0
176
     1
290
     0
176
     1
290
     1
176
     1
290
     1
176
     1
290
     0
176
     1
290
     0
176
     1
290
     0
176
     1
290
     0
176
     1
290
     0
176
     1
290
     0
176
     1
 90
       50
176
     1
 40
0.0
176
     1
 40
1.0
176
     1
 90
        0
176
     1
 62
    18
420
        0
176
     1
 90
       50
176
     1
 90
        3
176
     1
 62
     5
420
      255
176
     1
290
     0
176
     1
 90
       50
176
     1
 90
       50
176
     1
 90
       50
176
     1
290
     0
176
     1
 90
       50
176
     1
 62
   256
176
     0
 40
1.0
176
     0
 90
        2
176
     1
  1
strokes_ogs.tif
176
     1
290
     0
176
     1
 40
1.0
176
     1
 40
1.0
176
     1
  0
VISUALSTYLE
  5
2C9
102
{ACAD_REACTORS
330
2C5
102
}
330
2C5
100
AcDbVisualStyle
  2
GouraudWithEdges
 70
     3
177
     3
291
     1
 70
    58
 90
        2
176
     1
 90
        2
176
     1
 90
        1
176
     1
 90
        2
176
     1
 40
0.6
176
     1
 40
30.0
176
     1
 62
     7
420
 16777215
176
     1
 90
        1
176
     1
 90
        0
176
     1
 62
     7
176
     1
 62
   257
176
     1
 90
        1
176
     1
 90
        1
176
     1
 40
1.0
176
     1
 90
        0
176
     1
 62
   257
176
     1
 40
1.0
176
     1
 90
        1
176
     1
 90
        6
176
     1
 90
        2
176
     1
 62
     7
176
     1
 90
        5
176
     1
 90
        0
176
     1
 90
        0
176
     1
290
     0
176
     1
 90
       13
176
     1
 40
0.0
176
     1
 90
        0
176
     1
290
     0
176
     1
290
     1
176
     1
290
     1
176
     1
290
     0
176
     1
290
     0
176
     1
290
     0
176
     1
290
     0
176
     1
290
     0
176
     1
290
     0
176
     1
 90
       50
176
     1
 40
0.0
176
     1
 40
1.0
176
     1
 90
        0
176
     1
 62
    18
420
        0
176
     1
 90
       50
176
     1
 90
        3
176
     1
 62
     5
420
      255
176
     1
290
     0
176
     1
 90
       50
176
     1
 90
       50
176
     1
 90
       50
176
     1
290
     0
176
     1
 90
       50
176
     1
 62
   256
176
     0
 40
1.0
176
     0
 90
        2
176
     1
  1
strokes_ogs.tif
176
     1
290
     0
176
     1
 40
1.0
176
     1
 40
1.0
176
     1
  0
VISUALSTYLE
  5
2CC
102
{ACAD_REACTORS
330
2C5
102
}
330
2C5
100
AcDbVisualStyle
  2
Hidden
 70
     6
177
     3
291
     0
 70
    58
 90
        1
176
     1
 90
        2
176
     1
 90
        2
176
     1
 90
        0
176
     1
 40
0.6
176
     1
 40
30.0
176
     1
 62
     7
420
 16777215
176
     1
 90
        2
176
     1
 90
        2
176
     1
 62
     7
176
     1
 62
   257
176
     1
 90
        2
176
     1
 90
        1
176
     1
 40
40.0
176
     1
 90
        0
176
     1
 62
   257
176
     1
 40
1.0
176
     1
 90
        1
176
     1
 90
        6
176
     1
 90
        2
176
     1
 62
     7
176
     1
 90
        3
176
     1
 90
        0
176
     1
 90
        0
176
     1
290
     0
176
     1
 90
        1
176
     1
 40
0.0
176
     1
 90
        0
176
     1
290
     0
176
     1
290
     1
176
     1
290
     1
176
     1
290
     0
176
     1
290
     0
176
     1
290
     0
176
     1
290
     0
176
     1
290
     0
176
     1
290
     0
176
     1
 90
       50
176
     1
 40
0.0
176
     1
 40
1.0
176
     1
 90
        0
176
     1
 62
    18
420
        0
176
     1
 90
       50
176
     1
 90
        3
176
     1
 62
     5
420
      255
176
     1
290
     0
176
     1
 90
       50
176
     1
 90
       50
176
     1
 90
       50
176
     1
290
     0
176
     1
 90
       50
176
     1
 62
   256
176
     0
 40
1.0
176
     0
 90
        2
176
     1
  1
strokes_ogs.tif
176
     1
290
     0
176
     1
 40
1.0
176
     1
 40
1.0
176
     1
  0
VISUALSTYLE
  5
2D6
102
{ACAD_REACTORS
330
2C5
102
}
330
2C5
100
AcDbVisualStyle
  2
JitterOff
 70
    20
177
     3
291
     1
 70
    58
 90
        2
176
     0
 90
        2
176
     0
 90
        0
176
     0
 90
        0
176
     0
 40
0.6
176
     0
 40
30.0
176
     0
 62
     7
420
 16777215
176
     0
 90
        1
176
     0
 90
        4
176
     0
 62
     7
176
     0
 62
   257
176
     0
 90
        1
176
     0
 90
        1
176
     0
 40
1.0
176
     0
 90
       10
176
     2
 62
     7
176
     0
 40
1.0
176
     0
 90
        1
176
     0
 90
        6
176
     0
 90
        2
176
     0
 62
     7
176
     0
 90
        5
176
     0
 90
        0
176
     0
 90
        0
176
     0
290
     0
176
     0
 90
        1
176
     0
 40
0.0
176
     0
 90
        0
176
     0
290
     0
176
     0
290
     1
176
     0
290
     1
176
     0
290
     0
176
     0
290
     0
176
     0
290
     0
176
     0
290
     0
176
     0
290
     0
176
     0
290
     0
176
     0
 90
       50
176
     0
 40
0.0
176
     0
 40
1.0
176
     0
 90
        0
176
     0
 62
    18
420
        0
176
     0
 90
       50
176
     0
 90
        3
176
     0
 62
     5
420
      255
176
     0
290
     0
176
     0
 90
       50
176
     0
 90
       50
176
     0
 90
       50
176
     0
290
     0
176
     0
 90
       50
176
     0
 62
   256
176
     0
 40
1.0
176
     0
 90
        2
176
     0
  1
strokes_ogs.tif
176
     0
290
     0
176
     0
 40
1.0
176
     0
 40
1.0
176
     0
  0
VISUALSTYLE
  5
2D3
102
{ACAD_REACTORS
330
2C5
102
}
330
2C5
100
AcDbVisualStyle
  2
Linepattern
 70
    14
177
     3
291
     1
 70
    58
 90
        2
176
     1
 90
        2
176
     1
 90
        0
176
     1
 90
        0
176
     1
 40
0.6
176
     1
 40
30.0
176
     1
 62
     7
420
 16777215
176
     1
 90
        1
176
     1
 90
        4
176
     1
 62
     7
176
     1
 62
   257
176
     1
 90
        7
176
     1
 90
        7
176
     1
 40
1.0
176
     1
 90
        8
176
     1
 62
     7
176
     1
 40
1.0
176
     1
 90
        1
176
     1
 90
        6
176
     1
 90
        2
176
     1
 62
     7
176
     1
 90
        5
176
     1
 90
        0
176
     1
 90
        0
176
     1
290
     0
176
     1
 90
        1
176
     1
 40
0.0
176
     1
 90
        0
176
     1
290
     0
176
     1
290
     1
176
     1
290
     1
176
     1
290
     0
176
     1
290
     0
176
     1
290
     0
176
     1
290
     0
176
     1
290
     0
176
     1
290
     0
176
     1
 90
       50
176
     1
 40
0.0
176
     1
 40
1.0
176
     1
 90
        0
176
     1
 62
    18
420
        0
176
     1
 90
       50
176
     1
 90
        3
176
     1
 62
     5
420
      255
176
     1
290
     0
176
     1
 90
       50
176
     1
 90
       50
176
     1
 90
       50
176
     1
290
     0
176
     1
 90
       50
176
     1
 62
   256
176
     0
 40
1.0
176
     0
 90
        2
176
     1
  1
strokes_ogs.tif
176
     1
290
     0
176
     1
 40
1.0
176
     1
 40
1.0
176
     1
  0
VISUALSTYLE
  5
2D7
102
{ACAD_REACTORS
330
2C5
102
}
330
2C5
100
AcDbVisualStyle
  2
OverhangOff
 70
    21
177
     3
291
     1
 70
    58
 90
        2
176
     0
 90
        2
176
     0
 90
        0
176
     0
 90
        0
176
     0
 40
0.6
176
     0
 40
30.0
176
     0
 62
     7
420
 16777215
176
     0
 90
        1
176
     0
 90
        4
176
     0
 62
     7
176
     0
 62
   257
176
     0
 90
        1
176
     0
 90
        1
176
     0
 40
1.0
176
     0
 90
        9
176
     2
 62
     7
176
     0
 40
1.0
176
     0
 90
        1
176
     0
 90
        6
176
     0
 90
        2
176
     0
 62
     7
176
     0
 90
        5
176
     0
 90
        0
176
     0
 90
        0
176
     0
290
     0
176
     0
 90
        1
176
     0
 40
0.0
176
     0
 90
        0
176
     0
290
     0
176
     0
290
     1
176
     0
290
     1
176
     0
290
     0
176
     0
290
     0
176
     0
290
     0
176
     0
290
     0
176
     0
290
     0
176
     0
290
     0
176
     0
 90
       50
176
     0
 40
0.0
176
     0
 40
1.0
176
     0
 90
        0
176
     0
 62
    18
420
        0
176
     0
 90
       50
176
     0
 90
        3
176
     0
 62
     5
420
      255
176
     0
290
     0
176
     0
 90
       50
176
     0
 90
       50
176
     0
 90
       50
176
     0
290
     0
176
     0
 90
       50
176
     0
 62
   256
176
     0
 40
1.0
176
     0
 90
        2
176
     0
  1
strokes_ogs.tif
176
     0
290
     0
176
     0
 40
1.0
176
     0
 40
1.0
176
     0
  0
VISUALSTYLE
  5
2CE
102
{ACAD_REACTORS
330
2C5
102
}
330
2C5
100
AcDbVisualStyle
  2
Realistic
 70
     8
177
     3
291
     0
 70
    58
 90
        2
176
     1
 90
        3
176
     1
 90
        0
176
     1
 90
        2
176
     1
 40
0.6
176
     1
 40
30.0
176
     1
 62
     7
420
 16777215
176
     1
 90
        0
176
     1
 90
        0
176
     1
 62
     7
176
     1
 62
   257
176
     1
 90
        1
176
     1
 90
        1
176
     1
 40
1.0
176
     1
 90
        8
176
     1
 62
   257
176
     1
 40
1.0
176
     1
 90
        1
176
     1
 90
        6
176
     1
 90
        2
176
     1
 62
     7
176
     1
 90
        3
176
     1
 90
        0
176
     1
 90
        0
176
     1
290
     0
176
     1
 90
       13
176
     1
 40
0.0
176
     1
 90
        0
176
     1
290
     0
176
     1
290
     1
176
     1
290
     1
176
     1
290
     0
176
     1
290
     0
176
     1
290
     0
176
     1
290
     0
176
     1
290
     0
176
     1
290
     0
176
     1
 90
       50
176
     1
 40
0.0
176
     1
 40
1.0
176
     1
 90
        0
176
     1
 62
    18
420
        0
176
     1
 90
       50
176
     1
 90
        3
176
     1
 62
     5
420
      255
176
     1
290
     0
176
     1
 90
       50
176
     1
 90
       50
176
     1
 90
       50
176
     1
290
     0
176
     1
 90
       50
176
     1
 62
   256
176
     0
 40
1.0
176
     0
 90
        2
176
     1
  1
strokes_ogs.tif
176
     1
290
     0
176
     1
 40
1.0
176
     1
 40
1.0
176
     1
  0
VISUALSTYLE
  5
2DD
102
{ACAD_REACTORS
330
2C5
102
}
330
2C5
100
AcDbVisualStyle
  2
Shaded
 70
    27
177
     3
291
     0
 70
    58
 90
        2
176
     1
 90
        2
176
     1
 90
        1
176
     1
 90
        2
176
     1
 40
0.6
176
     1
 40
30.0
176
     1
 62
     7
420
 16777215
176
     1
 90
        0
176
     1
 90
        4
176
     1
 62
     7
176
     1
 62
   257
176
     1
 90
        1
176
     1
 90
        1
176
     1
 40
1.0
176
     1
 90
        8
176
     1
 62
   257
176
     1
 40
1.0
176
     1
 90
        1
176
     1
 90
        6
176
     1
 90
        2
176
     1
 62
     8
420
  7895160
176
     1
 90
        3
176
     1
 90
        0
176
     1
 90
        0
176
     1
290
     0
176
     1
 90
        5
176
     1
 40
0.0
176
     1
 90
        0
176
     1
290
     0
176
     1
290
     1
176
     1
290
     1
176
     1
290
     0
176
     1
290
     0
176
     1
290
     0
176
     1
290
     0
176
     1
290
     0
176
     1
290
     0
176
     1
 90
       50
176
     1
 40
0.0
176
     1
 40
1.0
176
     1
 90
        0
176
     1
 62
    18
420
        0
176
     1
 90
       50
176
     1
 90
        3
176
     1
 62
     5
420
      255
176
     1
290
     0
176
     1
 90
       50
176
     1
 90
       50
176
     1
 90
       50
176
     1
290
     0
176
     1
 90
       50
176
     1
 62
   256
176
     0
 40
1.0
176
     0
 90
        2
176
     1
  1
strokes_ogs.tif
176
     1
290
     0
176
     1
 40
1.0
176
     1
 40
1.0
176
     1
  0
VISUALSTYLE
  5
2DC
102
{ACAD_REACTORS
330
2C5
102
}
330
2C5
100
AcDbVisualStyle
  2
Shaded with edges
 70
    26
177
     3
291
     0
 70
    58
 90
        2
176
     1
 90
        2
176
     1
 90
        1
176
     1
 90
        2
176
     1
 40
0.6
176
     1
 40
30.0
176
     1
 62
     7
420
 16777215
176
     1
 90
        1
176
     1
 90
       10
176
     1
 62
     7
176
     1
 62
   257
176
     1
 90
        2
176
     1
 90
        1
176
     1
 40
1.0
176
     1
 90
        8
176
     1
 62
   257
176
     1
 40
1.0
176
     1
 90
        1
176
     1
 90
        6
176
     1
 90
        2
176
     1
 62
     7
176
     1
 90
        3
176
     1
 90
        0
176
     1
 90
        0
176
     1
290
     0
176
     1
 90
        5
176
     1
 40
0.0
176
     1
 90
        0
176
     1
290
     0
176
     1
290
     1
176
     1
290
     1
176
     1
290
     0
176
     1
290
     0
176
     1
290
     0
176
     1
290
     0
176
     1
290
     0
176
     1
290
     0
176
     1
 90
       50
176
     1
 40
0.0
176
     1
 40
1.0
176
     1
 90
        0
176
     1
 62
    18
420
        0
176
     1
 90
       50
176
     1
 90
        3
176
     1
 62
     5
420
      255
176
     1
290
     0
176
     1
 90
       50
176
     1
 90
       50
176
     1
 90
       50
176
     1
290
     0
176
     1
 90
       50
176
     1
 62
   256
176
     0
 40
1.0
176
     0
 90
        2
176
     1
  1
strokes_ogs.tif
176
     1
290
     0
176
     1
 40
1.0
176
     1
 40
1.0
176
     1
  0
VISUALSTYLE
  5
2D9
102
{ACAD_REACTORS
330
2C5
102
}
330
2C5
100
AcDbVisualStyle
  2
Shades of Gray
 70
    23
177
     3
291
     0
 70
    58
 90
        2
176
     1
 90
        2
176
     1
 90
        3
176
     1
 90
        0
176
     1
 40
0.6
176
     1
 40
30.0
176
     1
 62
     7
420
 16777215
176
     1
 90
        2
176
     1
 90
        2
176
     1
 62
     7
176
     1
 62
     7
176
     1
 90
        1
176
     1
 90
        1
176
     1
 40
40.0
176
     1
 90
        8
176
     1
 62
     7
176
     1
 40
1.0
176
     1
 90
        1
176
     1
 90
        6
176
     1
 90
        2
176
     1
 62
     7
176
     1
 90
        3
176
     1
 90
        0
176
     1
 90
        0
176
     1
290
     0
176
     1
 90
        1
176
     1
 40
0.0
176
     1
 90
        0
176
     1
290
     0
176
     1
290
     1
176
     1
290
     1
176
     1
290
     0
176
     1
290
     0
176
     1
290
     0
176
     1
290
     0
176
     1
290
     0
176
     1
290
     0
176
     1
 90
       50
176
     1
 40
0.0
176
     1
 40
1.0
176
     1
 90
        0
176
     1
 62
    18
420
        0
176
     1
 90
       50
176
     1
 90
        3
176
     1
 62
     5
420
      255
176
     1
290
     0
176
     1
 90
       50
176
     1
 90
       50
176
     1
 90
       50
176
     1
290
     0
176
     1
 90
       50
176
     1
 62
   256
176
     0
 40
1.0
176
     0
 90
        2
176
     1
  1
strokes_ogs.tif
176
     1
290
     0
176
     1
 40
1.0
176
     1
 40
1.0
176
     1
  0
VISUALSTYLE
  5
2DA
102
{ACAD_REACTORS
330
2C5
102
}
330
2C5
100
AcDbVisualStyle
  2
Sketchy
 70
    24
177
     3
291
     0
 70
    58
 90
        1
176
     1
 90
        2
176
     1
 90
        2
176
     1
 90
        0
176
     1
 40
0.6
176
     1
 40
30.0
176
     1
 62
     7
420
 16777215
176
     1
 90
        2
176
     1
 90
        2
176
     1
 62
     7
176
     1
 62
     7
176
     1
 90
        1
176
     1
 90
        1
176
     1
 40
40.0
176
     1
 90
       11
176
     1
 62
     7
176
     1
 40
1.0
176
     1
 90
        1
176
     1
 90
        6
176
     1
 90
        2
176
     1
 62
     7
176
     1
 90
        6
176
     1
 90
        0
176
     1
 90
        0
176
     1
290
     0
176
     1
 90
        1
176
     1
 40
0.0
176
     1
 90
        0
176
     1
290
     0
176
     1
290
     1
176
     1
290
     1
176
     1
290
     0
176
     1
290
     0
176
     1
290
     0
176
     1
290
     0
176
     1
290
     0
176
     1
290
     0
176
     1
 90
       50
176
     1
 40
0.0
176
     1
 40
1.0
176
     1
 90
        0
176
     1
 62
    18
420
        0
176
     1
 90
       50
176
     1
 90
        3
176
     1
 62
     5
420
      255
176
     1
290
     0
176
     1
 90
       50
176
     1
 90
       50
176
     1
 90
       50
176
     1
290
     0
176
     1
 90
       50
176
     1
 62
   256
176
     0
 40
1.0
176
     0
 90
        2
176
     1
  1
strokes_ogs.tif
176
     1
290
     0
176
     1
 40
1.0
176
     1
 40
1.0
176
     1
  0
VISUALSTYLE
  5
2D2
102
{ACAD_REACTORS
330
2C5
102
}
330
2C5
100
AcDbVisualStyle
  2
Thicken
 70
    13
177
     3
291
     1
 70
    58
 90
        2
176
     1
 90
        2
176
     1
 90
        0
176
     1
 90
        0
176
     1
 40
0.6
176
     1
 40
30.0
176
     1
 62
     7
420
 16777215
176
     1
 90
        1
176
     1
 90
        4
176
     1
 62
     7
176
     1
 62
   257
176
     1
 90
        1
176
     1
 90
        1
176
     1
 40
1.0
176
     1
 90
       12
176
     1
 62
     7
176
     1
 40
1.0
176
     1
 90
        1
176
     1
 90
        6
176
     1
 90
        2
176
     1
 62
     7
176
     1
 90
        5
176
     1
 90
        0
176
     1
 90
        0
176
     1
290
     0
176
     1
 90
        1
176
     1
 40
0.0
176
     1
 90
        0
176
     1
290
     0
176
     1
290
     1
176
     1
290
     1
176
     1
290
     0
176
     1
290
     0
176
     1
290
     0
176
     1
290
     0
176
     1
290
     0
176
     1
290
     0
176
     1
 90
       50
176
     1
 40
0.0
176
     1
 40
1.0
176
     1
 90
        0
176
     1
 62
    18
420
        0
176
     1
 90
       50
176
     1
 90
        3
176
     1
 62
     5
420
      255
176
     1
290
     0
176
     1
 90
       50
176
     1
 90
       50
176
     1
 90
       50
176
     1
290
     0
176
     1
 90
       50
176
     1
 62
   256
176
     0
 40
1.0
176
     0
 90
        2
176
     1
  1
strokes_ogs.tif
176
     1
290
     0
176
     1
 40
1.0
176
     1
 40
1.0
176
     1
  0
VISUALSTYLE
  5
2CB
102
{ACAD_REACTORS
330
2C5
102
}
330
2C5
100
AcDbVisualStyle
  2
Wireframe
 70
     5
177
     3
291
     0
 70
    58
 90
        0
176
     1
 90
        2
176
     1
 90
        0
176
     1
 90
        0
176
     1
 40
0.6
176
     1
 40
30.0
176
     1
 62
     7
420
 16777215
176
     1
 90
        1
176
     1
 90
        4
176
     1
 62
     7
176
     1
 62
   257
176
     1
 90
        1
176
     1
 90
        1
176
     1
 40
1.0
176
     1
 90
        0
176
     1
 62
   257
176
     1
 40
1.0
176
     1
 90
        1
176
     1
 90
        6
176
     1
 90
        2
176
     1
 62
     7
176
     1
 90
        3
176
     1
 90
        0
176
     1
 90
        0
176
     1
290
     0
176
     1
 90
        1
176
     1
 40
0.0
176
     1
 90
        0
176
     1
290
     0
176
     1
290
     1
176
     1
290
     1
176
     1
290
     0
176
     1
290
     0
176
     1
290
     0
176
     1
290
     0
176
     1
290
     0
176
     1
290
     0
176
     1
 90
       50
176
     1
 40
0.0
176
     1
 40
1.0
176
     1
 90
        0
176
     1
 62
    18
420
        0
176
     1
 90
       50
176
     1
 90
        3
176
     1
 62
     5
420
      255
176
     1
290
     0
176
     1
 90
       50
176
     1
 90
       50
176
     1
 90
       50
176
     1
290
     0
176
     1
 90
       50
176
     1
 62
   256
176
     0
 40
1.0
176
     0
 90
        2
176
     1
  1
strokes_ogs.tif
176
     1
290
     0
176
     1
 40
1.0
176
     1
 40
1.0
176
     1
  0
VISUALSTYLE
  5
2DB
102
{ACAD_REACTORS
330
2C5
102
}
330
2C5
100
AcDbVisualStyle
  2
X-Ray
 70
    25
177
     3
291
     0
 70
    58
 90
        2
176
     1
 90
        2
176
     1
 90
        1
176
     1
 90
        1
176
     1
 40
0.5
176
     1
 40
30.0
176
     1
 62
     7
420
 16777215
176
     1
 90
        1
176
     1
 90
        0
176
     1
 62
     7
176
     1
 62
   257
176
     1
 90
        1
176
     1
 90
        1
176
     1
 40
1.0
176
     1
 90
        8
176
     1
 62
     7
176
     1
 40
1.0
176
     1
 90
        1
176
     1
 90
        6
176
     1
 90
        2
176
     1
 62
     7
176
     1
 90
        3
176
     1
 90
        0
176
     1
 90
        0
176
     1
290
     0
176
     1
 90
       13
176
     1
 40
0.0
176
     1
 90
        0
176
     1
290
     0
176
     1
290
     1
176
     1
290
     1
176
     1
290
     0
176
     1
290
     0
176
     1
290
     0
176
     1
290
     0
176
     1
290
     0
176
     1
290
     0
176
     1
 90
       50
176
     1
 40
0.0
176
     1
 40
1.0
176
     1
 90
        0
176
     1
 62
    18
420
        0
176
     1
 90
       50
176
     1
 90
        3
176
     1
 62
     5
420
      255
176
     1
290
     0
176
     1
 90
       50
176
     1
 90
       50
176
     1
 90
       50
176
     1
290
     0
176
     1
 90
       50
176
     1
 62
   256
176
     0
 40
1.0
176
     0
 90
        2
176
     1
  1
strokes_ogs.tif
176
     1
290
     0
176
     1
 40
1.0
176
     1
 40
1.0
176
     1
  0
DICTIONARYVAR
  5
362
102
{ACAD_REACTORS
330
361
102
}
330
361
100
DictionaryVariables
280
     0
  1
1:1
  0
DICTIONARYVAR
  5
367
102
{ACAD_REACTORS
330
361
102
}
330
361
100
DictionaryVariables
280
     0
  1
Standard
  0
DICTIONARYVAR
  5
366
102
{ACAD_REACTORS
330
361
102
}
330
361
100
DictionaryVariables
280
     0
  1
Standard
  0
XRECORD
  5
30C
102
{ACAD_REACTORS
330
30A
102
}
330
30A
100
AcDbXrecord
280
     1
290
     1
  0
XRECORD
  5
30D
102
{ACAD_REACTORS
330
30A
102
}
330
30A
100
AcDbXrecord
280
     1
290
     1
  0
XRECORD
  5
30E
102
{ACAD_REACTORS
330
30A
102
}
330
30A
100
AcDbXrecord
280
     1
290
     1
  0
XRECORD
  5
30F
102
{ACAD_REACTORS
330
30A
102
}
330
30A
100
AcDbXrecord
280
     1
290
     1
  0
XRECORD
  5
310
102
{ACAD_REACTORS
330
30A
102
}
330
30A
100
AcDbXrecord
280
     1
1000
auto
  0
XRECORD
  5
311
102
{ACAD_REACTORS
330
30A
102
}
330
30A
100
AcDbXrecord
280
     1
1000
auto
  0
XRECORD
  5
312
102
{ACAD_REACTORS
330
30A
102
}
330
30A
100
AcDbXrecord
280
     1
1000
auto
  0
XRECORD
  5
313
102
{ACAD_REACTORS
330
30A
102
}
330
30A
100
AcDbXrecord
280
     1
1000
auto
  0
XRECORD
  5
314
102
{ACAD_REACTORS
330
30A
102
}
330
30A
100
AcDbXrecord
280
     1
1000
auto
  0
XRECORD
  5
315
102
{ACAD_REACTORS
330
30A
102
}
330
30A
100
AcDbXrecord
280
     1
1000
auto
  0
XRECORD
  5
316
102
{ACAD_REACTORS
330
30A
102
}
330
30A
100
AcDbXrecord
280
     1
1000
auto
  0
XRECORD
  5
317
102
{ACAD_REACTORS
330
30A
102
}
330
30A
100
AcDbXrecord
280
     1
1000
auto
  0
XRECORD
  5
318
102
{ACAD_REACTORS
330
30A
102
}
330
30A
100
AcDbXrecord
280
     1
290
     0
  0
XRECORD
  5
319
102
{ACAD_REACTORS
330
30A
102
}
330
30A
100
AcDbXrecord
280
     1
290
     0
  0
XRECORD
  5
31A
102
{ACAD_REACTORS
330
30A
102
}
330
30A
100
AcDbXrecord
280
     1
290
     0
  0
XRECORD
  5
31B
102
{ACAD_REACTORS
330
30A
102
}
330
30A
100
AcDbXrecord
280
     1
290
     0
  0
XRECORD
  5
31C
102
{ACAD_REACTORS
330
30A
102
}
330
30A
100
AcDbXrecord
280
     1
 90
        0
  0
XRECORD
  5
31D
102
{ACAD_REACTORS
330
30A
102
}
330
30A
100
AcDbXrecord
280
     1
 90
        0
  0
XRECORD
  5
31E
102
{ACAD_REACTORS
330
30A
102
}
330
30A
100
AcDbXrecord
280
     1
 90
        0
  0
XRECORD
  5
31F
102
{ACAD_REACTORS
330
30A
102
}
330
30A
100
AcDbXrecord
280
     1
 90
        0
  0
XRECORD
  5
320
102
{ACAD_REACTORS
330
30A
102
}
330
30A
100
AcDbXrecord
280
     1
1000
auto
  0
XRECORD
  5
321
102
{ACAD_REACTORS
330
30A
102
}
330
30A
100
AcDbXrecord
280
     1
1000
auto
  0
XRECORD
  5
322
102
{ACAD_REACTORS
330
30A
102
}
330
30A
100
AcDbXrecord
280
     1
1000
auto
  0
XRECORD
  5
323
102
{ACAD_REACTORS
330
30A
102
}
330
30A
100
AcDbXrecord
280
     1
1000
auto
  0
XRECORD
  5
324
102
{ACAD_REACTORS
330
30A
102
}
330
30A
100
AcDbXrecord
280
     1
1000
auto
  0
XRECORD
  5
325
102
{ACAD_REACTORS
330
30A
102
}
330
30A
100
AcDbXrecord
280
     1
1000
auto
  0
XRECORD
  5
326
102
{ACAD_REACTORS
330
30A
102
}
330
30A
100
AcDbXrecord
280
     1
1000
auto
  0
XRECORD
  5
327
102
{ACAD_REACTORS
330
30A
102
}
330
30A
100
AcDbXrecord
280
     1
1000
auto
  0
XRECORD
  5
328
102
{ACAD_REACTORS
330
30A
102
}
330
30A
100
AcDbXrecord
280
     1
 90
        1
  0
XRECORD
  5
329
102
{ACAD_REACTORS
330
30A
102
}
330
30A
100
AcDbXrecord
280
     1
 40
10.0
  0
XRECORD
  5
32A
102
{ACAD_REACTORS
330
30A
102
}
330
30A
100
AcDbXrecord
280
     1
 40
10.0
  0
XRECORD
  5
32B
102
{ACAD_REACTORS
330
30A
102
}
330
30A
100
AcDbXrecord
280
     1
 40
10.0
  0
XRECORD
  5
32C
102
{ACAD_REACTORS
330
30A
102
}
330
30A
100
AcDbXrecord
280
     1
 40
10.0
  0
XRECORD
  5
32D
102
{ACAD_REACTORS
330
30A
102
}
330
30A
100
AcDbXrecord
280
     1
290
     0
  0
XRECORD
  5
32E
102
{ACAD_REACTORS
330
30A
102
}
330
30A
100
AcDbXrecord
280
     1
 90
        1
  0
XRECORD
  5
32F
102
{ACAD_REACTORS
330
30A
102
}
330
30A
100
AcDbXrecord
280
     1
 40
-20.39075162130324
  0
XRECORD
  5
330
102
{ACAD_REACTORS
330
30A
102
}
330
30A
100
AcDbXrecord
280
     1
 40
-278.4854271607092
  0
XRECORD
  5
331
102
{ACAD_REACTORS
330
30A
102
}
330
30A
100
AcDbXrecord
280
     1
1000
Portrait
  0
XRECORD
  5
332
102
{ACAD_REACTORS
330
30A
102
}
330
30A
100
AcDbXrecord
280
     1
 40
297.0
  0
XRECORD
  5
333
102
{ACAD_REACTORS
330
30A
102
}
330
30A
100
AcDbXrecord
280
     1
 40
210.0
  0
XRECORD
  5
334
102
{ACAD_REACTORS
330
30A
102
}
330
30A
100
AcDbXrecord
280
     1
1000
1:1
  0
XRECORD
  5
335
102
{ACAD_REACTORS
330
30A
102
}
330
30A
100
AcDbXrecord
280
     1
290
     1
  0
XRECORD
  5
30B
102
{ACAD_REACTORS
330
30A
102
}
330
30A
100
AcDbXrecord
280
     1
1000
3.9.0
  0
XRECORD
  5
336
102
{ACAD_REACTORS
330
30A
102
}
330
30A
100
AcDbXrecord
280
     1
 90
        4
  0
DICTIONARY
  5
363
330
305
100
AcDbDictionary
280
     1
281
     1
  3
ACAD_ROUNDTRIP_2008_TABLESTYLE_CELLSTYLEMAP
360
364
  0
CELLSTYLEMAP
  5
364
102
{ACAD_REACTORS
330
363
102
}
330
363
100
AcDbCellStyleMap
 90
        3
300
CELLSTYLE
  1
TABLEFORMAT_BEGIN
 90
        5
170
     1
 91
        0
 92
    32768
 62
   257
 93
        1
300
CONTENTFORMAT
  1
CONTENTFORMAT_BEGIN
 90
        0
 91
        0
 92
        4
 93
        0
300

 40
0.0
140
1.0
 94
        5
 62
     0
340
2AD
144
0.25
309
CONTENTFORMAT_END
171
     1
301
MARGIN
  1
CELLMARGIN_BEGIN
 40
0.06
 40
0.06
 40
0.06
 40
0.06
 40
0.06
 40
0.06
309
CELLMARGIN_END
 94
        6
 95
        1
302
GRIDFORMAT
  1
GRIDFORMAT_BEGIN
 90
        0
 91
        1
 62
     0
 92
       -2
340
2AF
 93
        0
 40
0.045
309
GRIDFORMAT_END
 95
        2
302
GRIDFORMAT
  1
GRIDFORMAT_BEGIN
 90
        0
 91
        1
 62
     0
 92
       -2
340
2AF
 93
        0
 40
0.045
309
GRIDFORMAT_END
 95
        4
302
GRIDFORMAT
  1
GRIDFORMAT_BEGIN
 90
        0
 91
        1
 62
     0
 92
       -2
340
2AF
 93
        0
 40
0.045
309
GRIDFORMAT_END
 95
        8
302
GRIDFORMAT
  1
GRIDFORMAT_BEGIN
 90
        0
 91
        1
 62
     0
 92
       -2
340
2AF
 93
        0
 40
0.045
309
GRIDFORMAT_END
 95
       16
302
GRIDFORMAT
  1
GRIDFORMAT_BEGIN
 90
        0
 91
        1
 62
     0
 92
       -2
340
2AF
 93
        0
 40
0.045
309
GRIDFORMAT_END
 95
       32
302
GRIDFORMAT
  1
GRIDFORMAT_BEGIN
 90
        0
 91
        1
 62
     0
 92
       -2
340
2AF
 93
        0
 40
0.045
309
GRIDFORMAT_END
309
TABLEFORMAT_END
  1
CELLSTYLE_BEGIN
 90
        1
 91
        1
300
_TITLE
309
CELLSTYLE_END
300
CELLSTYLE
  1
TABLEFORMAT_BEGIN
 90
        5
170
     1
 91
        0
 92
        0
 62
   257
 93
        1
300
CONTENTFORMAT
  1
CONTENTFORMAT_BEGIN
 90
        0
 91
        0
 92
        4
 93
        0
300

 40
0.0
140
1.0
 94
        5
 62
     0
340
2AD
144
0.18
309
CONTENTFORMAT_END
171
     1
301
MARGIN
  1
CELLMARGIN_BEGIN
 40
0.06
 40
0.06
 40
0.06
 40
0.06
 40
0.06
 40
0.06
309
CELLMARGIN_END
 94
        6
 95
        1
302
GRIDFORMAT
  1
GRIDFORMAT_BEGIN
 90
        0
 91
        1
 62
     0
 92
       -2
340
2AF
 93
        0
 40
0.045
309
GRIDFORMAT_END
 95
        2
302
GRIDFORMAT
  1
GRIDFORMAT_BEGIN
 90
        0
 91
        1
 62
     0
 92
       -2
340
2AF
 93
        0
 40
0.045
309
GRIDFORMAT_END
 95
        4
302
GRIDFORMAT
  1
GRIDFORMAT_BEGIN
 90
        0
 91
        1
 62
     0
 92
       -2
340
2AF
 93
        0
 40
0.045
309
GRIDFORMAT_END
 95
        8
302
GRIDFORMAT
  1
GRIDFORMAT_BEGIN
 90
        0
 91
        1
 62
     0
 92
       -2
340
2AF
 93
        0
 40
0.045
309
GRIDFORMAT_END
 95
       16
302
GRIDFORMAT
  1
GRIDFORMAT_BEGIN
 90
        0
 91
        1
 62
     0
 92
       -2
340
2AF
 93
        0
 40
0.045
309
GRIDFORMAT_END
 95
       32
302
GRIDFORMAT
  1
GRIDFORMAT_BEGIN
 90
        0
 91
        1
 62
     0
 92
       -2
340
2AF
 93
        0
 40
0.045
309
GRIDFORMAT_END
309
TABLEFORMAT_END
  1
CELLSTYLE_BEGIN
 90
        2
 91
        1
300
_HEADER
309
CELLSTYLE_END
300
CELLSTYLE
  1
TABLEFORMAT_BEGIN
 90
        5
170
     1
 91
        0
 92
        0
 62
   257
 93
        1
300
CONTENTFORMAT
  1
CONTENTFORMAT_BEGIN
 90
        0
 91
        0
 92
        4
 93
        0
300

 40
0.0
140
1.0
 94
        2
 62
     0
340
2AD
144
0.18
309
CONTENTFORMAT_END
171
     1
301
MARGIN
  1
CELLMARGIN_BEGIN
 40
0.06
 40
0.06
 40
0.06
 40
0.06
 40
0.06
 40
0.06
309
CELLMARGIN_END
 94
        6
 95
        1
302
GRIDFORMAT
  1
GRIDFORMAT_BEGIN
 90
        0
 91
        1
 62
     0
 92
       -2
340
2AF
 93
        0
 40
0.045
309
GRIDFORMAT_END
 95
        2
302
GRIDFORMAT
  1
GRIDFORMAT_BEGIN
 90
        0
 91
        1
 62
     0
 92
       -2
340
2AF
 93
        0
 40
0.045
309
GRIDFORMAT_END
 95
        4
302
GRIDFORMAT
  1
GRIDFORMAT_BEGIN
 90
        0
 91
        1
 62
     0
 92
       -2
340
2AF
 93
        0
 40
0.045
309
GRIDFORMAT_END
 95
        8
302
GRIDFORMAT
  1
GRIDFORMAT_BEGIN
 90
        0
 91
        1
 62
     0
 92
       -2
340
2AF
 93
        0
 40
0.045
309
GRIDFORMAT_END
 95
       16
302
GRIDFORMAT
  1
GRIDFORMAT_BEGIN
 90
        0
 91
        1
 62
     0
 92
       -2
340
2AF
 93
        0
 40
0.045
309
GRIDFORMAT_END
 95
       32
302
GRIDFORMAT
  1
GRIDFORMAT_BEGIN
 90
        0
 91
        1
 62
     0
 92
       -2
340
2AF
 93
        0
 40
0.045
309
GRIDFORMAT_END
309
TABLEFORMAT_END
  1
CELLSTYLE_BEGIN
 90
        3
 91
        2
300
_DATA
309
CELLSTYLE_END
  0
ENDSEC
  0
EOF
