999
dxflib 3.7.5.0
  0
SECTION
  2
HEADER
  9
$ACADVER
  1
AC1015
  9
$HANDSEED
  5
FFFF
  9
$ANGBASE
 50
0.0
  9
$ATTMODE
 70
1
  9
$AUNITS
 70
0
  9
$AUPREC
 70
0
  9
$CELTSCALE
 40
1.0
  9
$CHAMFERA
 40
0.0
  9
$CHAMFERB
 40
0.0
  9
$CHAMFERC
 40
0.0
  9
$CHAMFERD
 40
0.0
  9
$CMLJUST
 70
0
  9
$CMLSCALE
 40
1.0
  9
$DIMADEC
 70
0
  9
$DIMALTD
 70
2
  9
$DIMALTF
 40
25.399999999999999
  9
$DIMALTRND
 40
0.0
  9
$DIMALTTD
 70
2
  9
$DIMALTTZ
 70
0
  9
$DIMALTU
 70
2
  9
$DIMALTZ
 70
0
  9
$DIMAPOST
  1

  9
$DIMASZ
 40
2.5
  9
$DIMATFIT
 70
3
  9
$DIMAUNIT
 70
0
  9
$DIMAZIN
 70
2
  9
$DIMCEN
 40
0.09
  9
$DIMDEC
 70
4
  9
$DIMDLE
 40
0.0
  9
$DIMDLI
 40
0.38
  9
$DIMDSEP
 70
46
  9
$DIMEXE
 40
1.25
  9
$DIMEXO
 40
0.625
  9
$DIMFRAC
 70
0
  9
$DIMGAP
 40
0.625
  9
$DIMJUST
 70
0
  9
$DIMLFAC
 40
1.0
  9
$DIMLUNIT
 70
2
  9
$DIMLWD
 70
-2
  9
$DIMLWE
 70
-2
  9
$DIMPOST
  1

  9
$DIMRND
 40
0.0
  9
$DIMSCALE
 40
1.0
  9
$DIMTAD
 70
0
  9
$DIMTDEC
 70
4
  9
$DIMTFAC
 40
1.0
  9
$DIMTM
 40
0.0
  9
$DIMTOLJ
 70
1
  9
$DIMTP
 40
0.0
  9
$DIMTSZ
 40
0.0
  9
$DIMTVP
 40
0.0
  9
$DIMTXT
 40
2.5
  9
$DIMTZIN
 70
0
  9
$DIMZIN
 70
8
  9
$DWGCODEPAGE
  3
ANSI_1252
  9
$ELEVATION
 40
0.0
  9
$EXTMAX
 10
-100000000000000000000.0
 20
-100000000000000000000.0
 30
-100000000000000000000.0
  9
$EXTMIN
 10
100000000000000000000.0
 20
100000000000000000000.0
 30
100000000000000000000.0
  9
$FILLETRAD
 40
0.5
  9
$INSBASE
 10
0.0
 20
0.0
 30
0.0
  9
$INSUNITS
 70
4
  9
$LIMMAX
 10
12.0
 20
9.0
  9
$LIMMIN
 10
0.0
 20
0.0
  9
$LTSCALE
 40
1.0
  9
$LUNITS
 70
2
  9
$LUPREC
 70
4
  9
$MAXACTVP
 70
2
  9
$PDMODE
 70
0
  9
$PDSIZE
 40
0.0
  9
$PELEVATION
 40
0.0
  9
$PEXTMAX
 10
-100000000000000000000.0
 20
-100000000000000000000.0
 30
-100000000000000000000.0
  9
$PEXTMIN
 10
100000000000000000000.0
 20
100000000000000000000.0
 30
100000000000000000000.0
  9
$PINSBASE
 10
0.0
 20
0.0
 30
0.0
  9
$PLIMMAX
 10
12.0
 20
9.0
  9
$PLIMMIN
 10
0.0
 20
0.0
  9
$PLINEWID
 40
0.0
  9
$PROXYGRAPHICS
 70
1
  9
$PUCSORG
 10
0.0
 20
0.0
 30
0.0
  9
$PUCSXDIR
 10
1.0
 20
0.0
 30
0.0
  9
$PUCSYDIR
 10
0.0
 20
1.0
 30
0.0
  9
$SHADEDGE
 70
3
  9
$SHADEDIF
 70
70
  9
$SKETCHINC
 40
0.1
  9
$SPLINESEGS
 70
8
  9
$SPLINETYPE
 70
6
  9
$SURFTAB1
 70
6
  9
$SURFTAB2
 70
6
  9
$SURFTYPE
 70
6
  9
$SURFU
 70
6
  9
$SURFV
 70
6
  9
$TEXTSIZE
 40
2.5
  9
$THICKNESS
 40
0.0
  9
$TRACEWID
 40
0.05
  9
$TREEDEPTH
 70
3020
  9
$UCSORG
 10
0.0
 20
0.0
 30
0.0
  9
$UCSXDIR
 10
1.0
 20
0.0
 30
0.0
  9
$UCSYDIR
 10
0.0
 20
1.0
 30
0.0
  9
$UNITMODE
 70
0
  9
$USERI1
 70
0
  9
$USERI2
 70
0
  9
$USERI3
 70
0
  9
$USERI4
 70
0
  9
$USERI5
 70
0
  9
$USERR1
 40
0.0
  9
$USERR2
 40
0.0
  9
$USERR3
 40
0.0
  9
$USERR4
 40
0.0
  9
$USERR5
 40
0.0
  0
ENDSEC
  0
SECTION
  2
TABLES
  0
TABLE
  2
VPORT
  5
8
100
AcDbSymbolTable
 70
1
  0
VPORT
  5
30
100
AcDbSymbolTableRecord
100
AcDbViewportTableRecord
  2
*Active
 70
0
 10
0.0
 20
0.0
 11
1.0
 21
1.0
 12
286.30555555555549
 22
148.5
 13
0.0
 23
0.0
 14
10.0
 24
10.0
 15
10.0
 25
10.0
 16
0.0
 26
0.0
 36
1.0
 17
0.0
 27
0.0
 37
0.0
 40
297.0
 41
1.92798353909465
 42
50.0
 43
0.0
 44
0.0
 50
0.0
 51
0.0
 71
0
 72
100
 73
1
 74
3
 75
1
 76
1
 77
0
 78
0
281
0
 65
1
110
0.0
120
0.0
130
0.0
111
1.0
121
0.0
131
0.0
112
0.0
122
1.0
132
0.0
 79
0
146
0.0
  0
ENDTAB
  0
TABLE
  2
LTYPE
  5
5
100
AcDbSymbolTable
 70
41
  0
LTYPE
  5
16
100
AcDbSymbolTableRecord
100
AcDbLinetypeTableRecord
  2
Continuous
 70
0
  3
Solid line
 72
65
 73
0
 40
0.0
  0
LTYPE
  5
31
100
AcDbSymbolTableRecord
100
AcDbLinetypeTableRecord
  2
ACAD_ISO15W100
 70
0
  3
ISO double-dash triple-dot __ __ . . . __ __ . .
 72
65
 73
10
 40
39.0
 49
12.0
 74
0
 49
-3.0
 74
0
 49
12.0
 74
0
 49
-3.0
 74
0
 49
0.0
 74
0
 49
-3.0
 74
0
 49
0.0
 74
0
 49
-3.0
 74
0
 49
0.0
 74
0
 49
-3.0
 74
0
  0
LTYPE
  5
32
100
AcDbSymbolTableRecord
100
AcDbLinetypeTableRecord
  2
DIVIDE
 70
0
  3
Divide ____ . . ____ . . ____ . . ____ . . ____
 72
65
 73
6
 40
31.75
 49
12.699999999999999
 74
0
 49
-6.3499999999999996
 74
0
 49
0.0
 74
0
 49
-6.3499999999999996
 74
0
 49
0.0
 74
0
 49
-6.3499999999999996
 74
0
  0
LTYPE
  5
33
100
AcDbSymbolTableRecord
100
AcDbLinetypeTableRecord
  2
ACAD_ISO10W100
 70
0
  3
ISO dash dot __ . __ . __ . __ . __ . __ . __ . 
 72
65
 73
4
 40
18.0
 49
12.0
 74
0
 49
-3.0
 74
0
 49
0.0
 74
0
 49
-3.0
 74
0
  0
LTYPE
  5
34
100
AcDbSymbolTableRecord
100
AcDbLinetypeTableRecord
  2
ACAD_ISO04W100
 70
0
  3
ISO long-dash dot ____ . ____ . ____ . ____ . _
 72
65
 73
4
 40
30.0
 49
24.0
 74
0
 49
-3.0
 74
0
 49
0.0
 74
0
 49
-3.0
 74
0
  0
LTYPE
  5
35
100
AcDbSymbolTableRecord
100
AcDbLinetypeTableRecord
  2
CENTER2
 70
0
  3
Center (.5x) ___ _ ___ _ ___ _ ___ _ ___ _ ___
 72
65
 73
4
 40
28.575000000000003
 49
19.050000000000001
 74
0
 49
-3.1749999999999998
 74
0
 49
3.1749999999999998
 74
0
 49
-3.1749999999999998
 74
0
  0
LTYPE
  5
36
100
AcDbSymbolTableRecord
100
AcDbLinetypeTableRecord
  2
ACAD_ISO11W100
 70
0
  3
ISO double-dash dot __ __ . __ __ . __ __ . __ _
 72
65
 73
6
 40
33.0
 49
12.0
 74
0
 49
-3.0
 74
0
 49
12.0
 74
0
 49
-3.0
 74
0
 49
0.0
 74
0
 49
-3.0
 74
0
  0
LTYPE
  5
37
100
AcDbSymbolTableRecord
100
AcDbLinetypeTableRecord
  2
HIDDEN2
 70
0
  3
Hidden (.5x) _ _ _ _ _ _ _ _ _ _ _ _ _ _ _ _ _ 
 72
65
 73
2
 40
4.7624999999999993
 49
3.1749999999999998
 74
0
 49
-1.5874999999999999
 74
0
  0
LTYPE
  5
38
100
AcDbSymbolTableRecord
100
AcDbLinetypeTableRecord
  2
BORDERX2
 70
0
  3
Border (2x) ____  ____  .  ____  ____  .  ___
 72
65
 73
6
 40
88.899999999999991
 49
25.399999999999999
 74
0
 49
-12.699999999999999
 74
0
 49
25.399999999999999
 74
0
 49
-12.699999999999999
 74
0
 49
0.0
 74
0
 49
-12.699999999999999
 74
0
  0
LTYPE
  5
39
100
AcDbSymbolTableRecord
100
AcDbLinetypeTableRecord
  2
ACAD_ISO05W100
 70
0
  3
ISO long-dash double-dot ____ .. ____ .. ____ . 
 72
65
 73
6
 40
33.0
 49
24.0
 74
0
 49
-3.0
 74
0
 49
0.0
 74
0
 49
-3.0
 74
0
 49
0.0
 74
0
 49
-3.0
 74
0
  0
LTYPE
  5
3A
100
AcDbSymbolTableRecord
100
AcDbLinetypeTableRecord
  2
DASHDOTX2
 70
0
  3
Dash dot (2x) ____  .  ____  .  ____  .  ___
 72
65
 73
4
 40
50.799999999999997
 49
25.399999999999999
 74
0
 49
-12.699999999999999
 74
0
 49
0.0
 74
0
 49
-12.699999999999999
 74
0
  0
LTYPE
  5
3B
100
AcDbSymbolTableRecord
100
AcDbLinetypeTableRecord
  2
HIDDENX2
 70
0
  3
Hidden (2x) ____ ____ ____ ____ ____ ____ ____ 
 72
65
 73
2
 40
19.049999999999997
 49
12.699999999999999
 74
0
 49
-6.3499999999999996
 74
0
  0
LTYPE
  5
3C
100
AcDbSymbolTableRecord
100
AcDbLinetypeTableRecord
  2
CENTERX2
 70
0
  3
Center (2x) ________  __  ________  __  _____
 72
65
 73
4
 40
101.60000000000001
 49
63.5
 74
0
 49
-12.699999999999999
 74
0
 49
12.699999999999999
 74
0
 49
-12.699999999999999
 74
0
  0
LTYPE
  5
3D
100
AcDbSymbolTableRecord
100
AcDbLinetypeTableRecord
  2
BORDER2
 70
0
  3
Border (.5x) __.__.__.__.__.__.__.__.__.__.__.
 72
65
 73
6
 40
22.224999999999998
 49
6.3499999999999996
 74
0
 49
-3.1749999999999998
 74
0
 49
6.3499999999999996
 74
0
 49
-3.1749999999999998
 74
0
 49
0.0
 74
0
 49
-3.1749999999999998
 74
0
  0
LTYPE
  5
3E
100
AcDbSymbolTableRecord
100
AcDbLinetypeTableRecord
  2
DASHDOT2
 70
0
  3
Dash dot (.5x) _._._._._._._._._._._._._._._.
 72
65
 73
4
 40
12.699999999999999
 49
6.3499999999999996
 74
0
 49
-3.1749999999999998
 74
0
 49
0.0
 74
0
 49
-3.1749999999999998
 74
0
  0
LTYPE
  5
3F
100
AcDbSymbolTableRecord
100
AcDbLinetypeTableRecord
  2
ACAD_ISO12W100
 70
0
  3
ISO dash double-dot __ . . __ . . __ . . __ . . 
 72
65
 73
6
 40
21.0
 49
12.0
 74
0
 49
-3.0
 74
0
 49
0.0
 74
0
 49
-3.0
 74
0
 49
0.0
 74
0
 49
-3.0
 74
0
  0
LTYPE
  5
40
100
AcDbSymbolTableRecord
100
AcDbLinetypeTableRecord
  2
ACAD_ISO07W100
 70
0
  3
ISO dot . . . . . . . . . . . . . . . . . . . . 
 72
65
 73
2
 40
3.0
 49
0.0
 74
0
 49
-3.0
 74
0
  0
LTYPE
  5
41
100
AcDbSymbolTableRecord
100
AcDbLinetypeTableRecord
  2
HIDDEN
 70
0
  3
Hidden __ __ __ __ __ __ __ __ __ __ __ __ __ __
 72
65
 73
2
 40
9.5249999999999986
 49
6.3499999999999996
 74
0
 49
-3.1749999999999998
 74
0
  0
LTYPE
  5
42
100
AcDbSymbolTableRecord
100
AcDbLinetypeTableRecord
  2
ACAD_ISO06W100
 70
0
  3
ISO long-dash triple-dot ____ ... ____ ... ____
 72
65
 73
8
 40
36.0
 49
24.0
 74
0
 49
-3.0
 74
0
 49
0.0
 74
0
 49
-3.0
 74
0
 49
0.0
 74
0
 49
-3.0
 74
0
 49
0.0
 74
0
 49
-3.0
 74
0
  0
LTYPE
  5
43
100
AcDbSymbolTableRecord
100
AcDbLinetypeTableRecord
  2
CENTER
 70
0
  3
Center ____ _ ____ _ ____ _ ____ _ ____ _ ____
 72
65
 73
4
 40
50.800000000000004
 49
31.75
 74
0
 49
-6.3499999999999996
 74
0
 49
6.3499999999999996
 74
0
 49
-6.3499999999999996
 74
0
  0
LTYPE
  5
44
100
AcDbSymbolTableRecord
100
AcDbLinetypeTableRecord
  2
DOTX2
 70
0
  3
Dot (2x) .  .  .  .  .  .  .  .  .  .  .  .  .  .
 72
65
 73
2
 40
12.699999999999999
 49
0.0
 74
0
 49
-12.699999999999999
 74
0
  0
LTYPE
  5
45
100
AcDbSymbolTableRecord
100
AcDbLinetypeTableRecord
  2
PHANTOM
 70
0
  3
Phantom ______  __  __  ______  __  __  ______ 
 72
65
 73
6
 40
63.500000000000007
 49
31.75
 74
0
 49
-6.3499999999999996
 74
0
 49
6.3499999999999996
 74
0
 49
-6.3499999999999996
 74
0
 49
6.3499999999999996
 74
0
 49
-6.3499999999999996
 74
0
  0
LTYPE
  5
46
100
AcDbSymbolTableRecord
100
AcDbLinetypeTableRecord
  2
ACAD_ISO08W100
 70
0
  3
ISO long-dash short-dash ____ __ ____ __ ____ _
 72
65
 73
4
 40
36.0
 49
24.0
 74
0
 49
-3.0
 74
0
 49
6.0
 74
0
 49
-3.0
 74
0
  0
LTYPE
  5
47
100
AcDbSymbolTableRecord
100
AcDbLinetypeTableRecord
  2
DASHEDX2
 70
0
  3
Dashed (2x) ____  ____  ____  ____  ____  ___
 72
65
 73
2
 40
38.099999999999994
 49
25.399999999999999
 74
0
 49
-12.699999999999999
 74
0
  0
LTYPE
  5
48
100
AcDbSymbolTableRecord
100
AcDbLinetypeTableRecord
  2
ACAD_ISO02W100
 70
0
  3
ISO dash __ __ __ __ __ __ __ __ __ __ __ __ __
 72
65
 73
2
 40
15.0
 49
12.0
 74
0
 49
-3.0
 74
0
  0
LTYPE
  5
49
100
AcDbSymbolTableRecord
100
AcDbLinetypeTableRecord
  2
PHANTOM2
 70
0
  3
Phantom (.5x) ___ _ _ ___ _ _ ___ _ _ ___ _ _
 72
65
 73
6
 40
31.750000000000004
 49
15.875
 74
0
 49
-3.1749999999999998
 74
0
 49
3.1749999999999998
 74
0
 49
-3.1749999999999998
 74
0
 49
3.1749999999999998
 74
0
 49
-3.1749999999999998
 74
0
  0
LTYPE
  5
4A
100
AcDbSymbolTableRecord
100
AcDbLinetypeTableRecord
  2
DASHED2
 70
0
  3
Dashed (.5x) _ _ _ _ _ _ _ _ _ _ _ _ _ _ _ _ _ 
 72
65
 73
2
 40
9.5249999999999986
 49
6.3499999999999996
 74
0
 49
-3.1749999999999998
 74
0
  0
LTYPE
  5
4B
100
AcDbSymbolTableRecord
100
AcDbLinetypeTableRecord
  2
ACAD_ISO09W100
 70
0
  3
ISO long-dash double-short-dash ____ __ __ ____
 72
65
 73
6
 40
45.0
 49
24.0
 74
0
 49
-3.0
 74
0
 49
6.0
 74
0
 49
-3.0
 74
0
 49
6.0
 74
0
 49
-3.0
 74
0
  0
LTYPE
  5
4C
100
AcDbSymbolTableRecord
100
AcDbLinetypeTableRecord
  2
ACAD_ISO13W100
 70
0
  3
ISO double-dash double-dot __ __ . . __ __ . . _
 72
65
 73
8
 40
36.0
 49
12.0
 74
0
 49
-3.0
 74
0
 49
12.0
 74
0
 49
-3.0
 74
0
 49
0.0
 74
0
 49
-3.0
 74
0
 49
0.0
 74
0
 49
-3.0
 74
0
  0
LTYPE
  5
4D
100
AcDbSymbolTableRecord
100
AcDbLinetypeTableRecord
  2
DOT2
 70
0
  3
Dot (.5x) ........................................
 72
65
 73
2
 40
3.1749999999999998
 49
0.0
 74
0
 49
-3.1749999999999998
 74
0
  0
LTYPE
  5
4E
100
AcDbSymbolTableRecord
100
AcDbLinetypeTableRecord
  2
DASHED
 70
0
  3
Dashed __ __ __ __ __ __ __ __ __ __ __ __ __ _
 72
65
 73
2
 40
19.049999999999997
 49
12.699999999999999
 74
0
 49
-6.3499999999999996
 74
0
  0
LTYPE
  5
4F
100
AcDbSymbolTableRecord
100
AcDbLinetypeTableRecord
  2
ACAD_ISO14W100
 70
0
  3
ISO dash triple-dot __ . . . __ . . . __ . . . _
 72
65
 73
8
 40
24.0
 49
12.0
 74
0
 49
-3.0
 74
0
 49
0.0
 74
0
 49
-3.0
 74
0
 49
0.0
 74
0
 49
-3.0
 74
0
 49
0.0
 74
0
 49
-3.0
 74
0
  0
LTYPE
  5
50
100
AcDbSymbolTableRecord
100
AcDbLinetypeTableRecord
  2
PHANTOMX2
 70
0
  3
Phantom (2x) ____________    ____    ____   _
 72
65
 73
6
 40
127.00000000000001
 49
63.5
 74
0
 49
-12.699999999999999
 74
0
 49
12.699999999999999
 74
0
 49
-12.699999999999999
 74
0
 49
12.699999999999999
 74
0
 49
-12.699999999999999
 74
0
  0
LTYPE
  5
14
100
AcDbSymbolTableRecord
100
AcDbLinetypeTableRecord
  2
BYBLOCK
 70
0
  3

 72
65
 73
0
 40
0.0
  0
LTYPE
  5
51
100
AcDbSymbolTableRecord
100
AcDbLinetypeTableRecord
  2
DIVIDEX2
 70
0
  3
Divide (2x) ________  .  .  ________  .  .  _
 72
65
 73
6
 40
63.5
 49
25.399999999999999
 74
0
 49
-12.699999999999999
 74
0
 49
0.0
 74
0
 49
-12.699999999999999
 74
0
 49
0.0
 74
0
 49
-12.699999999999999
 74
0
  0
LTYPE
  5
52
100
AcDbSymbolTableRecord
100
AcDbLinetypeTableRecord
  2
BORDER
 70
0
  3
Border __ __ . __ __ . __ __ . __ __ . __ __ .
 72
65
 73
6
 40
44.449999999999996
 49
12.699999999999999
 74
0
 49
-6.3499999999999996
 74
0
 49
12.699999999999999
 74
0
 49
-6.3499999999999996
 74
0
 49
0.0
 74
0
 49
-6.3499999999999996
 74
0
  0
LTYPE
  5
53
100
AcDbSymbolTableRecord
100
AcDbLinetypeTableRecord
  2
DIVIDE2
 70
0
  3
Divide (.5x) __..__..__..__..__..__..__..__.._
 72
65
 73
6
 40
15.875
 49
6.3499999999999996
 74
0
 49
-3.1749999999999998
 74
0
 49
0.0
 74
0
 49
-3.1749999999999998
 74
0
 49
0.0
 74
0
 49
-3.1749999999999998
 74
0
  0
LTYPE
  5
54
100
AcDbSymbolTableRecord
100
AcDbLinetypeTableRecord
  2
DOT
 70
0
  3
Dot . . . . . . . . . . . . . . . . . . . . . . . .
 72
65
 73
2
 40
6.3499999999999996
 49
0.0
 74
0
 49
-6.3499999999999996
 74
0
  0
LTYPE
  5
55
100
AcDbSymbolTableRecord
100
AcDbLinetypeTableRecord
  2
DASHDOT
 70
0
  3
Dash dot __ . __ . __ . __ . __ . __ . __ . __
 72
65
 73
4
 40
25.399999999999999
 49
12.699999999999999
 74
0
 49
-6.3499999999999996
 74
0
 49
0.0
 74
0
 49
-6.3499999999999996
 74
0
  0
LTYPE
  5
56
100
AcDbSymbolTableRecord
100
AcDbLinetypeTableRecord
  2
ACAD_ISO03W100
 70
0
  3
ISO dash space __    __    __    __    __    __
 72
65
 73
2
 40
30.0
 49
12.0
 74
0
 49
-18.0
 74
0
  0
LTYPE
  5
15
100
AcDbSymbolTableRecord
100
AcDbLinetypeTableRecord
  2
ByLayer
 70
0
  3

 72
65
 73
0
 40
0.0
  0
ENDTAB
  0
TABLE
  2
LAYER
  5
2
100
AcDbSymbolTable
 70
3
  0
LAYER
  5
57
100
AcDbSymbolTableRecord
100
AcDbLayerTableRecord
  2
drill
 70
0
 62
7
420
0
  6
Continuous
370
5
390
F
  0
LAYER
  5
58
100
AcDbSymbolTableRecord
100
AcDbLayerTableRecord
  2
ref
 70
1
 62
-4
420
65535
  6
ACAD_ISO07W100
370
5
390
F
  0
LAYER
  5
10
100
AcDbSymbolTableRecord
100
AcDbLayerTableRecord
  2
0
 70
0
 62
7
420
16777215
  6
Continuous
370
25
390
F
  0
ENDTAB
  0
TABLE
  2
STYLE
  5
3
100
AcDbSymbolTable
 70
1
  0
STYLE
  5
59
100
AcDbSymbolTableRecord
100
AcDbTextStyleTableRecord
  2
Standard
 70
0
 40
0.0
 41
1.0
 50
0.0
 71
0
 42
2.5
  3

  4

1001
ACAD
1000
txt
1071
0
  0
ENDTAB
  0
TABLE
  2
VIEW
  5
6
100
AcDbSymbolTable
 70
0
  0
ENDTAB
  0
TABLE
  2
UCS
  5
7
100
AcDbSymbolTable
 70
0
  0
ENDTAB
  0
TABLE
  2
APPID
  5
9
100
AcDbSymbolTable
 70
1
  0
APPID
  5
12
100
AcDbSymbolTableRecord
100
AcDbRegAppTableRecord
  2
ACAD
 70
0
  0
APPID
  5
5A
100
AcDbSymbolTableRecord
100
AcDbRegAppTableRecord
  2
QCAD
 70
0
  0
ENDTAB
  0
TABLE
  2
DIMSTYLE
  5
A
100
AcDbSymbolTable
 70
1
100
AcDbDimStyleTable
 71
0
  0
DIMSTYLE
105
27
100
AcDbSymbolTableRecord
100
AcDbDimStyleTableRecord
  2
Standard
 41
2.5
 42
0.625
 43
3.75
 44
1.25
 70
0
 73
0
 74
0
 77
1
 78
8
140
2.5
141
2.5
143
0.03937007874016
147
0.625
171
3
172
1
271
2
272
2
274
3
278
44
283
0
284
8
340
59
  0
ENDTAB
  0
TABLE
  2
BLOCK_RECORD
  5
1
100
AcDbSymbolTable
 70
1
  0
BLOCK_RECORD
  5
1F
100
AcDbSymbolTableRecord
100
AcDbBlockTableRecord
  2
*Model_Space
340
22
  0
BLOCK_RECORD
  5
1B
100
AcDbSymbolTableRecord
100
AcDbBlockTableRecord
  2
*Paper_Space
340
1E
  0
BLOCK_RECORD
  5
23
100
AcDbSymbolTableRecord
100
AcDbBlockTableRecord
  2
*Paper_Space0
340
26
  0
BLOCK_RECORD
  5
5B
100
AcDbSymbolTableRecord
100
AcDbBlockTableRecord
  2
block 1
340
0
  0
BLOCK_RECORD
  5
5C
100
AcDbSymbolTableRecord
100
AcDbBlockTableRecord
  2
block 2
340
0
  0
BLOCK_RECORD
  5
5D
100
AcDbSymbolTableRecord
100
AcDbBlockTableRecord
  2
block 3
340
0
  0
BLOCK_RECORD
  5
5E
100
AcDbSymbolTableRecord
100
AcDbBlockTableRecord
  2
block 4
340
0
  0
BLOCK_RECORD
  5
5F
100
AcDbSymbolTableRecord
100
AcDbBlockTableRecord
  2
Blok 1
340
0
  0
BLOCK_RECORD
  5
60
100
AcDbSymbolTableRecord
100
AcDbBlockTableRecord
  2
block 5
340
0
  0
BLOCK_RECORD
  5
61
100
AcDbSymbolTableRecord
100
AcDbBlockTableRecord
  2
block 6
340
0
  0
BLOCK_RECORD
  5
62
100
AcDbSymbolTableRecord
100
AcDbBlockTableRecord
  2
block 7
340
0
  0
BLOCK_RECORD
  5
63
100
AcDbSymbolTableRecord
100
AcDbBlockTableRecord
  2
18640
340
0
  0
ENDTAB
  0
ENDSEC
  0
SECTION
  2
BLOCKS
  0
BLOCK
  5
20
100
AcDbEntity
  8
0
100
AcDbBlockBegin
  2
*Model_Space
 70
0
 10
0.0
 20
0.0
 30
0.0
  3
*Model_Space
  1

  0
ENDBLK
  5
21
100
AcDbEntity
  8
0
100
AcDbBlockEnd
  0
BLOCK
  5
1C
100
AcDbEntity
 67
1
  8
0
100
AcDbBlockBegin
  2
*Paper_Space
 70
0
 10
0.0
 20
0.0
 30
0.0
  3
*Paper_Space
  1

  0
ENDBLK
  5
1D
100
AcDbEntity
 67
1
  8
0
100
AcDbBlockEnd
  0
BLOCK
  5
24
100
AcDbEntity
  8
0
100
AcDbBlockBegin
  2
*Paper_Space0
 70
0
 10
0.0
 20
0.0
 30
0.0
  3
*Paper_Space0
  1

  0
ENDBLK
  5
25
100
AcDbEntity
  8
0
100
AcDbBlockEnd
  0
BLOCK
  5
64
100
AcDbEntity
  8
0
100
AcDbBlockBegin
  2
block 1
 70
0
 10
0.0
 20
0.0
 30
0.0
  3
block 1
  1

  0
LINE
  5
65
100
AcDbEntity
100
AcDbLine
  8
0
 62
256
370
-1
 48
1.0
  6
ByLayer
 10
-10.0
 20
0.0
 30
0.0
 11
0.0
 21
0.0
 31
0.0
  0
CIRCLE
  5
66
100
AcDbEntity
100
AcDbCircle
  8
drill
 62
256
370
-1
 48
1.0
  6
ByLayer
 10
-5.0
 20
-5.0
 30
0.0
 40
1.5
  0
CIRCLE
  5
67
100
AcDbEntity
100
AcDbCircle
  8
drill
 62
256
370
-1
 48
1.0
  6
ByLayer
 10
-5.0
 20
-11.0
 30
0.0
 40
1.5
  0
LINE
  5
68
100
AcDbEntity
100
AcDbLine
  8
0
 62
256
370
-1
 48
1.0
  6
ByLayer
 10
0.0
 20
-15.5
 30
0.0
 11
-10.0
 21
-15.5
 31
0.0
  0
LINE
  5
69
100
AcDbEntity
100
AcDbLine
  8
0
 62
256
370
-1
 48
1.0
  6
ByLayer
 10
-10.0
 20
0.0
 30
0.0
 11
-10.0
 21
-15.5
 31
0.0
  0
LINE
  5
6A
100
AcDbEntity
100
AcDbLine
  8
0
 62
256
370
-1
 48
1.0
  6
ByLayer
 10
0.0
 20
0.0
 30
0.0
 11
0.0
 21
-15.5
 31
0.0
  0
LINE
  5
6B
100
AcDbEntity
100
AcDbLine
  8
0
 62
256
370
-1
 48
1.0
  6
ByLayer
 10
-5.0
 20
-11.0
 30
0.0
 11
19.0
 21
13.0
 31
0.0
  0
LINE
  5
6C
100
AcDbEntity
100
AcDbLine
  8
0
 62
256
370
-1
 48
1.0
  6
ByLayer
 10
-5.0
 20
-5.0
 30
0.0
 11
16.0
 21
16.0
 31
0.0
  0
LINE
  5
6D
100
AcDbEntity
100
AcDbLine
  8
0
 62
256
370
-1
 48
1.0
  6
ByLayer
 10
0.0
 20
0.0
 30
0.0
 11
3.0
 21
-3.0
 31
0.0
  0
LINE
  5
6E
100
AcDbEntity
100
AcDbLine
  8
0
 62
256
370
-1
 48
1.0
  6
ByLayer
 10
16.0
 20
16.0
 30
0.0
 11
19.0
 21
13.0
 31
0.0
  0
LINE
  5
6F
100
AcDbEntity
100
AcDbLine
  8
ref
 62
256
370
-1
 48
1.0
  6
ByLayer
 10
0.0
 20
0.0
 30
0.0
 11
-20.0
 21
10.0
 31
0.0
  0
LINE
  5
70
100
AcDbEntity
100
AcDbLine
  8
ref
 62
256
370
-1
 48
1.0
  6
ByLayer
 10
3.0
 20
-3.0
 30
0.0
 11
13.0
 21
-23.0
 31
0.0
  0
LINE
  5
71
100
AcDbEntity
100
AcDbLine
  8
ref
 62
256
370
-1
 48
1.0
  6
ByLayer
 10
19.0
 20
13.0
 30
0.0
 11
29.0
 21
-7.0
 31
0.0
  0
LINE
  5
72
100
AcDbEntity
100
AcDbLine
  8
ref
 62
256
370
-1
 48
1.0
  6
ByLayer
 10
16.0
 20
16.0
 30
0.0
 11
-4.0
 21
26.0
 31
0.0
  0
LINE
  5
73
100
AcDbEntity
100
AcDbLine
  8
0
 62
256
370
-1
 48
1.0
  6
ByLayer
 10
0.0
 20
0.0
 30
0.0
 11
-4.0
 21
2.0
 31
0.0
  0
LINE
  5
74
100
AcDbEntity
100
AcDbLine
  8
0
 62
256
370
-1
 48
1.0
  6
ByLayer
 10
16.0
 20
16.0
 30
0.0
 11
12.0
 21
18.0
 31
0.0
  0
LINE
  5
75
100
AcDbEntity
100
AcDbLine
  8
0
 62
256
370
-1
 48
1.0
  6
ByLayer
 10
12.0
 20
18.0
 30
0.0
 11
-4.0
 21
2.0
 31
0.0
  0
LINE
  5
76
100
AcDbEntity
100
AcDbLine
  8
0
 62
256
370
-1
 48
1.0
  6
ByLayer
 10
3.0
 20
-3.0
 30
0.0
 11
5.0
 21
-7.0
 31
0.0
  0
LINE
  5
77
100
AcDbEntity
100
AcDbLine
  8
0
 62
256
370
-1
 48
1.0
  6
ByLayer
 10
19.0
 20
13.0
 30
0.0
 11
21.0
 21
9.0
 31
0.0
  0
LINE
  5
78
100
AcDbEntity
100
AcDbLine
  8
0
 62
256
370
-1
 48
1.0
  6
ByLayer
 10
21.0
 20
9.0
 30
0.0
 11
5.0
 21
-7.0
 31
0.0
  0
LINE
  5
79
100
AcDbEntity
100
AcDbLine
  8
0
 62
256
370
-1
 48
1.0
  6
ByLayer
 10
16.0
 20
16.0
 30
0.0
 11
18.0
 21
18.0
 31
0.0
  0
LINE
  5
7A
100
AcDbEntity
100
AcDbLine
  8
0
 62
256
370
-1
 48
1.0
  6
ByLayer
 10
18.0
 20
18.0
 30
0.0
 11
21.0
 21
15.0
 31
0.0
  0
LINE
  5
7B
100
AcDbEntity
100
AcDbLine
  8
0
 62
256
370
-1
 48
1.0
  6
ByLayer
 10
21.0
 20
15.0
 30
0.0
 11
19.0
 21
13.0
 31
0.0
  0
LINE
  5
7C
100
AcDbEntity
100
AcDbLine
  8
0
 62
256
370
-1
 48
1.0
  6
ByLayer
 10
18.0
 20
18.0
 30
0.0
 11
15.0
 21
21.0
 31
0.0
  0
LINE
  5
7D
100
AcDbEntity
100
AcDbLine
  8
0
 62
256
370
-1
 48
1.0
  6
ByLayer
 10
21.0
 20
15.0
 30
0.0
 11
24.0
 21
12.0
 31
0.0
  0
LINE
  5
7E
100
AcDbEntity
100
AcDbLine
  8
0
 62
256
370
-1
 48
1.0
  6
ByLayer
 10
27.0
 20
24.0
 30
0.0
 11
15.0
 21
21.0
 31
0.0
  0
LINE
  5
7F
100
AcDbEntity
100
AcDbLine
  8
0
 62
256
370
-1
 48
1.0
  6
ByLayer
 10
27.0
 20
24.0
 30
0.0
 11
24.0
 21
12.0
 31
0.0
  0
LINE
  5
80
100
AcDbEntity
100
AcDbLine
  8
0
 62
256
370
-1
 48
1.0
  6
ByLayer
 10
21.0
 20
9.0
 30
0.0
 11
23.0
 21
5.0
 31
0.0
  0
LINE
  5
81
100
AcDbEntity
100
AcDbLine
  8
0
 62
256
370
-1
 48
1.0
  6
ByLayer
 10
5.0
 20
-7.0
 30
0.0
 11
7.0
 21
-11.0
 31
0.0
  0
LINE
  5
82
100
AcDbEntity
100
AcDbLine
  8
0
 62
256
370
-1
 48
1.0
  6
ByLayer
 10
7.0
 20
-11.0
 30
0.0
 11
23.0
 21
5.0
 31
0.0
  0
LINE
  5
83
100
AcDbEntity
100
AcDbLine
  8
0
 62
256
370
-1
 48
1.0
  6
ByLayer
 10
-9.9999999999999716
 20
-55.499999999999993
 30
0.0
 11
0.0000000000000284
 21
-55.499999999999986
 31
0.0
  0
CIRCLE
  5
84
100
AcDbEntity
100
AcDbCircle
  8
drill
 62
256
370
-1
 48
1.0
  6
ByLayer
 10
-4.9999999999999716
 20
-50.499999999999993
 30
0.0
 40
1.5
  0
CIRCLE
  5
85
100
AcDbEntity
100
AcDbCircle
  8
drill
 62
256
370
-1
 48
1.0
  6
ByLayer
 10
-4.9999999999999716
 20
-44.499999999999993
 30
0.0
 40
1.5
  0
LINE
  5
86
100
AcDbEntity
100
AcDbLine
  8
0
 62
256
370
-1
 48
1.0
  6
ByLayer
 10
0.0000000000000284
 20
-39.999999999999993
 30
0.0
 11
-10.0
 21
-40.0
 31
0.0
  0
LINE
  5
87
100
AcDbEntity
100
AcDbLine
  8
0
 62
256
370
-1
 48
1.0
  6
ByLayer
 10
-9.9999999999999716
 20
-55.499999999999993
 30
0.0
 11
-10.0
 21
-40.0
 31
0.0
  0
LINE
  5
88
100
AcDbEntity
100
AcDbLine
  8
0
 62
256
370
-1
 48
1.0
  6
ByLayer
 10
0.0000000000000284
 20
-55.499999999999986
 30
0.0
 11
0.0000000000000284
 21
-39.999999999999993
 31
0.0
  0
LINE
  5
89
100
AcDbEntity
100
AcDbLine
  8
0
 62
256
370
-1
 48
1.0
  6
ByLayer
 10
-4.9999999999999716
 20
-44.499999999999993
 30
0.0
 11
19.000000000000028
 21
-68.499999999999986
 31
0.0
  0
LINE
  5
8A
100
AcDbEntity
100
AcDbLine
  8
0
 62
256
370
-1
 48
1.0
  6
ByLayer
 10
-4.9999999999999716
 20
-50.499999999999993
 30
0.0
 11
16.000000000000028
 21
-71.499999999999986
 31
0.0
  0
LINE
  5
8B
100
AcDbEntity
100
AcDbLine
  8
0
 62
256
370
-1
 48
1.0
  6
ByLayer
 10
0.0000000000000284
 20
-55.499999999999986
 30
0.0
 11
3.0000000000000284
 21
-52.499999999999986
 31
0.0
  0
LINE
  5
8C
100
AcDbEntity
100
AcDbLine
  8
0
 62
256
370
-1
 48
1.0
  6
ByLayer
 10
16.000000000000028
 20
-71.499999999999986
 30
0.0
 11
19.000000000000028
 21
-68.499999999999986
 31
0.0
  0
LINE
  5
8D
100
AcDbEntity
100
AcDbLine
  8
ref
 62
256
370
-1
 48
1.0
  6
ByLayer
 10
0.0000000000000284
 20
-55.499999999999986
 30
0.0
 11
-19.999999999999972
 21
-65.499999999999986
 31
0.0
  0
LINE
  5
8E
100
AcDbEntity
100
AcDbLine
  8
ref
 62
256
370
-1
 48
1.0
  6
ByLayer
 10
3.0000000000000284
 20
-52.499999999999986
 30
0.0
 11
13.000000000000028
 21
-32.499999999999986
 31
0.0
  0
LINE
  5
8F
100
AcDbEntity
100
AcDbLine
  8
ref
 62
256
370
-1
 48
1.0
  6
ByLayer
 10
19.000000000000028
 20
-68.499999999999986
 30
0.0
 11
29.000000000000028
 21
-48.499999999999972
 31
0.0
  0
LINE
  5
90
100
AcDbEntity
100
AcDbLine
  8
ref
 62
256
370
-1
 48
1.0
  6
ByLayer
 10
16.000000000000028
 20
-71.499999999999986
 30
0.0
 11
-3.9999999999999716
 21
-81.499999999999986
 31
0.0
  0
LINE
  5
91
100
AcDbEntity
100
AcDbLine
  8
0
 62
256
370
-1
 48
1.0
  6
ByLayer
 10
0.0000000000000284
 20
-55.499999999999986
 30
0.0
 11
-3.9999999999999716
 21
-57.500000000000014
 31
0.0
  0
LINE
  5
92
100
AcDbEntity
100
AcDbLine
  8
0
 62
256
370
-1
 48
1.0
  6
ByLayer
 10
16.000000000000028
 20
-71.499999999999986
 30
0.0
 11
12.000000000000028
 21
-73.499999999999986
 31
0.0
  0
LINE
  5
93
100
AcDbEntity
100
AcDbLine
  8
0
 62
256
370
-1
 48
1.0
  6
ByLayer
 10
12.000000000000028
 20
-73.499999999999986
 30
0.0
 11
-3.9999999999999716
 21
-57.500000000000014
 31
0.0
  0
LINE
  5
94
100
AcDbEntity
100
AcDbLine
  8
0
 62
256
370
-1
 48
1.0
  6
ByLayer
 10
3.0000000000000284
 20
-52.499999999999986
 30
0.0
 11
5.0000000000000284
 21
-48.499999999999986
 31
0.0
  0
LINE
  5
95
100
AcDbEntity
100
AcDbLine
  8
0
 62
256
370
-1
 48
1.0
  6
ByLayer
 10
19.000000000000028
 20
-68.499999999999986
 30
0.0
 11
21.000000000000028
 21
-64.5
 31
0.0
  0
LINE
  5
96
100
AcDbEntity
100
AcDbLine
  8
0
 62
256
370
-1
 48
1.0
  6
ByLayer
 10
21.000000000000028
 20
-64.5
 30
0.0
 11
5.0000000000000284
 21
-48.499999999999986
 31
0.0
  0
LINE
  5
97
100
AcDbEntity
100
AcDbLine
  8
0
 62
256
370
-1
 48
1.0
  6
ByLayer
 10
16.000000000000028
 20
-71.499999999999986
 30
0.0
 11
18.000000000000028
 21
-73.499999999999986
 31
0.0
  0
LINE
  5
98
100
AcDbEntity
100
AcDbLine
  8
0
 62
256
370
-1
 48
1.0
  6
ByLayer
 10
18.000000000000028
 20
-73.499999999999986
 30
0.0
 11
21.000000000000028
 21
-70.499999999999986
 31
0.0
  0
LINE
  5
99
100
AcDbEntity
100
AcDbLine
  8
0
 62
256
370
-1
 48
1.0
  6
ByLayer
 10
21.000000000000028
 20
-70.499999999999986
 30
0.0
 11
19.000000000000028
 21
-68.499999999999986
 31
0.0
  0
LINE
  5
9A
100
AcDbEntity
100
AcDbLine
  8
0
 62
256
370
-1
 48
1.0
  6
ByLayer
 10
18.000000000000028
 20
-73.499999999999986
 30
0.0
 11
15.000000000000028
 21
-76.499999999999986
 31
0.0
  0
LINE
  5
9B
100
AcDbEntity
100
AcDbLine
  8
0
 62
256
370
-1
 48
1.0
  6
ByLayer
 10
21.000000000000028
 20
-70.499999999999986
 30
0.0
 11
24.000000000000028
 21
-67.5
 31
0.0
  0
LINE
  5
9C
100
AcDbEntity
100
AcDbLine
  8
0
 62
256
370
-1
 48
1.0
  6
ByLayer
 10
27.000000000000028
 20
-79.499999999999986
 30
0.0
 11
15.000000000000028
 21
-76.499999999999986
 31
0.0
  0
LINE
  5
9D
100
AcDbEntity
100
AcDbLine
  8
0
 62
256
370
-1
 48
1.0
  6
ByLayer
 10
27.000000000000028
 20
-79.499999999999986
 30
0.0
 11
24.000000000000028
 21
-67.5
 31
0.0
  0
LINE
  5
9E
100
AcDbEntity
100
AcDbLine
  8
0
 62
256
370
-1
 48
1.0
  6
ByLayer
 10
21.000000000000028
 20
-64.5
 30
0.0
 11
23.000000000000028
 21
-60.5
 31
0.0
  0
LINE
  5
9F
100
AcDbEntity
100
AcDbLine
  8
0
 62
256
370
-1
 48
1.0
  6
ByLayer
 10
5.0000000000000284
 20
-48.499999999999986
 30
0.0
 11
7.0000000000000284
 21
-44.499999999999986
 31
0.0
  0
LINE
  5
A0
100
AcDbEntity
100
AcDbLine
  8
0
 62
256
370
-1
 48
1.0
  6
ByLayer
 10
7.0000000000000284
 20
-44.499999999999986
 30
0.0
 11
23.000000000000028
 21
-60.5
 31
0.0
  0
LINE
  5
A1
100
AcDbEntity
100
AcDbLine
  8
0
 62
256
370
-1
 48
1.0
  6
ByLayer
 10
80.0
 20
0.0
 30
0.0
 11
70.0
 21
0.0
 31
0.0
  0
CIRCLE
  5
A2
100
AcDbEntity
100
AcDbCircle
  8
drill
 62
256
370
-1
 48
1.0
  6
ByLayer
 10
75.0
 20
-5.0
 30
0.0
 40
1.5
  0
CIRCLE
  5
A3
100
AcDbEntity
100
AcDbCircle
  8
drill
 62
256
370
-1
 48
1.0
  6
ByLayer
 10
75.0
 20
-11.0
 30
0.0
 40
1.5
  0
LINE
  5
A4
100
AcDbEntity
100
AcDbLine
  8
0
 62
256
370
-1
 48
1.0
  6
ByLayer
 10
70.0
 20
-15.5
 30
0.0
 11
80.0
 21
-15.5
 31
0.0
  0
LINE
  5
A5
100
AcDbEntity
100
AcDbLine
  8
0
 62
256
370
-1
 48
1.0
  6
ByLayer
 10
80.0
 20
0.0
 30
0.0
 11
80.0
 21
-15.5
 31
0.0
  0
LINE
  5
A6
100
AcDbEntity
100
AcDbLine
  8
0
 62
256
370
-1
 48
1.0
  6
ByLayer
 10
70.0
 20
0.0
 30
0.0
 11
70.0
 21
-15.5
 31
0.0
  0
LINE
  5
A7
100
AcDbEntity
100
AcDbLine
  8
0
 62
256
370
-1
 48
1.0
  6
ByLayer
 10
75.0
 20
-11.0
 30
0.0
 11
51.0
 21
13.0
 31
0.0
  0
LINE
  5
A8
100
AcDbEntity
100
AcDbLine
  8
0
 62
256
370
-1
 48
1.0
  6
ByLayer
 10
75.0
 20
-5.0
 30
0.0
 11
54.0
 21
16.0
 31
0.0
  0
LINE
  5
A9
100
AcDbEntity
100
AcDbLine
  8
0
 62
256
370
-1
 48
1.0
  6
ByLayer
 10
70.0
 20
0.0
 30
0.0
 11
67.0
 21
-3.0
 31
0.0
  0
LINE
  5
AA
100
AcDbEntity
100
AcDbLine
  8
0
 62
256
370
-1
 48
1.0
  6
ByLayer
 10
54.0
 20
16.0
 30
0.0
 11
51.0
 21
13.0
 31
0.0
  0
LINE
  5
AB
100
AcDbEntity
100
AcDbLine
  8
ref
 62
256
370
-1
 48
1.0
  6
ByLayer
 10
70.0
 20
0.0
 30
0.0
 11
90.0
 21
10.0
 31
0.0
  0
LINE
  5
AC
100
AcDbEntity
100
AcDbLine
  8
ref
 62
256
370
-1
 48
1.0
  6
ByLayer
 10
67.0
 20
-3.0
 30
0.0
 11
57.0
 21
-23.0
 31
0.0
  0
LINE
  5
AD
100
AcDbEntity
100
AcDbLine
  8
ref
 62
256
370
-1
 48
1.0
  6
ByLayer
 10
51.0
 20
13.0
 30
0.0
 11
41.0
 21
-7.0
 31
0.0
  0
LINE
  5
AE
100
AcDbEntity
100
AcDbLine
  8
ref
 62
256
370
-1
 48
1.0
  6
ByLayer
 10
54.0
 20
16.0
 30
0.0
 11
74.0
 21
26.0
 31
0.0
  0
LINE
  5
AF
100
AcDbEntity
100
AcDbLine
  8
0
 62
256
370
-1
 48
1.0
  6
ByLayer
 10
70.0
 20
0.0
 30
0.0
 11
74.0
 21
2.0
 31
0.0
  0
LINE
  5
B0
100
AcDbEntity
100
AcDbLine
  8
0
 62
256
370
-1
 48
1.0
  6
ByLayer
 10
54.0
 20
16.0
 30
0.0
 11
58.0
 21
18.0
 31
0.0
  0
LINE
  5
B1
100
AcDbEntity
100
AcDbLine
  8
0
 62
256
370
-1
 48
1.0
  6
ByLayer
 10
58.0
 20
18.0
 30
0.0
 11
74.0
 21
2.0
 31
0.0
  0
LINE
  5
B2
100
AcDbEntity
100
AcDbLine
  8
0
 62
256
370
-1
 48
1.0
  6
ByLayer
 10
67.0
 20
-3.0
 30
0.0
 11
65.0
 21
-7.0
 31
0.0
  0
LINE
  5
B3
100
AcDbEntity
100
AcDbLine
  8
0
 62
256
370
-1
 48
1.0
  6
ByLayer
 10
51.0
 20
13.0
 30
0.0
 11
49.0
 21
9.0
 31
0.0
  0
LINE
  5
B4
100
AcDbEntity
100
AcDbLine
  8
0
 62
256
370
-1
 48
1.0
  6
ByLayer
 10
49.0
 20
9.0
 30
0.0
 11
65.0
 21
-7.0
 31
0.0
  0
LINE
  5
B5
100
AcDbEntity
100
AcDbLine
  8
0
 62
256
370
-1
 48
1.0
  6
ByLayer
 10
54.0
 20
16.0
 30
0.0
 11
52.0
 21
18.0
 31
0.0
  0
LINE
  5
B6
100
AcDbEntity
100
AcDbLine
  8
0
 62
256
370
-1
 48
1.0
  6
ByLayer
 10
52.0
 20
18.0
 30
0.0
 11
49.0
 21
15.0
 31
0.0
  0
LINE
  5
B7
100
AcDbEntity
100
AcDbLine
  8
0
 62
256
370
-1
 48
1.0
  6
ByLayer
 10
49.0
 20
15.0
 30
0.0
 11
51.0
 21
13.0
 31
0.0
  0
LINE
  5
B8
100
AcDbEntity
100
AcDbLine
  8
0
 62
256
370
-1
 48
1.0
  6
ByLayer
 10
52.0
 20
18.0
 30
0.0
 11
55.0
 21
21.0
 31
0.0
  0
LINE
  5
B9
100
AcDbEntity
100
AcDbLine
  8
0
 62
256
370
-1
 48
1.0
  6
ByLayer
 10
49.0
 20
15.0
 30
0.0
 11
46.000000000000028
 21
12.0
 31
0.0
  0
LINE
  5
BA
100
AcDbEntity
100
AcDbLine
  8
0
 62
256
370
-1
 48
1.0
  6
ByLayer
 10
43.0
 20
24.0
 30
0.0
 11
55.0
 21
21.0
 31
0.0
  0
LINE
  5
BB
100
AcDbEntity
100
AcDbLine
  8
0
 62
256
370
-1
 48
1.0
  6
ByLayer
 10
43.0
 20
24.0
 30
0.0
 11
46.000000000000028
 21
12.0
 31
0.0
  0
LINE
  5
BC
100
AcDbEntity
100
AcDbLine
  8
0
 62
256
370
-1
 48
1.0
  6
ByLayer
 10
49.0
 20
9.0
 30
0.0
 11
47.0
 21
5.0
 31
0.0
  0
LINE
  5
BD
100
AcDbEntity
100
AcDbLine
  8
0
 62
256
370
-1
 48
1.0
  6
ByLayer
 10
65.0
 20
-7.0
 30
0.0
 11
63.0
 21
-11.0
 31
0.0
  0
LINE
  5
BE
100
AcDbEntity
100
AcDbLine
  8
0
 62
256
370
-1
 48
1.0
  6
ByLayer
 10
63.0
 20
-11.0
 30
0.0
 11
47.0
 21
5.0
 31
0.0
  0
LINE
  5
BF
100
AcDbEntity
100
AcDbLine
  8
0
 62
256
370
-1
 48
1.0
  6
ByLayer
 10
79.999999999999972
 20
-55.5
 30
0.0
 11
69.999999999999972
 21
-55.499999999999986
 31
0.0
  0
CIRCLE
  5
C0
100
AcDbEntity
100
AcDbCircle
  8
drill
 62
256
370
-1
 48
1.0
  6
ByLayer
 10
74.999999999999972
 20
-50.499999999999993
 30
0.0
 40
1.5
  0
CIRCLE
  5
C1
100
AcDbEntity
100
AcDbCircle
  8
drill
 62
256
370
-1
 48
1.0
  6
ByLayer
 10
74.999999999999972
 20
-44.499999999999986
 30
0.0
 40
1.5
  0
LINE
  5
C2
100
AcDbEntity
100
AcDbLine
  8
0
 62
256
370
-1
 48
1.0
  6
ByLayer
 10
69.999999999999972
 20
-39.999999999999993
 30
0.0
 11
80.0
 21
-40.0
 31
0.0
  0
LINE
  5
C3
100
AcDbEntity
100
AcDbLine
  8
0
 62
256
370
-1
 48
1.0
  6
ByLayer
 10
79.999999999999972
 20
-55.5
 30
0.0
 11
80.0
 21
-40.0
 31
0.0
  0
LINE
  5
C4
100
AcDbEntity
100
AcDbLine
  8
0
 62
256
370
-1
 48
1.0
  6
ByLayer
 10
69.999999999999972
 20
-55.499999999999986
 30
0.0
 11
69.999999999999972
 21
-39.999999999999993
 31
0.0
  0
LINE
  5
C5
100
AcDbEntity
100
AcDbLine
  8
0
 62
256
370
-1
 48
1.0
  6
ByLayer
 10
74.999999999999972
 20
-44.499999999999986
 30
0.0
 11
51.0
 21
-68.5
 31
0.0
  0
LINE
  5
C6
100
AcDbEntity
100
AcDbLine
  8
0
 62
256
370
-1
 48
1.0
  6
ByLayer
 10
74.999999999999972
 20
-50.499999999999993
 30
0.0
 11
53.999999999999972
 21
-71.499999999999986
 31
0.0
  0
LINE
  5
C7
100
AcDbEntity
100
AcDbLine
  8
0
 62
256
370
-1
 48
1.0
  6
ByLayer
 10
69.999999999999972
 20
-55.499999999999986
 30
0.0
 11
66.999999999999972
 21
-52.499999999999986
 31
0.0
  0
LINE
  5
C8
100
AcDbEntity
100
AcDbLine
  8
0
 62
256
370
-1
 48
1.0
  6
ByLayer
 10
53.999999999999972
 20
-71.499999999999986
 30
0.0
 11
51.0
 21
-68.5
 31
0.0
  0
LINE
  5
C9
100
AcDbEntity
100
AcDbLine
  8
ref
 62
256
370
-1
 48
1.0
  6
ByLayer
 10
69.999999999999972
 20
-55.499999999999986
 30
0.0
 11
90.0
 21
-65.499999999999986
 31
0.0
  0
LINE
  5
CA
100
AcDbEntity
100
AcDbLine
  8
ref
 62
256
370
-1
 48
1.0
  6
ByLayer
 10
66.999999999999972
 20
-52.499999999999986
 30
0.0
 11
56.999999999999972
 21
-32.499999999999993
 31
0.0
  0
LINE
  5
CB
100
AcDbEntity
100
AcDbLine
  8
ref
 62
256
370
-1
 48
1.0
  6
ByLayer
 10
51.0
 20
-68.5
 30
0.0
 11
40.999999999999972
 21
-48.499999999999986
 31
0.0
  0
LINE
  5
CC
100
AcDbEntity
100
AcDbLine
  8
ref
 62
256
370
-1
 48
1.0
  6
ByLayer
 10
53.999999999999972
 20
-71.499999999999986
 30
0.0
 11
73.999999999999972
 21
-81.5
 31
0.0
  0
LINE
  5
CD
100
AcDbEntity
100
AcDbLine
  8
0
 62
256
370
-1
 48
1.0
  6
ByLayer
 10
69.999999999999972
 20
-55.499999999999986
 30
0.0
 11
73.999999999999972
 21
-57.500000000000007
 31
0.0
  0
LINE
  5
CE
100
AcDbEntity
100
AcDbLine
  8
0
 62
256
370
-1
 48
1.0
  6
ByLayer
 10
53.999999999999972
 20
-71.499999999999986
 30
0.0
 11
57.999999999999972
 21
-73.499999999999986
 31
0.0
  0
LINE
  5
CF
100
AcDbEntity
100
AcDbLine
  8
0
 62
256
370
-1
 48
1.0
  6
ByLayer
 10
57.999999999999972
 20
-73.499999999999986
 30
0.0
 11
73.999999999999972
 21
-57.500000000000007
 31
0.0
  0
LINE
  5
D0
100
AcDbEntity
100
AcDbLine
  8
0
 62
256
370
-1
 48
1.0
  6
ByLayer
 10
66.999999999999972
 20
-52.499999999999986
 30
0.0
 11
64.999999999999972
 21
-48.499999999999986
 31
0.0
  0
LINE
  5
D1
100
AcDbEntity
100
AcDbLine
  8
0
 62
256
370
-1
 48
1.0
  6
ByLayer
 10
51.0
 20
-68.5
 30
0.0
 11
49.0
 21
-64.5
 31
0.0
  0
LINE
  5
D2
100
AcDbEntity
100
AcDbLine
  8
0
 62
256
370
-1
 48
1.0
  6
ByLayer
 10
49.0
 20
-64.5
 30
0.0
 11
64.999999999999972
 21
-48.499999999999986
 31
0.0
  0
LINE
  5
D3
100
AcDbEntity
100
AcDbLine
  8
0
 62
256
370
-1
 48
1.0
  6
ByLayer
 10
53.999999999999972
 20
-71.499999999999986
 30
0.0
 11
51.999999999999972
 21
-73.499999999999986
 31
0.0
  0
LINE
  5
D4
100
AcDbEntity
100
AcDbLine
  8
0
 62
256
370
-1
 48
1.0
  6
ByLayer
 10
51.999999999999972
 20
-73.499999999999986
 30
0.0
 11
48.999999999999972
 21
-70.499999999999986
 31
0.0
  0
LINE
  5
D5
100
AcDbEntity
100
AcDbLine
  8
0
 62
256
370
-1
 48
1.0
  6
ByLayer
 10
48.999999999999972
 20
-70.499999999999986
 30
0.0
 11
51.0
 21
-68.5
 31
0.0
  0
LINE
  5
D6
100
AcDbEntity
100
AcDbLine
  8
0
 62
256
370
-1
 48
1.0
  6
ByLayer
 10
51.999999999999972
 20
-73.499999999999986
 30
0.0
 11
55.0
 21
-76.499999999999986
 31
0.0
  0
LINE
  5
D7
100
AcDbEntity
100
AcDbLine
  8
0
 62
256
370
-1
 48
1.0
  6
ByLayer
 10
48.999999999999972
 20
-70.499999999999986
 30
0.0
 11
45.999999999999972
 21
-67.5
 31
0.0
  0
LINE
  5
D8
100
AcDbEntity
100
AcDbLine
  8
0
 62
256
370
-1
 48
1.0
  6
ByLayer
 10
43.0
 20
-79.5
 30
0.0
 11
55.0
 21
-76.499999999999986
 31
0.0
  0
LINE
  5
D9
100
AcDbEntity
100
AcDbLine
  8
0
 62
256
370
-1
 48
1.0
  6
ByLayer
 10
43.0
 20
-79.5
 30
0.0
 11
45.999999999999972
 21
-67.5
 31
0.0
  0
LINE
  5
DA
100
AcDbEntity
100
AcDbLine
  8
0
 62
256
370
-1
 48
1.0
  6
ByLayer
 10
49.0
 20
-64.5
 30
0.0
 11
46.999999999999972
 21
-60.5
 31
0.0
  0
LINE
  5
DB
100
AcDbEntity
100
AcDbLine
  8
0
 62
256
370
-1
 48
1.0
  6
ByLayer
 10
64.999999999999972
 20
-48.499999999999986
 30
0.0
 11
62.999999999999972
 21
-44.499999999999986
 31
0.0
  0
LINE
  5
DC
100
AcDbEntity
100
AcDbLine
  8
0
 62
256
370
-1
 48
1.0
  6
ByLayer
 10
62.999999999999972
 20
-44.499999999999986
 30
0.0
 11
46.999999999999972
 21
-60.5
 31
0.0
  0
ENDBLK
  5
DD
100
AcDbEntity
  8
0
100
AcDbBlockEnd
  0
BLOCK
  5
DE
100
AcDbEntity
  8
0
100
AcDbBlockBegin
  2
block 2
 70
0
 10
0.0
 20
0.0
 30
0.0
  3
block 2
  1

  0
LINE
  5
DF
100
AcDbEntity
100
AcDbLine
  8
0
 62
256
370
-1
 48
1.0
  6
ByLayer
 10
-10.0
 20
0.0
 30
0.0
 11
0.0
 21
0.0
 31
0.0
  0
CIRCLE
  5
E0
100
AcDbEntity
100
AcDbCircle
  8
drill
 62
256
370
-1
 48
1.0
  6
ByLayer
 10
-5.0
 20
-5.0
 30
0.0
 40
1.5
  0
CIRCLE
  5
E1
100
AcDbEntity
100
AcDbCircle
  8
drill
 62
256
370
-1
 48
1.0
  6
ByLayer
 10
-5.0
 20
-11.0
 30
0.0
 40
1.5
  0
LINE
  5
E2
100
AcDbEntity
100
AcDbLine
  8
0
 62
256
370
-1
 48
1.0
  6
ByLayer
 10
0.0
 20
-15.5
 30
0.0
 11
-10.0
 21
-15.5
 31
0.0
  0
LINE
  5
E3
100
AcDbEntity
100
AcDbLine
  8
0
 62
256
370
-1
 48
1.0
  6
ByLayer
 10
-10.0
 20
0.0
 30
0.0
 11
-10.0
 21
-15.5
 31
0.0
  0
LINE
  5
E4
100
AcDbEntity
100
AcDbLine
  8
0
 62
256
370
-1
 48
1.0
  6
ByLayer
 10
0.0
 20
0.0
 30
0.0
 11
0.0
 21
-15.5
 31
0.0
  0
LINE
  5
E5
100
AcDbEntity
100
AcDbLine
  8
0
 62
256
370
-1
 48
1.0
  6
ByLayer
 10
-5.0
 20
-11.0
 30
0.0
 11
19.0
 21
13.0
 31
0.0
  0
LINE
  5
E6
100
AcDbEntity
100
AcDbLine
  8
0
 62
256
370
-1
 48
1.0
  6
ByLayer
 10
-5.0
 20
-5.0
 30
0.0
 11
16.0
 21
16.0
 31
0.0
  0
LINE
  5
E7
100
AcDbEntity
100
AcDbLine
  8
0
 62
256
370
-1
 48
1.0
  6
ByLayer
 10
0.0
 20
0.0
 30
0.0
 11
3.0
 21
-3.0
 31
0.0
  0
LINE
  5
E8
100
AcDbEntity
100
AcDbLine
  8
0
 62
256
370
-1
 48
1.0
  6
ByLayer
 10
16.0
 20
16.0
 30
0.0
 11
19.0
 21
13.0
 31
0.0
  0
LINE
  5
E9
100
AcDbEntity
100
AcDbLine
  8
0
 62
256
370
-1
 48
1.0
  6
ByLayer
 10
0.0
 20
0.0
 30
0.0
 11
-4.0
 21
2.0
 31
0.0
  0
LINE
  5
EA
100
AcDbEntity
100
AcDbLine
  8
0
 62
256
370
-1
 48
1.0
  6
ByLayer
 10
16.0
 20
16.0
 30
0.0
 11
12.0
 21
18.0
 31
0.0
  0
LINE
  5
EB
100
AcDbEntity
100
AcDbLine
  8
0
 62
256
370
-1
 48
1.0
  6
ByLayer
 10
12.0
 20
18.0
 30
0.0
 11
-4.0
 21
2.0
 31
0.0
  0
LINE
  5
EC
100
AcDbEntity
100
AcDbLine
  8
0
 62
256
370
-1
 48
1.0
  6
ByLayer
 10
3.0
 20
-3.0
 30
0.0
 11
5.0
 21
-7.0
 31
0.0
  0
LINE
  5
ED
100
AcDbEntity
100
AcDbLine
  8
0
 62
256
370
-1
 48
1.0
  6
ByLayer
 10
19.0
 20
13.0
 30
0.0
 11
21.0
 21
9.0
 31
0.0
  0
LINE
  5
EE
100
AcDbEntity
100
AcDbLine
  8
0
 62
256
370
-1
 48
1.0
  6
ByLayer
 10
21.0
 20
9.0
 30
0.0
 11
5.0
 21
-7.0
 31
0.0
  0
LINE
  5
EF
100
AcDbEntity
100
AcDbLine
  8
0
 62
256
370
-1
 48
1.0
  6
ByLayer
 10
16.0
 20
16.0
 30
0.0
 11
18.0
 21
18.0
 31
0.0
  0
LINE
  5
F0
100
AcDbEntity
100
AcDbLine
  8
0
 62
256
370
-1
 48
1.0
  6
ByLayer
 10
18.0
 20
18.0
 30
0.0
 11
21.0
 21
15.0
 31
0.0
  0
LINE
  5
F1
100
AcDbEntity
100
AcDbLine
  8
0
 62
256
370
-1
 48
1.0
  6
ByLayer
 10
21.0
 20
15.0
 30
0.0
 11
19.0
 21
13.0
 31
0.0
  0
LINE
  5
F2
100
AcDbEntity
100
AcDbLine
  8
0
 62
256
370
-1
 48
1.0
  6
ByLayer
 10
18.0
 20
18.0
 30
0.0
 11
15.0
 21
21.0
 31
0.0
  0
LINE
  5
F3
100
AcDbEntity
100
AcDbLine
  8
0
 62
256
370
-1
 48
1.0
  6
ByLayer
 10
21.0
 20
15.0
 30
0.0
 11
24.0
 21
12.0
 31
0.0
  0
LINE
  5
F4
100
AcDbEntity
100
AcDbLine
  8
0
 62
256
370
-1
 48
1.0
  6
ByLayer
 10
27.0
 20
24.0
 30
0.0
 11
15.0
 21
21.0
 31
0.0
  0
LINE
  5
F5
100
AcDbEntity
100
AcDbLine
  8
0
 62
256
370
-1
 48
1.0
  6
ByLayer
 10
27.0
 20
24.0
 30
0.0
 11
24.0
 21
12.0
 31
0.0
  0
LINE
  5
F6
100
AcDbEntity
100
AcDbLine
  8
0
 62
256
370
-1
 48
1.0
  6
ByLayer
 10
21.0
 20
9.0
 30
0.0
 11
23.0
 21
5.0
 31
0.0
  0
LINE
  5
F7
100
AcDbEntity
100
AcDbLine
  8
0
 62
256
370
-1
 48
1.0
  6
ByLayer
 10
5.0
 20
-7.0
 30
0.0
 11
7.0
 21
-11.0
 31
0.0
  0
LINE
  5
F8
100
AcDbEntity
100
AcDbLine
  8
0
 62
256
370
-1
 48
1.0
  6
ByLayer
 10
7.0
 20
-11.0
 30
0.0
 11
23.0
 21
5.0
 31
0.0
  0
ENDBLK
  5
F9
100
AcDbEntity
  8
0
100
AcDbBlockEnd
  0
BLOCK
  5
FA
100
AcDbEntity
  8
0
100
AcDbBlockBegin
  2
block 3
 70
0
 10
0.0
 20
0.0
 30
0.0
  3
block 3
  1

  0
LINE
  5
FB
100
AcDbEntity
100
AcDbLine
  8
0
 62
256
370
-1
 48
1.0
  6
ByLayer
 10
-10.000000000000057
 20
-0.000000000000048
 30
0.0
 11
-0.0000000000000568
 21
-0.0000000000000409
 31
0.0
  0
CIRCLE
  5
FC
100
AcDbEntity
100
AcDbCircle
  8
drill
 62
256
370
-1
 48
1.0
  6
ByLayer
 10
-5.0000000000000568
 20
4.999999999999952
 30
0.0
 40
1.5
  0
CIRCLE
  5
FD
100
AcDbEntity
100
AcDbCircle
  8
drill
 62
256
370
-1
 48
1.0
  6
ByLayer
 10
-5.0000000000000568
 20
10.999999999999952
 30
0.0
 40
1.5
  0
LINE
  5
FE
100
AcDbEntity
100
AcDbLine
  8
0
 62
256
370
-1
 48
1.0
  6
ByLayer
 10
-0.0000000000000568
 20
15.499999999999952
 30
0.0
 11
-10.000000000000085
 21
15.499999999999945
 31
0.0
  0
LINE
  5
FF
100
AcDbEntity
100
AcDbLine
  8
0
 62
256
370
-1
 48
1.0
  6
ByLayer
 10
-10.000000000000057
 20
-0.000000000000048
 30
0.0
 11
-10.000000000000085
 21
15.499999999999945
 31
0.0
  0
LINE
  5
100
100
AcDbEntity
100
AcDbLine
  8
0
 62
256
370
-1
 48
1.0
  6
ByLayer
 10
-0.0000000000000568
 20
-0.0000000000000409
 30
0.0
 11
-0.0000000000000568
 21
15.499999999999952
 31
0.0
  0
LINE
  5
101
100
AcDbEntity
100
AcDbLine
  8
0
 62
256
370
-1
 48
1.0
  6
ByLayer
 10
-5.0000000000000568
 20
10.999999999999952
 30
0.0
 11
18.999999999999943
 21
-13.000000000000041
 31
0.0
  0
LINE
  5
102
100
AcDbEntity
100
AcDbLine
  8
0
 62
256
370
-1
 48
1.0
  6
ByLayer
 10
-5.0000000000000568
 20
4.999999999999952
 30
0.0
 11
15.999999999999943
 21
-16.000000000000043
 31
0.0
  0
LINE
  5
103
100
AcDbEntity
100
AcDbLine
  8
0
 62
256
370
-1
 48
1.0
  6
ByLayer
 10
-0.0000000000000568
 20
-0.0000000000000409
 30
0.0
 11
2.9999999999999432
 21
2.9999999999999591
 31
0.0
  0
LINE
  5
104
100
AcDbEntity
100
AcDbLine
  8
0
 62
256
370
-1
 48
1.0
  6
ByLayer
 10
15.999999999999943
 20
-16.000000000000043
 30
0.0
 11
18.999999999999943
 21
-13.000000000000041
 31
0.0
  0
LINE
  5
105
100
AcDbEntity
100
AcDbLine
  8
0
 62
256
370
-1
 48
1.0
  6
ByLayer
 10
-0.0000000000000568
 20
-0.0000000000000409
 30
0.0
 11
-4.0000000000000568
 21
-2.0000000000000693
 31
0.0
  0
LINE
  5
106
100
AcDbEntity
100
AcDbLine
  8
0
 62
256
370
-1
 48
1.0
  6
ByLayer
 10
15.999999999999943
 20
-16.000000000000043
 30
0.0
 11
11.999999999999943
 21
-18.000000000000043
 31
0.0
  0
LINE
  5
107
100
AcDbEntity
100
AcDbLine
  8
0
 62
256
370
-1
 48
1.0
  6
ByLayer
 10
11.999999999999943
 20
-18.000000000000043
 30
0.0
 11
-4.0000000000000568
 21
-2.0000000000000693
 31
0.0
  0
LINE
  5
108
100
AcDbEntity
100
AcDbLine
  8
0
 62
256
370
-1
 48
1.0
  6
ByLayer
 10
2.9999999999999432
 20
2.9999999999999591
 30
0.0
 11
4.9999999999999432
 21
6.9999999999999591
 31
0.0
  0
LINE
  5
109
100
AcDbEntity
100
AcDbLine
  8
0
 62
256
370
-1
 48
1.0
  6
ByLayer
 10
18.999999999999943
 20
-13.000000000000041
 30
0.0
 11
20.999999999999943
 21
-9.0000000000000551
 31
0.0
  0
LINE
  5
10A
100
AcDbEntity
100
AcDbLine
  8
0
 62
256
370
-1
 48
1.0
  6
ByLayer
 10
20.999999999999943
 20
-9.0000000000000551
 30
0.0
 11
4.9999999999999432
 21
6.9999999999999591
 31
0.0
  0
LINE
  5
10B
100
AcDbEntity
100
AcDbLine
  8
0
 62
256
370
-1
 48
1.0
  6
ByLayer
 10
15.999999999999943
 20
-16.000000000000043
 30
0.0
 11
17.999999999999943
 21
-18.000000000000043
 31
0.0
  0
LINE
  5
10C
100
AcDbEntity
100
AcDbLine
  8
0
 62
256
370
-1
 48
1.0
  6
ByLayer
 10
17.999999999999943
 20
-18.000000000000043
 30
0.0
 11
20.999999999999943
 21
-15.000000000000041
 31
0.0
  0
LINE
  5
10D
100
AcDbEntity
100
AcDbLine
  8
0
 62
256
370
-1
 48
1.0
  6
ByLayer
 10
20.999999999999943
 20
-15.000000000000041
 30
0.0
 11
18.999999999999943
 21
-13.000000000000041
 31
0.0
  0
LINE
  5
10E
100
AcDbEntity
100
AcDbLine
  8
0
 62
256
370
-1
 48
1.0
  6
ByLayer
 10
17.999999999999943
 20
-18.000000000000043
 30
0.0
 11
14.999999999999943
 21
-21.000000000000043
 31
0.0
  0
LINE
  5
10F
100
AcDbEntity
100
AcDbLine
  8
0
 62
256
370
-1
 48
1.0
  6
ByLayer
 10
20.999999999999943
 20
-15.000000000000041
 30
0.0
 11
23.999999999999943
 21
-12.000000000000055
 31
0.0
  0
LINE
  5
110
100
AcDbEntity
100
AcDbLine
  8
0
 62
256
370
-1
 48
1.0
  6
ByLayer
 10
26.999999999999915
 20
-24.000000000000043
 30
0.0
 11
14.999999999999943
 21
-21.000000000000043
 31
0.0
  0
LINE
  5
111
100
AcDbEntity
100
AcDbLine
  8
0
 62
256
370
-1
 48
1.0
  6
ByLayer
 10
26.999999999999915
 20
-24.000000000000043
 30
0.0
 11
23.999999999999943
 21
-12.000000000000055
 31
0.0
  0
LINE
  5
112
100
AcDbEntity
100
AcDbLine
  8
0
 62
256
370
-1
 48
1.0
  6
ByLayer
 10
20.999999999999943
 20
-9.0000000000000551
 30
0.0
 11
22.999999999999943
 21
-5.0000000000000551
 31
0.0
  0
LINE
  5
113
100
AcDbEntity
100
AcDbLine
  8
0
 62
256
370
-1
 48
1.0
  6
ByLayer
 10
4.9999999999999432
 20
6.9999999999999591
 30
0.0
 11
6.9999999999999432
 21
10.999999999999959
 31
0.0
  0
LINE
  5
114
100
AcDbEntity
100
AcDbLine
  8
0
 62
256
370
-1
 48
1.0
  6
ByLayer
 10
6.9999999999999432
 20
10.999999999999959
 30
0.0
 11
22.999999999999943
 21
-5.0000000000000551
 31
0.0
  0
ENDBLK
  5
115
100
AcDbEntity
  8
0
100
AcDbBlockEnd
  0
BLOCK
  5
116
100
AcDbEntity
  8
0
100
AcDbBlockBegin
  2
block 4
 70
0
 10
0.0
 20
0.0
 30
0.0
  3
block 4
  1

  0
LINE
  5
117
100
AcDbEntity
100
AcDbLine
  8
0
 62
256
370
-1
 48
1.0
  6
ByLayer
 10
0.0
 20
0.0
 30
0.0
 11
-3.0
 21
-3.0
 31
0.0
  0
LINE
  5
118
100
AcDbEntity
100
AcDbLine
  8
0
 62
256
370
-1
 48
1.0
  6
ByLayer
 10
-16.0
 20
16.0
 30
0.0
 11
-19.0
 21
13.0
 31
0.0
  0
LINE
  5
119
100
AcDbEntity
100
AcDbLine
  8
0
 62
256
370
-1
 48
1.0
  6
ByLayer
 10
0.0
 20
0.0
 30
0.0
 11
4.0
 21
2.0
 31
0.0
  0
LINE
  5
11A
100
AcDbEntity
100
AcDbLine
  8
0
 62
256
370
-1
 48
1.0
  6
ByLayer
 10
-16.0
 20
16.0
 30
0.0
 11
-12.0
 21
18.0
 31
0.0
  0
LINE
  5
11B
100
AcDbEntity
100
AcDbLine
  8
0
 62
256
370
-1
 48
1.0
  6
ByLayer
 10
-12.0
 20
18.0
 30
0.0
 11
4.0
 21
2.0
 31
0.0
  0
LINE
  5
11C
100
AcDbEntity
100
AcDbLine
  8
0
 62
256
370
-1
 48
1.0
  6
ByLayer
 10
-3.0
 20
-3.0
 30
0.0
 11
-5.0
 21
-7.0
 31
0.0
  0
LINE
  5
11D
100
AcDbEntity
100
AcDbLine
  8
0
 62
256
370
-1
 48
1.0
  6
ByLayer
 10
-19.0
 20
13.0
 30
0.0
 11
-21.0
 21
9.0
 31
0.0
  0
LINE
  5
11E
100
AcDbEntity
100
AcDbLine
  8
0
 62
256
370
-1
 48
1.0
  6
ByLayer
 10
-21.0
 20
9.0
 30
0.0
 11
-5.0
 21
-7.0
 31
0.0
  0
LINE
  5
11F
100
AcDbEntity
100
AcDbLine
  8
0
 62
256
370
-1
 48
1.0
  6
ByLayer
 10
-16.0
 20
16.0
 30
0.0
 11
-18.0
 21
18.0
 31
0.0
  0
LINE
  5
120
100
AcDbEntity
100
AcDbLine
  8
0
 62
256
370
-1
 48
1.0
  6
ByLayer
 10
-18.0
 20
18.0
 30
0.0
 11
-21.0
 21
15.0
 31
0.0
  0
LINE
  5
121
100
AcDbEntity
100
AcDbLine
  8
0
 62
256
370
-1
 48
1.0
  6
ByLayer
 10
-21.0
 20
15.0
 30
0.0
 11
-19.0
 21
13.0
 31
0.0
  0
LINE
  5
122
100
AcDbEntity
100
AcDbLine
  8
0
 62
256
370
-1
 48
1.0
  6
ByLayer
 10
-18.0
 20
18.0
 30
0.0
 11
-15.0
 21
21.0
 31
0.0
  0
LINE
  5
123
100
AcDbEntity
100
AcDbLine
  8
0
 62
256
370
-1
 48
1.0
  6
ByLayer
 10
-21.0
 20
15.0
 30
0.0
 11
-24.0
 21
12.0
 31
0.0
  0
LINE
  5
124
100
AcDbEntity
100
AcDbLine
  8
0
 62
256
370
-1
 48
1.0
  6
ByLayer
 10
-27.0
 20
24.0
 30
0.0
 11
-15.0
 21
21.0
 31
0.0
  0
LINE
  5
125
100
AcDbEntity
100
AcDbLine
  8
0
 62
256
370
-1
 48
1.0
  6
ByLayer
 10
-27.0
 20
24.0
 30
0.0
 11
-24.0
 21
12.0
 31
0.0
  0
LINE
  5
126
100
AcDbEntity
100
AcDbLine
  8
0
 62
256
370
-1
 48
1.0
  6
ByLayer
 10
-21.0
 20
9.0
 30
0.0
 11
-23.0
 21
5.0
 31
0.0
  0
LINE
  5
127
100
AcDbEntity
100
AcDbLine
  8
0
 62
256
370
-1
 48
1.0
  6
ByLayer
 10
-5.0
 20
-7.0
 30
0.0
 11
-7.0
 21
-11.0
 31
0.0
  0
LINE
  5
128
100
AcDbEntity
100
AcDbLine
  8
0
 62
256
370
-1
 48
1.0
  6
ByLayer
 10
-7.0
 20
-11.0
 30
0.0
 11
-23.0
 21
5.0
 31
0.0
  0
LINE
  5
129
100
AcDbEntity
100
AcDbLine
  8
0
 62
256
370
-1
 48
1.0
  6
ByLayer
 10
10.0
 20
0.0
 30
0.0
 11
0.0
 21
0.0
 31
0.0
  0
CIRCLE
  5
12A
100
AcDbEntity
100
AcDbCircle
  8
drill
 62
256
370
-1
 48
1.0
  6
ByLayer
 10
5.0
 20
-5.0
 30
0.0
 40
1.5
  0
CIRCLE
  5
12B
100
AcDbEntity
100
AcDbCircle
  8
drill
 62
256
370
-1
 48
1.0
  6
ByLayer
 10
5.0
 20
-11.0
 30
0.0
 40
1.5
  0
LINE
  5
12C
100
AcDbEntity
100
AcDbLine
  8
0
 62
256
370
-1
 48
1.0
  6
ByLayer
 10
0.0
 20
-15.5
 30
0.0
 11
10.0
 21
-15.5
 31
0.0
  0
LINE
  5
12D
100
AcDbEntity
100
AcDbLine
  8
0
 62
256
370
-1
 48
1.0
  6
ByLayer
 10
10.0
 20
0.0
 30
0.0
 11
10.0
 21
-15.5
 31
0.0
  0
LINE
  5
12E
100
AcDbEntity
100
AcDbLine
  8
0
 62
256
370
-1
 48
1.0
  6
ByLayer
 10
0.0
 20
0.0
 30
0.0
 11
0.0
 21
-15.5
 31
0.0
  0
LINE
  5
12F
100
AcDbEntity
100
AcDbLine
  8
0
 62
256
370
-1
 48
1.0
  6
ByLayer
 10
5.0
 20
-11.0
 30
0.0
 11
-19.0
 21
13.0
 31
0.0
  0
LINE
  5
130
100
AcDbEntity
100
AcDbLine
  8
0
 62
256
370
-1
 48
1.0
  6
ByLayer
 10
5.0
 20
-5.0
 30
0.0
 11
-16.0
 21
16.0
 31
0.0
  0
ENDBLK
  5
131
100
AcDbEntity
  8
0
100
AcDbBlockEnd
  0
BLOCK
  5
132
100
AcDbEntity
  8
0
100
AcDbBlockBegin
  2
Blok 1
 70
0
 10
0.0
 20
0.0
 30
0.0
  3
Blok 1
  1

  0
LINE
  5
133
100
AcDbEntity
100
AcDbLine
  8
0
 62
256
370
-1
 48
1.0
  6
ByLayer
 10
-0.0000000000000071
 20
-87.0
 30
0.0
 11
31.999999999999993
 21
-87.0
 31
0.0
  0
LINE
  5
134
100
AcDbEntity
100
AcDbLine
  8
0
 62
256
370
-1
 48
1.0
  6
ByLayer
 10
-0.0000000000000036
 20
0.0
 30
0.0
 11
31.999999999999993
 21
0.0
 31
0.0
  0
LINE
  5
135
100
AcDbEntity
100
AcDbLine
  8
0
 62
256
370
-1
 48
1.0
  6
ByLayer
 10
0.9999999999999929
 20
-28.0
 30
0.0
 11
-9.0000000000000071
 21
-28.0
 31
0.0
  0
LINE
  5
136
100
AcDbEntity
100
AcDbLine
  8
0
 62
256
370
-1
 48
1.0
  6
ByLayer
 10
-0.0000000000000036
 20
0.0
 30
0.0
 11
-4.0000000000000071
 21
-28.0
 31
0.0
  0
LINE
  5
137
100
AcDbEntity
100
AcDbLine
  8
0
 62
256
370
-1
 48
1.0
  6
ByLayer
 10
30.999999999999993
 20
-28.0
 30
0.0
 11
40.999999999999993
 21
-28.0
 31
0.0
  0
LINE
  5
138
100
AcDbEntity
100
AcDbLine
  8
0
 62
256
370
-1
 48
1.0
  6
ByLayer
 10
31.999999999999993
 20
0.0
 30
0.0
 11
35.999999999999993
 21
-28.0
 31
0.0
  0
LINE
  5
139
100
AcDbEntity
100
AcDbLine
  8
0
 62
256
370
-1
 48
1.0
  6
ByLayer
 10
0.9999999999999929
 20
-59.0
 30
0.0
 11
-9.0000000000000071
 21
-59.0
 31
0.0
  0
LINE
  5
13A
100
AcDbEntity
100
AcDbLine
  8
0
 62
256
370
-1
 48
1.0
  6
ByLayer
 10
-0.0000000000000071
 20
-87.0
 30
0.0
 11
-4.0000000000000071
 21
-59.0
 31
0.0
  0
LINE
  5
13B
100
AcDbEntity
100
AcDbLine
  8
0
 62
256
370
-1
 48
1.0
  6
ByLayer
 10
30.999999999999993
 20
-59.0
 30
0.0
 11
40.999999999999993
 21
-59.0
 31
0.0
  0
LINE
  5
13C
100
AcDbEntity
100
AcDbLine
  8
0
 62
256
370
-1
 48
1.0
  6
ByLayer
 10
35.999999999999993
 20
-59.0
 30
0.0
 11
31.999999999999993
 21
-87.0
 31
0.0
  0
LINE
  5
13D
100
AcDbEntity
100
AcDbLine
  8
ref
 62
256
370
-1
 48
1.0
  6
ByLayer
 10
-0.0000000000000036
 20
0.0
 30
0.0
 11
31.999999999999993
 21
-87.0
 31
0.0
  0
LINE
  5
13E
100
AcDbEntity
100
AcDbLine
  8
ref
 62
256
370
-1
 48
1.0
  6
ByLayer
 10
-0.0000000000000071
 20
-87.0
 30
0.0
 11
31.999999999999986
 21
0.0
 31
0.0
  0
LINE
  5
13F
100
AcDbEntity
100
AcDbLine
  8
ref
 62
256
370
-1
 48
1.0
  6
ByLayer
 10
31.999999999999979
 20
0.0
 30
0.0
 11
27.499999999999979
 21
0.0
 31
0.0
  0
LINE
  5
140
100
AcDbEntity
100
AcDbLine
  8
ref
 62
256
370
-1
 48
1.0
  6
ByLayer
 10
27.499999999999979
 20
0.0
 30
0.0
 11
27.499999999999979
 21
-6.9200000000000017
 31
0.0
  0
CIRCLE
  5
141
100
AcDbEntity
100
AcDbCircle
  8
drill
 62
256
370
-1
 48
1.0
  6
ByLayer
 10
27.499999999999979
 20
-6.9200000000000017
 30
0.0
 40
1.5
  0
LINE
  5
142
100
AcDbEntity
100
AcDbLine
  8
ref
 62
256
370
-1
 48
1.0
  6
ByLayer
 10
-0.0000000000000071
 20
-87.0
 30
0.0
 11
4.4999999999999929
 21
-87.0
 31
0.0
  0
LINE
  5
143
100
AcDbEntity
100
AcDbLine
  8
ref
 62
256
370
-1
 48
1.0
  6
ByLayer
 10
4.4999999999999929
 20
-87.0
 30
0.0
 11
4.4999999999999929
 21
-72.359999999999999
 31
0.0
  0
CIRCLE
  5
144
100
AcDbEntity
100
AcDbCircle
  8
drill
 62
256
370
-1
 48
1.0
  6
ByLayer
 10
4.4999999999999929
 20
-72.359999999999999
 30
0.0
 40
1.5
  0
CIRCLE
  5
145
100
AcDbEntity
100
AcDbCircle
  8
drill
 62
256
370
-1
 48
1.0
  6
ByLayer
 10
-4.0000000000000071
 20
-54.0
 30
0.0
 40
1.5
  0
CIRCLE
  5
146
100
AcDbEntity
100
AcDbCircle
  8
drill
 62
256
370
-1
 48
1.0
  6
ByLayer
 10
-4.0000000000000071
 20
-48.0
 30
0.0
 40
1.5
  0
CIRCLE
  5
147
100
AcDbEntity
100
AcDbCircle
  8
drill
 62
256
370
-1
 48
1.0
  6
ByLayer
 10
-4.0000000000000071
 20
-33.0
 30
0.0
 40
1.5
  0
CIRCLE
  5
148
100
AcDbEntity
100
AcDbCircle
  8
drill
 62
256
370
-1
 48
1.0
  6
ByLayer
 10
-4.0000000000000071
 20
-39.0
 30
0.0
 40
1.5
  0
CIRCLE
  5
149
100
AcDbEntity
100
AcDbCircle
  8
drill
 62
256
370
-1
 48
1.0
  6
ByLayer
 10
35.999999999999993
 20
-33.0
 30
0.0
 40
1.5
  0
CIRCLE
  5
14A
100
AcDbEntity
100
AcDbCircle
  8
drill
 62
256
370
-1
 48
1.0
  6
ByLayer
 10
35.999999999999993
 20
-39.0
 30
0.0
 40
1.5
  0
CIRCLE
  5
14B
100
AcDbEntity
100
AcDbCircle
  8
drill
 62
256
370
-1
 48
1.0
  6
ByLayer
 10
35.999999999999993
 20
-48.0
 30
0.0
 40
1.5
  0
CIRCLE
  5
14C
100
AcDbEntity
100
AcDbCircle
  8
drill
 62
256
370
-1
 48
1.0
  6
ByLayer
 10
35.999999999999993
 20
-54.0
 30
0.0
 40
1.5
  0
LINE
  5
14D
100
AcDbEntity
100
AcDbLine
  8
ref
 62
256
370
-1
 48
1.0
  6
ByLayer
 10
-9.0000000000000071
 20
-28.0
 30
0.0
 11
-9.0000000000000071
 21
-43.5
 31
0.0
  0
LINE
  5
14E
100
AcDbEntity
100
AcDbLine
  8
ref
 62
256
370
-1
 48
1.0
  6
ByLayer
 10
40.999999999999993
 20
-28.0
 30
0.0
 11
40.999999999999993
 21
-43.5
 31
0.0
  0
LINE
  5
14F
100
AcDbEntity
100
AcDbLine
  8
ref
 62
256
370
-1
 48
1.0
  6
ByLayer
 10
-9.0000000000000071
 20
-43.5
 30
0.0
 11
40.999999999999993
 21
-43.5
 31
0.0
  0
LINE
  5
150
100
AcDbEntity
100
AcDbLine
  8
0
 62
256
370
-1
 48
1.0
  6
ByLayer
 10
40.999999999999993
 20
-43.5
 30
0.0
 11
30.999999999999993
 21
-43.5
 31
0.0
  0
LINE
  5
151
100
AcDbEntity
100
AcDbLine
  8
0
 62
256
370
-1
 48
1.0
  6
ByLayer
 10
0.9999999999999929
 20
-43.5
 30
0.0
 11
-9.0000000000000071
 21
-43.5
 31
0.0
  0
LINE
  5
152
100
AcDbEntity
100
AcDbLine
  8
0
 62
256
370
-1
 48
1.0
  6
ByLayer
 10
35.999999999999993
 20
-39.0
 30
0.0
 11
58.999999999999993
 21
-16.0
 31
0.0
  0
LINE
  5
153
100
AcDbEntity
100
AcDbLine
  8
0
 62
256
370
-1
 48
1.0
  6
ByLayer
 10
35.999999999999993
 20
-33.0
 30
0.0
 11
58.999999999999993
 21
-10.0
 31
0.0
  0
CIRCLE
  5
154
100
AcDbEntity
100
AcDbCircle
  8
drill
 62
256
370
-1
 48
1.0
  6
ByLayer
 10
58.999999999999993
 20
-13.0
 30
0.0
 40
1.5
  0
CIRCLE
  5
155
100
AcDbEntity
100
AcDbCircle
  8
drill
 62
256
370
-1
 48
1.0
  6
ByLayer
 10
58.999999999999993
 20
-13.0
 30
0.0
 40
3.5
  0
CIRCLE
  5
156
100
AcDbEntity
100
AcDbCircle
  8
0
 62
256
370
-1
 48
1.0
  6
ByLayer
 10
58.999999999999993
 20
-13.0
 30
0.0
 40
4.0
  0
LINE
  5
157
100
AcDbEntity
100
AcDbLine
  8
0
 62
256
370
-1
 48
1.0
  6
ByLayer
 10
-4.0000000000000036
 20
-39.0
 30
0.0
 11
-27.000000000000007
 21
-16.0
 31
0.0
  0
LINE
  5
158
100
AcDbEntity
100
AcDbLine
  8
0
 62
256
370
-1
 48
1.0
  6
ByLayer
 10
-4.0000000000000071
 20
-33.0
 30
0.0
 11
-27.0
 21
-10.0
 31
0.0
  0
CIRCLE
  5
159
100
AcDbEntity
100
AcDbCircle
  8
drill
 62
256
370
-1
 48
1.0
  6
ByLayer
 10
-27.000000000000007
 20
-13.0
 30
0.0
 40
1.5
  0
CIRCLE
  5
15A
100
AcDbEntity
100
AcDbCircle
  8
drill
 62
256
370
-1
 48
1.0
  6
ByLayer
 10
-27.000000000000007
 20
-13.0
 30
0.0
 40
3.5
  0
CIRCLE
  5
15B
100
AcDbEntity
100
AcDbCircle
  8
0
 62
256
370
-1
 48
1.0
  6
ByLayer
 10
-27.000000000000007
 20
-13.0
 30
0.0
 40
4.0
  0
LINE
  5
15C
100
AcDbEntity
100
AcDbLine
  8
0
 62
256
370
-1
 48
1.0
  6
ByLayer
 10
35.999999999999993
 20
-48.0
 30
0.0
 11
58.999999999999993
 21
-71.0
 31
0.0
  0
LINE
  5
15D
100
AcDbEntity
100
AcDbLine
  8
0
 62
256
370
-1
 48
1.0
  6
ByLayer
 10
35.999999999999993
 20
-54.0
 30
0.0
 11
58.999999999999993
 21
-77.0
 31
0.0
  0
CIRCLE
  5
15E
100
AcDbEntity
100
AcDbCircle
  8
drill
 62
256
370
-1
 48
1.0
  6
ByLayer
 10
58.999999999999993
 20
-74.0
 30
0.0
 40
1.5
  0
CIRCLE
  5
15F
100
AcDbEntity
100
AcDbCircle
  8
drill
 62
256
370
-1
 48
1.0
  6
ByLayer
 10
58.999999999999993
 20
-74.0
 30
0.0
 40
3.5
  0
CIRCLE
  5
160
100
AcDbEntity
100
AcDbCircle
  8
0
 62
256
370
-1
 48
1.0
  6
ByLayer
 10
58.999999999999993
 20
-74.0
 30
0.0
 40
4.0
  0
LINE
  5
161
100
AcDbEntity
100
AcDbLine
  8
0
 62
256
370
-1
 48
1.0
  6
ByLayer
 10
-4.0000000000000071
 20
-48.0
 30
0.0
 11
-27.000000000000007
 21
-71.0
 31
0.0
  0
LINE
  5
162
100
AcDbEntity
100
AcDbLine
  8
0
 62
256
370
-1
 48
1.0
  6
ByLayer
 10
-4.0000000000000107
 20
-53.999999999999993
 30
0.0
 11
-27.0
 21
-77.0
 31
0.0
  0
CIRCLE
  5
163
100
AcDbEntity
100
AcDbCircle
  8
drill
 62
256
370
-1
 48
1.0
  6
ByLayer
 10
-27.000000000000007
 20
-74.0
 30
0.0
 40
1.5
  0
CIRCLE
  5
164
100
AcDbEntity
100
AcDbCircle
  8
drill
 62
256
370
-1
 48
1.0
  6
ByLayer
 10
-27.000000000000007
 20
-74.0
 30
0.0
 40
3.5
  0
CIRCLE
  5
165
100
AcDbEntity
100
AcDbCircle
  8
0
 62
256
370
-1
 48
1.0
  6
ByLayer
 10
-27.000000000000007
 20
-74.0
 30
0.0
 40
4.0
  0
CIRCLE
  5
166
100
AcDbEntity
100
AcDbCircle
  8
ref
 62
256
370
-1
 48
1.0
  6
ByLayer
 10
58.999999999999993
 20
-74.0
 30
0.0
 40
27.5
  0
CIRCLE
  5
167
100
AcDbEntity
100
AcDbCircle
  8
ref
 62
256
370
-1
 48
1.0
  6
ByLayer
 10
-27.000000000000007
 20
-74.0
 30
0.0
 40
27.5
  0
CIRCLE
  5
168
100
AcDbEntity
100
AcDbCircle
  8
ref
 62
256
370
-1
 48
1.0
  6
ByLayer
 10
58.999999999999993
 20
-13.0
 30
0.0
 40
27.5
  0
CIRCLE
  5
169
100
AcDbEntity
100
AcDbCircle
  8
ref
 62
256
370
-1
 48
1.0
  6
ByLayer
 10
-27.000000000000007
 20
-13.0
 30
0.0
 40
27.5
  0
CIRCLE
  5
16A
100
AcDbEntity
100
AcDbCircle
  8
drill
 62
256
370
-1
 48
1.0
  6
ByLayer
 10
15.999999999999993
 20
-43.5
 30
0.0
 40
0.5
  0
LINE
  5
16B
100
AcDbEntity
100
AcDbLine
  8
0
 62
256
370
-1
 48
1.0
  6
ByLayer
 10
0.9999999999999929
 20
-28.0
 30
0.0
 11
0.9999999999999929
 21
-43.5
 31
0.0
  0
LINE
  5
16C
100
AcDbEntity
100
AcDbLine
  8
0
 62
256
370
-1
 48
1.0
  6
ByLayer
 10
0.9999999999999929
 20
-43.5
 30
0.0
 11
0.9999999999999929
 21
-59.0
 31
0.0
  0
LINE
  5
16D
100
AcDbEntity
100
AcDbLine
  8
0
 62
256
370
-1
 48
1.0
  6
ByLayer
 10
-9.0000000000000071
 20
-28.0
 30
0.0
 11
-9.0000000000000071
 21
-43.5
 31
0.0
  0
LINE
  5
16E
100
AcDbEntity
100
AcDbLine
  8
0
 62
256
370
-1
 48
1.0
  6
ByLayer
 10
-9.0000000000000071
 20
-43.5
 30
0.0
 11
-9.0000000000000071
 21
-59.0
 31
0.0
  0
LINE
  5
16F
100
AcDbEntity
100
AcDbLine
  8
0
 62
256
370
-1
 48
1.0
  6
ByLayer
 10
30.999999999999993
 20
-28.0
 30
0.0
 11
30.999999999999993
 21
-43.5
 31
0.0
  0
LINE
  5
170
100
AcDbEntity
100
AcDbLine
  8
0
 62
256
370
-1
 48
1.0
  6
ByLayer
 10
30.999999999999993
 20
-43.5
 30
0.0
 11
30.999999999999993
 21
-59.0
 31
0.0
  0
LINE
  5
171
100
AcDbEntity
100
AcDbLine
  8
0
 62
256
370
-1
 48
1.0
  6
ByLayer
 10
40.999999999999993
 20
-28.0
 30
0.0
 11
40.999999999999993
 21
-43.5
 31
0.0
  0
LINE
  5
172
100
AcDbEntity
100
AcDbLine
  8
0
 62
256
370
-1
 48
1.0
  6
ByLayer
 10
40.999999999999993
 20
-43.5
 30
0.0
 11
40.999999999999993
 21
-59.0
 31
0.0
  0
LINE
  5
173
100
AcDbEntity
100
AcDbLine
  8
0
 62
256
370
-1
 48
1.0
  6
ByLayer
 10
6.9999999999999929
 20
-11.0
 30
0.0
 11
24.999999999999993
 21
-11.0
 31
0.0
  0
LINE
  5
174
100
AcDbEntity
100
AcDbLine
  8
0
 62
256
370
-1
 48
1.0
  6
ByLayer
 10
6.9999999999999929
 20
-11.0
 30
0.0
 11
6.9999999999999787
 21
-76.0
 31
0.0
  0
LINE
  5
175
100
AcDbEntity
100
AcDbLine
  8
0
 62
256
370
-1
 48
1.0
  6
ByLayer
 10
6.9999999999999787
 20
-76.0
 30
0.0
 11
24.999999999999979
 21
-76.0
 31
0.0
  0
LINE
  5
176
100
AcDbEntity
100
AcDbLine
  8
0
 62
256
370
-1
 48
1.0
  6
ByLayer
 10
24.999999999999979
 20
-76.0
 30
0.0
 11
24.999999999999993
 21
-11.0
 31
0.0
  0
LINE
  5
177
100
AcDbEntity
100
AcDbLine
  8
ref
 62
256
370
-1
 48
1.0
  6
ByLayer
 10
6.9999999999999929
 20
-11.0
 30
0.0
 11
24.999999999999979
 21
-76.0
 31
0.0
  0
LINE
  5
178
100
AcDbEntity
100
AcDbLine
  8
ref
 62
256
370
-1
 48
1.0
  6
ByLayer
 10
24.999999999999993
 20
-11.0
 30
0.0
 11
6.9999999999999787
 21
-76.0
 31
0.0
  0
LINE
  5
179
100
AcDbEntity
100
AcDbLine
  8
ref
 62
256
370
-1
 48
1.0
  6
ByLayer
 10
15.999999999999986
 20
-43.5
 30
0.0
 11
24.999999999999986
 21
-43.5
 31
0.0
  0
LINE
  5
17A
100
AcDbEntity
100
AcDbLine
  8
ref
 62
256
370
-1
 48
1.0
  6
ByLayer
 10
15.999999999999986
 20
-43.5
 30
0.0
 11
6.9999999999999858
 21
-43.5
 31
0.0
  0
LINE
  5
17B
100
AcDbEntity
100
AcDbLine
  8
drill
 62
256
370
-1
 48
1.0
  6
ByLayer
 10
16.999999999999993
 20
-45.0
 30
0.0
 11
14.999999999999993
 21
-42.0
 31
0.0
  0
LINE
  5
17C
100
AcDbEntity
100
AcDbLine
  8
drill
 62
256
370
-1
 48
1.0
  6
ByLayer
 10
14.999999999999993
 20
-45.0
 30
0.0
 11
16.999999999999993
 21
-42.0
 31
0.0
  0
ENDBLK
  5
17D
100
AcDbEntity
  8
0
100
AcDbBlockEnd
  0
BLOCK
  5
17E
100
AcDbEntity
  8
0
100
AcDbBlockBegin
  2
block 5
 70
0
 10
0.0
 20
0.0
 30
0.0
  3
block 5
  1

  0
LINE
  5
17F
100
AcDbEntity
100
AcDbLine
  8
0
 62
256
370
-1
 48
1.0
  6
ByLayer
 10
9.9999999999999432
 20
-0.0000000000000142
 30
0.0
 11
-0.0000000000000568
 21
0.0
 31
0.0
  0
CIRCLE
  5
180
100
AcDbEntity
100
AcDbCircle
  8
drill
 62
256
370
-1
 48
1.0
  6
ByLayer
 10
4.9999999999999432
 20
4.9999999999999929
 30
0.0
 40
1.5
  0
CIRCLE
  5
181
100
AcDbEntity
100
AcDbCircle
  8
drill
 62
256
370
-1
 48
1.0
  6
ByLayer
 10
4.9999999999999432
 20
11.0
 30
0.0
 40
1.5
  0
LINE
  5
182
100
AcDbEntity
100
AcDbLine
  8
0
 62
256
370
-1
 48
1.0
  6
ByLayer
 10
-0.0000000000000568
 20
15.499999999999993
 30
0.0
 11
9.9999999999999432
 21
15.499999999999986
 31
0.0
  0
LINE
  5
183
100
AcDbEntity
100
AcDbLine
  8
0
 62
256
370
-1
 48
1.0
  6
ByLayer
 10
9.9999999999999432
 20
-0.0000000000000142
 30
0.0
 11
9.9999999999999432
 21
15.499999999999986
 31
0.0
  0
LINE
  5
184
100
AcDbEntity
100
AcDbLine
  8
0
 62
256
370
-1
 48
1.0
  6
ByLayer
 10
-0.0000000000000568
 20
0.0
 30
0.0
 11
-0.0000000000000568
 21
15.499999999999993
 31
0.0
  0
LINE
  5
185
100
AcDbEntity
100
AcDbLine
  8
0
 62
256
370
-1
 48
1.0
  6
ByLayer
 10
4.9999999999999432
 20
11.0
 30
0.0
 11
-19.000000000000057
 21
-13.000000000000014
 31
0.0
  0
LINE
  5
186
100
AcDbEntity
100
AcDbLine
  8
0
 62
256
370
-1
 48
1.0
  6
ByLayer
 10
4.9999999999999432
 20
4.9999999999999929
 30
0.0
 11
-16.000000000000057
 21
-16.0
 31
0.0
  0
LINE
  5
187
100
AcDbEntity
100
AcDbLine
  8
0
 62
256
370
-1
 48
1.0
  6
ByLayer
 10
-0.0000000000000568
 20
0.0
 30
0.0
 11
-3.0000000000000568
 21
3.0
 31
0.0
  0
LINE
  5
188
100
AcDbEntity
100
AcDbLine
  8
0
 62
256
370
-1
 48
1.0
  6
ByLayer
 10
-16.000000000000057
 20
-16.0
 30
0.0
 11
-19.000000000000057
 21
-13.000000000000014
 31
0.0
  0
LINE
  5
189
100
AcDbEntity
100
AcDbLine
  8
0
 62
256
370
-1
 48
1.0
  6
ByLayer
 10
-0.0000000000000568
 20
0.0
 30
0.0
 11
3.9999999999999432
 21
-2.0000000000000213
 31
0.0
  0
LINE
  5
18A
100
AcDbEntity
100
AcDbLine
  8
0
 62
256
370
-1
 48
1.0
  6
ByLayer
 10
-16.000000000000057
 20
-16.0
 30
0.0
 11
-12.000000000000057
 21
-18.0
 31
0.0
  0
LINE
  5
18B
100
AcDbEntity
100
AcDbLine
  8
0
 62
256
370
-1
 48
1.0
  6
ByLayer
 10
-12.000000000000057
 20
-18.0
 30
0.0
 11
3.9999999999999432
 21
-2.0000000000000213
 31
0.0
  0
LINE
  5
18C
100
AcDbEntity
100
AcDbLine
  8
0
 62
256
370
-1
 48
1.0
  6
ByLayer
 10
-3.0000000000000568
 20
3.0
 30
0.0
 11
-5.0000000000000568
 21
7.0
 31
0.0
  0
LINE
  5
18D
100
AcDbEntity
100
AcDbLine
  8
0
 62
256
370
-1
 48
1.0
  6
ByLayer
 10
-19.000000000000057
 20
-13.000000000000014
 30
0.0
 11
-21.000000000000057
 21
-9.0000000000000142
 31
0.0
  0
LINE
  5
18E
100
AcDbEntity
100
AcDbLine
  8
0
 62
256
370
-1
 48
1.0
  6
ByLayer
 10
-21.000000000000057
 20
-9.0000000000000142
 30
0.0
 11
-5.0000000000000568
 21
7.0
 31
0.0
  0
LINE
  5
18F
100
AcDbEntity
100
AcDbLine
  8
0
 62
256
370
-1
 48
1.0
  6
ByLayer
 10
-16.000000000000057
 20
-16.0
 30
0.0
 11
-18.000000000000057
 21
-18.0
 31
0.0
  0
LINE
  5
190
100
AcDbEntity
100
AcDbLine
  8
0
 62
256
370
-1
 48
1.0
  6
ByLayer
 10
-18.000000000000057
 20
-18.0
 30
0.0
 11
-21.000000000000057
 21
-15.0
 31
0.0
  0
LINE
  5
191
100
AcDbEntity
100
AcDbLine
  8
0
 62
256
370
-1
 48
1.0
  6
ByLayer
 10
-21.000000000000057
 20
-15.0
 30
0.0
 11
-19.000000000000057
 21
-13.000000000000014
 31
0.0
  0
LINE
  5
192
100
AcDbEntity
100
AcDbLine
  8
0
 62
256
370
-1
 48
1.0
  6
ByLayer
 10
-18.000000000000057
 20
-18.0
 30
0.0
 11
-15.000000000000057
 21
-21.0
 31
0.0
  0
LINE
  5
193
100
AcDbEntity
100
AcDbLine
  8
0
 62
256
370
-1
 48
1.0
  6
ByLayer
 10
-21.000000000000057
 20
-15.0
 30
0.0
 11
-24.000000000000057
 21
-12.000000000000014
 31
0.0
  0
LINE
  5
194
100
AcDbEntity
100
AcDbLine
  8
0
 62
256
370
-1
 48
1.0
  6
ByLayer
 10
-27.000000000000057
 20
-24.000000000000014
 30
0.0
 11
-15.000000000000057
 21
-21.0
 31
0.0
  0
LINE
  5
195
100
AcDbEntity
100
AcDbLine
  8
0
 62
256
370
-1
 48
1.0
  6
ByLayer
 10
-27.000000000000057
 20
-24.000000000000014
 30
0.0
 11
-24.000000000000057
 21
-12.000000000000014
 31
0.0
  0
LINE
  5
196
100
AcDbEntity
100
AcDbLine
  8
0
 62
256
370
-1
 48
1.0
  6
ByLayer
 10
-21.000000000000057
 20
-9.0000000000000142
 30
0.0
 11
-23.000000000000057
 21
-5.0000000000000142
 31
0.0
  0
LINE
  5
197
100
AcDbEntity
100
AcDbLine
  8
0
 62
256
370
-1
 48
1.0
  6
ByLayer
 10
-5.0000000000000568
 20
7.0
 30
0.0
 11
-7.0000000000000568
 21
11.0
 31
0.0
  0
LINE
  5
198
100
AcDbEntity
100
AcDbLine
  8
0
 62
256
370
-1
 48
1.0
  6
ByLayer
 10
-7.0000000000000568
 20
11.0
 30
0.0
 11
-23.000000000000057
 21
-5.0000000000000142
 31
0.0
  0
ENDBLK
  5
199
100
AcDbEntity
  8
0
100
AcDbBlockEnd
  0
BLOCK
  5
19A
100
AcDbEntity
  8
0
100
AcDbBlockBegin
  2
block 6
 70
0
 10
0.0
 20
0.0
 30
0.0
  3
block 6
  1

  0
LINE
  5
19B
100
AcDbEntity
100
AcDbLine
  8
0
 62
256
370
-1
 48
1.0
  6
ByLayer
 10
0.0
 20
0.0
 30
0.0
 11
2.0
 21
0.0
 31
0.0
  0
LINE
  5
19C
100
AcDbEntity
100
AcDbLine
  8
0
 62
256
370
-1
 48
1.0
  6
ByLayer
 10
2.0
 20
0.0
 30
0.0
 11
2.0
 21
-2.0
 31
0.0
  0
LINE
  5
19D
100
AcDbEntity
100
AcDbLine
  8
0
 62
256
370
-1
 48
1.0
  6
ByLayer
 10
2.0
 20
-2.0
 30
0.0
 11
-2.0
 21
-2.0
 31
0.0
  0
LINE
  5
19E
100
AcDbEntity
100
AcDbLine
  8
0
 62
256
370
-1
 48
1.0
  6
ByLayer
 10
-2.0
 20
-2.0
 30
0.0
 11
-2.0
 21
0.0
 31
0.0
  0
LINE
  5
19F
100
AcDbEntity
100
AcDbLine
  8
0
 62
256
370
-1
 48
1.0
  6
ByLayer
 10
-2.0
 20
0.0
 30
0.0
 11
0.0
 21
0.0
 31
0.0
  0
ENDBLK
  5
1A0
100
AcDbEntity
  8
0
100
AcDbBlockEnd
  0
BLOCK
  5
1A1
100
AcDbEntity
  8
0
100
AcDbBlockBegin
  2
block 7
 70
0
 10
0.0
 20
0.0
 30
0.0
  3
block 7
  1

  0
LINE
  5
1A2
100
AcDbEntity
100
AcDbLine
  8
0
 62
256
370
-1
 48
1.0
  6
ByLayer
 10
5.0
 20
0.0
 30
0.0
 11
5.0
 21
20.0
 31
0.0
  0
LINE
  5
1A3
100
AcDbEntity
100
AcDbLine
  8
0
 62
256
370
-1
 48
1.0
  6
ByLayer
 10
5.0
 20
20.0
 30
0.0
 11
26.991099999999989
 21
20.0
 31
0.0
  0
LINE
  5
1A4
100
AcDbEntity
100
AcDbLine
  8
0
 62
256
370
-1
 48
1.0
  6
ByLayer
 10
5.0
 20
0.0
 30
0.0
 11
26.991099999999989
 21
0.0
 31
0.0
  0
LINE
  5
1A5
100
AcDbEntity
100
AcDbLine
  8
0
 62
256
370
-1
 48
1.0
  6
ByLayer
 10
5.0
 20
20.0
 30
0.0
 11
0.0
 21
20.0
 31
0.0
  0
LINE
  5
1A6
100
AcDbEntity
100
AcDbLine
  8
0
 62
256
370
-1
 48
1.0
  6
ByLayer
 10
0.0
 20
20.0
 30
0.0
 11
0.0
 21
0.0
 31
0.0
  0
LINE
  5
1A7
100
AcDbEntity
100
AcDbLine
  8
0
 62
256
370
-1
 48
1.0
  6
ByLayer
 10
0.0
 20
0.0
 30
0.0
 11
5.0
 21
-0.0
 31
0.0
  0
LINE
  5
1A8
100
AcDbEntity
100
AcDbLine
  8
0
 62
256
370
-1
 48
1.0
  6
ByLayer
 10
26.991099999999989
 20
0.0
 30
0.0
 11
26.991099999999989
 21
20.0
 31
0.0
  0
CIRCLE
  5
1A9
100
AcDbEntity
100
AcDbCircle
  8
0
 62
256
370
-1
 48
1.0
  6
ByLayer
 10
10.0
 20
-3.5
 30
0.0
 40
3.5
  0
CIRCLE
  5
1AA
100
AcDbEntity
100
AcDbCircle
  8
0
 62
256
370
-1
 48
1.0
  6
ByLayer
 10
10.0
 20
-3.5
 30
0.0
 40
1.5
  0
INSERT
  5
1AB
100
AcDbEntity
100
AcDbBlockReference
  8
0
 62
256
370
-1
 48
1.0
  6
ByLayer
  2
block 6
 10
10.0
 20
-7.0
 30
0.0
  0
INSERT
  5
1AC
100
AcDbEntity
100
AcDbBlockReference
  8
0
 62
256
370
-1
 48
1.0
  6
ByLayer
  2
block 6
 10
13.49110544940757
 20
-3.2506353250423112
 30
0.0
 50
90.0
  0
INSERT
  5
1AD
100
AcDbEntity
100
AcDbBlockReference
  8
0
 62
256
370
-1
 48
1.0
  6
ByLayer
  2
block 6
 10
6.5
 20
-3.5
 30
0.0
 50
270.0
  0
ENDBLK
  5
1AE
100
AcDbEntity
  8
0
100
AcDbBlockEnd
  0
BLOCK
  5
1AF
100
AcDbEntity
  8
0
100
AcDbBlockBegin
  2
18640
 70
0
 10
0.0
 20
0.0
 30
0.0
  3
18640
  1

  0
LINE
  5
1B0
100
AcDbEntity
100
AcDbLine
  8
0
 62
256
370
-1
 48
1.0
  6
ByLayer
 10
37.068583382308141
 20
60.0
 30
0.0
 11
37.06858338230812
 21
-4.9999999999999867
 31
0.0
  0
LINE
  5
1B1
100
AcDbEntity
100
AcDbLine
  8
0
 62
256
370
-1
 48
1.0
  6
ByLayer
 10
79.480084382308149
 20
60.0
 30
0.0
 11
79.480084382308121
 21
-4.9999999999999947
 31
0.0
  0
LINE
  5
1B2
100
AcDbEntity
100
AcDbLine
  8
0
 62
256
370
-1
 48
1.0
  6
ByLayer
 10
79.480084382308121
 20
-4.9999999999999947
 30
0.0
 11
37.068583382308141
 21
59.999999999999993
 31
0.0
  0
LINE
  5
1B3
100
AcDbEntity
100
AcDbLine
  8
0
 62
256
370
-1
 48
1.0
  6
ByLayer
 10
79.480084382308135
 20
59.999999999999993
 30
0.0
 11
37.06858338230812
 21
-4.9999999999999867
 31
0.0
  0
LINE
  5
1B4
100
AcDbEntity
100
AcDbLine
  8
0
 62
256
370
-1
 48
1.0
  6
ByLayer
 10
58.274333882308142
 20
28.0
 30
0.0
 11
58.274333882308142
 21
60.0
 31
0.0
  0
LINE
  5
1B5
100
AcDbEntity
100
AcDbLine
  8
0
 62
256
370
-1
 48
1.0
  6
ByLayer
 10
58.274333882308142
 20
28.000000000000011
 30
0.0
 11
58.274333882308134
 21
-5.0000000000000036
 31
0.0
  0
LINE
  5
1B6
100
AcDbEntity
100
AcDbLine
  8
0
 62
256
370
-1
 48
1.0
  6
ByLayer
 10
58.274333882308134
 20
-4.9999999999999893
 30
0.0
 11
67.274333882308127
 21
-4.9999999999999893
 31
0.0
  0
LINE
  5
1B7
100
AcDbEntity
100
AcDbLine
  8
0
 62
256
370
-1
 48
1.0
  6
ByLayer
 10
67.274333882308127
 20
-5.0
 30
0.0
 11
67.274333882308127
 21
60.0
 31
0.0
  0
LINE
  5
1B8
100
AcDbEntity
100
AcDbLine
  8
0
 62
256
370
-1
 48
1.0
  6
ByLayer
 10
58.27433388230812
 20
-4.9999999999999893
 30
0.0
 11
49.27433388230812
 21
-4.9999999999999885
 31
0.0
  0
LINE
  5
1B9
100
AcDbEntity
100
AcDbLine
  8
0
 62
256
370
-1
 48
1.0
  6
ByLayer
 10
49.274333882308134
 20
-4.9999999999999991
 30
0.0
 11
49.274333882308142
 21
60.0
 31
0.0
  0
LINE
  5
1BA
100
AcDbEntity
100
AcDbLine
  8
0
 62
256
370
-1
 48
1.0
  6
ByLayer
 10
58.274333882308149
 20
69.0
 30
0.0
 11
49.274333882308149
 21
69.0
 31
0.0
  0
LINE
  5
1BB
100
AcDbEntity
100
AcDbLine
  8
0
 62
256
370
-1
 48
1.0
  6
ByLayer
 10
49.274333882308149
 20
69.0
 30
0.0
 11
67.274333882308156
 21
69.0
 31
0.0
  0
LINE
  5
1BC
100
AcDbEntity
100
AcDbLine
  8
0
 62
256
370
-1
 48
1.0
  6
ByLayer
 10
58.274333882308149
 20
78.0
 30
0.0
 11
58.274333882308149
 21
60.0
 31
0.0
  0
LINE
  5
1BD
100
AcDbEntity
100
AcDbLine
  8
0
 62
256
370
-1
 48
1.0
  6
ByLayer
 10
58.274333882308127
 20
-5.0
 30
0.0
 11
58.274333882308127
 21
-23.0
 31
0.0
  0
LINE
  5
1BE
100
AcDbEntity
100
AcDbLine
  8
0
 62
256
370
-1
 48
1.0
  6
ByLayer
 10
58.274333882308127
 20
-23.0
 30
0.0
 11
58.274333882308127
 21
-14.0
 31
0.0
  0
LINE
  5
1BF
100
AcDbEntity
100
AcDbLine
  8
0
 62
256
370
-1
 48
1.0
  6
ByLayer
 10
58.274333882308127
 20
-14.0
 30
0.0
 11
67.274333882308127
 21
-14.0
 31
0.0
  0
LINE
  5
1C0
100
AcDbEntity
100
AcDbLine
  8
0
 62
256
370
-1
 48
1.0
  6
ByLayer
 10
67.274333882308127
 20
-14.0
 30
0.0
 11
49.274333882308127
 21
-14.0
 31
0.0
  0
CIRCLE
  5
1C1
100
AcDbEntity
100
AcDbCircle
  8
0
 62
256
370
-1
 48
1.0
  6
ByLayer
 10
58.274333882308149
 20
69.0
 30
0.0
 40
9.0
  0
CIRCLE
  5
1C2
100
AcDbEntity
100
AcDbCircle
  8
0
 62
256
370
-1
 48
1.0
  6
ByLayer
 10
58.274333882308127
 20
-14.0
 30
0.0
 40
9.0
  0
LINE
  5
1C3
100
AcDbEntity
100
AcDbLine
  8
0
 62
256
370
-1
 48
1.0
  6
ByLayer
 10
67.274333882308127
 20
-5.0
 30
0.0
 11
67.274333882308127
 21
-14.0
 31
0.0
  0
LINE
  5
1C4
100
AcDbEntity
100
AcDbLine
  8
0
 62
256
370
-1
 48
1.0
  6
ByLayer
 10
49.274333882308134
 20
-5.0
 30
0.0
 11
49.27433388230812
 21
-14.0
 31
0.0
  0
LINE
  5
1C5
100
AcDbEntity
100
AcDbLine
  8
0
 62
256
370
-1
 48
1.0
  6
ByLayer
 10
67.274333882308127
 20
59.999999999999993
 30
0.0
 11
67.274333882308156
 21
69.0
 31
0.0
  0
LINE
  5
1C6
100
AcDbEntity
100
AcDbLine
  8
0
 62
256
370
-1
 48
1.0
  6
ByLayer
 10
49.274333882308134
 20
59.999999999999993
 30
0.0
 11
49.274333882308149
 21
69.0
 31
0.0
  0
LINE
  5
1C7
100
AcDbEntity
100
AcDbLine
  8
0
 62
256
370
-1
 48
1.0
  6
ByLayer
 10
58.274333882308142
 20
60.0
 30
0.0
 11
79.480084382308149
 21
60.0
 31
0.0
  0
LINE
  5
1C8
100
AcDbEntity
100
AcDbLine
  8
0
 62
256
370
-1
 48
1.0
  6
ByLayer
 10
58.274333882308142
 20
60.0
 30
0.0
 11
37.068583382308141
 21
60.0
 31
0.0
  0
LINE
  5
1C9
100
AcDbEntity
100
AcDbLine
  8
0
 62
256
370
-1
 48
1.0
  6
ByLayer
 10
58.27433388230812
 20
-4.9999999999999893
 30
0.0
 11
79.480084382308121
 21
-4.9999999999999947
 31
0.0
  0
LINE
  5
1CA
100
AcDbEntity
100
AcDbLine
  8
0
 62
256
370
-1
 48
1.0
  6
ByLayer
 10
58.27433388230812
 20
-4.9999999999999893
 30
0.0
 11
37.06858338230812
 21
-4.9999999999999867
 31
0.0
  0
LINE
  5
1CB
100
AcDbEntity
100
AcDbLine
  8
0
 62
256
370
-1
 48
1.0
  6
ByLayer
 10
77.625
 20
8.0
 30
0.0
 11
55.0
 21
8.0
 31
0.0
  0
LINE
  5
1CC
100
AcDbEntity
100
AcDbLine
  8
0
 62
256
370
-1
 48
1.0
  6
ByLayer
 10
83.342933882308145
 20
34.0
 30
0.0
 11
58.274333882308142
 21
34.0
 31
0.0
  0
LINE
  5
1CD
100
AcDbEntity
100
AcDbLine
  8
0
 62
256
370
-1
 48
1.0
  6
ByLayer
 10
58.274333882308142
 20
47.0
 30
0.0
 11
83.342933882308145
 21
47.0
 31
0.0
  0
LINE
  5
1CE
100
AcDbEntity
100
AcDbLine
  8
0
 62
256
370
-1
 48
1.0
  6
ByLayer
 10
58.274333882308142
 20
47.0
 30
0.0
 11
33.205733882308138
 21
47.0
 31
0.0
  0
LINE
  5
1CF
100
AcDbEntity
100
AcDbLine
  8
0
 62
256
370
-1
 48
1.0
  6
ByLayer
 10
58.274333882308142
 20
34.0
 30
0.0
 11
33.205733882308138
 21
34.0
 31
0.0
  0
LINE
  5
1D0
100
AcDbEntity
100
AcDbLine
  8
0
 62
256
370
-1
 48
1.0
  6
ByLayer
 10
58.274333882308134
 20
7.9999999999999991
 30
0.0
 11
83.342933882308131
 21
7.9999999999999991
 31
0.0
  0
LINE
  5
1D1
100
AcDbEntity
100
AcDbLine
  8
0
 62
256
370
-1
 48
1.0
  6
ByLayer
 10
58.274333882308134
 20
8.0
 30
0.0
 11
33.205733882308138
 21
8.0000000000000036
 31
0.0
  0
LINE
  5
1D2
100
AcDbEntity
100
AcDbLine
  8
0
 62
256
370
-1
 48
1.0
  6
ByLayer
 10
58.274333882308142
 20
21.0
 30
0.0
 11
83.342933882308145
 21
21.0
 31
0.0
  0
LINE
  5
1D3
100
AcDbEntity
100
AcDbLine
  8
0
 62
256
370
-1
 48
1.0
  6
ByLayer
 10
58.274333882308142
 20
21.0
 30
0.0
 11
33.205733882308145
 21
21.000000000000004
 31
0.0
  0
LINE
  5
1D4
100
AcDbEntity
100
AcDbLine
  8
0
 62
256
370
-1
 48
1.0
  6
ByLayer
 10
79.342917441154071
 20
8.0
 30
0.0
 11
79.342917441154071
 21
21.0
 31
0.0
  0
LINE
  5
1D5
100
AcDbEntity
100
AcDbLine
  8
0
 62
256
370
-1
 48
1.0
  6
ByLayer
 10
79.342917441154071
 20
34.0
 30
0.0
 11
79.342917441154071
 21
47.0
 31
0.0
  0
LINE
  5
1D6
100
AcDbEntity
100
AcDbLine
  8
0
 62
256
370
-1
 48
1.0
  6
ByLayer
 10
37.205750323462219
 20
47.0
 30
0.0
 11
37.205750323462219
 21
34.0
 31
0.0
  0
LINE
  5
1D7
100
AcDbEntity
100
AcDbLine
  8
0
 62
256
370
-1
 48
1.0
  6
ByLayer
 10
37.205750323462226
 20
21.0
 30
0.0
 11
37.205750323462212
 21
8.0
 31
0.0
  0
LINE
  5
1D8
100
AcDbEntity
100
AcDbLine
  8
0
 62
256
370
-1
 48
1.0
  6
ByLayer
 10
83.342933882308145
 20
47.0
 30
0.0
 11
83.342933882308145
 21
34.0
 31
0.0
  0
LINE
  5
1D9
100
AcDbEntity
100
AcDbLine
  8
0
 62
256
370
-1
 48
1.0
  6
ByLayer
 10
33.205733882308138
 20
47.0
 30
0.0
 11
33.205733882308138
 21
34.0
 31
0.0
  0
LINE
  5
1DA
100
AcDbEntity
100
AcDbLine
  8
0
 62
256
370
-1
 48
1.0
  6
ByLayer
 10
83.342933882308131
 20
7.9999999999999991
 30
0.0
 11
83.342933882308145
 21
21.0
 31
0.0
  0
LINE
  5
1DB
100
AcDbEntity
100
AcDbLine
  8
0
 62
256
370
-1
 48
1.0
  6
ByLayer
 10
33.205733882308145
 20
21.000000000000004
 30
0.0
 11
33.205733882308138
 21
8.0000000000000036
 31
0.0
  0
LINE
  5
1DC
100
AcDbEntity
100
AcDbLine
  8
0
 62
256
370
-1
 48
1.0
  6
ByLayer
 10
67.274333882308127
 20
-4.999999999999992
 30
0.0
 11
76.274333882308127
 21
-4.9999999999999938
 31
0.0
  0
LINE
  5
1DD
100
AcDbEntity
100
AcDbLine
  8
0
 62
256
370
-1
 48
1.0
  6
ByLayer
 10
67.274333882308127
 20
-4.999999999999992
 30
0.0
 11
68.0
 21
-9.0
 31
0.0
  0
LINE
  5
1DE
100
AcDbEntity
100
AcDbLine
  8
0
 62
256
370
-1
 48
1.0
  6
ByLayer
 10
68.0
 20
-9.0
 30
0.0
 11
75.0
 21
-9.0
 31
0.0
  0
LINE
  5
1DF
100
AcDbEntity
100
AcDbLine
  8
0
 62
256
370
-1
 48
1.0
  6
ByLayer
 10
75.0
 20
-9.0
 30
0.0
 11
76.274333882308127
 21
-4.9999999999999938
 31
0.0
  0
LINE
  5
1E0
100
AcDbEntity
100
AcDbLine
  8
0
 62
256
370
-1
 48
1.0
  6
ByLayer
 10
49.274333882308127
 20
-4.9999999999999885
 30
0.0
 11
40.274333882308127
 21
-4.9999999999999876
 31
0.0
  0
LINE
  5
1E1
100
AcDbEntity
100
AcDbLine
  8
0
 62
256
370
-1
 48
1.0
  6
ByLayer
 10
40.274333882308127
 20
-4.9999999999999876
 30
0.0
 11
41.0
 21
-9.0
 31
0.0
  0
LINE
  5
1E2
100
AcDbEntity
100
AcDbLine
  8
0
 62
256
370
-1
 48
1.0
  6
ByLayer
 10
41.0
 20
-9.0
 30
0.0
 11
48.0
 21
-9.0
 31
0.0
  0
LINE
  5
1E3
100
AcDbEntity
100
AcDbLine
  8
0
 62
256
370
-1
 48
1.0
  6
ByLayer
 10
48.0
 20
-9.0
 30
0.0
 11
49.274333882308127
 21
-4.9999999999999885
 31
0.0
  0
LINE
  5
1E4
100
AcDbEntity
100
AcDbLine
  8
0
 62
256
370
-1
 48
1.0
  6
ByLayer
 10
67.274333882308142
 20
59.999999999999993
 30
0.0
 11
76.274333882308142
 21
59.999999999999993
 31
0.0
  0
LINE
  5
1E5
100
AcDbEntity
100
AcDbLine
  8
0
 62
256
370
-1
 48
1.0
  6
ByLayer
 10
76.274333882308142
 20
59.999999999999993
 30
0.0
 11
76.0
 21
64.0
 31
0.0
  0
LINE
  5
1E6
100
AcDbEntity
100
AcDbLine
  8
0
 62
256
370
-1
 48
1.0
  6
ByLayer
 10
76.0
 20
64.0
 30
0.0
 11
68.0
 21
64.0
 31
0.0
  0
LINE
  5
1E7
100
AcDbEntity
100
AcDbLine
  8
0
 62
256
370
-1
 48
1.0
  6
ByLayer
 10
68.0
 20
64.0
 30
0.0
 11
67.274333882308127
 21
59.999999999999993
 31
0.0
  0
LINE
  5
1E8
100
AcDbEntity
100
AcDbLine
  8
0
 62
256
370
-1
 48
1.0
  6
ByLayer
 10
49.274333882308134
 20
59.999999999999993
 30
0.0
 11
40.274333882308134
 21
59.999999999999993
 31
0.0
  0
LINE
  5
1E9
100
AcDbEntity
100
AcDbLine
  8
0
 62
256
370
-1
 48
1.0
  6
ByLayer
 10
49.274333882308142
 20
59.999999999999993
 30
0.0
 11
48.0
 21
64.0
 31
0.0
  0
LINE
  5
1EA
100
AcDbEntity
100
AcDbLine
  8
0
 62
256
370
-1
 48
1.0
  6
ByLayer
 10
48.0
 20
64.0
 30
0.0
 11
41.0
 21
64.0
 31
0.0
  0
LINE
  5
1EB
100
AcDbEntity
100
AcDbLine
  8
0
 62
256
370
-1
 48
1.0
  6
ByLayer
 10
41.0
 20
64.0
 30
0.0
 11
40.274333882308134
 21
59.999999999999993
 31
0.0
  0
LINE
  5
1EC
100
AcDbEntity
100
AcDbLine
  8
0
 62
256
370
-1
 48
1.0
  6
ByLayer
 10
76.274333882308142
 20
59.999999999999993
 30
0.0
 11
77.0
 21
64.0
 31
0.0
  0
LINE
  5
1ED
100
AcDbEntity
100
AcDbLine
  8
0
 62
256
370
-1
 48
1.0
  6
ByLayer
 10
79.480084382308135
 20
60.000000000000021
 30
0.0
 11
79.0
 21
64.0
 31
0.0
  0
LINE
  5
1EE
100
AcDbEntity
100
AcDbLine
  8
0
 62
256
370
-1
 48
1.0
  6
ByLayer
 10
79.0
 20
64.0
 30
0.0
 11
77.0
 21
64.0
 31
0.0
  0
LINE
  5
1EF
100
AcDbEntity
100
AcDbLine
  8
0
 62
256
370
-1
 48
1.0
  6
ByLayer
 10
37.068583382308127
 20
59.999999999999993
 30
0.0
 11
38.0
 21
64.0
 31
0.0
  0
LINE
  5
1F0
100
AcDbEntity
100
AcDbLine
  8
0
 62
256
370
-1
 48
1.0
  6
ByLayer
 10
38.0
 20
64.0
 30
0.0
 11
40.0
 21
64.0
 31
0.0
  0
LINE
  5
1F1
100
AcDbEntity
100
AcDbLine
  8
0
 62
256
370
-1
 48
1.0
  6
ByLayer
 10
40.0
 20
64.0
 30
0.0
 11
40.274333882308127
 21
59.999999999999993
 31
0.0
  0
LINE
  5
1F2
100
AcDbEntity
100
AcDbLine
  8
0
 62
256
370
-1
 48
1.0
  6
ByLayer
 10
76.274333882308142
 20
-4.9999999999999947
 30
0.0
 11
77.0
 21
-9.0
 31
0.0
  0
LINE
  5
1F3
100
AcDbEntity
100
AcDbLine
  8
0
 62
256
370
-1
 48
1.0
  6
ByLayer
 10
77.0
 20
-9.0
 30
0.0
 11
79.0
 21
-9.0
 31
0.0
  0
LINE
  5
1F4
100
AcDbEntity
100
AcDbLine
  8
0
 62
256
370
-1
 48
1.0
  6
ByLayer
 10
79.0
 20
-9.0
 30
0.0
 11
79.480084382308121
 21
-5.0000000000000053
 31
0.0
  0
LINE
  5
1F5
100
AcDbEntity
100
AcDbLine
  8
0
 62
256
370
-1
 48
1.0
  6
ByLayer
 10
40.27433388230812
 20
-4.9999999999999876
 30
0.0
 11
40.0
 21
-9.0
 31
0.0
  0
LINE
  5
1F6
100
AcDbEntity
100
AcDbLine
  8
0
 62
256
370
-1
 48
1.0
  6
ByLayer
 10
40.0
 20
-9.0
 30
0.0
 11
37.427730712772146
 21
-8.9999727485669574
 31
0.0
  0
LINE
  5
1F7
100
AcDbEntity
100
AcDbLine
  8
0
 62
256
370
-1
 48
1.0
  6
ByLayer
 10
37.427730712772146
 20
-8.9999727485669574
 30
0.0
 11
37.068583382308113
 21
-4.9999999999999867
 31
0.0
  0
ENDBLK
  5
1F8
100
AcDbEntity
  8
0
100
AcDbBlockEnd
  0
ENDSEC
  0
SECTION
  2
ENTITIES
  0
INSERT
  5
1F9
100
AcDbEntity
100
AcDbBlockReference
  8
0
 62
256
370
-1
 48
1.0
  6
ByLayer
  2
18640
 10
-96.369230769230697
 20
36.49538461538458
 30
0.0
  0
INSERT
  5
1FA
100
AcDbEntity
100
AcDbBlockReference
  8
drill
 62
256
370
-1
 48
1.0
  6
ByLayer
  2
Blok 1
 10
30.000000000000007
 20
87.0
 30
0.0
  0
INSERT
  5
1FB
100
AcDbEntity
100
AcDbBlockReference
  8
drill
 62
256
370
-1
 48
1.0
  6
ByLayer
  2
block 2
 10
90.0
 20
50.0
 30
0.0
  0
INSERT
  5
1FC
100
AcDbEntity
100
AcDbBlockReference
  8
drill
 62
256
370
-1
 48
1.0
  6
ByLayer
  2
block 3
 10
-2.0
 20
96.0
 30
0.0
  0
INSERT
  5
1FD
100
AcDbEntity
100
AcDbBlockReference
  8
drill
 62
256
370
-1
 48
1.0
  6
ByLayer
  2
block 4
 10
94.0
 20
-9.0
 30
0.0
  0
INSERT
  5
1FE
100
AcDbEntity
100
AcDbBlockReference
  8
drill
 62
256
370
-1
 48
1.0
  6
ByLayer
  2
block 5
 10
15.0
 20
-2.0
 30
0.0
  0
INSERT
  5
1FF
100
AcDbEntity
100
AcDbBlockReference
  8
0
 62
256
370
-1
 48
1.0
  6
ByLayer
  2
block 7
 10
-47.381538461538426
 20
-14.36615384615385
 30
0.0
  0
INSERT
  5
200
100
AcDbEntity
100
AcDbBlockReference
  8
0
 62
256
370
-1
 48
1.0
  6
ByLayer
  2
block 7
 10
94.983533496299188
 20
16.120314760232297
 30
0.0
  0
INSERT
  5
201
100
AcDbEntity
100
AcDbBlockReference
  8
0
 62
256
370
-1
 48
1.0
  6
ByLayer
  2
block 7
 10
33.407759137324852
 20
-23.593028829511255
 30
0.0
  0
INSERT
  5
202
100
AcDbEntity
100
AcDbBlockReference
  8
0
 62
256
370
-1
 48
1.0
  6
ByLayer
  2
block 7
 10
66.50445000000002
 20
84.5
 30
0.0
  0
ENDSEC
  0
SECTION
  2
OBJECTS
  0
DICTIONARY
  5
C
100
AcDbDictionary
280
0
281
1
  3
ACAD_GROUP
350
D
  3
ACAD_LAYOUT
350
1A
  3
ACAD_MLINESTYLE
350
17
  3
ACAD_PLOTSETTINGS
350
19
  3
ACAD_PLOTSTYLENAME
350
E
  3
AcDbVariableDictionary
350
203
  3
QCAD_OBJECTS
350
204
  0
DICTIONARY
  5
D
100
AcDbDictionary
280
0
281
1
  0
ACDBDICTIONARYWDFLT
  5
E
100
AcDbDictionary
281
1
  3
Normal
350
F
100
AcDbDictionaryWithDefault
340
F
  0
ACDBPLACEHOLDER
  5
F
  0
DICTIONARY
  5
17
100
AcDbDictionary
280
0
281
1
  3
Standard
350
18
  0
MLINESTYLE
  5
18
100
AcDbMlineStyle
  2
STANDARD
 70
0
  3

 62
256
 51
90.0
 52
90.0
 71
2
 49
0.5
 62
256
  6
BYLAYER
 49
-0.5
 62
256
  6
BYLAYER
  0
DICTIONARY
  5
19
100
AcDbDictionary
280
0
281
1
  0
DICTIONARY
  5
1A
100
AcDbDictionary
281
1
  3
Layout1
350
1E
  3
Layout2
350
26
  3
Model
350
22
  0
LAYOUT
  5
1E
100
AcDbPlotSettings
  1

  2
none_device
  4

  6

 40
0.0
 41
0.0
 42
0.0
 43
0.0
 44
0.0
 45
0.0
 46
0.0
 47
0.0
 48
0.0
 49
0.0
140
0.0
141
0.0
142
1.0
143
1.0
 70
688
 72
0
 73
0
 74
5
  7

 75
16
147
1.0
148
0.0
149
0.0
100
AcDbLayout
  1
Layout1
 70
1
 71
1
 10
0.0
 20
0.0
 11
420.0
 21
297.0
 12
0.0
 22
0.0
 32
0.0
 14
100000000000000000000.0
 24
100000000000000000000.0
 34
100000000000000000000.0
 15
-100000000000000000000.0
 25
-100000000000000000000.0
 35
-100000000000000000000.0
146
0.0
 13
0.0
 23
0.0
 33
0.0
 16
1.0
 26
0.0
 36
0.0
 17
0.0
 27
1.0
 37
0.0
 76
0
330
1B
  0
LAYOUT
  5
22
100
AcDbPlotSettings
  1

  2
none_device
  4

  6

 40
0.0
 41
0.0
 42
0.0
 43
0.0
 44
0.0
 45
0.0
 46
0.0
 47
0.0
 48
0.0
 49
0.0
140
0.0
141
0.0
142
1.0
143
1.0
 70
1712
 72
0
 73
0
 74
0
  7

 75
0
147
1.0
148
0.0
149
0.0
100
AcDbLayout
  1
Model
 70
1
 71
0
 10
0.0
 20
0.0
 11
12.0
 21
9.0
 12
0.0
 22
0.0
 32
0.0
 14
0.0
 24
0.0
 34
0.0
 15
0.0
 25
0.0
 35
0.0
146
0.0
 13
0.0
 23
0.0
 33
0.0
 16
1.0
 26
0.0
 36
0.0
 17
0.0
 27
1.0
 37
0.0
 76
0
330
1F
  0
LAYOUT
  5
26
100
AcDbPlotSettings
  1

  2
none_device
  4

  6

 40
0.0
 41
0.0
 42
0.0
 43
0.0
 44
0.0
 45
0.0
 46
0.0
 47
0.0
 48
0.0
 49
0.0
140
0.0
141
0.0
142
1.0
143
1.0
 70
688
 72
0
 73
0
 74
5
  7

 75
16
147
1.0
148
0.0
149
0.0
100
AcDbLayout
  1
Layout2
 70
1
 71
2
 10
0.0
 20
0.0
 11
12.0
 21
9.0
 12
0.0
 22
0.0
 32
0.0
 14
0.0
 24
0.0
 34
0.0
 15
0.0
 25
0.0
 35
0.0
146
0.0
 13
0.0
 23
0.0
 33
0.0
 16
1.0
 26
0.0
 36
0.0
 17
0.0
 27
1.0
 37
0.0
 76
0
330
23
  0
DICTIONARY
  5
203
100
AcDbDictionary
281
1
  3
DIMASSOC
350
206
  3
HIDETEXT
350
205
  0
DICTIONARYVAR
  5
205
100
DictionaryVariables
280
0
  1
2
  0
DICTIONARYVAR
  5
206
100
DictionaryVariables
280
0
  1
1
  0
DICTIONARY
  5
204
100
AcDbDictionary
281
1
  3
Grid/DisplayGrid00
350
207
  3
Grid/DisplayGrid01
350
208
  3
Grid/DisplayGrid02
350
209
  3
Grid/DisplayGrid03
350
20A
  3
Grid/GridSpacingX00
350
20B
  3
Grid/GridSpacingX01
350
20C
  3
Grid/GridSpacingX02
350
20D
  3
Grid/GridSpacingX03
350
20E
  3
Grid/GridSpacingY00
350
20F
  3
Grid/GridSpacingY01
350
210
  3
Grid/GridSpacingY02
350
211
  3
Grid/GridSpacingY03
350
212
  3
Grid/IsometricGrid00
350
213
  3
Grid/IsometricGrid01
350
214
  3
Grid/IsometricGrid02
350
215
  3
Grid/IsometricGrid03
350
216
  3
Grid/IsometricProjection00
350
217
  3
Grid/IsometricProjection01
350
218
  3
Grid/IsometricProjection02
350
219
  3
Grid/IsometricProjection03
350
21A
  3
Grid/MetaGridSpacingX00
350
21B
  3
Grid/MetaGridSpacingX01
350
21C
  3
Grid/MetaGridSpacingX02
350
21D
  3
Grid/MetaGridSpacingX03
350
21E
  3
Grid/MetaGridSpacingY00
350
21F
  3
Grid/MetaGridSpacingY01
350
220
  3
Grid/MetaGridSpacingY02
350
221
  3
Grid/MetaGridSpacingY03
350
222
  3
MultiPageSettings/Columns
350
223
  3
MultiPageSettings/GlueMarginsBottom
350
224
  3
MultiPageSettings/GlueMarginsLeft
350
225
  3
MultiPageSettings/GlueMarginsRight
350
226
  3
MultiPageSettings/GlueMarginsTop
350
227
  3
MultiPageSettings/PrintCropMarks
350
228
  3
MultiPageSettings/Rows
350
229
  3
PageSettings/OffsetX
350
22A
  3
PageSettings/OffsetY
350
22B
  3
PageSettings/PageOrientation
350
22C
  3
PageSettings/PaperHeight
350
22D
  3
PageSettings/PaperSizeName
350
22E
  3
PageSettings/PaperWidth
350
22F
  3
PageSettings/Scale
350
230
  3
PageSettings/ShowPaperBorders
350
231
  3
UnitSettings/PaperUnit
350
232
  0
XRECORD
  5
207
330
204
100
AcDbXrecord
280
1
290
1
  0
XRECORD
  5
208
330
204
100
AcDbXrecord
280
1
290
1
  0
XRECORD
  5
209
330
204
100
AcDbXrecord
280
1
290
1
  0
XRECORD
  5
20A
330
204
100
AcDbXrecord
280
1
290
1
  0
XRECORD
  5
20B
330
204
100
AcDbXrecord
280
1
1000
auto
  0
XRECORD
  5
20C
330
204
100
AcDbXrecord
280
1
1000
auto
  0
XRECORD
  5
20D
330
204
100
AcDbXrecord
280
1
1000
auto
  0
XRECORD
  5
20E
330
204
100
AcDbXrecord
280
1
1000
auto
  0
XRECORD
  5
20F
330
204
100
AcDbXrecord
280
1
1000
auto
  0
XRECORD
  5
210
330
204
100
AcDbXrecord
280
1
1000
auto
  0
XRECORD
  5
211
330
204
100
AcDbXrecord
280
1
1000
auto
  0
XRECORD
  5
212
330
204
100
AcDbXrecord
280
1
1000
auto
  0
XRECORD
  5
213
330
204
100
AcDbXrecord
280
1
290
0
  0
XRECORD
  5
214
330
204
100
AcDbXrecord
280
1
290
0
  0
XRECORD
  5
215
330
204
100
AcDbXrecord
280
1
290
0
  0
XRECORD
  5
216
330
204
100
AcDbXrecord
280
1
290
0
  0
XRECORD
  5
217
330
204
100
AcDbXrecord
280
1
 90
0
  0
XRECORD
  5
218
330
204
100
AcDbXrecord
280
1
 90
0
  0
XRECORD
  5
219
330
204
100
AcDbXrecord
280
1
 90
0
  0
XRECORD
  5
21A
330
204
100
AcDbXrecord
280
1
 90
0
  0
XRECORD
  5
21B
330
204
100
AcDbXrecord
280
1
1000
auto
  0
XRECORD
  5
21C
330
204
100
AcDbXrecord
280
1
1000
auto
  0
XRECORD
  5
21D
330
204
100
AcDbXrecord
280
1
1000
auto
  0
XRECORD
  5
21E
330
204
100
AcDbXrecord
280
1
1000
auto
  0
XRECORD
  5
21F
330
204
100
AcDbXrecord
280
1
1000
auto
  0
XRECORD
  5
220
330
204
100
AcDbXrecord
280
1
1000
auto
  0
XRECORD
  5
221
330
204
100
AcDbXrecord
280
1
1000
auto
  0
XRECORD
  5
222
330
204
100
AcDbXrecord
280
1
1000
auto
  0
XRECORD
  5
223
330
204
100
AcDbXrecord
280
1
 90
1
  0
XRECORD
  5
224
330
204
100
AcDbXrecord
280
1
 40
10.0
  0
XRECORD
  5
225
330
204
100
AcDbXrecord
280
1
 40
10.0
  0
XRECORD
  5
226
330
204
100
AcDbXrecord
280
1
 40
10.0
  0
XRECORD
  5
227
330
204
100
AcDbXrecord
280
1
 40
10.0
  0
XRECORD
  5
228
330
204
100
AcDbXrecord
280
1
290
0
  0
XRECORD
  5
229
330
204
100
AcDbXrecord
280
1
 90
1
  0
XRECORD
  5
22A
330
204
100
AcDbXrecord
280
1
 40
-119.0944316953117
  0
XRECORD
  5
22B
330
204
100
AcDbXrecord
280
1
 40
-64.048822107063344
  0
XRECORD
  5
22C
330
204
100
AcDbXrecord
280
1
1000
Landscape
  0
XRECORD
  5
22D
330
204
100
AcDbXrecord
280
1
1000
297
  0
XRECORD
  5
22E
330
204
100
AcDbXrecord
280
1
1000
ISO A4
  0
XRECORD
  5
22F
330
204
100
AcDbXrecord
280
1
1000
210
  0
XRECORD
  5
230
330
204
100
AcDbXrecord
280
1
1000
1:1
  0
XRECORD
  5
231
330
204
100
AcDbXrecord
280
1
290
1
  0
XRECORD
  5
232
330
204
100
AcDbXrecord
280
1
 90
4
  0
ENDSEC
  0
EOF
